<?xml version="1.0" encoding="UTF-8" standalone="no"?>
<!-- Created with Inkscape (http://www.inkscape.org/) -->

<svg
   version="1.1"
   id="svg182"
   width="317.63184"
   height="63.092026"
   viewBox="0 0 317.63184 63.092026"
   sodipodi:docname="images.png"
   xmlns:inkscape="http://www.inkscape.org/namespaces/inkscape"
   xmlns:sodipodi="http://sodipodi.sourceforge.net/DTD/sodipodi-0.dtd"
   xmlns="http://www.w3.org/2000/svg"
   xmlns:svg="http://www.w3.org/2000/svg">
  <defs
     id="defs186" />
  <sodipodi:namedview
     id="namedview184"
     pagecolor="#ffffff"
     bordercolor="#000000"
     borderopacity="0.25"
     inkscape:showpageshadow="2"
     inkscape:pageopacity="0.0"
     inkscape:pagecheckerboard="0"
     inkscape:deskcolor="#d1d1d1"
     showgrid="false" />
  <g
     inkscape:groupmode="layer"
     inkscape:label="Image"
     id="g188"
     transform="translate(81.62204,-129.2312)">
    <path
       style="fill:#9da083;fill-opacity:1"
       d="m -80.486957,161.16731 c 0.87482,-1.62511 3.36947,-4.75142 5.54366,-6.94734 3.72688,-3.76414 3.9534,-4.33894 3.95866,-10.04525 0.0112,-12.18161 3.12444,-17.08814 8.93573,-14.08301 1.98189,1.02488 5.79275,1.53035 11.53755,1.53035 7.6501,0 9.25128,0.34205 14.79966,3.16151 11.36027,5.77285 45.99851,13.49841 70.72148,15.77343 19.41245,1.78634 56.00495,1.08071 70.499997,-1.35947 2.58458,-0.4351 27.04046,-3.3391 43.14867,-5.12366 3.1847,-0.35282 5.79348,-1.2829 6.83906,-2.43825 2.4694,-2.72866 8.65046,-3.51057 12.40466,-1.5692 1.82146,0.94191 6.09775,1.68393 10.49601,1.82126 4.11995,0.12865 7.17316,0.63477 6.86241,1.13758 -0.30791,0.4982 -0.033,0.5802 0.61099,0.18221 0.64395,-0.39798 0.95235,-1.0771 0.68533,-1.50914 -1.05193,-1.70207 4.4092,-5.3387 8.35113,-5.56112 3.14788,-0.17762 4.43901,0.28756 6.09986,2.19771 1.78439,2.05223 2.5961,2.29785 5.30433,1.60508 5.43832,-1.39113 16.8677,-0.8268 21.18118,1.04582 3.13414,1.36063 3.66725,1.92947 2.5,2.66752 -1.1849,0.74921 -1.03768,0.94118 0.73118,0.95341 1.21815,0.008 2.69649,0.91531 3.28519,2.01531 0.69262,1.29417 0.71611,2 0.0666,2 -0.55209,0 -0.74577,0.67242 -0.4304,1.49426 0.31537,0.82184 0.97625,1.24528 1.46861,0.94098 0.49237,-0.3043 0.89522,0.0733 0.89522,0.83908 0,0.76579 -0.5625,1.44475 -1.25,1.50879 -0.6875,0.064 -1.925,0.20993 -2.75,0.3242 -3.15286,0.4367 -6.0927,-0.1483 -5.50708,-1.09585 0.34985,-0.56607 -0.0498,-0.73498 -0.93524,-0.39522 -0.85041,0.32633 -1.2374,1.10868 -0.85998,1.73855 0.37742,0.62987 -0.15942,0.47021 -1.19297,-0.35479 -1.7202,-1.37308 -1.81911,-1.33996 -1.16907,0.39145 0.57837,1.54051 0.45024,1.67575 -0.69063,0.72892 -1.11893,-0.92863 -1.52317,-0.70561 -2.00923,1.10856 -1.49495,5.57964 0.43755,11.07984 3.27646,9.3253 1.18066,-0.72969 3.683,2.84945 4.59879,6.57771 0.93774,3.81759 -2.67196,10.99398 -7.69075,15.28988 -5.12874,4.39001 -10.74804,6.08854 -16.28127,4.92128 -3.58211,-0.75566 -4.33576,-1.45583 -6.7844,-6.30301 -1.51504,-2.9991 -2.75463,-6.66117 -2.75463,-8.13792 0,-2.17145 -0.72056,-2.97332 -3.76731,-4.19239 -7.86926,-3.14865 -12.58741,-3.75941 -29.07527,-3.76378 -14.55048,-0.004 -19.25628,0.4201 -33.3012,3.00018 -29.084137,5.34282 -40.255037,6.16725 -74.596437,5.50532 -16.91788,-0.3261 -32.55978,-0.75954 -34.75978,-0.96321 -2.2,-0.20367 -11.6499996,-0.67785 -20.9999996,-1.05374 l -17.0000004,-0.68343 -12,4.03793 c -6.6,2.22086 -15.33432,5.24239 -19.40961,6.71451 -4.15744,1.5018 -8.54656,2.46384 -10,2.19186 -6.71964,-1.25741 -15.73366,-4.05581 -17.0356,-5.2887 -0.79486,-0.75271 -1.7614,-3.73964 -2.14787,-6.63764 -0.38647,-2.89799 -0.99328,-6.84408 -1.34846,-8.76908 -0.43488,-2.35693 -0.12631,-4.46499 0.9448,-6.45475 z"
       id="path972" />
  </g>
</svg>
