<?xml version="1.0" encoding="UTF-8" standalone="no"?>
<svg
   width="22"
   height="22"
   viewBox="0 0 22 22"
   fill="none"
   version="1.1"
   id="svg186"
   sodipodi:docname="cal_icon.svg"
   xmlns:inkscape="http://www.inkscape.org/namespaces/inkscape"
   xmlns:sodipodi="http://sodipodi.sourceforge.net/DTD/sodipodi-0.dtd"
   xmlns="http://www.w3.org/2000/svg"
   xmlns:svg="http://www.w3.org/2000/svg">
  <sodipodi:namedview
     id="namedview186"
     pagecolor="#ffffff"
     bordercolor="#000000"
     borderopacity="0.25"
     inkscape:showpageshadow="2"
     inkscape:pageopacity="0.0"
     inkscape:pagecheckerboard="0"
     inkscape:deskcolor="#d1d1d1"
     showgrid="false" />
  <defs
     id="defs190" />
  <path
     d="m 15.125,8.9375 c 0,-0.3797 0.3078,-0.6875 0.6875,-0.6875 h 1.375 c 0.3797,0 0.6875,0.3078 0.6875,0.6875 v 1.375 C 17.875,10.6922 17.5672,11 17.1875,11 h -1.375 C 15.4328,11 15.125,10.6922 15.125,10.3125 Z"
     fill="white"
     id="path182"
     style="fill:#ef8914;fill-opacity:1" />
  <path
     d="M 4.8125,0 C 5.1922,0 5.5,0.307804 5.5,0.6875 V 1.375 h 11 V 0.6875 C 16.5,0.307804 16.8078,0 17.1875,0 17.5672,0 17.875,0.307804 17.875,0.6875 V 1.375 h 1.375 c 1.5188,0 2.75,1.23122 2.75,2.75 V 19.25 C 22,20.7688 20.7688,22 19.25,22 H 2.75 C 1.23122,22 0,20.7688 0,19.25 V 4.125 C 0,2.60622 1.23122,1.375 2.75,1.375 H 4.125 V 0.6875 C 4.125,0.307804 4.4328,0 4.8125,0 Z M 1.375,5.5 v 13.75 c 0,0.7594 0.61561,1.375 1.375,1.375 h 16.5 c 0.7594,0 1.375,-0.6156 1.375,-1.375 V 5.5 Z"
     fill="white"
     id="path184"
     style="fill:#ef8914;fill-opacity:1" />
  <path
     style="fill:#e0e0e0;fill-opacity:1;stroke-width:0.186441;stroke-linecap:round;stroke-miterlimit:6"
     d="m 1.3651682,5.4397345 c -0.047152,4.7274925 -0.00673,9.4692765 -0.02021,14.2022645 0.2812478,0.633723 0.9186019,1.098869 1.6337228,1.013953 5.1755964,0.07965 10.353455,0.05372 15.529507,0.0164 0.675495,7.5e-4 1.4878,0.02369 1.895232,-0.632713 0.494344,-0.598002 0.149166,-1.452826 0.251622,-2.168829 0,-4.123605 0,-8.2472089 0,-12.370813 -0.45521,-0.2324889 -1.141372,-0.033938 -1.684703,-0.099957 -5.841808,0 -11.6836159,0 -17.5254238,0 z M 16.5,8.3033468 c 0.463225,0.019241 1.283046,-0.1242121 1.289245,0.5616889 -0.01803,0.6067622 0.233306,1.3298473 -0.14329,1.8614933 -0.373172,0.333549 -0.970422,0.09787 -1.425798,0.172923 -0.403151,0.03443 -0.951914,0.01555 -1.035438,-0.485174 C 15.172467,9.7698882 15.068732,9.0422596 15.366062,8.4575609 15.690488,8.2410747 16.127255,8.3290633 16.5,8.3033468 Z"
     id="path1839" />
</svg>
