<svg width="22" height="22" viewBox="0 0 22 22" fill="none" xmlns="http://www.w3.org/2000/svg">
<path d="M15.125 8.9375C15.125 8.5578 15.4328 8.25 15.8125 8.25H17.1875C17.5672 8.25 17.875 8.5578 17.875 8.9375V10.3125C17.875 10.6922 17.5672 11 17.1875 11H15.8125C15.4328 11 15.125 10.6922 15.125 10.3125V8.9375Z" fill="white"/>
<path d="M4.8125 0C5.1922 0 5.5 0.307804 5.5 0.6875V1.375H16.5V0.6875C16.5 0.307804 16.8078 0 17.1875 0C17.5672 0 17.875 0.307804 17.875 0.6875V1.375H19.25C20.7688 1.375 22 2.60622 22 4.125V19.25C22 20.7688 20.7688 22 19.25 22H2.75C1.23122 22 0 20.7688 0 19.25V4.125C0 2.60622 1.23122 1.375 2.75 1.375H4.125V0.6875C4.125 0.307804 4.4328 0 4.8125 0ZM1.375 5.5V19.25C1.375 20.0094 1.99061 20.625 2.75 20.625H19.25C20.0094 20.625 20.625 20.0094 20.625 19.25V5.5H1.375Z" fill="white"/>
</svg>
