<svg width="21" height="21" viewBox="0 0 21 21" fill="none" xmlns="http://www.w3.org/2000/svg">
<path d="M0 6.5625C0 9.74981 2.27225 12.4064 5.28522 13.0008C5.37249 12.0385 5.61955 11.1224 5.99964 10.2792C4.84919 9.8915 4.11088 9.00929 3.93614 7.75799H3.28125V7.1984H3.89248V6.62863C3.89248 6.56759 3.89248 6.50654 3.89793 6.45058H3.28125V5.89099H3.95251C4.24721 4.25291 5.52969 3.28125 7.45615 3.28125C7.87091 3.28125 8.23109 3.32195 8.53125 3.39317V4.35465C8.24201 4.28343 7.88728 4.24782 7.4616 4.24782C6.25552 4.24782 5.44237 4.85828 5.18588 5.89099H7.70173V6.45058H5.10402C5.09856 6.51163 5.09856 6.57776 5.09856 6.6439V7.1984H7.70173V7.75799H5.15859C5.31342 8.54821 5.77301 9.11064 6.47698 9.37088C7.84461 7.11071 10.2317 5.53637 13.0008 5.28522C12.4064 2.27225 9.74981 0 6.5625 0C2.93813 0 0 2.93813 0 6.5625ZM21 13.7812C21 17.7681 17.7681 21 13.7812 21C9.79444 21 6.5625 17.7681 6.5625 13.7812C6.5625 9.79444 9.79444 6.5625 13.7812 6.5625C17.7681 6.5625 21 9.79444 21 13.7812ZM10.8281 15.5165C10.9183 16.6116 11.8075 17.4652 13.4057 17.5663V18.375H14.1147V17.5607C15.767 17.4484 16.7344 16.5892 16.7344 15.3425C16.7344 14.2081 15.9953 13.624 14.6735 13.3208L14.1147 13.1916V10.9902C14.8237 11.0688 15.2743 11.4451 15.3825 11.9673H16.6262C16.5361 10.9116 15.6048 10.086 14.1147 9.99618V9.1875H13.4057V10.013C11.9938 10.1478 11.0324 10.9733 11.0324 12.1414C11.0324 13.1747 11.7474 13.8318 12.9371 14.1014L13.4057 14.2137V16.5499C12.6787 16.4432 12.198 16.0557 12.0899 15.5165H10.8281ZM13.3997 13.0287C12.7027 12.8715 12.3242 12.5514 12.3242 12.0684C12.3242 11.5293 12.7328 11.125 13.4057 11.007V13.0287H13.3997ZM14.2169 14.399C15.064 14.5899 15.4546 14.8988 15.4546 15.4435C15.4546 16.0669 14.9679 16.4937 14.1147 16.5723V14.3765L14.2169 14.399Z" fill="#2A4B57"/>
</svg>
