<svg width="24" height="23" viewBox="0 0 24 23" fill="none" xmlns="http://www.w3.org/2000/svg">
<path d="M4.01683 17.0976C4.33242 17.4009 4.49045 17.8232 4.44785 18.2496C4.35239 19.2051 4.13253 20.1995 3.85016 21.1233C5.94249 20.6599 7.22036 20.1223 7.80122 19.8402C8.13093 19.6801 8.51072 19.6423 8.86774 19.734C9.8545 19.9876 10.9061 20.125 12 20.125C17.9934 20.125 22.5 16.0892 22.5 11.5C22.5 6.91085 17.9934 2.875 12 2.875C6.0066 2.875 1.5 6.91085 1.5 11.5C1.5 13.6104 2.42596 15.5687 4.01683 17.0976ZM3.27734 22.711C3.26724 22.7129 3.25712 22.7148 3.24699 22.7167C3.10925 22.7427 2.96883 22.7683 2.82573 22.7935C2.62499 22.8287 2.41896 22.863 2.20758 22.8961C1.90906 22.943 1.68055 22.6437 1.79847 22.3767C1.87551 22.2023 1.95146 22.0195 2.02545 21.83C2.07246 21.7096 2.11867 21.5864 2.16388 21.461C2.16583 21.4556 2.16777 21.4502 2.16972 21.4448C2.54133 20.4102 2.84395 19.221 2.95468 18.1126C1.11459 16.3442 0 14.0313 0 11.5C0 5.94263 5.37258 1.4375 12 1.4375C18.6274 1.4375 24 5.94263 24 11.5C24 17.0574 18.6274 21.5625 12 21.5625C10.7749 21.5625 9.59262 21.4085 8.47926 21.1225C7.70005 21.5009 6.02151 22.1897 3.27734 22.711Z" fill="white"/>
</svg>
