<?xml version="1.0" encoding="UTF-8" standalone="no"?>
<!-- Created with Inkscape (http://www.inkscape.org/) -->

<svg
   version="1.1"
   id="svg182"
   width="141.75826"
   height="192.71255"
   viewBox="0 0 141.75826 192.71255"
   sodipodi:docname="coconut.png"
   xmlns:inkscape="http://www.inkscape.org/namespaces/inkscape"
   xmlns:sodipodi="http://sodipodi.sourceforge.net/DTD/sodipodi-0.dtd"
   xmlns="http://www.w3.org/2000/svg"
   xmlns:svg="http://www.w3.org/2000/svg">
  <defs
     id="defs186" />
  <sodipodi:namedview
     id="namedview184"
     pagecolor="#ffffff"
     bordercolor="#000000"
     borderopacity="0.25"
     inkscape:showpageshadow="2"
     inkscape:pageopacity="0.0"
     inkscape:pagecheckerboard="0"
     inkscape:deskcolor="#d1d1d1"
     showgrid="false" />
  <g
     inkscape:groupmode="layer"
     inkscape:label="Image"
     id="g188"
     transform="translate(-45.008869,-18)">
    <path
       style="fill:#9da083;fill-opacity:1"
       d="m 99.406778,209.57762 c -29.80043,-6.90086 -47.81042,-23.86977 -53.12119,-50.0505 -2.20059,-10.84836 -1.47268,-32.38116 1.53903,-45.52712 2.33597,-10.19636 9.24773,-31.270182 12.13521,-37.000002 3.48418,-6.91389 11.4801,-12.19471 23.54064,-15.54714 l 6.0937,-1.69384 -0.80015,-4.129511 C 87.724978,50.112192 87.733618,49 88.845518,49 c 0.5163,0 1.24322,2.030533 1.61539,4.512297 0.37216,2.481763 1.0552,4.746251 1.51786,5.032191 0.46266,0.28593 5.84861,0.0193 11.968792,-0.59256 8.13094,-0.81287 14.3759,-0.81603 23.18963,-0.0117 6.63412,0.60539 12.24717,0.91557 12.47345,0.68928 0.22629,-0.22628 2.84039,-9.080384 5.80913,-19.675783 2.96873,-10.595398 5.81999,-19.686661 6.33613,-20.202806 2.2053,-2.205298 5.37749,0.671383 17.90089,16.233298 7.2875,9.055648 13.2251,16.70129 13.19467,16.990316 -0.0304,0.289025 -1.36655,1.560735 -2.96916,2.826021 l -2.91384,2.300524 -10.28083,-12.957249 c -5.65446,-7.126489 -10.41864,-12.823921 -10.58707,-12.660963 -1.05699,1.022674 -8.15488,28.934262 -7.50057,29.495072 0.44374,0.38034 2.95566,1.48246 5.58205,2.44916 7.22322,2.65866 13.94526,7.61041 16.38913,12.07293 3.4171,6.23965 11.1237,29.703982 13.25636,40.361702 6.77283,33.84635 1.92231,57.38739 -15.38342,74.66045 -8.92367,8.90683 -17.34028,13.73391 -30.53732,17.51371 -9.66796,2.76903 -29.73071,3.57246 -38.500002,1.54176 z M 143.18831,97.123788 c 10.10098,-2.67155 15.48295,-5.10009 19.90305,-8.98099 4.35021,-3.81953 5.02788,-5.994 3.10523,-9.96384 -1.76156,-3.63721 -6.79311,-7.11585 -14.39317,-9.95092 l -5.60337,-2.09024 -1.05905,3.45071 c -0.9987,3.25406 -0.89362,3.53626 1.84394,4.95191 4.35613,2.25264 6.46935,5.96252 5.10369,8.95982 -4.36619,9.58272 -42.40373,13.47646 -62.868452,6.43556 -13.01192,-4.47676 -13.89866,-11.60039 -2.05384,-16.49946 4.29745,-1.77744 4.56008,-2.09838 4.02528,-4.91892 -0.31466,-1.65958 -0.70857,-3.18101 -0.87535,-3.38096 -0.16678,-0.19994 -3.41943,0.58298 -7.22812,1.73984 -8.0073,2.43214 -15.95742,7.41377 -18.15491,11.37606 -4.39336,7.92167 10.05954,17.18788 32.47354,20.81981 9.342132,1.513782 37.168862,0.32953 45.781532,-1.94838 z m -12.45754,-6.61444 c 0.20221,-0.20222 1.44869,-4.08601 2.76995,-8.63065 1.77822,-6.11645 2.09628,-8.45212 1.22434,-8.991 -2.42934,-1.50142 -20.52113,-2.17515 -30.1545,-1.12295 -5.409932,0.5909 -9.979752,1.22307 -10.155172,1.40481 -0.39539,0.40964 2.28207,15.95445 2.84496,16.51735 1.73143,1.73142 31.822052,2.47081 33.470422,0.82244 z m -37.327512,-8.5299 c -0.66233,-3.8613 -1.47151,-7.28781 -1.79817,-7.61447 -0.32665,-0.32666 -2.62163,0.38768 -5.09995,1.58741 -7.40357,3.58401 -7.08371,7.55167 0.90164,11.18413 7.03253,3.19903 7.37873,2.90129 5.99648,-5.15707 z m 52.420022,4.06315 c 5.00553,-2.55363 5.6868,-4.53021 2.61888,-7.59813 -3.72574,-3.72574 -4.9396,-3.08334 -6.7184,3.55553 -0.88419,3.3 -1.1868,6 -0.67246,6 0.51434,0 2.66173,-0.88083 4.77198,-1.9574 z m -35.4165,-16.69545 c 7.02577,-0.35404 14.88155,-0.15125 18.95154,0.48921 3.82335,0.60164 7.08116,0.96427 7.23959,0.80585 0.15842,-0.15842 0.56241,-1.65993 0.89777,-3.33669 0.599,-2.99501 0.52441,-3.06144 -4.23952,-3.77583 -6.1098,-0.91622 -27.43731,-0.9125 -34.789312,0.006 -4.43402,0.55397 -5.56007,1.05981 -5.56007,2.49765 0,3.5697 1.1862,5.15335 3.38791,4.52305 1.16165,-0.33256 7.512092,-0.87676 14.112092,-1.20934 z M 52.428008,46.387912 c -3.28833,-0.795004 -6.278,-1.770014 -6.64371,-2.166687 -0.36571,-0.396674 7.13966,-6.41811 16.67861,-13.380968 l 17.34354,-12.659744 -1.81605,4.659744 C 76.991568,25.403115 74.489168,32.1125 72.429488,37.75 L 68.684638,48 63.545708,47.91669 c -2.82641,-0.04582 -7.82938,-0.733771 -11.1177,-1.528775 z m 20.66962,0.522515 c 0.29037,-0.775735 2.69226,-7.317977 5.33752,-14.538317 l 4.80957,-13.127889 9.79585,11.61307 c 5.38772,6.387188 9.474182,11.921108 9.081032,12.297601 -1.49891,1.435403 -13.059792,3.910958 -21.133372,4.525335 -7.0112,0.533532 -8.33029,0.404842 -7.8906,-0.7698 z M 97.100248,29.936742 C 91.465878,23.371534 87.359908,18 87.975868,18 c 0.61595,0 9.90494,2.565464 20.642182,5.701032 l 19.52225,5.701031 -2.86676,2.30373 c -1.57672,1.267052 -6.25576,4.073122 -10.39787,6.235711 l -7.5311,3.931981 z"
       id="path417" />
  </g>
</svg>
