<svg width="51" height="51" viewBox="0 0 51 51" fill="none" xmlns="http://www.w3.org/2000/svg">
<circle cx="25.5" cy="25.5" r="25.5" fill="white"/>
<path d="M11.5 33.122V21.7595L23.7293 28.3344C24.8386 28.9308 26.1614 28.9308 27.2707 28.3344L39.5 21.7595V33.122C39.5 34.3122 39.4971 35.0609 39.427 35.6075C39.3619 36.1158 39.2625 36.22 39.2337 36.2502L39.2333 36.2506C39.2326 36.2514 39.2319 36.2522 39.231 36.253C39.209 36.2768 39.1286 36.3638 38.6917 36.4254C38.1876 36.4965 37.4904 36.5 36.35 36.5H14.65C13.5096 36.5 12.8124 36.4965 12.3083 36.4254C11.8714 36.3638 11.791 36.2768 11.769 36.253C11.7681 36.2522 11.7674 36.2514 11.7667 36.2506L11.7663 36.2502C11.7375 36.22 11.6381 36.1158 11.573 35.6075C11.5029 35.0609 11.5 34.3122 11.5 33.122ZM39.5 18.3534L25.8501 25.6921C25.6279 25.8115 25.3721 25.8115 25.1499 25.6921L11.5 18.3534V17.878C11.5 16.6878 11.5029 15.9391 11.573 15.3925C11.6381 14.8842 11.7375 14.78 11.7663 14.7498L11.7667 14.7494C11.7674 14.7486 11.7681 14.7478 11.769 14.747C11.791 14.7232 11.8714 14.6362 12.3083 14.5746C12.8124 14.5035 13.5096 14.5 14.65 14.5H36.35C37.4904 14.5 38.1876 14.5035 38.6917 14.5746C39.1286 14.6362 39.209 14.7232 39.231 14.747C39.2319 14.7478 39.2326 14.7486 39.2333 14.7494L39.2337 14.7498C39.2625 14.78 39.3619 14.8842 39.427 15.3925C39.4971 15.9391 39.5 16.6878 39.5 17.878V18.3534Z" stroke="#2A4B57" stroke-width="3"/>
</svg>
