<svg width="25" height="25" viewBox="0 0 25 25" fill="none" xmlns="http://www.w3.org/2000/svg">
<circle cx="12.5" cy="12.5" r="12.5" fill="white"/>
<path d="M4.05268 7.77766C4.26746 6.83139 5.11374 6.125 6.125 6.125H18.875C19.8863 6.125 20.7325 6.83139 20.9473 7.77766L12.5 12.9399L4.05268 7.77766ZM4 8.99065V16.5381L10.1659 12.7587L4 8.99065ZM11.184 13.3809L4.20386 17.6594C4.54464 18.378 5.27678 18.875 6.125 18.875H18.875C19.7232 18.875 20.4554 18.378 20.7961 17.6594L13.816 13.3809L12.5 14.1851L11.184 13.3809ZM14.8341 12.7587L21 16.5381V8.99065L14.8341 12.7587Z" fill="#2A4B57"/>
</svg>
