<?xml version="1.0" encoding="UTF-8" standalone="no"?>
<svg
   width="51"
   height="51"
   viewBox="0 0 51 51"
   fill="none"
   version="1.1"
   id="svg13"
   sodipodi:docname="Email Icon.svg"
   inkscape:version="1.2 (dc2aeda, 2022-05-15)"
   inkscape:export-filename="Email Icon.svg"
   inkscape:export-xdpi="96"
   inkscape:export-ydpi="96"
   xmlns:inkscape="http://www.inkscape.org/namespaces/inkscape"
   xmlns:sodipodi="http://sodipodi.sourceforge.net/DTD/sodipodi-0.dtd"
   xmlns="http://www.w3.org/2000/svg"
   xmlns:svg="http://www.w3.org/2000/svg">
  <defs
     id="defs17" />
  <sodipodi:namedview
     id="namedview15"
     pagecolor="#ffffff"
     bordercolor="#000000"
     borderopacity="0.25"
     inkscape:showpageshadow="2"
     inkscape:pageopacity="0.0"
     inkscape:pagecheckerboard="0"
     inkscape:deskcolor="#d1d1d1"
     showgrid="false"
     inkscape:zoom="8.5461347"
     inkscape:cx="26.50321"
     inkscape:cy="22.466297"
     inkscape:window-width="1440"
     inkscape:window-height="900"
     inkscape:window-x="0"
     inkscape:window-y="0"
     inkscape:window-maximized="0"
     inkscape:current-layer="svg13" />
  <circle
     cx="25.5"
     cy="25.5"
     r="25.5"
     fill="#9DA083"
     id="circle9" />
  <path
     d="M11 33.122V20.923L23.9661 27.894C24.9275 28.4109 26.0725 28.4109 27.0339 27.894L40 20.923V33.122C40 34.2987 39.9981 35.0853 39.923 35.6711C39.851 36.2328 39.7276 36.4567 39.5952 36.5956C39.4692 36.7278 39.2747 36.8481 38.7615 36.9205C38.2144 36.9977 37.4756 37 36.35 37H14.65C13.5244 37 12.7856 36.9977 12.2385 36.9205C11.7253 36.8481 11.5308 36.7278 11.4048 36.5956C11.2724 36.4567 11.149 36.2328 11.077 35.6711C11.0019 35.0853 11 34.2987 11 33.122ZM40 18.6523L26.0869 26.1324C25.7168 26.3314 25.2832 26.3314 24.9131 26.1324L11 18.6523V17.878C11 16.7013 11.0019 15.9147 11.077 15.3289C11.149 14.7672 11.2724 14.5433 11.4048 14.4044C11.5308 14.2722 11.7253 14.1519 12.2385 14.0795C12.7856 14.0023 13.5244 14 14.65 14H36.35C37.4756 14 38.2144 14.0023 38.7615 14.0795C39.2747 14.1519 39.4692 14.2722 39.5952 14.4044C39.7276 14.5433 39.851 14.7672 39.923 15.3289C39.9981 15.9147 40 16.7013 40 17.878V18.6523Z"
     stroke="#2A4B57"
     stroke-width="2"
     id="path11"
     style="fill:#9da083;fill-opacity:1;stroke:#9da083;stroke-opacity:1" />
  <path
     style="fill:#2a4b57;stroke-width:0.136028"
     d="m 29.778026,13.21295 c -6.428079,0.01171 -12.856147,0.0287 -19.284221,0.04297 -0.9808226,0.256246 -0.425841,1.561827 -0.5702089,2.308058 0.08044,0.869908 -0.3573405,2.207257 0.7717409,2.50001 4.92526,2.743154 9.853046,5.47948 14.773856,8.231476 0.847072,0.146503 1.507843,-0.697228 2.275134,-0.977715 4.524421,-2.53103 9.080073,-5.014239 13.590178,-7.577316 0.588224,-0.666165 0.176608,-1.700629 0.283016,-2.532316 -0.01573,-0.709373 0.08886,-1.955055 -0.916698,-1.903825 -3.637221,-0.151189 -7.28323,-0.06911 -10.922797,-0.09134 z"
     id="path192" />
  <path
     style="fill:#2a4b57;stroke-width:0.136028"
     d="m 40.782318,22.27845 c -4.58604,2.513097 -9.097687,5.189007 -13.765226,7.53328 -1.348592,0.380657 -2.809763,0.143445 -3.964139,-0.681255 -4.156448,-2.204792 -8.211443,-4.622417 -12.381006,-6.792574 -1.0221293,-0.08509 -0.7102219,1.227342 -0.7781289,1.877848 -0.01583,4.654441 -0.1310569,9.316608 0.07236,13.966713 0.08532,1.040004 1.3291429,0.679777 2.0052629,0.752202 9.426144,0.03771 18.854639,0.131213 28.279706,-0.03178 0.570021,0.05991 1.313584,-0.156703 1.27117,-0.883371 0.201376,-5.069335 0.05896,-10.147975 0.103172,-15.220863 -0.04336,-0.434057 -0.450715,-0.702364 -0.843169,-0.520198 z"
     id="path194" />
</svg>
