<svg width="28" height="28" viewBox="0 0 28 28" fill="none" xmlns="http://www.w3.org/2000/svg">
<circle cx="14" cy="14" r="14" fill="white"/>
<path d="M23 14.055C23 9.05406 18.9706 5 14 5C9.02943 5 5 9.05406 5 14.055C5 18.5746 8.29117 22.3207 12.5938 23V16.6725H10.3086V14.055H12.5938V12.0601C12.5938 9.79066 13.9374 8.53711 15.9932 8.53711C16.9779 8.53711 18.0078 8.71397 18.0078 8.71397V10.9423H16.8729C15.7549 10.9423 15.4063 11.6403 15.4063 12.3564V14.055H17.9023L17.5033 16.6725H15.4063V23C19.7088 22.3207 23 18.5746 23 14.055Z" fill="#2A4B57"/>
</svg>
