<svg width="31" height="31" viewBox="0 0 31 31" fill="none" xmlns="http://www.w3.org/2000/svg">
<path d="M16 1.44338L27.4234 8.03868C27.7328 8.21731 27.9234 8.54743 27.9234 8.9047V22.0953C27.9234 22.4526 27.7328 22.7827 27.4234 22.9613L16 29.5566C15.6906 29.7353 15.3094 29.7353 15 29.5566L3.57661 22.9613C3.2672 22.7827 3.07661 22.4526 3.07661 22.0953V8.9047C3.07661 8.54743 3.2672 8.21731 3.57661 8.03868L15 1.44338C15.3094 1.26474 15.6906 1.26474 16 1.44338Z" fill="#D9D9D9" stroke="#EF8914" stroke-width="2"/>
<line x1="3.50387" y1="8.13622" x2="15.5039" y2="15.1362" stroke="#EF8914" stroke-width="2"/>
<line x1="27.4472" y1="8.89443" x2="15.4472" y2="14.8944" stroke="#EF8914" stroke-width="2"/>
<line x1="15.5" y1="15" x2="15.5" y2="29" stroke="#EF8914" stroke-width="2"/>
</svg>
