<svg width="51" height="51" viewBox="0 0 51 51" fill="none" xmlns="http://www.w3.org/2000/svg">
<circle cx="25.5" cy="25.5" r="25.5" fill="#9DA083"/>
<g clip-path="url(#clip0_306_105)">
<path fill-rule="evenodd" clip-rule="evenodd" d="M25.5137 9C16.382 9 9 16.4365 9 25.6364C9 32.9903 13.7299 39.2153 20.2916 41.4185C21.1119 41.5842 21.4125 41.0606 21.4125 40.6201C21.4125 40.2344 21.3854 38.9124 21.3854 37.535C16.7917 38.5268 15.8351 35.5518 15.8351 35.5518C15.0969 33.6238 14.003 33.1282 14.003 33.1282C12.4995 32.1091 14.1126 32.1091 14.1126 32.1091C15.7804 32.2193 16.6555 33.8168 16.6555 33.8168C18.1316 36.3506 20.5103 35.6347 21.4672 35.1939C21.6038 34.1197 22.0415 33.376 22.5063 32.9629C18.8425 32.5773 14.9877 31.1451 14.9877 24.7548C14.9877 22.9369 15.6435 21.4496 16.6825 20.2929C16.5186 19.8799 15.9443 18.1718 16.8468 15.8858C16.8468 15.8858 18.2411 15.445 21.3851 17.5935C22.7311 17.2293 24.1192 17.0441 25.5137 17.0425C26.908 17.0425 28.3294 17.2355 29.6419 17.5935C32.7862 15.445 34.1805 15.8858 34.1805 15.8858C35.083 18.1718 34.5084 19.8799 34.3444 20.2929C35.4109 21.4496 36.0396 22.9369 36.0396 24.7548C36.0396 31.1451 32.1848 32.5495 28.4936 32.9629C29.0953 33.4862 29.6145 34.4776 29.6145 36.0477C29.6145 38.2787 29.5875 40.0692 29.5875 40.6198C29.5875 41.0606 29.8883 41.5842 30.7084 41.4189C37.27 39.215 41.9999 32.9903 41.9999 25.6364C42.027 16.4365 34.6179 9 25.5137 9Z" fill="#2A4B57"/>
</g>
<defs>
<clipPath id="clip0_306_105">
<rect width="33" height="33" fill="white" transform="translate(9 9)"/>
</clipPath>
</defs>
</svg>
