<svg width="51" height="51" viewBox="0 0 51 51" fill="none" xmlns="http://www.w3.org/2000/svg">
<circle cx="25.5" cy="25.5" r="25.5" fill="#9DA083"/>
<path d="M38.7116 10H12.2884C11.6815 10 11.0994 10.2411 10.6703 10.6703C10.2411 11.0994 10 11.6815 10 12.2884V38.7116C10 39.3185 10.2411 39.9006 10.6703 40.3297C11.0994 40.7589 11.6815 41 12.2884 41H38.7116C39.3185 41 39.9006 40.7589 40.3297 40.3297C40.7589 39.9006 41 39.3185 41 38.7116V12.2884C41 11.6815 40.7589 11.0994 40.3297 10.6703C39.9006 10.2411 39.3185 10 38.7116 10ZM19.2397 36.4081H14.579V21.6035H19.2397V36.4081ZM16.9061 19.5519C16.3774 19.5489 15.8615 19.3894 15.4234 19.0934C14.9853 18.7975 14.6446 18.3784 14.4445 17.8891C14.2443 17.3998 14.1936 16.8621 14.2987 16.344C14.4038 15.8258 14.6601 15.3504 15.0351 14.9778C15.4102 14.6052 15.8872 14.352 16.406 14.2502C16.9248 14.1484 17.4621 14.2026 17.9501 14.4059C18.4382 14.6092 18.8551 14.9525 19.1482 15.3925C19.4413 15.8325 19.5975 16.3494 19.5971 16.8781C19.6021 17.2321 19.5357 17.5834 19.4021 17.9112C19.2684 18.239 19.0701 18.5365 18.8189 18.786C18.5678 19.0355 18.2691 19.2319 17.9404 19.3635C17.6118 19.4951 17.26 19.5591 16.9061 19.5519ZM36.4189 36.421H31.7603V28.3331C31.7603 25.9478 30.7463 25.2115 29.4374 25.2115C28.0553 25.2115 26.6991 26.2535 26.6991 28.3933V36.421H22.0383V21.6142H26.5204V23.6658H26.5807C27.0306 22.7552 28.6065 21.1988 31.0111 21.1988C33.6117 21.1988 36.421 22.7423 36.421 27.2631L36.4189 36.421Z" fill="#2A4B57"/>
</svg>
