<?xml version="1.0" encoding="UTF-8" standalone="no"?>
<!-- Created with Inkscape (http://www.inkscape.org/) -->

<svg
   version="1.1"
   id="svg182"
   width="148.95729"
   height="233.23502"
   viewBox="0 0 148.95729 233.23502"
   sodipodi:docname="location.png"
   xmlns:inkscape="http://www.inkscape.org/namespaces/inkscape"
   xmlns:sodipodi="http://sodipodi.sourceforge.net/DTD/sodipodi-0.dtd"
   xmlns="http://www.w3.org/2000/svg"
   xmlns:svg="http://www.w3.org/2000/svg">
  <defs
     id="defs186" />
  <sodipodi:namedview
     id="namedview184"
     pagecolor="#ffffff"
     bordercolor="#000000"
     borderopacity="0.25"
     inkscape:showpageshadow="2"
     inkscape:pageopacity="0.0"
     inkscape:pagecheckerboard="0"
     inkscape:deskcolor="#d1d1d1"
     showgrid="false" />
  <g
     inkscape:groupmode="layer"
     inkscape:label="Image"
     id="g188"
     transform="translate(-53.497528,-7.7146688)">
    <g
       id="g972"
       transform="matrix(0.93212056,0,0,0.91489852,8.6869517,7.6035557)"
       style="fill:#9da083;fill-opacity:1"
       inkscape:export-filename="location.svg"
       inkscape:export-xdpi="96"
       inkscape:export-ydpi="96">
      <path
         style="fill:#9da083;fill-opacity:1"
         d="M 121.40499,251.75 119.5,249.5 l 2.25,1.90499 c 2.11444,1.79022 2.70524,2.59501 1.90499,2.59501 -0.18976,0 -1.20226,-1.0125 -2.25,-2.25 z M 133.5,252 c 0.99549,-1.1 2.03498,-2 2.30998,-2 0.275,0 -0.31449,0.9 -1.30998,2 -0.99549,1.1 -2.03498,2 -2.30998,2 -0.275,0 0.31449,-0.9 1.30998,-2 z"
         id="path978" />
      <path
         style="fill:#9da083;fill-opacity:1"
         d="M 92.924314,114.25 90.5,111.5 l 2.75,2.42431 C 95.820289,116.1902 96.458588,117 95.674314,117 c -0.179127,0 -1.416627,-1.2375 -2.75,-2.75 z M 162,114.5 c 1.29175,-1.375 2.57363,-2.5 2.84863,-2.5 0.275,0 -0.55688,1.125 -1.84863,2.5 -1.29175,1.375 -2.57363,2.5 -2.84863,2.5 -0.275,0 0.55688,-1.125 1.84863,-2.5 z M 48.078947,76.416667 c 0.04798,-1.164943 0.284941,-1.4019 0.604167,-0.604167 0.288871,0.721875 0.253344,1.584375 -0.07895,1.916667 -0.332292,0.332291 -0.568641,-0.258334 -0.52522,-1.3125 z m 159.000003,0 c 0.048,-1.164943 0.28494,-1.4019 0.60416,-0.604167 0.28887,0.721875 0.25335,1.584375 -0.0789,1.916667 -0.3323,0.332291 -0.56864,-0.258334 -0.52522,-1.3125 z M 93,45.5 C 94.291745,44.125 95.573628,43 95.848628,43 96.123628,43 95.291745,44.125 94,45.5 92.708255,46.875 91.426372,48 91.151372,48 90.876372,48 91.708255,46.875 93,45.5 Z M 161.92431,45.25 159.5,42.5 l 2.75,2.424314 c 1.5125,1.333373 2.75,2.570873 2.75,2.75 0,0.784274 -0.8098,0.145975 -3.07569,-2.424314 z M 71,23.5 C 72.291745,22.125 73.573628,21 73.848628,21 74.123628,21 73.291745,22.125 72,23.5 70.708255,24.875 69.426372,26 69.151372,26 68.876372,26 69.708255,24.875 71,23.5 Z M 183.92431,23.25 181.5,20.5 l 2.75,2.424314 c 1.5125,1.333373 2.75,2.570873 2.75,2.75 0,0.784274 -0.8098,0.145975 -3.07569,-2.424314 z M 123.8125,0.31688596 c 0.72187,-0.28887061 1.58437,-0.25334429 1.91667,0.0789474 0.33229,0.33229167 -0.25834,0.56864035 -1.3125,0.5252193 -1.16495,-0.0479839 -1.4019,-0.2849403 -0.60417,-0.6041667 z m 7,0 c 0.72187,-0.28887061 1.58437,-0.25334429 1.91667,0.0789474 0.33229,0.33229167 -0.25834,0.56864035 -1.3125,0.5252193 -1.16495,-0.0479839 -1.4019,-0.2849403 -0.60417,-0.6041667 z"
         id="path976" />
      <path
         style="fill:#9da083;fill-opacity:1"
         d="M 120.56245,249.85824 C 101.61892,228.78847 67.432438,157.78663 54.5931,112.84662 50.269092,97.711806 48.793604,88.882873 48.853106,78.5 48.926247,65.737174 51.47859,55.483124 57.689436,43 61.687094,34.965143 63.887676,32.028385 71.95803,23.95803 80.028385,15.887676 82.965143,13.687094 91,9.6894359 c 13.15171,-6.5434943 22.66197,-8.80725932 37,-8.80725932 14.25939,0 23.73242,2.24529172 37,8.76972212 8.13198,3.9989593 10.87406,6.0524163 19.04197,14.2598973 8.04144,8.080401 10.28526,11.082136 14.26859,19.088204 13.02623,26.181295 11.86582,48.544682 -4.88194,94.08472 -16.39544,44.58199 -42.7366,95.80688 -57.99107,112.77352 -6.22544,6.92418 -8.64966,6.92418 -14.8751,0 z M 146.22477,125.1083 c 13.28948,-5.18396 23.70902,-16.49528 27.8976,-30.285271 2.79093,-9.18854 2.3186,-24.446756 -1.02303,-33.047795 -5.15657,-13.272522 -16.48129,-23.707495 -30.27631,-27.897605 -9.18854,-2.790934 -24.44676,-2.318598 -33.0478,1.023031 -13.272518,5.156569 -23.707491,16.481287 -27.897601,30.276311 -2.790934,9.18854 -2.318598,24.446756 1.023031,33.047795 4.983631,12.827394 15.472636,22.812194 28.87104,27.483214 5.83452,2.03406 8.18954,2.29835 17.7283,1.98955 8.37892,-0.27125 12.3641,-0.88821 16.72477,-2.58923 z"
         id="path974" />
    </g>
  </g>
</svg>
