<?xml version="1.0" encoding="UTF-8" standalone="no"?>
<svg
   width="59.873428"
   height="60.298443"
   viewBox="0 0 59.873428 60.298443"
   fill="none"
   version="1.1"
   id="svg7"
   xmlns="http://www.w3.org/2000/svg"
   xmlns:svg="http://www.w3.org/2000/svg">
  <defs
     id="defs7" />
  <path
     d="m 18.184929,26.40314 c -0.3571,-0.4213 -0.9881,-0.4734 -1.4094,-0.1163 -0.4214,0.3571 -0.4735,0.9881 -0.1164,1.4094 z m 41.6885,32.9604 c -2.2451,-4.2457 -3.6356,-6.4477 -4.9158,-7.9237 -1.2798,-1.4755 -2.4669,-2.2275 -4.041,-3.4802 l -1.2454,1.565 c 1.738,1.3831 2.6566,1.9356 3.7755,3.2257 1.1185,1.2896 2.4198,3.3142 4.6587,7.5481 z m -8.9568,-11.4039 c -0.9091,-0.7234 -2.8117,-1.8262 -5.1126,-3.0858 -2.3321,-1.2767 -5.171,-2.766 -8.0151,-4.2702 -2.8502,-1.5074 -5.708,-3.031 -8.0989,-4.3865 -2.4176,-1.3707 -4.2751,-2.5241 -5.1824,-3.295 l -1.2949,1.5242 c 1.0745,0.9129 3.0981,2.1541 5.4909,3.5106 2.4195,1.3718 5.3014,2.908 8.1502,4.4147 2.855,1.5099 5.6743,2.9889 7.9898,4.2565 2.3466,1.2846 4.0807,2.3021 4.8276,2.8965 z m -26.409,-15.0375 c -1.9817,-1.6837 -2.8303,-2.4589 -3.5399,-3.2238 -0.7365,-0.794 -1.301,-1.5467 -2.7828,-3.2952 l -1.5258,1.2931 c 1.3979,1.6495 2.0706,2.5303 2.8424,3.3622 0.7987,0.8611 1.7293,1.7042 3.7112,3.3879 z"
     fill="#AAAE8E"
     id="path1" />
  <path
     d="m 16.323929,25.29014 c 0.6485,0.8078 -0.1932,1.8677 -1.1202,1.4053 -1.8343,-0.9148 -3.909,-2.0337 -4.9796,-2.8984 -1.4247998,-1.1508 -5.2070998,-5.2304 -7.6565998,-7.9187 -0.6671,-0.7322 -0.0441,-1.653 0.842,-1.2104 3.1241,1.5601 6.8954998,4.0508 8.3845998,5.4185 1.0881,0.9994 2.99,3.2854 4.5298,5.2037 z"
     fill="#AAAE8E"
     id="path2" />
  <path
     d="m 24.298229,36.25584 c 0.8905,0.2429 0.9381,1.3868 0.0663,1.69 -2.5505,0.8872 -6.6559,2.0809 -10.3327,2.1032 -4.0317,0.0244 -10.0054998,-1.5444 -13.34379978,-2.5268 -0.8792,-0.2588 -0.9304,-1.4289 -0.0692,-1.7422 4.59839998,-1.6728 7.88519998,-1.7845 12.85909978,-1.5186 3.6939,0.1974 8.1036,1.2532 10.8203,1.9944 z"
     fill="#AAAE8E"
     id="path3" />
  <path
     d="m 23.873929,10.77894 c 0.0846,-0.9191998 1.2029,-1.1645998 1.6529,-0.3587 1.3165,2.3576 3.205,6.1934 3.8654,9.8104 0.7243,3.9663 0.2166,10.1218 -0.1712,13.58 -0.1022,0.9107 -1.2457,1.1643 -1.7038,0.3706 -2.4458,-4.238 -3.1265,-7.4555 -3.7284,-12.4001 -0.4471,-3.6721 -0.173,-8.1981 0.0851,-11.0022 z"
     fill="#AAAE8E"
     id="path4" />
  <path
     d="m 44.373229,42.36154 c -0.2063,0.9172 -1.4198,1.0421 -1.8019,0.1831 -1.4462,-3.2512 -3.7573,-8.7899 -4.0496,-11.5969 -0.3259,-3.1304 0.8401,-13.4618 1.4208,-18.2586 0.1087,-0.8978 1.1883,-1.1428 1.6032,-0.3392 2.6467,5.1248 4.8676,13.7996 4.9154,17.2989 0.0383,2.7986 -1.2713,9.0821 -2.0879,12.7127 z"
     fill="#AAAE8E"
     id="path5" />
  <path
     d="m 19.260129,24.35694 c 0.1724,1.0883 -1.2122,1.5585 -1.7273,0.5844 -1.3765,-2.6025 -2.931,-5.7238 -3.5739,-7.6781 -0.8586,-2.6097 -2.653,-11.0371998 -3.7223,-16.2071998 -0.2142,-1.03580002 0.8823,-1.47856002 1.3797,-0.54510002 2.3264,4.36570002 4.8792,10.55049982 5.6817,13.44509982 0.6016,2.1702 1.3862,6.7649 1.9621,10.4009 z"
     fill="#AAAE8E"
     id="path6" />
  <path
     d="m 40.001629,44.51224 c 0.9233,0.2066 1.0445,1.4302 0.176,1.8055 -3.2905,1.4222 -8.8606,3.6776 -11.6917,3.9556 -3.1669,0.3111 -13.6251,-0.8835 -18.4858,-1.4778 -0.9025998,-0.1104 -1.1416998,-1.1966 -0.3288998,-1.6042 5.1816998,-2.5985 13.9325998,-4.7598 17.4691998,-4.7938 2.8288,-0.0272 9.1797,1.291 12.8612,2.1147 z"
     fill="#AAAE8E"
     id="path7" />
</svg>
