<svg width="458" height="77" viewBox="0 0 458 77" fill="none" xmlns="http://www.w3.org/2000/svg">
<g clip-path="url(#clip0_94_79)">
<path d="M46.445 5.74359C29.4243 5.74359 15.6263 19.5998 15.6263 36.6923C15.6498 38.6586 15.8599 40.6183 16.2536 42.5446C16.6465 44.4665 -1.76635 64.1432 5.33417 61.5385C12.4931 58.9123 23.0526 57.7002 28.1989 61.5385C33.4771 65.475 39.8704 67.6133 46.445 67.641C63.4656 67.641 77.2636 53.7848 77.2636 36.6923C77.2636 19.5998 63.4656 5.74359 46.445 5.74359Z" fill="#D9D9D9" stroke="#2A4B57" stroke-width="4"/>
<path d="M33.8572 32.284L43.7742 38.0338C44.0428 38.1895 44.2082 38.4772 44.2082 38.7887V50.2882C44.2082 50.5997 44.0428 50.8875 43.7742 51.0432L33.8572 56.793C33.5886 56.9487 33.2576 56.9487 32.989 56.793L23.072 51.0432C22.8034 50.8875 22.6379 50.5997 22.6379 50.2882V38.7887C22.6379 38.4772 22.8034 38.1895 23.072 38.0338L32.989 32.284C33.2576 32.1282 33.5886 32.1282 33.8572 32.284Z" fill="white" stroke="#EF8914" stroke-width="2"/>
<path d="M23.0088 38.1187L33.4264 44.2213" stroke="#EF8914" stroke-width="2"/>
<path d="M43.7948 38.7797L33.3772 44.0105" stroke="#EF8914" stroke-width="2"/>
<path d="M33.4231 44.1025V56.3077" stroke="#EF8914" stroke-width="2"/>
<path d="M46.011 9.61729C46.2796 9.46155 46.6105 9.46155 46.8791 9.61729L56.7961 15.3671C57.0647 15.5228 57.2302 15.8105 57.2302 16.122V27.6215C57.2302 27.933 57.0647 28.2208 56.7961 28.3765L46.8791 34.1263C46.6105 34.282 46.2796 34.282 46.011 34.1263L36.094 28.3765C35.8254 28.2208 35.6599 27.933 35.6599 27.6215V16.122C35.6599 15.8105 35.8254 15.5228 36.094 15.3671L46.011 9.61729Z" fill="white" stroke="#EF8914" stroke-width="2"/>
<path d="M36.0308 15.4521L46.4483 21.5547" stroke="#EF8914" stroke-width="2"/>
<path d="M56.8167 16.113L46.3992 21.3438" stroke="#EF8914" stroke-width="2"/>
<path d="M46.4451 21.4359V33.641" stroke="#EF8914" stroke-width="2"/>
<path d="M59.9011 32.284L69.8181 38.0338C70.0867 38.1895 70.2522 38.4772 70.2522 38.7887V50.2882C70.2522 50.5997 70.0867 50.8875 69.8181 51.0432L59.9011 56.793C59.6325 56.9487 59.3016 56.9487 59.033 56.793L49.116 51.0432C48.8474 50.8875 48.6819 50.5997 48.6819 50.2882V38.7887C48.6819 38.4772 48.8474 38.1895 49.116 38.0338L59.033 32.284C59.3016 32.1282 59.6325 32.1282 59.9011 32.284Z" fill="white" stroke="#EF8914" stroke-width="2"/>
<path d="M49.0527 38.1187L59.4703 44.2213" stroke="#EF8914" stroke-width="2"/>
<path d="M69.8387 38.7797L59.4211 44.0105" stroke="#EF8914" stroke-width="2"/>
<path d="M59.467 44.1025V56.3077" stroke="#EF8914" stroke-width="2"/>
</g>
<path d="M92.0455 15.4545H104.182L117 46.7273H117.545L130.364 15.4545H142.5V62H132.955V31.7045H132.568L120.523 61.7727H114.023L101.977 31.5909H101.591V62H92.0455V15.4545ZM166.335 62.6818C162.744 62.6818 159.653 61.9545 157.062 60.5C154.487 59.0303 152.502 56.9545 151.108 54.2727C149.714 51.5758 149.017 48.3864 149.017 44.7045C149.017 41.1136 149.714 37.9621 151.108 35.25C152.502 32.5379 154.464 30.4242 156.994 28.9091C159.54 27.3939 162.525 26.6364 165.949 26.6364C168.252 26.6364 170.396 27.0076 172.381 27.75C174.381 28.4773 176.123 29.5758 177.608 31.0455C179.108 32.5152 180.275 34.3636 181.108 36.5909C181.941 38.803 182.358 41.3939 182.358 44.3636V47.0227H152.881V41.0227H173.244C173.244 39.6288 172.941 38.3939 172.335 37.3182C171.729 36.2424 170.888 35.4015 169.812 34.7955C168.752 34.1742 167.517 33.8636 166.108 33.8636C164.638 33.8636 163.335 34.2045 162.199 34.8864C161.078 35.553 160.199 36.4545 159.562 37.5909C158.926 38.7121 158.6 39.9621 158.585 41.3409V47.0455C158.585 48.7727 158.903 50.2652 159.54 51.5227C160.191 52.7803 161.108 53.75 162.29 54.4318C163.472 55.1136 164.873 55.4545 166.494 55.4545C167.57 55.4545 168.555 55.303 169.449 55C170.343 54.697 171.108 54.2424 171.744 53.6364C172.381 53.0303 172.866 52.2879 173.199 51.4091L182.153 52C181.699 54.1515 180.767 56.0303 179.358 57.6364C177.964 59.2273 176.161 60.4697 173.949 61.3636C171.752 62.2424 169.214 62.6818 166.335 62.6818ZM204.449 62.6818C200.873 62.6818 197.797 61.9242 195.222 60.4091C192.661 58.8788 190.691 56.7576 189.312 54.0455C187.949 51.3333 187.267 48.2121 187.267 44.6818C187.267 41.1061 187.956 37.9697 189.335 35.2727C190.729 32.5606 192.706 30.447 195.267 28.9318C197.828 27.4015 200.873 26.6364 204.403 26.6364C207.449 26.6364 210.116 27.1894 212.403 28.2955C214.691 29.4015 216.502 30.9545 217.835 32.9545C219.169 34.9545 219.903 37.303 220.04 40H210.903C210.646 38.2576 209.964 36.8561 208.858 35.7955C207.767 34.7197 206.335 34.1818 204.562 34.1818C203.062 34.1818 201.752 34.5909 200.631 35.4091C199.525 36.2121 198.661 37.3864 198.04 38.9318C197.419 40.4773 197.108 42.3485 197.108 44.5455C197.108 46.7727 197.411 48.6667 198.017 50.2273C198.638 51.7879 199.509 52.9773 200.631 53.7955C201.752 54.6136 203.062 55.0227 204.562 55.0227C205.669 55.0227 206.661 54.7955 207.54 54.3409C208.434 53.8864 209.169 53.2273 209.744 52.3636C210.335 51.4848 210.722 50.4318 210.903 49.2045H220.04C219.888 51.8712 219.161 54.2197 217.858 56.25C216.57 58.2652 214.79 59.8409 212.517 60.9773C210.244 62.1136 207.555 62.6818 204.449 62.6818ZM235.92 41.8182V62H226.239V15.4545H235.648V33.25H236.057C236.845 31.1894 238.117 29.5758 239.875 28.4091C241.633 27.2273 243.837 26.6364 246.489 26.6364C248.913 26.6364 251.027 27.1667 252.83 28.2273C254.648 29.2727 256.057 30.7803 257.057 32.75C258.072 34.7045 258.572 37.0455 258.557 39.7727V62H248.875V41.5C248.89 39.3485 248.345 37.6742 247.239 36.4773C246.148 35.2803 244.617 34.6818 242.648 34.6818C241.33 34.6818 240.163 34.9621 239.148 35.5227C238.148 36.0833 237.36 36.9015 236.784 37.9773C236.223 39.0379 235.936 40.3182 235.92 41.8182Z" fill="white"/>
<path d="M291.608 28.8409C291.426 27.0076 290.646 25.5833 289.267 24.5682C287.888 23.553 286.017 23.0455 283.653 23.0455C282.047 23.0455 280.691 23.2727 279.585 23.7273C278.479 24.1667 277.631 24.7803 277.04 25.5682C276.464 26.3561 276.176 27.25 276.176 28.25C276.146 29.0833 276.32 29.8106 276.699 30.4318C277.093 31.053 277.631 31.5909 278.312 32.0455C278.994 32.4848 279.782 32.8712 280.676 33.2045C281.57 33.5227 282.525 33.7955 283.54 34.0227L287.722 35.0227C289.752 35.4773 291.616 36.0833 293.312 36.8409C295.009 37.5985 296.479 38.5303 297.722 39.6364C298.964 40.7424 299.926 42.0455 300.608 43.5455C301.305 45.0455 301.661 46.7652 301.676 48.7045C301.661 51.553 300.934 54.0227 299.494 56.1136C298.07 58.1894 296.009 59.803 293.312 60.9545C290.631 62.0909 287.396 62.6591 283.608 62.6591C279.85 62.6591 276.578 62.0833 273.79 60.9318C271.017 59.7803 268.85 58.0758 267.29 55.8182C265.744 53.5455 264.934 50.7348 264.858 47.3864H274.381C274.487 48.947 274.934 50.25 275.722 51.2955C276.525 52.3258 277.593 53.1061 278.926 53.6364C280.275 54.1515 281.797 54.4091 283.494 54.4091C285.161 54.4091 286.608 54.1667 287.835 53.6818C289.078 53.197 290.04 52.5227 290.722 51.6591C291.403 50.7955 291.744 49.803 291.744 48.6818C291.744 47.6364 291.434 46.7576 290.812 46.0455C290.206 45.3333 289.313 44.7273 288.131 44.2273C286.964 43.7273 285.532 43.2727 283.835 42.8636L278.767 41.5909C274.843 40.6364 271.744 39.1439 269.472 37.1136C267.199 35.0833 266.07 32.3485 266.085 28.9091C266.07 26.0909 266.82 23.6288 268.335 21.5227C269.866 19.4167 271.964 17.7727 274.631 16.5909C277.297 15.4091 280.328 14.8182 283.722 14.8182C287.176 14.8182 290.191 15.4091 292.767 16.5909C295.358 17.7727 297.373 19.4167 298.812 21.5227C300.252 23.6288 300.994 26.0682 301.04 28.8409H291.608ZM308.114 75.0909V27.0909H317.659V32.9545H318.091C318.515 32.0152 319.129 31.0606 319.932 30.0909C320.75 29.1061 321.811 28.2879 323.114 27.6364C324.432 26.9697 326.068 26.6364 328.023 26.6364C330.568 26.6364 332.917 27.303 335.068 28.6364C337.22 29.9545 338.939 31.947 340.227 34.6136C341.515 37.2652 342.159 40.5909 342.159 44.5909C342.159 48.4848 341.53 51.7727 340.273 54.4545C339.03 57.1212 337.333 59.1439 335.182 60.5227C333.045 61.8864 330.652 62.5682 328 62.5682C326.121 62.5682 324.523 62.2576 323.205 61.6364C321.902 61.0152 320.833 60.2348 320 59.2955C319.167 58.3409 318.53 57.3788 318.091 56.4091H317.795V75.0909H308.114ZM317.591 44.5455C317.591 46.6212 317.879 48.4318 318.455 49.9773C319.03 51.5227 319.864 52.7273 320.955 53.5909C322.045 54.4394 323.371 54.8636 324.932 54.8636C326.508 54.8636 327.841 54.4318 328.932 53.5682C330.023 52.6894 330.848 51.4773 331.409 49.9318C331.985 48.3712 332.273 46.5758 332.273 44.5455C332.273 42.5303 331.992 40.7576 331.432 39.2273C330.871 37.697 330.045 36.5 328.955 35.6364C327.864 34.7727 326.523 34.3409 324.932 34.3409C323.356 34.3409 322.023 34.7576 320.932 35.5909C319.856 36.4242 319.03 37.6061 318.455 39.1364C317.879 40.6667 317.591 42.4697 317.591 44.5455ZM364.523 62.6818C360.932 62.6818 357.841 61.9545 355.25 60.5C352.674 59.0303 350.689 56.9545 349.295 54.2727C347.902 51.5758 347.205 48.3864 347.205 44.7045C347.205 41.1136 347.902 37.9621 349.295 35.25C350.689 32.5379 352.652 30.4242 355.182 28.9091C357.727 27.3939 360.712 26.6364 364.136 26.6364C366.439 26.6364 368.583 27.0076 370.568 27.75C372.568 28.4773 374.311 29.5758 375.795 31.0455C377.295 32.5152 378.462 34.3636 379.295 36.5909C380.129 38.803 380.545 41.3939 380.545 44.3636V47.0227H351.068V41.0227H371.432C371.432 39.6288 371.129 38.3939 370.523 37.3182C369.917 36.2424 369.076 35.4015 368 34.7955C366.939 34.1742 365.705 33.8636 364.295 33.8636C362.826 33.8636 361.523 34.2045 360.386 34.8864C359.265 35.553 358.386 36.4545 357.75 37.5909C357.114 38.7121 356.788 39.9621 356.773 41.3409V47.0455C356.773 48.7727 357.091 50.2652 357.727 51.5227C358.379 52.7803 359.295 53.75 360.477 54.4318C361.659 55.1136 363.061 55.4545 364.682 55.4545C365.758 55.4545 366.742 55.303 367.636 55C368.53 54.697 369.295 54.2424 369.932 53.6364C370.568 53.0303 371.053 52.2879 371.386 51.4091L380.341 52C379.886 54.1515 378.955 56.0303 377.545 57.6364C376.152 59.2273 374.348 60.4697 372.136 61.3636C369.939 62.2424 367.402 62.6818 364.523 62.6818ZM396.818 62.6591C394.591 62.6591 392.606 62.2727 390.864 61.5C389.121 60.7121 387.742 59.553 386.727 58.0227C385.727 56.4773 385.227 54.553 385.227 52.25C385.227 50.3106 385.583 48.6818 386.295 47.3636C387.008 46.0455 387.977 44.9848 389.205 44.1818C390.432 43.3788 391.826 42.7727 393.386 42.3636C394.962 41.9545 396.614 41.6667 398.341 41.5C400.371 41.2879 402.008 41.0909 403.25 40.9091C404.492 40.7121 405.394 40.4242 405.955 40.0455C406.515 39.6667 406.795 39.1061 406.795 38.3636V38.2273C406.795 36.7879 406.341 35.6742 405.432 34.8864C404.538 34.0985 403.265 33.7045 401.614 33.7045C399.871 33.7045 398.485 34.0909 397.455 34.8636C396.424 35.6212 395.742 36.5758 395.409 37.7273L386.455 37C386.909 34.8788 387.803 33.0455 389.136 31.5C390.47 29.9394 392.189 28.7424 394.295 27.9091C396.417 27.0606 398.871 26.6364 401.659 26.6364C403.598 26.6364 405.455 26.8636 407.227 27.3182C409.015 27.7727 410.598 28.4773 411.977 29.4318C413.371 30.3864 414.47 31.6136 415.273 33.1136C416.076 34.5985 416.477 36.3788 416.477 38.4545V62H407.295V57.1591H407.023C406.462 58.25 405.712 59.2121 404.773 60.0455C403.833 60.8636 402.705 61.5076 401.386 61.9773C400.068 62.4318 398.545 62.6591 396.818 62.6591ZM399.591 55.9773C401.015 55.9773 402.273 55.697 403.364 55.1364C404.455 54.5606 405.311 53.7879 405.932 52.8182C406.553 51.8485 406.864 50.75 406.864 49.5227V45.8182C406.561 46.0152 406.144 46.197 405.614 46.3636C405.098 46.5152 404.515 46.6591 403.864 46.7955C403.212 46.9167 402.561 47.0303 401.909 47.1364C401.258 47.2273 400.667 47.3106 400.136 47.3864C399 47.553 398.008 47.8182 397.159 48.1818C396.311 48.5455 395.652 49.0379 395.182 49.6591C394.712 50.2652 394.477 51.0227 394.477 51.9318C394.477 53.25 394.955 54.2576 395.909 54.9545C396.879 55.6364 398.106 55.9773 399.591 55.9773ZM432.761 51.9545L432.784 40.3409H434.193L445.375 27.0909H456.489L441.466 44.6364H439.17L432.761 51.9545ZM423.989 62V15.4545H433.67V62H423.989ZM445.807 62L435.534 46.7955L441.989 39.9545L457.148 62H445.807Z" fill="#EF8914"/>
<defs>
<clipPath id="clip0_94_79">
<rect width="79" height="68" fill="white" transform="translate(0 4)"/>
</clipPath>
</defs>
</svg>
