<?xml version="1.0" encoding="UTF-8" standalone="no"?>
<svg
   width="91"
   height="78"
   viewBox="0 0 91 78"
   fill="none"
   version="1.1"
   id="svg210"
   sodipodi:docname="mechspeaklogo.svg"
   inkscape:version="1.2 (dc2aeda, 2022-05-15)"
   xmlns:inkscape="http://www.inkscape.org/namespaces/inkscape"
   xmlns:sodipodi="http://sodipodi.sourceforge.net/DTD/sodipodi-0.dtd"
   xmlns="http://www.w3.org/2000/svg"
   xmlns:svg="http://www.w3.org/2000/svg">
  <defs
     id="defs214" />
  <sodipodi:namedview
     id="namedview212"
     pagecolor="#ffffff"
     bordercolor="#000000"
     borderopacity="0.25"
     inkscape:showpageshadow="2"
     inkscape:pageopacity="0.0"
     inkscape:pagecheckerboard="0"
     inkscape:deskcolor="#d1d1d1"
     showgrid="false"
     inkscape:zoom="5.2682727"
     inkscape:cx="39.576539"
     inkscape:cy="34.356612"
     inkscape:window-width="1440"
     inkscape:window-height="900"
     inkscape:window-x="0"
     inkscape:window-y="0"
     inkscape:window-maximized="0"
     inkscape:current-layer="svg210" />
  <path
     id="path182"
     style="stroke-width:4;stroke-dasharray:none;fill:#d9d9d9;fill-opacity:1;stroke:#2a4b57;stroke-opacity:1"
     d="M 53.5 2 A 35.5 35.5 0 0 0 18 37.5 A 35.5 35.5 0 0 0 18.722656 44.212891 L 6.1445312 66 L 32.482422 66 A 35.5 35.5 0 0 0 53.5 73 A 35.5 35.5 0 0 0 89 37.5 A 35.5 35.5 0 0 0 53.5 2 z " />
  <path
     d="M39 32.4434L50.4234 39.0387C50.7328 39.2173 50.9234 39.5474 50.9234 39.9047V53.0953C50.9234 53.4526 50.7328 53.7827 50.4234 53.9613L39 60.5566C38.6906 60.7353 38.3094 60.7353 38 60.5566L26.5766 53.9613C26.2672 53.7827 26.0766 53.4526 26.0766 53.0953V39.9047C26.0766 39.5474 26.2672 39.2173 26.5766 39.0387L38 32.4434C38.3094 32.2647 38.6906 32.2647 39 32.4434Z"
     fill="white"
     stroke="#EF8914"
     stroke-width="2"
     id="path186" />
  <line
     x1="26.5039"
     y1="39.1362"
     x2="38.5039"
     y2="46.1362"
     stroke="#EF8914"
     stroke-width="2"
     id="line188" />
  <line
     x1="50.4472"
     y1="39.8944"
     x2="38.4472"
     y2="45.8944"
     stroke="#EF8914"
     stroke-width="2"
     id="line190" />
  <line
     x1="38.5"
     y1="46"
     x2="38.5"
     y2="60"
     stroke="#EF8914"
     stroke-width="2"
     id="line192" />
  <path
     d="M53 6.44338C53.3094 6.26474 53.6906 6.26474 54 6.44338L65.4234 13.0387C65.7328 13.2173 65.9234 13.5474 65.9234 13.9047V27.0953C65.9234 27.4526 65.7328 27.7827 65.4234 27.9613L54 34.5566C53.6906 34.7353 53.3094 34.7353 53 34.5566L41.5766 27.9613C41.2672 27.7827 41.0766 27.4526 41.0766 27.0953V13.9047C41.0766 13.5474 41.2672 13.2173 41.5766 13.0387L53 6.44338Z"
     fill="white"
     stroke="#EF8914"
     stroke-width="2"
     id="path194" />
  <line
     x1="41.5039"
     y1="13.1362"
     x2="53.5039"
     y2="20.1362"
     stroke="#EF8914"
     stroke-width="2"
     id="line196" />
  <line
     x1="65.4472"
     y1="13.8944"
     x2="53.4472"
     y2="19.8944"
     stroke="#EF8914"
     stroke-width="2"
     id="line198" />
  <line
     x1="53.5"
     y1="20"
     x2="53.5"
     y2="34"
     stroke="#EF8914"
     stroke-width="2"
     id="line200" />
  <path
     d="M69 32.4434L80.4234 39.0387C80.7328 39.2173 80.9234 39.5474 80.9234 39.9047V53.0953C80.9234 53.4526 80.7328 53.7827 80.4234 53.9613L69 60.5566C68.6906 60.7353 68.3094 60.7353 68 60.5566L56.5766 53.9613C56.2672 53.7827 56.0766 53.4526 56.0766 53.0953V39.9047C56.0766 39.5474 56.2672 39.2173 56.5766 39.0387L68 32.4434C68.3094 32.2647 68.6906 32.2647 69 32.4434Z"
     fill="white"
     stroke="#EF8914"
     stroke-width="2"
     id="path202" />
  <line
     x1="56.5039"
     y1="39.1362"
     x2="68.5039"
     y2="46.1362"
     stroke="#EF8914"
     stroke-width="2"
     id="line204" />
  <line
     x1="80.4472"
     y1="39.8944"
     x2="68.4472"
     y2="45.8944"
     stroke="#EF8914"
     stroke-width="2"
     id="line206" />
  <line
     x1="68.5"
     y1="46"
     x2="68.5"
     y2="60"
     stroke="#EF8914"
     stroke-width="2"
     id="line208" />
</svg>
