<?xml version="1.0" encoding="UTF-8" standalone="no"?>
<svg
   width="993"
   height="162.99986"
   viewBox="0 0 993 162.99986"
   fill="none"
   version="1.1"
   id="svg205"
   sodipodi:docname="Mechspeaklogoandslogan.svg"
   inkscape:export-filename="Mechspeaklogoandslogan.png"
   inkscape:export-xdpi="96"
   inkscape:export-ydpi="96"
   inkscape:version="1.2 (dc2aeda, 2022-05-15)"
   xmlns:inkscape="http://www.inkscape.org/namespaces/inkscape"
   xmlns:sodipodi="http://sodipodi.sourceforge.net/DTD/sodipodi-0.dtd"
   xmlns="http://www.w3.org/2000/svg"
   xmlns:svg="http://www.w3.org/2000/svg">
  <sodipodi:namedview
     id="namedview207"
     pagecolor="#ffffff"
     bordercolor="#000000"
     borderopacity="0.25"
     inkscape:showpageshadow="2"
     inkscape:pageopacity="0.0"
     inkscape:pagecheckerboard="0"
     inkscape:deskcolor="#d1d1d1"
     showgrid="false"
     inkscape:zoom="0.56696453"
     inkscape:cx="298.9605"
     inkscape:cy="149.03931"
     inkscape:window-width="1440"
     inkscape:window-height="783"
     inkscape:window-x="0"
     inkscape:window-y="25"
     inkscape:window-maximized="0"
     inkscape:current-layer="svg205" />
  <g
     clip-path="url(#clip0_8_16)"
     id="g196"
     transform="translate(0,-1.3735e-4)">
    <path
       d="m 649.79,149.252 c 0,-7.956 0.105,-11.309 0.235,-7.452 0.13,3.857 0.13,10.367 10e-4,14.465 -0.129,4.099 -0.235,0.943 -0.236,-7.013 z M 992.726,81.9882 c 0,-40.973 0.087,-57.6283 0.194,-37.012 0.107,20.6163 0.107,54.1396 0,74.4958 -0.107,20.357 -0.194,3.489 -0.194,-37.4838 z M 319.978,138.743 c -10.823,-1.144 -19.084,-4.942 -25.262,-11.614 -7.063,-7.628 -9.928,-16.149 -9.769,-29.06 0.171,-13.9503 3.149,-22.2136 11.063,-30.7006 8.764,-9.3983 21.805,-13.0221 36.022,-10.0095 15.219,3.2251 24.287,14.6222 25.637,32.2236 0.168,2.1878 0.451,4.6172 0.63,5.3984 0.179,0.7816 0.129,3.3036 -0.112,5.6051 l -0.437,4.185 h -25.216 c -24.898,0 -25.216,0.017 -25.216,1.475 0,4.864 5.929,10.704 12.935,12.74 5.43,1.578 19.545,1.012 25.948,-1.041 2.487,-0.797 4.521,-1.381 4.521,-1.297 0,0.085 0.319,1.921 0.709,4.083 0.39,2.161 0.909,5.394 1.153,7.185 0.244,1.79 0.545,3.964 0.669,4.831 0.177,1.247 -0.372,1.815 -2.626,2.716 -6.231,2.493 -22.067,4.188 -30.649,3.28 z m 16.995,-50.4262 c -0.008,-2.6277 -1.565,-6.7246 -3.37,-8.8693 -3.097,-3.6806 -7,-5.2524 -12.216,-4.9203 -7.226,0.4604 -9.71,2.6074 -14.069,12.1622 -1.238,2.7159 -0.326,2.8931 14.89,2.8931 13.585,0 14.769,-0.1017 14.765,-1.2657 z m 69.286,50.4142 c -17.521,-2.043 -29.524,-13.007 -32.762,-29.925 -4.897,-25.5935 8.469,-48.0071 30.887,-51.7939 8.781,-1.4833 24.602,0.2332 29.384,3.1885 0.461,0.2853 -0.08,3.5857 -1.475,9.0042 l -2.202,8.5542 -4.765,-1.3209 c -13.656,-3.7859 -23.853,-0.1239 -28.533,10.2459 -1.146,2.5401 -1.483,4.8575 -1.526,10.4928 -0.067,8.7282 1.059,13.0332 4.445,16.9882 3.591,4.194 6.434,5.203 15.754,5.588 6.636,0.274 8.734,0.086 12.629,-1.149 2.569,-0.814 4.71,-1.411 4.758,-1.327 0.048,0.085 0.654,3.569 1.346,7.745 0.692,4.177 1.408,8.121 1.59,8.765 0.889,3.143 -17.939,6.296 -29.53,4.944 z m 162.009,0.234 c 1.285,-0.159 3.563,-0.162 5.064,-0.005 1.501,0.156 0.45,0.287 -2.335,0.29 -2.785,0.003 -4.013,-0.125 -2.729,-0.285 z m 185.93,0.043 c 0.498,-0.201 1.312,-0.201 1.809,0 0.497,0.201 0.09,0.365 -0.904,0.365 -0.995,0 -1.402,-0.164 -0.905,-0.365 z m 3.979,-0.017 c 0.696,-0.182 1.836,-0.182 2.532,0 0.696,0.182 0.126,0.331 -1.266,0.331 -1.393,0 -1.962,-0.149 -1.266,-0.331 z m -95.489,-0.724 c 0.697,-0.181 1.836,-0.181 2.532,0 0.696,0.182 0.127,0.331 -1.266,0.331 -1.392,0 -1.962,-0.149 -1.266,-0.331 z m 4.702,0.018 c 0.498,-0.201 1.312,-0.201 1.809,0 0.497,0.2 0.09,0.364 -0.904,0.364 -0.995,0 -1.402,-0.164 -0.905,-0.364 z m 79.62,-0.018 c 0.522,-0.209 1.146,-0.183 1.386,0.06 0.24,0.24 -0.187,0.412 -0.949,0.38 -0.843,-0.034 -1.014,-0.208 -0.437,-0.44 z m 95.091,-0.025 c 1.1,-0.167 2.728,-0.162 3.617,0.008 0.89,0.172 -0.008,0.308 -1.999,0.303 -1.989,-0.006 -2.717,-0.145 -1.618,-0.311 z m 9.802,-0.698 c 0.522,-0.209 1.146,-0.184 1.386,0.06 0.24,0.24 -0.187,0.412 -0.949,0.38 -0.843,-0.034 -1.015,-0.209 -0.437,-0.44 z m -699.725,-6.558 c 0.222,-6.718 0.82,-17.987 1.429,-26.941 0.5,-7.3526 0.977,-14.47 1.407,-20.975 0.197,-2.9835 0.536,-7.3773 0.753,-9.7641 0.218,-2.3867 0.546,-6.1296 0.731,-8.3176 0.516,-6.136 0.978,-10.867 1.447,-14.8269 0.236,-1.989 0.557,-4.7554 0.715,-6.1477 0.157,-1.3923 0.491,-3.9961 0.742,-5.7862 0.251,-1.7901 0.485,-3.6615 0.52,-4.1587 0.048,-0.6817 2.809,-0.9041 11.208,-0.9041 h 11.144 l 6.347,13.1995 c 3.49,7.2598 9.733,21.0923 13.872,30.7388 6.609,15.4026 9.051,19.8604 9.112,16.6351 0.032,-1.644 13.231,-31.7555 20.3,-46.3075 l 6.947,-14.3031 10.542,0.1999 10.541,0.199 0.17,1.8082 c 0.094,0.9944 0.358,3.2727 0.588,5.0628 0.62,4.8267 1.634,14.0932 2.215,20.2514 0.913,9.6622 2.108,25.2389 2.832,36.8865 0.9,14.4857 1.107,18.0667 1.403,24.2297 0.172,3.58 0.53,8.543 0.796,11.029 l 0.484,4.521 h -11.139 -11.138 l -0.08,-2.351 c -0.081,-2.386 -0.672,-16.108 -1.317,-30.558 -0.195,-4.375 -0.526,-10.8848 -0.737,-14.465 -0.21,-3.5801 -0.525,-9.1311 -0.7,-12.3355 -0.175,-3.2044 -0.619,-6.6219 -0.986,-7.5943 -0.793,-2.1012 0.378,-4.5579 -14.241,29.8747 l -10.057,23.6871 h -8.097 -8.097 L 190.458,96.9929 c -6.257,-14.619 -11.386,-26.9868 -11.399,-27.4841 -0.013,-0.4972 -0.4,-0.9041 -0.86,-0.9041 -1.037,0 -2.175,15.6513 -3.378,46.4693 l -0.869,22.241 H 162.96 151.968 Z m 299.273,-50.2612 0.185,-56.5901 9.766,-1.598 c 5.371,-0.8788 10.336,-1.6136 11.032,-1.6327 1.174,-0.0342 1.266,1.3332 1.266,18.8475 0,17.4557 0.093,18.8466 1.227,18.4116 3.881,-1.489 12.087,-2.078 17.976,-1.2903 8.09,1.0823 13.857,3.7068 18.092,8.2329 7.401,7.9113 8.251,12.6362 8.267,45.9903 l 0.012,26.219 h -10.851 -10.851 l -0.005,-22.602 c -0.008,-28.8497 -0.776,-33.8107 -5.825,-37.5724 -2.427,-1.8084 -8.716,-2.4131 -13.903,-1.3366 l -4.139,0.8591 v 30.3259 30.326 h -11.217 -11.217 z m 438.373,0.399 c -0.093,-31.104 0.077,-56.7038 0.374,-56.8883 0.491,-0.3041 0.486,40.4 -0.018,93.1895 -0.105,11.138 -0.263,-5.197 -0.356,-36.3012 z m 6.161,55.6542 c 2.884,-0.138 7.604,-0.138 10.489,0 2.885,0.137 0.525,0.249 -5.245,0.249 -5.769,0 -8.129,-0.112 -5.244,-0.249 z m 50.276,-0.002 c 3.481,-0.132 9.178,-0.132 12.659,0 3.482,0.133 0.634,0.241 -6.329,0.241 -6.963,0 -9.811,-0.108 -6.33,-0.241 z M 72.5336,104.406 c -4e-4,-11.9336 0.0987,-16.9171 0.2202,-11.0742 0.1215,5.8429 0.1218,15.6072 6e-4,21.6982 -0.1211,6.091 -0.2205,1.31 -0.2208,-10.624 z m 7.2351,-0.723 c -3e-4,-12.3319 0.0984,-17.4783 0.2192,-11.4368 0.1209,6.0416 0.1211,16.1308 5e-4,22.4208 -0.1205,6.291 -0.2193,1.347 -0.2197,-10.984 z m 755.4633,17.919 c 1.3,-0.162 3.253,-0.158 4.34,0.007 1.088,0.165 0.026,0.297 -2.364,0.293 -2.387,-0.004 -3.276,-0.14 -1.976,-0.3 z m -75.594,-1.424 c 0.704,-0.183 1.68,-0.171 2.17,0.026 0.489,0.198 -0.086,0.348 -1.28,0.333 -1.194,-0.017 -1.594,-0.175 -0.89,-0.359 z m -193.152,-0.741 c 1.1,-0.167 2.727,-0.162 3.617,0.008 0.89,0.172 -0.01,0.308 -1.999,0.303 -1.99,-0.006 -2.718,-0.146 -1.618,-0.311 z m 98.779,0.025 c 0.523,-0.209 1.147,-0.183 1.387,0.06 0.24,0.24 -0.187,0.412 -0.95,0.38 -0.842,-0.034 -1.014,-0.208 -0.437,-0.44 z m -15.46,-23.0116 c 0.001,-11.5361 0.101,-16.1542 0.223,-10.2624 0.121,5.8919 0.121,15.33 -10e-4,20.975 -0.122,5.644 -0.222,0.823 -0.222,-10.7126 z m 151.819,16.6346 c 0.008,-2.386 0.14,-3.276 0.3,-1.976 0.161,1.3 0.158,3.253 -0.007,4.34 -0.165,1.087 -0.296,0.026 -0.293,-2.364 z m 21.646,-0.361 c 0,-1.392 0.149,-1.962 0.331,-1.266 0.182,0.697 0.182,1.836 0,2.532 -0.182,0.696 -0.331,0.126 -0.331,-1.266 z m -212.604,-4.34 c 0,-2.983 0.127,-4.203 0.284,-2.712 0.156,1.492 0.156,3.933 0,5.425 -0.157,1.492 -0.284,0.27 -0.284,-2.713 z m 88.792,1.748 c 0.034,-0.842 0.206,-1.014 0.437,-0.436 0.21,0.522 0.183,1.146 -0.059,1.386 -0.241,0.24 -0.409,-0.187 -0.378,-0.95 z m 219.802,-0.844 -1.754,-1.989 1.989,1.754 c 1.094,0.964 1.99,1.859 1.99,1.989 0,0.567 -0.587,0.106 -2.225,-1.754 z m -94.711,-1.9 c 0,-0.15 0.57,-0.72 1.266,-1.266 1.147,-0.899 1.173,-0.874 0.273,0.274 -0.945,1.204 -1.539,1.587 -1.539,0.992 z m -124.311,-1.897 c 0,-0.994 0.164,-1.401 0.365,-0.904 0.201,0.497 0.201,1.311 0,1.808 -0.201,0.498 -0.365,0.091 -0.365,-0.904 z m 15.135,-0.422 c 0.034,-0.842 0.206,-1.014 0.437,-0.437 0.209,0.522 0.184,1.146 -0.06,1.386 -0.24,0.24 -0.408,-0.187 -0.377,-0.949 z M 36.3707,104.578 C 36.178,104.076 36.1072,94.2305 36.2135,82.6992 l 0.1931,-20.9658 0.3608,21.8791 c 0.1985,12.0336 0.2692,21.8795 0.1572,21.8785 -0.1119,0 -0.3612,-0.411 -0.5539,-0.913 z m 877.4493,-0.714 -1.378,-1.627 1.628,1.377 c 1.529,1.295 1.957,1.877 1.378,1.877 -0.138,0 -0.87,-0.732 -1.628,-1.627 z m -125.3,-0.904 c 0.017,-1.194 0.177,-1.594 0.361,-0.89 0.183,0.703 0.171,1.68 -0.026,2.169 -0.198,0.49 -0.35,-0.086 -0.335,-1.279 z m 49.593,-0.149 c 0.895,-0.172 2.36,-0.172 3.255,0 0.895,0.173 0.163,0.314 -1.628,0.314 -1.79,0 -2.522,-0.141 -1.627,-0.314 z m -254.887,-1.84 -1.378,-1.6273 1.628,1.3783 c 0.895,0.757 1.628,1.49 1.628,1.627 0,0.578 -0.583,0.151 -1.878,-1.378 z m 355.913,0 -1.378,-1.6273 1.628,1.3783 c 1.529,1.294 1.957,1.876 1.378,1.876 -0.138,0 -0.87,-0.732 -1.628,-1.627 z m -329.383,-0.964 c 0.035,-0.8426 0.206,-1.0143 0.437,-0.4377 0.209,0.5217 0.184,1.1457 -0.057,1.3867 -0.24,0.24 -0.411,-0.187 -0.38,-0.949 z m 68.78,-1.7482 c 0,-0.9945 0.165,-1.4013 0.365,-0.9042 0.201,0.4972 0.201,1.311 0,1.8082 -0.2,0.4972 -0.365,0.0906 -0.365,-0.904 z m 126.481,1.1734 c 0,-0.1504 0.57,-0.7193 1.266,-1.2657 1.148,-0.8997 1.173,-0.874 0.274,0.2734 -0.945,1.2049 -1.54,1.5881 -1.54,0.9923 z m 3.617,-3.6163 c 0,-0.1504 0.57,-0.7202 1.266,-1.2658 1.148,-0.8996 1.173,-0.874 0.274,0.2734 -0.946,1.2048 -1.54,1.5876 -1.54,0.9924 z m -93.261,-4.4884 c 0.034,-0.8423 0.206,-1.014 0.437,-0.4374 0.209,0.5219 0.184,1.1459 -0.06,1.3862 -0.24,0.24 -0.408,-0.1867 -0.377,-0.9488 z m -15.135,-1.0247 c 0,-0.9944 0.164,-1.4013 0.365,-0.904 0.201,0.4972 0.201,1.3109 0,1.8082 -0.201,0.4971 -0.365,0.0905 -0.365,-0.9042 z m 88.255,0 c 0,-0.9944 0.164,-1.4013 0.365,-0.904 0.201,0.4972 0.201,1.3109 0,1.8082 -0.201,0.4971 -0.365,0.0905 -0.365,-0.9042 z M 767.515,88.133 c 0,-0.9944 0.164,-1.4013 0.364,-0.904 0.201,0.4972 0.201,1.3109 0,1.8082 -0.2,0.4972 -0.364,0.0905 -0.364,-0.9042 z m 60.47,0.2444 c 0.497,-0.2008 1.311,-0.2008 1.809,0 0.497,0.2007 0.09,0.3647 -0.905,0.3647 -0.994,0 -1.401,-0.164 -0.904,-0.3647 z m 13.021,0 c 0.498,-0.2008 1.312,-0.2008 1.809,0 0.497,0.2007 0.09,0.3647 -0.904,0.3647 -0.995,0 -1.402,-0.164 -0.905,-0.3647 z m 98.925,-4.584 c 1.96,-1.9889 3.726,-3.6162 3.925,-3.6162 0.199,0 -1.242,1.6273 -3.201,3.6162 -1.96,1.9891 -3.726,3.6164 -3.925,3.6164 -0.199,0 1.242,-1.6273 3.201,-3.6164 z m -92.119,0.7236 c 0,-0.9945 0.164,-1.4013 0.365,-0.9041 0.201,0.4972 0.201,1.3109 0,1.8081 -0.201,0.4972 -0.365,0.0906 -0.365,-0.904 z M 599.479,83.9745 c -0.899,-1.1471 -0.874,-1.1727 0.273,-0.2733 1.205,0.9449 1.589,1.5388 0.993,1.5388 -0.15,0 -0.72,-0.5695 -1.266,-1.2655 z m 269.312,-0.904 c 0,-0.9945 0.164,-1.4013 0.364,-0.9042 0.201,0.4972 0.201,1.311 0,1.8082 -0.2,0.4972 -0.364,0.0906 -0.364,-0.904 z m -323.905,-1.6274 -1.378,-1.6273 1.628,1.3778 c 0.895,0.7577 1.627,1.4901 1.627,1.6274 0,0.5783 -0.582,0.1511 -1.877,-1.3779 z m 372.258,-0.181 c 0.935,-0.9946 1.862,-1.8082 2.061,-1.8082 0.199,0 -0.403,0.8132 -1.337,1.8082 -0.935,0.9945 -1.862,1.8081 -2.061,1.8081 -0.199,0 0.403,-0.8132 1.337,-1.8081 z m -245.287,-1.6274 -1.754,-1.989 1.989,1.7535 c 1.095,0.9643 1.99,1.8593 1.99,1.9889 0,0.5672 -0.586,0.106 -2.225,-1.7534 z m 91.148,-1.4465 -1.753,-1.9891 1.989,1.7535 c 1.094,0.9643 1.989,1.8594 1.989,1.989 0,0.5672 -0.586,0.1051 -2.225,-1.7534 z m 81.707,0 c -0.9,-1.1472 -0.874,-1.1727 0.273,-0.2734 1.205,0.9449 1.588,1.5388 0.993,1.5388 -0.15,0 -0.72,-0.5695 -1.266,-1.2654 z m 78.581,-3.7971 c 0.72,-0.7953 1.472,-1.4466 1.671,-1.4466 0.199,0 -0.227,0.6509 -0.947,1.4466 -0.721,0.7953 -1.473,1.4464 -1.672,1.4464 -0.199,0 0.228,-0.6509 0.948,-1.4464 z M 810.919,72.9445 c 0,-0.9945 0.164,-1.4013 0.364,-0.9041 0.201,0.4972 0.201,1.311 0,1.8082 -0.2,0.4972 -0.364,0.0906 -0.364,-0.9041 z m 138.778,0.4501 c 0,-0.1503 0.57,-0.7192 1.266,-1.2656 1.147,-0.8997 1.173,-0.8741 0.274,0.2734 -0.945,1.2048 -1.54,1.5876 -1.54,0.9922 z m -21.702,-4.428 c 0.935,-0.9945 1.862,-1.8082 2.061,-1.8082 0.199,0 -0.403,0.8132 -1.337,1.8082 -0.935,0.9944 -1.862,1.8081 -2.061,1.8081 -0.199,0 0.403,-0.8133 1.337,-1.8081 z M 810.138,68.1832 c 0.034,-0.8422 0.206,-1.014 0.437,-0.4373 0.209,0.5219 0.183,1.1459 -0.06,1.3862 -0.24,0.2401 -0.408,-0.1867 -0.377,-0.9489 z m -120.92,-1.5671 -1.753,-1.9889 1.989,1.7534 c 1.094,0.9644 1.989,1.8593 1.989,1.9889 0,0.5672 -0.585,0.1059 -2.225,-1.7534 z m 266.99,-0.4536 c 0,-0.1503 0.57,-0.7201 1.266,-1.2657 1.147,-0.8996 1.173,-0.8741 0.273,0.2733 -0.945,1.2048 -1.539,1.5877 -1.539,0.9924 z M 809.415,63.8439 c 0.034,-0.8423 0.206,-1.014 0.437,-0.4374 0.209,0.522 0.184,1.146 -0.06,1.3863 -0.24,0.24 -0.408,-0.1867 -0.377,-0.9489 z m 122.197,0.872 c 0,-0.1503 0.57,-0.7193 1.266,-1.2657 1.148,-0.8997 1.173,-0.8741 0.274,0.2734 -0.945,1.2048 -1.54,1.5876 -1.54,0.9923 z M 560.649,59.5645 c 0.015,-1.1934 0.177,-1.594 0.36,-0.8903 0.184,0.7039 0.172,1.6801 -0.026,2.1698 -0.198,0.4895 -0.349,-0.0863 -0.334,-1.2795 z m 375.597,-0.1811 c 1.334,-1.5753 1.79,-1.6273 14.287,-1.6273 7.1,0 12.909,0.2853 12.909,0.6347 0,0.3494 -0.57,1.0814 -1.266,1.6273 -1.148,0.8997 -1.173,0.8741 -0.274,-0.2733 0.938,-1.195 0.293,-1.2658 -11.517,-1.2658 -10.859,0 -12.709,0.1666 -14.014,1.2658 -1.502,1.2643 -1.502,1.264 -0.125,-0.3614 z M 651.851,56.5316 c 0.704,-0.1836 1.68,-0.1708 2.17,0.0256 0.49,0.1982 -0.086,0.3486 -1.279,0.3332 -1.194,-0.0171 -1.595,-0.1751 -0.891,-0.3588 z m 173.286,0.0073 c 0.522,-0.2093 1.146,-0.1837 1.386,0.0598 0.24,0.24 -0.187,0.4108 -0.949,0.3801 -0.843,-0.0342 -1.014,-0.2084 -0.437,-0.4399 z m 18.085,0 c 0.522,-0.2093 1.146,-0.1837 1.386,0.0598 0.24,0.24 -0.187,0.4108 -0.949,0.3801 -0.843,-0.0342 -1.014,-0.2084 -0.437,-0.4399 z M 546.04,40.1247 c 0,-0.1504 0.57,-0.7201 1.266,-1.2658 1.147,-0.8996 1.173,-0.874 0.273,0.2735 -0.945,1.2047 -1.539,1.5875 -1.539,0.9923 z M 74.9138,36.6916 c 0.4906,-0.4946 1.0744,-0.7167 1.2971,-0.4937 0.2227,0.2229 -0.1787,0.627 -0.8922,0.8987 -1.031,0.3921 -1.114,0.3092 -0.4049,-0.405 z M 989.777,2.60717 988.399,0.979833 990.027,2.35761 c 1.529,1.29479 1.957,1.87689 1.378,1.87689 -0.138,0 -0.87,-0.73208 -1.628,-1.62733 z M 251.074,0.0757384 c 134.778,-0.1008014 355.325,-0.1008014 490.103,0 134.779,0.1008016 24.505,0.1828136 -245.052,0.1828136 -269.556,0 -379.83,-0.085429 -245.051,-0.1828136 z"
       fill="#e2e1e1"
       id="path182" />
    <path
       d="m 321.981,138.987 c 0.703,-0.184 1.68,-0.171 2.17,0.025 0.49,0.198 -0.086,0.348 -1.28,0.333 -1.194,-0.017 -1.594,-0.175 -0.89,-0.358 z m 7.234,0 c 0.703,-0.184 1.68,-0.171 2.17,0.025 0.49,0.198 -0.086,0.348 -1.28,0.333 -1.194,-0.017 -1.594,-0.175 -0.89,-0.358 z m 78.85,0 c 0.704,-0.184 1.681,-0.171 2.17,0.025 0.49,0.198 -0.086,0.348 -1.279,0.333 -1.194,-0.017 -1.595,-0.175 -0.891,-0.358 z m 8.314,-0.009 c 0.9,-0.173 2.202,-0.167 2.894,0.017 0.691,0.181 -0.045,0.323 -1.637,0.314 -1.591,-0.008 -2.157,-0.158 -1.257,-0.331 z m 147.217,0.009 c 0.704,-0.184 1.681,-0.171 2.17,0.025 0.49,0.198 -0.086,0.348 -1.279,0.333 -1.194,-0.017 -1.595,-0.175 -0.891,-0.358 z m 12.691,0.007 c 0.522,-0.209 1.146,-0.184 1.387,0.06 0.24,0.24 -0.187,0.41 -0.95,0.38 -0.843,-0.034 -1.014,-0.21 -0.437,-0.44 z m 175.786,0 c 0.522,-0.209 1.146,-0.184 1.387,0.06 0.24,0.24 -0.187,0.41 -0.95,0.38 -0.842,-0.034 -1.014,-0.21 -0.437,-0.44 z m 10.128,0 c 0.522,-0.209 1.146,-0.184 1.386,0.06 0.24,0.24 -0.187,0.41 -0.949,0.38 -0.843,-0.034 -1.014,-0.21 -0.437,-0.44 z m 85.361,-0.724 c 0.522,-0.209 1.146,-0.183 1.387,0.06 0.24,0.24 -0.188,0.411 -0.95,0.38 -0.842,-0.034 -1.014,-0.208 -0.437,-0.44 z m -350.39,-24.458 c 0,-13.128 0.098,-18.5999 0.218,-12.161 0.12,6.439 0.12,17.179 0,23.868 -0.119,6.688 -0.217,1.42 -0.218,-11.707 z m 22.425,0.723 c 0,-12.729 0.099,-17.8349 0.219,-11.346 0.12,6.49 0.119,16.905 -10e-4,23.145 -0.12,6.24 -0.218,0.931 -0.218,-11.799 z m -274.254,15.189 c 0.003,-2.785 0.134,-3.835 0.291,-2.335 0.156,1.501 0.154,3.779 -0.006,5.063 -0.16,1.284 -0.288,0.06 -0.285,-2.728 z m 22.385,-0.362 c 0,-1.79 0.141,-2.522 0.313,-1.627 0.173,0.895 0.173,2.36 0,3.255 -0.172,0.895 -0.313,0.162 -0.313,-1.628 z m -93.272,-3.616 c 0,-2.983 0.127,-4.204 0.283,-2.712 0.156,1.492 0.156,3.933 0,5.424 -0.156,1.492 -0.283,0.272 -0.283,-2.712 z m 428.733,3.255 c 0.934,-0.995 1.861,-1.808 2.06,-1.808 0.199,0 -0.403,0.814 -1.337,1.808 -0.935,0.994 -1.862,1.808 -2.061,1.808 -0.199,0 0.403,-0.814 1.338,-1.808 z m -308.576,-1.266 -2.125,-2.351 2.351,2.125 c 2.192,1.98 2.684,2.577 2.125,2.577 -0.124,0 -1.182,-1.058 -2.351,-2.351 z m 87.884,0.361 -1.754,-1.989 1.989,1.754 c 1.095,0.964 1.99,1.859 1.99,1.989 0,0.567 -0.586,0.106 -2.225,-1.754 z m -230.542,-2.35 c 0,-1.393 0.149,-1.962 0.331,-1.266 0.182,0.696 0.182,1.835 0,2.531 -0.182,0.697 -0.331,0.127 -0.331,-1.265 z m 53.934,-1.983 c 2.503,-0.142 6.409,-0.14 8.681,0.003 2.272,0.143 0.225,0.259 -4.549,0.258 -4.775,-0.002 -6.634,-0.119 -4.132,-0.261 z m 640.879,-2.871 c 0.576,-0.41 0.964,-3.486 1.124,-8.915 l 0.244,-8.291 -0.034,8.62 c -0.034,7.027 -0.239,8.675 -1.124,8.915 -0.776,0.211 -0.839,0.118 -0.21,-0.329 z m -423.842,-1.426 c 0.523,-0.21 1.146,-0.184 1.387,0.059 0.24,0.24 -0.187,0.412 -0.95,0.38 -0.842,-0.034 -1.014,-0.208 -0.437,-0.439 z m 236.507,0.017 c 0.497,-0.201 1.311,-0.201 1.808,0 0.498,0.2 0.091,0.364 -0.904,0.364 -0.995,0 -1.401,-0.164 -0.904,-0.364 z m -392.428,-3.138 c 0,-1.79 0.141,-2.522 0.313,-1.627 0.173,0.895 0.173,2.36 0,3.255 -0.172,0.895 -0.313,0.163 -0.313,-1.628 z m 534.452,1.748 c 0.034,-0.842 0.206,-1.014 0.437,-0.437 0.209,0.522 0.183,1.146 -0.06,1.386 -0.24,0.24 -0.408,-0.187 -0.377,-0.949 z m -129.546,-1.297 c 0,-0.151 0.57,-0.72 1.266,-1.266 1.148,-0.9 1.173,-0.874 0.274,0.273 -0.945,1.205 -1.54,1.588 -1.54,0.993 z m -519.233,-4.067 c 0,-1.392 0.149,-1.962 0.331,-1.266 0.182,0.697 0.182,1.836 0,2.532 -0.182,0.696 -0.331,0.126 -0.331,-1.266 z m 91.928,-2.531 c 0.005,-2.387 0.139,-3.276 0.301,-1.976 0.16,1.3 0.157,3.252 -0.008,4.339 -0.165,1.087 -0.297,0.026 -0.293,-2.363 z m -69.446,-3.617 c 0.004,-2.387 0.139,-3.276 0.3,-1.976 0.161,1.3 0.158,3.253 -0.007,4.34 -0.165,1.087 -0.297,0.025 -0.293,-2.364 z m 411.531,2.17 c 0.015,-1.193 0.177,-1.594 0.361,-0.89 0.183,0.704 0.171,1.68 -0.027,2.17 -0.198,0.489 -0.348,-0.087 -0.334,-1.28 z m 113.49,-0.783 c 0.034,-0.843 0.206,-1.014 0.437,-0.437 0.209,0.522 0.184,1.146 -0.06,1.386 -0.24,0.241 -0.408,-0.187 -0.377,-0.949 z m 216.147,-1.567 c -0.899,-1.147 -0.874,-1.173 0.274,-0.274 1.205,0.945 1.588,1.539 0.993,1.539 -0.151,0 -0.72,-0.569 -1.267,-1.265 z m -650.061,-1.989 c 0.008,-1.591 0.156,-2.157 0.329,-1.258 0.173,0.9 0.166,2.202 -0.015,2.893 -0.181,0.692 -0.322,-0.042 -0.314,-1.635 z m 106.214,1.386 c 0.035,-0.842 0.206,-1.014 0.437,-0.437 0.209,0.521 0.183,1.145 -0.057,1.386 -0.24,0.24 -0.411,-0.187 -0.38,-0.949 z m 365.884,-0.492 c 0.304,-0.304 11.763,-0.467 25.464,-0.361 l 24.912,0.191 -25.465,0.361 c -14.005,0.199 -25.215,0.113 -24.911,-0.191 z m -417.483,-0.351 c 6.863,-0.119 18.094,-0.119 24.957,0 6.863,0.118 1.248,0.216 -12.479,0.216 -13.726,0 -19.342,-0.098 -12.478,-0.216 z m -36.456,-7.0533 c -0.002,-3.5801 0.12,-5.1359 0.272,-3.4573 0.151,1.6787 0.153,4.6079 0.004,6.5096 -0.15,1.901 -0.274,0.528 -0.276,-3.0523 z m 73.698,3.2543 c 0,-1.3919 0.149,-1.9613 0.331,-1.2652 0.182,0.6962 0.182,1.8352 0,2.5312 -0.182,0.696 -0.331,0.127 -0.331,-1.266 z m 36.84,0.724 c 0,-0.995 0.164,-1.401 0.364,-0.904 0.201,0.497 0.201,1.311 0,1.808 -0.2,0.497 -0.364,0.091 -0.364,-0.904 z m 215.516,0.302 c 0.035,-0.843 0.206,-1.014 0.437,-0.437 0.209,0.522 0.183,1.146 -0.058,1.386 -0.24,0.24 -0.411,-0.187 -0.379,-0.949 z m 90.615,-4.2798 c 0.003,-3.1823 0.13,-4.3943 0.283,-2.6931 0.153,1.7011 0.151,4.3049 -0.005,5.7859 -0.155,1.481 -0.28,0.09 -0.278,-3.0928 z m -547.72,2.8928 c 0.014,-1.1931 0.177,-1.5938 0.36,-0.8901 0.184,0.7041 0.171,1.6801 -0.026,2.1701 -0.198,0.489 -0.349,-0.087 -0.334,-1.28 z m 561.358,-2.1696 c 0.017,-1.1934 0.177,-1.594 0.361,-0.8902 0.183,0.7039 0.171,1.6801 -0.026,2.1697 -0.198,0.4891 -0.35,-0.0863 -0.335,-1.2795 z M 243.856,94.6475 c 0,-1.7901 0.141,-2.5224 0.313,-1.6274 0.173,0.8951 0.173,2.3597 0,3.2547 -0.172,0.8951 -0.313,0.1632 -0.313,-1.6273 z m -67.98,-2.893 c 0,-2.188 0.136,-3.083 0.301,-1.9891 0.166,1.094 0.166,2.8841 0,3.978 -0.165,1.094 -0.301,0.199 -0.301,-1.9889 z m 89.667,1.0848 c 0.008,-1.5912 0.156,-2.1569 0.329,-1.2572 0.173,0.8997 0.167,2.2015 -0.014,2.893 -0.181,0.6919 -0.323,-0.0428 -0.315,-1.6358 z m 92.595,0 c 0.008,-1.5912 0.157,-2.1569 0.33,-1.2572 0.173,0.8997 0.166,2.2015 -0.015,2.893 -0.181,0.6919 -0.323,-0.0428 -0.315,-1.6358 z m 36.768,0.663 c 0.035,-0.8423 0.207,-1.014 0.437,-0.4374 0.209,0.522 0.184,1.1459 -0.057,1.3862 -0.24,0.24 -0.411,-0.1866 -0.38,-0.9488 z M 154.098,89.9462 c 0.015,-1.1934 0.177,-1.594 0.361,-0.8903 0.183,0.7039 0.171,1.6801 -0.027,2.1698 -0.198,0.4895 -0.349,-0.0863 -0.334,-1.2795 z M 284.95,88.4374 c 0.035,-0.8423 0.206,-1.014 0.437,-0.4374 0.209,0.5219 0.183,1.1458 -0.058,1.3862 -0.24,0.2401 -0.411,-0.1866 -0.379,-0.9488 z M 847.571,87.648 c 0.308,-1.5137 0.49,-1.6956 0.701,-0.7013 0.157,0.7381 -0.034,1.6581 -0.417,2.0438 -0.453,0.4527 -0.553,-0.0256 -0.284,-1.3425 z m -244.437,-0.7782 -1.754,-1.9891 1.989,1.7535 c 1.094,0.9643 1.99,1.8594 1.99,1.989 0,0.5672 -0.586,0.1051 -2.225,-1.7534 z m 185.302,0.844 c 0.034,-0.8423 0.206,-1.014 0.437,-0.4374 0.209,0.522 0.183,1.146 -0.06,1.3863 -0.24,0.24 -0.409,-0.1867 -0.377,-0.9489 z m 125.091,-2.8329 c 0.934,-0.9944 1.862,-1.8081 2.061,-1.8081 0.199,0 -0.403,0.8141 -1.338,1.8081 -0.934,0.9945 -1.861,1.8082 -2.06,1.8082 -0.199,0 0.403,-0.8141 1.337,-1.8082 z M 285.673,84.8211 c 0.035,-0.8423 0.206,-1.0139 0.437,-0.4365 0.209,0.522 0.183,1.1459 -0.057,1.3863 -0.24,0.24 -0.411,-0.1876 -0.38,-0.9498 z M 243.103,82.35 c 0,-1.3923 0.149,-1.9619 0.331,-1.2658 0.182,0.6962 0.182,1.8354 0,2.5315 -0.182,0.6962 -0.331,0.1264 -0.331,-1.2657 z m 21.702,0 c 0,-1.3923 0.149,-1.9619 0.331,-1.2658 0.182,0.6962 0.182,1.8354 0,2.5315 -0.182,0.6962 -0.331,0.1264 -0.331,-1.2657 z M 176.55,80.1802 c 0,-1.3923 0.149,-1.9619 0.331,-1.2658 0.182,0.6963 0.182,1.8353 0,2.5315 -0.182,0.6962 -0.331,0.1265 -0.331,-1.2657 z m -21.755,-0.7236 c 0,-0.9944 0.164,-1.4013 0.365,-0.9041 0.2,0.4972 0.2,1.311 0,1.8082 -0.201,0.4972 -0.365,0.0906 -0.365,-0.9041 z m 790.2,-0.7235 c 0.72,-0.7953 1.472,-1.4466 1.671,-1.4466 0.199,0 -0.227,0.6509 -0.948,1.4466 -0.72,0.7953 -1.472,1.4464 -1.671,1.4464 -0.199,0 0.227,-0.6509 0.948,-1.4464 z m -634.06,0.4501 c 0,-0.1503 0.57,-0.7201 1.266,-1.2657 1.147,-0.8996 1.173,-0.8741 0.273,0.2734 -0.945,1.2047 -1.539,1.5876 -1.539,0.9923 z m 609.103,-1.4465 c 0,-0.1504 0.57,-0.7193 1.266,-1.2657 1.147,-0.8997 1.173,-0.8741 0.273,0.2733 -0.945,1.2049 -1.539,1.5877 -1.539,0.9924 z M 480.075,75.3459 c 0.522,-0.2093 1.146,-0.1837 1.386,0.0598 0.241,0.24 -0.186,0.4117 -0.949,0.3801 -0.843,-0.0341 -1.014,-0.2084 -0.437,-0.4399 z m 5.787,0 c 0.522,-0.2093 1.146,-0.1837 1.387,0.0598 0.24,0.24 -0.187,0.4117 -0.95,0.3801 -0.843,-0.0341 -1.014,-0.2084 -0.437,-0.4399 z m 168.145,-0.0043 c 0.697,-0.182 1.836,-0.182 2.532,0 0.696,0.182 0.127,0.3306 -1.266,0.3306 -1.392,0 -1.962,-0.1486 -1.266,-0.3306 z m 7.641,0.0043 c 0.522,-0.2093 1.146,-0.1837 1.387,0.0598 0.24,0.24 -0.187,0.4117 -0.95,0.3801 -0.842,-0.0341 -1.014,-0.2084 -0.437,-0.4399 z m -397.566,-2.399 c 0,-1.3923 0.149,-1.9618 0.331,-1.2657 0.182,0.6962 0.182,1.8353 0,2.5315 -0.182,0.6962 -0.331,0.1264 -0.331,-1.2658 z M 826.9,74.6182 c 0.696,-0.182 1.836,-0.182 2.532,0 0.696,0.1819 0.126,0.3305 -1.266,0.3305 -1.393,0 -1.962,-0.1486 -1.266,-0.3305 z m 7.596,0.017 c 0.497,-0.2007 1.311,-0.2007 1.808,0 C 836.801,74.836 836.395,75 835.4,75 c -0.995,0 -1.402,-0.164 -0.904,-0.3648 z M 242.353,72.5828 c 0.015,-1.1934 0.177,-1.594 0.36,-0.8903 0.184,0.7039 0.172,1.6801 -0.026,2.1698 -0.198,0.4895 -0.349,-0.0863 -0.334,-1.2795 z m -65.079,-1.8082 c 0,-1.3923 0.149,-1.9618 0.331,-1.2656 0.182,0.6962 0.182,1.8352 0,2.5313 -0.182,0.6962 -0.331,0.1265 -0.331,-1.2657 z m -21.729,-0.3613 c 0.015,-1.1934 0.177,-1.594 0.36,-0.8903 0.184,0.7039 0.172,1.6801 -0.026,2.1698 -0.198,0.4894 -0.349,-0.0863 -0.334,-1.2795 z m 654.593,-0.0599 c 0.034,-0.8423 0.206,-1.0139 0.437,-0.4373 0.209,0.522 0.183,1.146 -0.06,1.3863 -0.24,0.24 -0.408,-0.1868 -0.377,-0.949 z m 141.729,0.8721 c 0,-0.1504 0.57,-0.7193 1.266,-1.2657 1.148,-0.8996 1.173,-0.874 0.274,0.2734 -0.945,1.2048 -1.54,1.5876 -1.54,0.9923 z M 692.074,69.5096 c -0.899,-1.1471 -0.874,-1.1727 0.274,-0.2733 1.205,0.9449 1.588,1.5387 0.992,1.5387 -0.15,0 -0.72,-0.5695 -1.266,-1.2654 z m -396.33,-2.7122 c 1.349,-1.3923 2.616,-2.5315 2.815,-2.5315 0.199,0 -0.742,1.1392 -2.092,2.5315 -1.35,1.3923 -2.617,2.5314 -2.816,2.5314 -0.199,0 0.743,-1.1391 2.093,-2.5314 z M 726.528,66.436 c 0.72,-0.7953 1.472,-1.4465 1.671,-1.4465 0.199,0 -0.227,0.651 -0.947,1.4465 -0.721,0.7953 -1.473,1.4466 -1.672,1.4466 -0.199,0 0.228,-0.6509 0.948,-1.4466 z m 52.354,-0.5424 c -0.899,-1.1471 -0.874,-1.1727 0.274,-0.2734 1.205,0.9448 1.588,1.5388 0.993,1.5388 -0.151,0 -0.721,-0.5695 -1.267,-1.2654 z m -268.343,-1.4465 -1.754,-1.989 1.989,1.7535 c 1.094,0.9643 1.99,1.8594 1.99,1.9889 0,0.5673 -0.586,0.106 -2.225,-1.7534 z M 263.305,64.266 c 0,-0.9945 0.164,-1.4013 0.365,-0.9041 0.2,0.4972 0.2,1.311 0,1.8082 -0.201,0.4972 -0.365,0.0906 -0.365,-0.9041 z m 273.538,-2.5314 c 0.005,-1.9889 0.146,-2.7168 0.312,-1.6175 0.166,1.0994 0.162,2.7269 -0.01,3.6165 -0.172,0.8895 -0.308,-0.0086 -0.302,-1.999 z m -380.601,0.3613 c 0,-0.9944 0.164,-1.4012 0.364,-0.904 0.201,0.4972 0.201,1.3109 0,1.8082 -0.2,0.4972 -0.364,0.0905 -0.364,-0.9042 z m 652.506,-1.4464 c 0,-0.9945 0.164,-1.4014 0.365,-0.9041 0.201,0.4971 0.201,1.3109 0,1.8081 -0.201,0.4972 -0.365,0.0906 -0.365,-0.904 z M 262.581,57.0332 c 0,-0.9946 0.165,-1.4014 0.365,-0.9042 0.201,0.4972 0.201,1.3109 0,1.8082 -0.2,0.4972 -0.365,0.0906 -0.365,-0.904 z m 66.303,-0.4938 c 0.523,-0.2093 1.146,-0.1837 1.387,0.0598 0.24,0.24 -0.187,0.4117 -0.95,0.3801 -0.842,-0.0342 -1.014,-0.2084 -0.437,-0.4399 z m 151.914,0 c 0.522,-0.2093 1.146,-0.1837 1.387,0.0598 0.24,0.24 -0.187,0.4117 -0.95,0.3801 -0.842,-0.0342 -1.014,-0.2084 -0.437,-0.4399 z m 11.575,0 c 0.522,-0.2093 1.146,-0.1837 1.386,0.0598 0.241,0.24 -0.187,0.4117 -0.949,0.3801 -0.843,-0.0342 -1.014,-0.2084 -0.437,-0.4399 z m 156.977,0 c 0.523,-0.2093 1.147,-0.1837 1.387,0.0598 0.24,0.24 -0.187,0.4117 -0.949,0.3801 -0.843,-0.0342 -1.015,-0.2084 -0.438,-0.4399 z m 102.678,-0.7082 c 0.497,-0.2007 1.311,-0.2007 1.808,0 0.498,0.2008 0.091,0.3648 -0.904,0.3648 -0.994,0 -1.401,-0.164 -0.904,-0.3648 z m 82.12,-0.0256 c 0.704,-0.1837 1.68,-0.1717 2.17,0.0256 0.489,0.1982 -0.086,0.3486 -1.28,0.3332 -1.193,-0.0171 -1.594,-0.1751 -0.89,-0.3588 z m -677.24,-1.3617 c 0.035,-0.8423 0.206,-1.014 0.437,-0.4374 0.209,0.522 0.183,1.1459 -0.057,1.3862 -0.241,0.2401 -0.411,-0.1866 -0.38,-0.9488 z m 104.95,-4.641 c 0,-0.9945 0.164,-1.4013 0.365,-0.904 0.201,0.4972 0.201,1.311 0,1.8081 -0.201,0.4972 -0.365,0.0905 -0.365,-0.9041 z m 320.171,0.9675 c 0.497,-0.2007 1.311,-0.2007 1.809,0 0.497,0.2008 0.09,0.3648 -0.905,0.3648 -0.994,0 -1.401,-0.164 -0.904,-0.3648 z M 157.631,47.9345 c 0.035,-0.8423 0.206,-1.014 0.437,-0.4374 0.209,0.522 0.184,1.1459 -0.057,1.3862 -0.24,0.2401 -0.411,-0.1866 -0.38,-0.9488 z m 103.504,-4.641 c 0,-0.9945 0.164,-1.4012 0.364,-0.904 0.201,0.4972 0.201,1.311 0,1.8081 -0.2,0.4972 -0.364,0.0905 -0.364,-0.9041 z m -0.781,-5.4847 c 0.035,-0.8423 0.206,-1.014 0.437,-0.4374 0.209,0.5219 0.183,1.146 -0.057,1.3863 -0.24,0.24 -0.411,-0.1867 -0.38,-0.9489 z M 159.078,36.3623 c 0.035,-0.8423 0.206,-1.0139 0.437,-0.4374 0.209,0.5219 0.183,1.1459 -0.057,1.3862 -0.241,0.2401 -0.411,-0.1866 -0.38,-0.9488 z M 571.54,30.4995 c 0.696,-0.182 1.835,-0.182 2.532,0 0.696,0.1819 0.126,0.3305 -1.266,0.3305 -1.393,0 -1.963,-0.1486 -1.266,-0.3305 z m 5.787,0 c 0.696,-0.182 1.836,-0.182 2.532,0 0.696,0.1819 0.126,0.3305 -1.266,0.3305 -1.393,0 -1.962,-0.1486 -1.266,-0.3305 z m -108.826,-9.398 c 0.522,-0.2093 1.146,-0.1836 1.386,0.0598 0.24,0.2401 -0.187,0.4109 -0.949,0.3801 -0.843,-0.0341 -1.015,-0.2084 -0.437,-0.4399 z"
       fill="#97a5aa"
       id="path184" />
    <path
       d="m 151.121,136.173 c 0.035,-0.843 0.206,-1.014 0.437,-0.438 0.209,0.522 0.183,1.146 -0.057,1.387 -0.241,0.24 -0.412,-0.187 -0.38,-0.949 z m 94.099,-0.302 c 0,-0.994 0.164,-1.401 0.365,-0.904 0.2,0.497 0.2,1.311 0,1.808 -0.201,0.498 -0.365,0.091 -0.365,-0.904 z m 667.172,-15.55 c 10e-4,-9.547 0.104,-13.353 0.229,-8.457 0.126,4.896 0.125,12.707 0,17.359 -0.125,4.651 -0.229,0.645 -0.229,-8.902 z M 174.38,132.978 c 0,-1.392 0.149,-1.962 0.331,-1.266 0.182,0.697 0.182,1.836 0,2.532 -0.182,0.696 -0.331,0.126 -0.331,-1.266 z m 551.694,-4.159 c -0.9,-1.147 -0.874,-1.172 0.274,-0.273 1.205,0.945 1.588,1.539 0.992,1.539 -0.15,0 -0.719,-0.57 -1.266,-1.266 z m -458.429,-3.797 c 0,-0.994 0.164,-1.401 0.365,-0.904 0.201,0.497 0.201,1.311 0,1.808 -0.201,0.498 -0.365,0.091 -0.365,-0.904 z m -115.801,-2.591 c 0.035,-0.843 0.206,-1.014 0.437,-0.438 0.209,0.522 0.183,1.146 -0.057,1.387 -0.24,0.24 -0.411,-0.187 -0.38,-0.949 z m 92.706,-6.088 c 0,-1.392 0.149,-1.962 0.331,-1.266 0.182,0.697 0.182,1.836 0,2.532 -0.182,0.696 -0.331,0.126 -0.331,-1.266 z m -69.473,-3.978 c 0.014,-1.193 0.177,-1.594 0.36,-0.89 0.184,0.704 0.171,1.68 -0.026,2.17 -0.198,0.489 -0.349,-0.087 -0.334,-1.28 z m 91.845,-0.361 c 0,-0.995 0.164,-1.401 0.365,-0.904 0.2,0.497 0.2,1.311 0,1.808 -0.201,0.497 -0.365,0.091 -0.365,-0.904 z m -114.354,-2.592 c 0.035,-0.842 0.206,-1.014 0.437,-0.437 0.209,0.522 0.183,1.146 -0.058,1.386 -0.24,0.24 -0.411,-0.187 -0.379,-0.949 z m 562.138,-7.534 c 0,-0.995 0.164,-1.401 0.365,-0.904 0.201,0.497 0.201,1.311 0,1.808 -0.201,0.497 -0.365,0.091 -0.365,-0.904 z m -448.508,-1.446 c 0,-0.995 0.165,-1.4018 0.365,-0.9047 0.201,0.4977 0.201,1.3107 0,1.8087 -0.2,0.497 -0.365,0.09 -0.365,-0.904 z M 243.8,99.3466 c 0.014,-1.1934 0.177,-1.594 0.36,-0.8904 0.184,0.7039 0.171,1.6798 -0.026,2.1698 -0.198,0.489 -0.349,-0.086 -0.334,-1.2794 z m 128.098,-1.0849 c 0,-1.7901 0.141,-2.5225 0.313,-1.6274 0.173,0.895 0.173,2.3597 0,3.2548 -0.172,0.8949 -0.313,0.1619 -0.313,-1.6274 z m 417.401,-1.4466 c 0,-1.7901 0.141,-2.5224 0.314,-1.6274 0.173,0.8951 0.173,2.3598 0,3.2548 -0.173,0.895 -0.314,0.1631 -0.314,-1.6274 z m -636.008,1.0247 c 0.035,-0.8423 0.206,-1.014 0.437,-0.4374 0.209,0.522 0.183,1.1459 -0.057,1.3862 -0.241,0.24 -0.411,-0.1866 -0.38,-0.9488 z m 22.482,-1.0247 c 0,-0.9944 0.165,-1.4013 0.365,-0.9041 0.201,0.4972 0.201,1.311 0,1.8082 -0.2,0.4972 -0.365,0.0906 -0.365,-0.9041 z m 219.134,-1.1452 c 0.035,-0.8422 0.206,-1.0139 0.437,-0.4364 0.209,0.5219 0.183,1.1459 -0.058,1.3862 -0.24,0.24 -0.411,-0.1876 -0.379,-0.9498 z m 319.826,-0.6628 c 0.017,-1.1934 0.177,-1.594 0.361,-0.8904 0.183,0.7039 0.171,1.6801 -0.026,2.1698 -0.198,0.4895 -0.35,-0.0863 -0.335,-1.2794 z m 218.995,-0.1811 -1.754,-1.989 1.989,1.7535 c 1.094,0.9643 1.99,1.8593 1.99,1.9889 0,0.5672 -0.587,0.106 -2.225,-1.7534 z m -668.31,-5.6654 c 0.035,-0.8423 0.206,-1.014 0.437,-0.4365 0.209,0.5219 0.183,1.1459 -0.057,1.3862 -0.241,0.24 -0.411,-0.1875 -0.38,-0.9497 z M 243.05,85.9661 c 0,-0.9944 0.164,-1.4013 0.364,-0.904 0.201,0.4972 0.201,1.3109 0,1.8082 -0.2,0.4971 -0.364,0.0905 -0.364,-0.9042 z M 912.413,53.0576 c 0,-17.9008 0.094,-25.1202 0.209,-16.0432 0.115,9.077 0.115,23.7231 0,32.5469 -0.115,8.8238 -0.21,1.3971 -0.209,-16.5037 z M 176.44,83.3745 c 0.035,-0.8423 0.206,-1.014 0.437,-0.4374 0.209,0.522 0.183,1.146 -0.057,1.3863 -0.241,0.24 -0.412,-0.1867 -0.38,-0.9489 z m 88.255,-4.3396 c 0.035,-0.8423 0.206,-1.014 0.437,-0.4374 0.209,0.522 0.183,1.146 -0.058,1.3863 -0.24,0.24 -0.411,-0.1867 -0.379,-0.9489 z m 67.126,-0.844 c -0.899,-1.1472 -0.874,-1.1727 0.273,-0.2733 0.697,0.5458 1.266,1.1155 1.266,1.2657 0,0.5954 -0.594,0.2121 -1.539,-0.9924 z m 614.982,-1.1772 c 0,-0.1503 0.57,-0.7201 1.266,-1.2657 1.148,-0.8996 1.173,-0.874 0.274,0.2734 -0.945,1.2047 -1.54,1.5876 -1.54,0.9923 z M 242.269,75.4183 c 0.035,-0.8423 0.206,-1.0139 0.437,-0.4373 0.209,0.5219 0.183,1.1459 -0.057,1.3863 -0.24,0.24 -0.411,-0.1867 -0.38,-0.949 z M 482.245,75.35 c 0.522,-0.2093 1.146,-0.1837 1.387,0.0598 0.24,0.24 -0.187,0.4118 -0.95,0.3802 -0.842,-0.0342 -1.014,-0.2085 -0.437,-0.44 z m 176.117,-0.0071 c 0.703,-0.1837 1.68,-0.1718 2.17,0.0256 0.489,0.1982 -0.086,0.3485 -1.28,0.3332 -1.194,-0.0171 -1.594,-0.1752 -0.89,-0.3588 z M 177.163,73.9756 c 0.035,-0.8422 0.206,-1.014 0.437,-0.4373 0.209,0.5219 0.183,1.1459 -0.057,1.3862 -0.24,0.2401 -0.411,-0.1867 -0.38,-0.9489 z m 654.091,0.6441 c 0.704,-0.1837 1.681,-0.1717 2.17,0.0257 0.49,0.1982 -0.086,0.3485 -1.279,0.3331 -1.194,-0.0171 -1.595,-0.1751 -0.891,-0.3588 z M 263.971,69.6362 c 0.035,-0.8423 0.206,-1.014 0.437,-0.4374 0.209,0.522 0.183,1.146 -0.057,1.3863 -0.24,0.24 -0.411,-0.1867 -0.38,-0.9489 z m 118.581,-1.2976 c 0,-0.1503 0.569,-0.7201 1.266,-1.2657 1.147,-0.8996 1.173,-0.8741 0.273,0.2733 -0.945,1.2047 -1.539,1.5876 -1.539,0.9924 z m -119.304,-6.662 c 0.035,-0.8423 0.206,-1.014 0.437,-0.4374 0.209,0.5219 0.183,1.1459 -0.057,1.3862 -0.241,0.2401 -0.412,-0.1867 -0.38,-0.9488 z m 56.956,-5.8584 c 0.522,-0.2084 1.146,-0.1828 1.386,0.0598 0.24,0.24 -0.187,0.4117 -0.949,0.3801 -0.843,-0.0341 -1.014,-0.2084 -0.437,-0.4399 z m 2.893,0 c 0.522,-0.2084 1.146,-0.1828 1.387,0.0598 0.24,0.24 -0.187,0.4117 -0.95,0.3801 -0.842,-0.0341 -1.014,-0.2084 -0.437,-0.4399 z m 87.532,0 c 0.522,-0.2084 1.146,-0.1828 1.386,0.0598 0.24,0.24 -0.187,0.4117 -0.949,0.3801 -0.843,-0.0341 -1.014,-0.2084 -0.437,-0.4399 z m 2.893,0 c 0.522,-0.2084 1.146,-0.1828 1.387,0.0598 0.24,0.24 -0.187,0.4117 -0.95,0.3801 -0.842,-0.0341 -1.014,-0.2084 -0.437,-0.4399 z m 341.445,0 c 0.522,-0.2084 1.146,-0.1828 1.386,0.0598 0.241,0.24 -0.187,0.4117 -0.949,0.3801 -0.842,-0.0341 -1.014,-0.2084 -0.437,-0.4399 z m 82.468,0 c 0.522,-0.2084 1.146,-0.1828 1.386,0.0598 0.24,0.24 -0.187,0.4117 -0.949,0.3801 -0.843,-0.0341 -1.015,-0.2084 -0.437,-0.4399 z M 262.524,54.4439 c 0.035,-0.8423 0.206,-1.014 0.437,-0.4374 0.209,0.5219 0.184,1.1459 -0.057,1.3862 -0.24,0.24 -0.411,-0.1867 -0.38,-0.9488 z M 165.022,32.6296 c 3.102,-0.1358 7.985,-0.135 10.851,0.0022 2.867,0.1367 0.329,0.2477 -5.639,0.2469 -5.968,-7e-4 -8.313,-0.1133 -5.212,-0.2491 z m 79.541,0.0022 c 2.686,-0.1392 7.08,-0.1392 9.766,0 2.686,0.1392 0.488,0.2529 -4.883,0.2529 -5.371,0 -7.569,-0.1137 -4.883,-0.2529 z"
       fill="#748890"
       id="path186" />
    <path
       d="m 58.4685,125.714 c -26.088,-15.196 -27.2922,-15.957 -28.1275,-17.79 -0.5455,-1.197 -0.8085,-9.8298 -0.8085,-26.5321 0,-20.4935 0.1812,-25.0165 1.0523,-26.2599 1.7375,-2.4801 42.945,-25.8721 45.5486,-25.8562 3.2492,0.0171 44.2936,23.7855 45.6936,26.4581 0.825,1.5726 1.024,6.7483 1.024,26.5686 v 24.6155 l -1.989,2.127 c -1.094,1.171 -11.088,7.36 -22.208,13.754 -16.008,9.205 -20.7532,11.618 -22.7871,11.589 -1.9328,-0.025 -6.2401,-2.175 -17.3984,-8.674 z M 71.6817,82.3096 C 70.7559,81.4488 45.22,66.3734 36.5856,61.5903 c -0.2984,-0.1657 -0.5425,9.45 -0.5425,21.3673 v 21.6684 l 18.2658,10.552 18.2659,10.552 0.1919,-21.116 c 0.1765,-19.3975 0.0881,-21.2135 -1.085,-22.3044 z m 28.7443,31.3574 14.829,-8.56 0.192,-20.4196 c 0.106,-11.2306 0.026,-20.4192 -0.177,-20.4192 -0.203,0 -8.346,3.9839 -18.0959,8.8531 L 79.447,81.9745 v 21.9165 21.916 l 3.0744,-1.79 c 1.691,-0.984 9.7479,-5.642 17.9046,-10.35 z M 94.6793,66.545 112.777,57.2495 94.4028,46.6422 76.0289,36.0348 59.1104,45.8241 c -9.3051,5.3842 -17.0013,10.0323 -17.1025,10.3292 -0.2209,0.6475 32.3199,19.6872 33.6478,19.6872 0.5094,0 9.07,-4.1831 19.0236,-9.2955 z"
       fill="#ed8915"
       id="path188" />
    <path
       d="m 174.27,136.173 c 0.035,-0.842 0.206,-1.014 0.437,-0.438 0.209,0.522 0.183,1.146 -0.058,1.387 -0.24,0.24 -0.411,-0.187 -0.379,-0.949 z m 94.099,-0.302 c 0,-0.994 0.164,-1.401 0.365,-0.904 0.2,0.497 0.2,1.311 0,1.808 -0.201,0.498 -0.365,0.091 -0.365,-0.904 z M 869.724,111.28 c 0,-13.3259 0.097,-18.7775 0.217,-12.1144 0.12,6.6634 0.12,17.5664 0,24.2294 -0.12,6.663 -0.217,1.211 -0.217,-12.115 z m -602.079,10.849 c 0,-0.994 0.164,-1.401 0.365,-0.904 0.201,0.497 0.201,1.311 0,1.808 -0.201,0.497 -0.365,0.091 -0.365,-0.904 z m -23.095,-1.446 c 0,-1.393 0.149,-1.962 0.331,-1.266 0.182,0.696 0.182,1.835 0,2.531 -0.182,0.697 -0.331,0.127 -0.331,-1.265 z m -69.5,-5.063 c 0,-0.995 0.164,-1.401 0.365,-0.904 0.201,0.497 0.201,1.311 0,1.808 -0.201,0.497 -0.365,0.09 -0.365,-0.904 z m 224.771,-1.266 c -0.9,-1.147 -0.874,-1.173 0.273,-0.273 1.205,0.945 1.588,1.539 0.993,1.539 -0.15,0 -0.72,-0.57 -1.266,-1.266 z m 400.913,-1.326 c 0.034,-0.842 0.206,-1.014 0.437,-0.437 0.21,0.522 0.184,1.146 -0.06,1.386 -0.24,0.24 -0.409,-0.187 -0.377,-0.949 z m -533.869,-3.616 c 0.035,-0.842 0.206,-1.014 0.437,-0.437 0.209,0.521 0.183,1.145 -0.057,1.386 -0.241,0.24 -0.412,-0.187 -0.38,-0.949 z m -23.092,-6.811 c 0,-0.994 0.164,-1.401 0.365,-0.904 0.201,0.497 0.201,1.311 0,1.808 -0.201,0.497 -0.365,0.091 -0.365,-0.904 z m 434.067,-1.808 c 0.014,-1.1935 0.177,-1.5941 0.36,-0.8904 0.184,0.7044 0.171,1.6804 -0.026,2.1694 -0.199,0.49 -0.349,-0.086 -0.334,-1.279 z m 111.377,0.361 c 0,-0.994 0.164,-1.401 0.364,-0.904 0.201,0.497 0.201,1.311 0,1.808 -0.2,0.498 -0.364,0.091 -0.364,-0.904 z M 266.141,97.8394 c 0.035,-0.8423 0.207,-1.014 0.437,-0.4374 0.209,0.5219 0.184,1.1459 -0.057,1.3862 -0.24,0.24 -0.411,-0.1867 -0.38,-0.9488 z m 128.766,0 c 0.035,-0.8423 0.206,-1.014 0.437,-0.4374 0.209,0.5219 0.183,1.1459 -0.058,1.3862 -0.24,0.24 -0.411,-0.1867 -0.379,-0.9488 z m 282.906,-1.7479 c 0,-0.9945 0.164,-1.4013 0.365,-0.9041 0.201,0.4971 0.201,1.3109 0,1.8081 -0.201,0.4972 -0.365,0.0906 -0.365,-0.904 z m -306.055,-1.868 c 0.035,-0.8423 0.206,-1.014 0.437,-0.4374 0.209,0.522 0.183,1.146 -0.057,1.3863 -0.241,0.24 -0.412,-0.1867 -0.38,-0.9489 z m 417.459,-1.748 c 0,-0.9944 0.164,-1.4013 0.364,-0.904 0.201,0.4972 0.201,1.3109 0,1.8082 -0.2,0.4972 -0.364,0.0905 -0.364,-0.9042 z m 144.204,-1.4464 c 0.72,-0.7954 1.472,-1.4466 1.671,-1.4466 0.199,0 -0.228,0.651 -0.948,1.4466 -0.72,0.7953 -1.472,1.4464 -1.671,1.4464 -0.199,0 0.227,-0.6509 0.948,-1.4464 z M 243.05,88.8592 c 0,-0.9945 0.164,-1.4013 0.364,-0.904 0.201,0.4972 0.201,1.3109 0,1.8081 -0.2,0.4972 -0.364,0.0905 -0.364,-0.9041 z m 22.368,-1.8684 c 0.035,-0.8423 0.206,-1.014 0.437,-0.4374 0.209,0.522 0.183,1.1459 -0.057,1.3862 -0.241,0.2401 -0.411,-0.1866 -0.38,-0.9488 z m 569.123,0.651 c 0.522,-0.2093 1.146,-0.1837 1.386,0.0597 0.241,0.2401 -0.187,0.4109 -0.949,0.3802 -0.843,-0.0342 -1.014,-0.2084 -0.437,-0.4399 z M 242.269,77.5882 c 0.035,-0.8423 0.206,-1.0139 0.437,-0.4365 0.209,0.5219 0.183,1.1458 -0.057,1.3862 -0.24,0.2401 -0.411,-0.1874 -0.38,-0.9497 z m 22.426,-0.7236 c 0.035,-0.8422 0.206,-1.014 0.437,-0.4373 0.209,0.5219 0.183,1.1459 -0.058,1.3862 -0.24,0.2401 -0.411,-0.1867 -0.379,-0.9489 z M 861.35,63.7252 c -0.9,-1.1471 -0.874,-1.1727 0.273,-0.2733 1.205,0.9448 1.589,1.5387 0.993,1.5387 -0.15,0 -0.72,-0.5694 -1.266,-1.2654 z M 659.478,55.8177 c 0.522,-0.2084 1.146,-0.1828 1.387,0.0598 0.24,0.24 -0.187,0.4117 -0.95,0.3801 -0.843,-0.0341 -1.014,-0.2084 -0.437,-0.4399 z"
       fill="#647a83"
       id="path190" />
    <path
       d="m 161.431,162.813 c 85.475,-0.102 225.128,-0.102 310.339,0 85.211,0.102 15.277,0.184 -155.409,0.184 -170.687,0 -240.4049,-0.086 -154.93,-0.184 z m 572.454,0 c 46.221,-0.102 122.069,-0.102 168.552,0 46.484,0.103 8.667,0.187 -84.037,0.187 -92.704,0 -130.735,-0.085 -84.515,-0.187 z M 627.229,111.865 c -0.093,-28.1201 0.076,-51.2788 0.374,-51.4633 0.492,-0.3041 0.486,36.1681 -0.014,84.1493 -0.106,10.143 -0.268,-4.565 -0.36,-32.686 z m 204.749,27.121 c 0.704,-0.183 1.68,-0.17 2.17,0.026 0.489,0.198 -0.087,0.348 -1.28,0.333 -1.194,-0.017 -1.594,-0.175 -0.89,-0.359 z m 4.688,0.026 c 0.497,-0.201 1.311,-0.201 1.808,0 0.498,0.201 0.091,0.365 -0.904,0.365 -0.995,0 -1.401,-0.164 -0.904,-0.365 z M 450.896,80.545 c 0,-31.4258 0.089,-44.1762 0.198,-28.3344 0.108,15.842 0.108,41.5541 0,57.1384 -0.109,15.583 -0.198,2.622 -0.198,-28.804 z M 75.3013,134.65 c 0.7038,-0.183 1.6804,-0.171 2.1702,0.026 0.4897,0.198 -0.0862,0.348 -1.2797,0.333 -1.1936,-0.017 -1.5944,-0.175 -0.8905,-0.359 z m 193.1207,-2.392 c 0,-1.392 0.149,-1.961 0.331,-1.265 0.182,0.696 0.182,1.835 0,2.531 -0.182,0.696 -0.331,0.127 -0.331,-1.266 z M 151.28,130.089 c 0,-2.188 0.136,-3.083 0.302,-1.989 0.166,1.094 0.166,2.884 0,3.978 -0.166,1.094 -0.302,0.199 -0.302,-1.989 z m 202.393,1.748 c 0.035,-0.843 0.206,-1.014 0.437,-0.438 0.209,0.522 0.183,1.146 -0.057,1.386 -0.241,0.24 -0.412,-0.186 -0.38,-0.948 z m -109.094,-6.088 c 0,-1.79 0.141,-2.522 0.314,-1.627 0.172,0.895 0.172,2.359 0,3.254 -0.173,0.896 -0.314,0.164 -0.314,-1.627 z m 108.37,1.748 c 0.035,-0.842 0.206,-1.014 0.437,-0.437 0.209,0.522 0.184,1.146 -0.057,1.387 -0.24,0.24 -0.411,-0.188 -0.38,-0.95 z m -0.723,-4.34 c 0.035,-0.842 0.206,-1.014 0.437,-0.436 0.209,0.522 0.183,1.146 -0.057,1.386 -0.241,0.24 -0.411,-0.187 -0.38,-0.95 z M 175.104,119.24 c 0,-1.393 0.148,-1.962 0.33,-1.266 0.182,0.696 0.182,1.835 0,2.531 -0.182,0.697 -0.33,0.127 -0.33,-1.265 z m 92.568,-0.362 c 0.015,-1.193 0.177,-1.594 0.36,-0.89 0.184,0.704 0.172,1.68 -0.026,2.17 -0.198,0.489 -0.349,-0.087 -0.334,-1.28 z m -115.678,-2.169 c 0.006,-1.989 0.146,-2.717 0.312,-1.618 0.166,1.1 0.162,2.727 -0.01,3.616 -0.172,0.89 -0.308,-0.008 -0.302,-1.998 z m 199.509,2.109 c 0.035,-0.842 0.206,-1.014 0.437,-0.437 0.209,0.522 0.183,1.146 -0.058,1.386 -0.24,0.24 -0.411,-0.187 -0.379,-0.949 z m 449.231,-3.616 c 0.034,-0.843 0.206,-1.014 0.437,-0.437 0.21,0.522 0.184,1.146 -0.059,1.386 -0.241,0.24 -0.41,-0.187 -0.378,-0.949 z m 23.233,-2.833 c 0.017,-1.193 0.176,-1.594 0.36,-0.89 0.184,0.703 0.172,1.68 -0.025,2.169 -0.199,0.49 -0.351,-0.086 -0.335,-1.279 z m -23.233,-1.507 c 0.034,-0.842 0.206,-1.014 0.437,-0.437 0.21,0.522 0.184,1.146 -0.059,1.386 -0.241,0.24 -0.41,-0.187 -0.378,-0.949 z m -189.406,-2.109 c 0.008,-1.592 0.157,-2.157 0.33,-1.258 0.173,0.9 0.166,2.202 -0.015,2.893 -0.181,0.692 -0.323,-0.042 -0.315,-1.635 z m -367.487,-2.17 c 0.008,-1.591 0.156,-2.157 0.329,-1.257 0.173,0.899 0.167,2.201 -0.014,2.893 -0.181,0.692 -0.323,-0.043 -0.315,-1.636 z m 23.108,0 c 0.014,-1.194 0.176,-1.594 0.36,-0.89 0.183,0.703 0.171,1.68 -0.027,2.169 -0.198,0.49 -0.348,-0.086 -0.333,-1.279 z m -114.242,-2.532 c 0,-1.79 0.142,-2.522 0.314,-1.627 0.172,0.895 0.172,2.36 0,3.255 -0.172,0.895 -0.314,0.162 -0.314,-1.628 z m 636.452,-0.422 c 0.035,-0.842 0.206,-1.014 0.438,-0.436 0.209,0.522 0.184,1.146 -0.06,1.386 -0.24,0.24 -0.409,-0.187 -0.378,-0.95 z m -613.386,-2.471 c 0,-0.994 0.165,-1.4011 0.365,-0.904 0.201,0.497 0.201,1.311 0,1.808 -0.2,0.498 -0.365,0.091 -0.365,-0.904 z m 107.841,-2.8928 c 0,-1.3923 0.148,-1.9619 0.33,-1.2657 0.182,0.6962 0.182,1.8352 0,2.5314 -0.182,0.6961 -0.33,0.1264 -0.33,-1.2657 z m 75.29,-1.8082 c 0.004,-2.3868 0.139,-3.2759 0.3,-1.976 0.161,1.3 0.157,3.2528 -0.008,4.3395 -0.165,1.0869 -0.297,0.0257 -0.292,-2.3635 z m -92.679,-1.4465 c 0.015,-1.1934 0.177,-1.594 0.361,-0.8904 0.183,0.7039 0.171,1.6802 -0.027,2.1699 -0.198,0.4895 -0.349,-0.0863 -0.334,-1.2795 z M 153.416,92.8408 c 0.008,-1.5913 0.156,-2.157 0.329,-1.2573 0.173,0.8997 0.167,2.2015 -0.014,2.8929 -0.181,0.692 -0.323,-0.0426 -0.315,-1.6356 z m 89.66,-0.7236 c 0.015,-1.1934 0.177,-1.594 0.361,-0.8903 0.183,0.7039 0.171,1.6801 -0.027,2.1698 -0.198,0.4895 -0.348,-0.0863 -0.334,-1.2795 z m 546.083,-2.23 c 0.035,-0.8423 0.206,-1.014 0.438,-0.4374 0.209,0.522 0.184,1.146 -0.06,1.3863 -0.24,0.24 -0.409,-0.1867 -0.378,-0.9489 z m 149.325,-3.9178 c 1.96,-1.989 3.726,-3.6163 3.925,-3.6163 0.199,0 -1.242,1.6273 -3.201,3.6163 -1.96,1.989 -3.726,3.6164 -3.924,3.6164 -0.2,0 1.241,-1.6274 3.2,-3.6164 z M 176.497,87.416 c 0,-0.9945 0.164,-1.4013 0.365,-0.9042 0.2,0.4972 0.2,1.311 0,1.8082 -0.201,0.4972 -0.365,0.0906 -0.365,-0.904 z m 181.573,0 c 0,-0.9945 0.164,-1.4013 0.365,-0.9042 0.201,0.4972 0.201,1.311 0,1.8082 -0.201,0.4972 -0.365,0.0906 -0.365,-0.904 z m 161.261,0.3016 c 0.035,-0.8423 0.206,-1.014 0.437,-0.4374 0.209,0.5219 0.184,1.1459 -0.057,1.3862 -0.24,0.2401 -0.411,-0.1867 -0.38,-0.9488 z m 317.38,-0.0684 c 0.522,-0.2093 1.146,-0.1836 1.387,0.0598 0.24,0.2401 -0.187,0.4109 -0.95,0.3802 -0.842,-0.0342 -1.013,-0.2085 -0.437,-0.44 z m 32.886,-3.1223 c 0,-1.7901 0.141,-2.5223 0.313,-1.6273 0.173,0.895 0.173,2.3597 0,3.2547 -0.172,0.8951 -0.313,0.1631 -0.313,-1.6274 z M 265.502,84.1656 c 0.014,-1.1934 0.177,-1.594 0.36,-0.8904 0.184,0.7039 0.171,1.6801 -0.026,2.1698 -0.198,0.4895 -0.349,-0.0863 -0.334,-1.2794 z M 154.14,82.7114 c 0.008,-1.5911 0.156,-2.1569 0.329,-1.2573 0.173,0.8997 0.166,2.2016 -0.015,2.8931 -0.181,0.6919 -0.322,-0.0427 -0.314,-1.6358 z M 242.326,80.18 c 0,-0.9945 0.164,-1.4013 0.365,-0.9041 0.201,0.4972 0.201,1.311 0,1.8082 -0.201,0.4971 -0.365,0.0905 -0.365,-0.9041 z m 429.155,-0.1811 -1.378,-1.6274 1.628,1.3779 c 1.529,1.2948 1.957,1.8769 1.378,1.8769 -0.137,0 -0.87,-0.7322 -1.628,-1.6274 z m 244.94,1.3543 c 0,-0.1503 0.57,-0.7201 1.266,-1.2657 1.147,-0.8996 1.173,-0.8741 0.273,0.2733 -0.945,1.2048 -1.539,1.5877 -1.539,0.9924 z M 762.244,78.1908 c -0.899,-1.1472 -0.874,-1.1728 0.274,-0.2734 1.205,0.9449 1.588,1.5388 0.992,1.5388 -0.15,0 -0.719,-0.5695 -1.266,-1.2654 z m 106.489,0.1204 c 0.035,-0.8423 0.206,-1.014 0.438,-0.4365 0.209,0.5219 0.184,1.1459 -0.06,1.3862 -0.24,0.24 -0.408,-0.1875 -0.378,-0.9497 z M 264.752,74.3936 c 0,-0.9946 0.164,-1.4014 0.364,-0.9042 0.201,0.4972 0.201,1.3109 0,1.8082 -0.2,0.4972 -0.364,0.0906 -0.364,-0.904 z m 151.664,0.9523 c 0.522,-0.2092 1.146,-0.1836 1.386,0.0599 0.241,0.24 -0.187,0.4117 -0.949,0.3801 -0.843,-0.0342 -1.014,-0.2085 -0.437,-0.44 z M 154.848,72.947 c 0,-1.3923 0.149,-1.9618 0.331,-1.2657 0.182,0.6963 0.182,1.8353 0,2.5314 -0.182,0.6962 -0.331,0.1264 -0.331,-1.2657 z m 86.279,-1.4465 c -0.246,-0.3981 -0.102,-0.7236 0.319,-0.7236 0.421,0 0.766,0.3255 0.766,0.7236 0,0.3981 -0.144,0.7235 -0.319,0.7235 -0.175,0 -0.52,-0.3254 -0.766,-0.7235 z m 107.018,-5.967 -2.125,-2.3506 2.351,2.1243 c 2.191,1.9802 2.684,2.577 2.125,2.577 -0.125,0 -1.183,-1.0578 -2.351,-2.3507 z m 341.759,1.0849 c -0.899,-1.1472 -0.874,-1.1727 0.273,-0.2733 1.205,0.9449 1.589,1.5388 0.993,1.5388 -0.15,0 -0.72,-0.5695 -1.266,-1.2655 z M 263.971,66.0162 c 0.035,-0.8423 0.206,-1.014 0.437,-0.4374 0.209,0.522 0.183,1.146 -0.057,1.3863 -0.24,0.24 -0.411,-0.1867 -0.38,-0.9489 z M 155.545,64.6299 c 0.015,-1.1934 0.177,-1.594 0.36,-0.8904 0.184,0.704 0.172,1.6802 -0.026,2.1698 -0.198,0.4895 -0.349,-0.0863 -0.334,-1.2794 z m 107.703,-6.5698 c 0.035,-0.8422 0.206,-1.0139 0.437,-0.4365 0.209,0.522 0.183,1.1459 -0.057,1.3863 -0.241,0.24 -0.412,-0.1875 -0.38,-0.9498 z m -106.98,-1.3863 c 0.015,-1.1934 0.177,-1.594 0.361,-0.8902 0.183,0.7039 0.171,1.6801 -0.027,2.1697 -0.198,0.4895 -0.348,-0.0863 -0.334,-1.2795 z m 328.147,-0.8556 c 0.523,-0.2085 1.146,-0.1829 1.387,0.0597 0.24,0.2401 -0.187,0.4118 -0.95,0.3802 -0.842,-0.0342 -1.014,-0.2084 -0.437,-0.4399 z m 2.849,0.017 c 0.497,-0.2007 1.311,-0.2007 1.808,0 0.498,0.2008 0.091,0.3648 -0.904,0.3648 -0.995,0 -1.402,-0.164 -0.904,-0.3648 z m 170.044,-0.017 c 0.522,-0.2085 1.146,-0.1829 1.386,0.0597 0.241,0.2401 -0.186,0.4118 -0.949,0.3802 -0.843,-0.0342 -1.014,-0.2084 -0.437,-0.4399 z m 4.34,0 c 0.523,-0.2085 1.147,-0.1829 1.387,0.0597 0.24,0.2401 -0.187,0.4118 -0.95,0.3802 -0.842,-0.0342 -1.014,-0.2084 -0.437,-0.4399 z m 167.106,0 c 0.522,-0.2085 1.146,-0.1829 1.386,0.0597 0.24,0.2401 -0.187,0.4118 -0.949,0.3802 -0.843,-0.0342 -1.014,-0.2084 -0.437,-0.4399 z M 156.965,49.8029 c 0,-0.9946 0.164,-1.4013 0.365,-0.9041 0.201,0.4972 0.201,1.311 0,1.8081 -0.201,0.4972 -0.365,0.0906 -0.365,-0.904 z m 104.836,-5.4848 c 0.035,-0.8423 0.206,-1.014 0.437,-0.4374 0.209,0.5219 0.183,1.146 -0.057,1.3863 -0.241,0.24 -0.411,-0.1867 -0.38,-0.9489 z M 157.688,43.2935 c 0,-0.9946 0.165,-1.4013 0.365,-0.9041 0.201,0.4972 0.201,1.311 0,1.8082 -0.2,0.4971 -0.365,0.0905 -0.365,-0.9041 z m 387.629,-3.1661 c 0,-0.1504 0.569,-0.7202 1.266,-1.2658 1.147,-0.8996 1.172,-0.8741 0.273,0.2734 -0.945,1.2047 -1.539,1.5876 -1.539,0.9924 z M 158.355,37.8087 c 0.035,-0.8423 0.206,-1.0139 0.437,-0.4374 0.209,0.5219 0.183,1.146 -0.057,1.3863 -0.241,0.24 -0.412,-0.1867 -0.38,-0.9489 z"
       fill="#4d666e"
       id="path192" />
    <path
       d="M 316.109,162.812 5.51957,162.63 3.4378,161.148 C 2.17804,160.251 1.05797,158.559 0.601168,156.863 0.0940762,154.98 -0.0899509,129.877 0.0405174,80.3823 0.224984,10.4208 0.30145,6.6025 1.55696,4.68693 2.28415,3.57743 3.98275,2.20867 5.33157,1.64512 7.439,0.764818 76.5352,0.620651 496.535,0.620651 c 450.864,0 488.945,0.091426 491.244,1.182389 4.877,2.31382 4.599,-2.558719 4.599,80.58296 v 75.328 l -2.46,2.459 -2.459,2.459 H 818.869 650.278 v -13.445 c 0,-12.365 0.099,-13.406 1.232,-12.967 6.76,2.621 18.458,3.333 25.212,1.535 15.673,-4.172 24.849,-18.877 24.849,-39.8189 0,-9.3209 -1.102,-14.4396 -4.695,-21.7986 C 687.922,57.795 667.622,52.0309 635.38,58.6756 l -7.958,1.6399 -0.361,51.3395 -0.362,51.339 z m 23.962,-24.36 c 6.877,-1.116 13.271,-2.999 13.958,-4.111 0.489,-0.79 -1.601,-14.66 -2.562,-17.001 -0.627,-1.529 -0.642,-1.53 -4.514,-0.224 -10.555,3.563 -23.662,3.46 -30.784,-0.241 -3.573,-1.856 -7.008,-5.985 -7.814,-9.392 l -0.47,-1.989 h 25.324 25.324 l 0.485,-4.882 c 0.495,-4.981 -0.388,-14.5196 -1.845,-19.9302 -2.946,-10.9404 -10.716,-19.177 -21.681,-22.9849 -6.687,-2.3222 -18.651,-2.3389 -25.198,-0.0342 -9.889,3.4793 -17.194,9.9516 -21.743,19.2636 -3.492,7.1495 -4.593,12.3718 -4.576,21.6979 0.024,12.6348 3.56,22.3058 10.771,29.4588 4.84,4.801 12.321,8.832 19.083,10.282 6.201,1.33 18.336,1.37 26.242,0.087 z m -32.03,-49.8255 c 0,-1.7208 2.202,-7.3281 3.48,-8.8628 4.619,-5.5467 13.635,-6.4896 19.475,-2.0367 2.814,2.146 4.321,4.8425 4.968,8.8865 l 0.475,2.969 H 322.24 c -11.288,0 -14.199,-0.1956 -14.199,-0.956 z m 122.468,48.8555 c 2.704,-0.789 5.13,-1.649 5.392,-1.911 0.408,-0.408 -1.501,-14.415 -2.437,-17.879 -0.29,-1.076 -0.727,-1.051 -4.818,0.27 -5.332,1.722 -16.458,2.037 -21.499,0.609 -4.353,-1.234 -8.807,-5.873 -10.18,-10.605 -1.589,-5.475 -1.286,-17.2144 0.55,-21.2819 3.627,-8.0371 8.459,-10.9965 17.833,-10.9213 3.247,0.0256 7.531,0.5032 9.52,1.0602 1.99,0.557 4.072,1.1336 4.627,1.281 0.743,0.1974 1.627,-2.1648 3.35,-8.951 l 2.342,-9.2189 -4.798,-1.509 c -2.638,-0.8295 -7.95,-1.8702 -11.804,-2.3118 -13.862,-1.5884 -25.765,2.2118 -34.589,11.0432 -5.072,5.0764 -8.512,10.8417 -10.578,17.7249 -1.622,5.4067 -1.828,19.7986 -0.368,25.6756 3.523,14.177 14.133,24.707 28.132,27.917 6.183,1.418 23.019,0.848 29.325,-0.992 z m 157.127,0.249 c 10.315,-2.862 16.542,-7.344 20.488,-14.747 4.346,-8.153 4.532,-19.929 0.456,-29.008 -3.698,-8.2379 -10.625,-13.0572 -29.264,-20.3587 -14.86,-5.8214 -17.723,-8.1056 -17.723,-14.1411 0,-6.1024 4.394,-8.3496 16.155,-8.2633 7.934,0.0598 10.057,0.4647 16.991,3.2544 2.714,1.0915 5.017,1.8719 5.119,1.734 0.102,-0.1375 0.933,-2.3663 1.848,-4.952 0.914,-2.5856 2.429,-6.7563 3.366,-9.268 l 1.704,-4.5668 -4.032,-1.7825 c -9.07,-4.0107 -14.246,-4.9744 -26.683,-4.9682 -10.757,0.0054 -11.974,0.1461 -17.237,1.9919 -12.37,4.3386 -19.088,11.2734 -21.376,22.0648 -2.925,13.8002 2.77,26.0619 15.177,32.6734 2.382,1.2691 8.528,3.8915 13.659,5.8275 5.131,1.9359 10.569,4.1539 12.085,4.9289 7.274,3.7187 9.809,9.1207 7.029,14.9777 -3.405,7.173 -21.865,8.029 -37.743,1.749 -3.29,-1.3 -6.089,-2.235 -6.219,-2.077 -0.525,0.636 -6.247,17.445 -6.247,18.349 0,1.927 13.478,6.451 23.511,7.892 5.198,0.747 24.704,-0.136 28.936,-1.31 z m 183.02,0.691 c 8.152,-1.328 14.512,-3.458 14.34,-4.804 -0.396,-3.096 -2.537,-16.315 -2.754,-17.002 -0.175,-0.55 -2.199,-0.226 -6.284,1.008 -8.253,2.494 -20.664,2.632 -26.643,0.297 -5.691,-2.222 -8.787,-5.421 -10.443,-10.79 l -0.499,-1.618 25.546,-0.19 25.545,-0.191 -0.051,-9.7637 c -0.077,-14.043 -2.654,-21.7602 -9.808,-29.3228 -4.493,-4.75 -10.282,-7.8442 -17.419,-9.3109 -14.181,-2.9142 -26.471,0.6168 -36.02,10.3493 -8.667,8.8341 -11.976,18.6569 -11.355,33.7091 0.367,8.906 1.389,13.116 4.807,19.815 4.336,8.499 15.68,16.319 26.212,18.071 6.109,1.016 17.747,0.895 24.826,-0.257 z M 738.909,87.5933 c 2.063,-8.6978 6.513,-12.5796 14.422,-12.5796 7.475,0 11.553,3.8883 13.571,12.9413 l 0.363,1.6274 H 752.851 738.437 Z M 856.74,137.592 c 4.377,-0.6 9.097,-1.328 10.49,-1.617 l 2.532,-0.524 0.206,-25.647 c 0.22,-27.2962 -0.182,-32.4212 -3.035,-38.698 -6.388,-14.0554 -23.107,-18.3509 -51.908,-13.3363 -7.112,1.2382 -6.823,0.6279 -5.293,11.1923 1.247,8.6032 1.421,9.1459 2.828,8.8136 11.63,-2.7469 21.911,-3.4283 27.312,-1.8104 3.844,1.1513 6.878,4.759 7.502,8.9188 0.274,1.8252 0.377,3.4185 0.23,3.5407 -0.148,0.1221 -2.872,-0.0513 -6.055,-0.3827 -6.479,-0.6766 -17.505,0.24 -23.088,1.9196 -13.053,3.9277 -19.546,14.7964 -17.063,28.5634 1.69,9.375 7.389,15.462 17.56,18.755 7.089,2.295 22.419,2.422 37.782,0.312 z m -25.319,-16.858 c -5.285,-1.275 -6.872,-3.194 -6.872,-8.31 0,-2.569 0.437,-3.779 1.992,-5.52 1.716,-1.92 2.754,-2.335 7.493,-3 3.025,-0.425 7.338,-0.543 9.582,-0.262 l 4.082,0.51 v 8.167 8.167 l -3.357,0.46 c -4.185,0.573 -10.064,0.478 -12.92,-0.212 z m -656.203,2.299 c 0.567,-16.615 1.802,-40.2319 2.493,-47.6572 l 0.48,-5.1657 11.572,27.0653 11.572,27.0656 8.671,-0.202 8.671,-0.202 11.166,-26.2402 c 6.142,-14.4325 11.403,-25.9867 11.692,-25.676 0.657,0.7065 3.427,50.5592 3.558,64.0312 0.011,1.154 1.068,1.266 11.949,1.266 10.887,0 11.935,-0.111 11.93,-1.266 -0.012,-2.766 -2.914,-49.6058 -3.642,-58.7651 -0.886,-11.1703 -3.359,-35.4939 -4.154,-40.8644 l -0.535,-3.6164 h -11.204 -11.204 l -5.916,11.9338 c -3.254,6.5637 -9.439,20.1444 -13.745,30.1793 -4.305,10.035 -7.991,18.244 -8.19,18.2422 -0.198,-0.0015 -3.42,-7.2358 -7.157,-16.0756 C 199.487,68.246 193.332,54.5854 189.548,46.729 L 182.667,32.4445 H 170.954 159.24 l -0.817,5.9669 c -2.457,17.9376 -7.359,81.9426 -7.359,96.0796 v 2.827 h 11.833 11.834 z M 473.7,107.336 V 77.3548 l 2.713,-0.7535 c 3.81,-1.058 10.647,-0.9439 13.406,0.2238 6.37,2.6956 7.004,5.99 7.018,36.4439 l 0.012,24.049 h 11.634 11.633 l -0.313,-27.665 c -0.334,-29.4987 -0.599,-31.9821 -4.182,-39.1538 -2.365,-4.7351 -8.387,-10.0998 -13.472,-12.002 -7.875,-2.9459 -18.351,-3.3431 -26.822,-1.017 L 473.7,57.927 V 39.0378 c 0,-10.3891 -0.156,-18.8892 -0.346,-18.8892 -0.559,0 -18.637,2.8933 -20.814,3.331 l -1.989,0.3999 v 56.7187 56.7188 h 11.574 11.575 z m 439.104,13.347 c 0,-9.513 0.282,-16.635 0.659,-16.635 1.823,0 13.591,14.836 21.86,27.559 l 3.711,5.711 h 12.927 c 7.111,0 12.928,-0.252 12.928,-0.561 0,-1.102 -6.31,-11.602 -10.996,-18.297 -5.141,-7.342 -14.748,-19.0345 -18.918,-23.0214 l -2.574,-2.4607 9.241,-9.8347 c 5.082,-5.4091 12.281,-13.2522 15.998,-17.429 l 6.758,-7.5943 -13.68,-0.2025 -13.68,-0.2024 -2.17,2.725 c -1.958,2.4589 -13.816,16.0652 -19.683,22.585 l -2.321,2.5795 -0.034,-32.7279 c -0.025,-23.3101 -0.259,-32.7276 -0.826,-32.7276 -0.854,0 -18.019,2.7353 -20.725,3.3026 l -1.628,0.3417 v 56.7625 56.7622 h 11.575 11.574 z m -813.8002,2.142 c 11.7232,-6.778 21.8782,-13.043 22.5652,-13.923 1.13,-1.446 1.251,-4.051 1.266,-27.0545 0.016,-25.3925 0.012,-25.4591 -1.612,-27.2554 C 119.009,52.1424 79.6647,29.5223 76.7776,29.0391 74.7844,28.7051 71.6789,30.2584 53.9905,40.4343 42.7269,46.9142 32.616,53.0357 31.5218,54.0377 l -1.9893,1.8218 v 25.7413 c 0,21.6512 0.1715,25.9862 1.0795,27.2822 0.5937,0.847 3.7676,3.097 7.0531,4.998 27.8674,16.127 37.1709,21.267 38.4902,21.267 0.8433,0 11.1251,-5.545 22.8485,-12.323 z m 555.1842,-4.886 -3.617,-1.234 V 96.4533 76.2019 l 6.507,-0.2119 c 8.135,-0.2648 11.572,0.9195 15.448,5.3219 3.727,4.234 4.811,8.3081 4.811,18.0863 0,7.4678 -0.147,8.2978 -2.174,12.2958 -1.746,3.442 -2.81,4.608 -5.398,5.914 -3.955,1.997 -10.298,2.132 -15.577,0.331 z"
       fill="#294a56"
       id="path194" />
  </g>
  <defs
     id="defs203">
    <clipPath
       id="clip0_8_16">
      <rect
         width="993"
         height="163"
         fill="#ffffff"
         id="rect200"
         x="0"
         y="0" />
    </clipPath>
  </defs>
</svg>
