<svg width="18" height="18" viewBox="0 0 18 18" fill="none" xmlns="http://www.w3.org/2000/svg">
<path d="M9.23787 2.30277C9.0871 2.23241 8.9129 2.23241 8.76213 2.30277L0.324628 6.24027C0.121403 6.33511 -0.00606942 6.5416 0.000222743 6.76578C0.00651487 6.98996 0.145369 7.18898 0.353594 7.27227L8.79109 10.6473C8.9252 10.7009 9.0748 10.7009 9.20891 10.6473L15.75 8.03083V14.625C15.1287 14.625 14.625 15.1287 14.625 15.75V18H18V15.75C18 15.1287 17.4963 14.625 16.875 14.625V7.58083L17.6464 7.27227C17.8546 7.18898 17.9935 6.98996 17.9998 6.76578C18.0061 6.5416 17.8786 6.33511 17.6754 6.24027L9.23787 2.30277Z" fill="#2A4B57"/>
<path d="M4.69751 10.1608C4.55117 10.1059 4.38861 10.1144 4.24878 10.1842C4.10894 10.254 4.00446 10.3788 3.96036 10.5288L3.39786 12.4413C3.316 12.7196 3.45923 13.0145 3.72859 13.1223L8.79109 15.1473C8.9252 15.2009 9.0748 15.2009 9.20891 15.1473L14.2714 13.1223C14.5408 13.0145 14.684 12.7196 14.6021 12.4413L14.0396 10.5288C13.9955 10.3788 13.8911 10.254 13.7512 10.1842C13.6114 10.1144 13.4488 10.1059 13.3025 10.1608L9 11.7742L4.69751 10.1608Z" fill="#2A4B57"/>
</svg>
