<?xml version="1.0" encoding="UTF-8" standalone="no"?>
<!-- Created with Inkscape (http://www.inkscape.org/) -->

<svg
   version="1.1"
   id="svg182"
   width="294.87323"
   height="201.96255"
   viewBox="0 0 294.87323 201.96255"
   sodipodi:docname="mountain.png"
   xmlns:inkscape="http://www.inkscape.org/namespaces/inkscape"
   xmlns:sodipodi="http://sodipodi.sourceforge.net/DTD/sodipodi-0.dtd"
   xmlns="http://www.w3.org/2000/svg"
   xmlns:svg="http://www.w3.org/2000/svg">
  <defs
     id="defs186" />
  <sodipodi:namedview
     id="namedview184"
     pagecolor="#ffffff"
     bordercolor="#000000"
     borderopacity="0.25"
     inkscape:showpageshadow="2"
     inkscape:pageopacity="0.0"
     inkscape:pagecheckerboard="0"
     inkscape:deskcolor="#d1d1d1"
     showgrid="false" />
  <g
     inkscape:groupmode="layer"
     inkscape:label="Image"
     id="g188"
     transform="translate(-239.57539,-285.83783)">
    <path
       style="fill:#EAB402;fill-opacity:1"
       d="m 394.94863,487.34801 c -28.6,-0.43071 -74.725,-0.7156 -102.5,-0.63309 -27.775,0.0825 -48.61012,0.008 -46.30026,-0.16456 l 4.19973,-0.31455 8.30027,-13.56006 c 9.34257,-15.26288 22.32652,-33.27961 33.99897,-47.17755 4.31797,-5.14122 10.38042,-13.69122 13.47212,-19 13.99895,-24.03766 15.93435,-26.65231 19.7284,-26.65231 1.51014,0 2.8289,-1.48721 4.83837,-5.45641 1.51932,-3.00103 2.75197,-5.92603 2.73922,-6.5 -0.0127,-0.57398 -2.12086,-3.24286 -4.68469,-5.93085 l -4.6615,-4.88726 -2.06532,2.59444 c -1.13592,1.42694 -5.43712,8.57621 -9.55821,15.88726 -4.1211,7.31105 -11.02425,19.14282 -15.34035,26.29282 -4.3161,7.15 -9.94429,17.03031 -12.5071,21.95624 -2.89895,5.57203 -7.11882,11.61781 -11.16776,16 -11.64278,12.60102 -31.99189,41.31778 -31.99189,45.14709 0,1.39795 -0.26645,1.53022 -1.20065,0.59602 -0.93421,-0.93421 -0.90277,-2.03271 0.14167,-4.95 2.77752,-7.75812 15.64718,-26.15862 27.7184,-39.63064 2.89837,-3.23471 7.03347,-8.85971 9.18911,-12.5 3.7919,-6.40349 19.37448,-33.55423 21.59045,-37.61871 4.57127,-8.38454 18.96408,-31.82556 21.09813,-34.36174 1.45237,-1.72604 3.47474,-3.13826 4.49415,-3.13826 1.01942,0 3.98213,2.4656 6.58381,5.47912 3.59258,4.16127 5.04016,5.22198 6.0185,4.41003 0.70849,-0.588 4.43882,-7.09063 8.28962,-14.4503 11.6268,-22.22119 32.89176,-56.09802 38.55052,-61.41415 3.17905,-2.98656 3.82249,-2.45195 11.22515,9.32659 3.16242,5.03179 7.61221,11.62371 9.88844,14.64871 15.34453,20.39218 25.60296,37.90883 34.39622,58.73279 2.37653,5.62803 5.17312,11.00398 6.21465,11.94655 1.80163,1.63046 2.2598,1.53262 9.42412,-2.01238 4.14173,-2.04938 9.54209,-4.00188 12.00079,-4.33888 3.99001,-0.5469 4.79531,-0.30194 7.49445,2.27959 2.68138,2.56457 11.88247,15.57529 11.88247,16.80232 0,0.26098 1.72292,3.31299 3.8287,6.78226 8.53805,14.06635 11.25723,18.8691 17.72558,31.30775 3.71814,7.15 8.43987,15.925 10.49271,19.5 5.36258,9.33885 15.95301,30.50245 15.95301,31.88001 0,0.64322 -1.12996,1.5991 -2.51103,2.12418 -3.62375,1.37775 -76.51034,1.90871 -136.98897,0.99793 z m -74.6981,-12.90246 c 10.95732,-11.14675 11.99859,-11.94214 16.44341,-12.56056 3.95594,-0.55041 5.19345,-1.27396 7.43937,-4.34967 4.46804,-6.11883 9.55104,-11.1255 14.56532,-14.34659 2.6125,-1.67823 4.75,-3.74944 4.75,-4.60269 0,-0.85325 -1.125,-3.02632 -2.5,-4.82904 -1.375,-1.80272 -2.5,-3.62377 -2.5,-4.04678 0,-0.42301 1.27651,-2.14054 2.83669,-3.81672 1.56018,-1.67619 6.36154,-8.56011 10.66968,-15.29761 7.54222,-11.79525 10.15996,-14.21695 12.05441,-11.15166 0.37334,0.60408 0.9624,5.44158 1.30901,10.75 l 0.63021,9.65166 4.75,0.30479 4.75,0.30479 v 5.24904 c 0,4.72511 0.36007,5.59303 3.60732,8.69521 1.98403,1.89539 5.37087,6.21354 7.52631,9.59589 3.54389,5.56111 8.83836,10.40656 17.07072,15.62296 1.48739,0.94248 7.78181,7.34169 13.9876,14.22046 11.03888,12.23597 11.37431,12.50686 15.48664,12.50686 2.31186,0 4.40911,-0.3375 4.66057,-0.75 0.39555,-0.64889 -9.0295,-12.47477 -23.7103,-29.75 -5.15821,-6.06978 -15.53707,-23.25643 -22.64589,-37.5 -9.34257,-18.7192 -25.18511,-44 -27.57317,-44 -0.68814,0 -5.22436,5.26676 -10.08048,11.7039 -4.85613,6.43715 -12.57344,16.67465 -17.14959,22.75 -7.95985,10.56759 -18.16394,26.74417 -20.12698,31.90735 -0.50974,1.34073 -5.11764,7.10694 -10.23978,12.8138 -18.58454,20.70607 -26.21457,30.36613 -25.23576,31.94988 0.29745,0.48129 2.11262,0.87507 4.0337,0.87507 3.1395,0 4.67642,-1.20399 15.19099,-11.90034 z m 177.02564,8.65034 c -1.26976,-1.7875 -7.94816,-8.875 -14.84089,-15.75 -6.89273,-6.875 -15.84899,-16.8875 -19.9028,-22.25 -4.05381,-5.3625 -7.86855,-9.7538 -8.47721,-9.75846 -1.53177,-0.0117 -17.60664,16.98446 -17.60664,18.61573 0,1.75488 3.71567,3.68369 5.27067,2.73601 0.67613,-0.41206 2.04949,-1.78287 3.05191,-3.04624 1.00242,-1.26337 2.41834,-2.29704 3.1465,-2.29704 0.72815,0 3.49067,3.4875 6.13893,7.75 2.64826,4.2625 9.06281,12.1375 14.25455,17.5 l 9.43953,9.75 h 10.91705 10.91705 z m 32.63528,0 c -0.36958,-1.2375 -5.80171,-11.32459 -12.07141,-22.41575 -6.2697,-11.09116 -12.69581,-23.01616 -14.28024,-26.5 -1.58443,-3.48384 -6.42012,-12.21458 -10.74598,-19.40164 -4.32585,-7.18707 -10.79019,-18.07706 -14.36519,-24.19998 -4.78528,-8.19578 -7.02761,-11.1446 -8.5,-11.1781 -2.19808,-0.05 -20.85157,8.46064 -21.22426,9.68357 -0.64157,2.10523 28.84765,38.06115 29.58463,36.07224 0.1982,-0.53489 -1.2168,-3.29854 -3.14445,-6.14144 -5.18091,-7.64083 -6.00712,-12.05652 -1.57525,-8.4189 3.21063,2.63524 20.85933,22.72485 20.85933,23.7443 0,2.45409 33.93608,51.0057 35.65142,51.0057 0.26584,0 0.18098,-1.0125 -0.1886,-2.25 z M 290.73353,450.8644 c 1.85965,-1.91482 7.61882,-9.43763 12.79814,-16.71736 7.01249,-9.85631 13.63755,-17.45722 25.94664,-29.76851 9.09132,-9.09295 18.54132,-17.92978 21,-19.63741 2.45867,-1.70762 4.35329,-3.63371 4.21025,-4.28019 -0.49415,-2.23344 2.72387,-6.92955 6.23583,-9.10006 2.68504,-1.65945 3.52424,-2.85 3.52424,-4.99976 0,-2.61599 6.01547,-21.29774 8.13533,-25.26522 0.51427,-0.9625 1.40242,-1.75 1.97367,-1.75 0.57125,0 3.95603,2.475 7.52172,5.5 3.5657,3.025 7.13249,5.5 7.92619,5.5 1.78897,0 1.8247,-2.56474 0.31774,-22.81151 -0.89904,-12.07901 -0.87615,-15.87908 0.10842,-18 1.23748,-2.66573 1.26013,-2.64194 2.67589,2.81151 3.78842,14.59292 11.23292,35.8736 17.95899,51.33716 9.62624,22.13117 9.38605,21.77663 13.90724,20.52827 4.47482,-1.23555 9.54183,0.2306 14.66617,4.2437 2.03025,1.58998 3.91608,2.89087 4.19074,2.89087 0.27466,0 -2.44578,-6.1875 -6.04543,-13.75 -3.59965,-7.5625 -8.27898,-17.72127 -10.3985,-22.57505 -4.48173,-10.2633 -8.74733,-17.22224 -21.00571,-34.26887 -4.89151,-6.80219 -10.33225,-14.96378 -12.09052,-18.13685 -4.10031,-7.39964 -6.77033,-11.26923 -7.77578,-11.26923 -2.62812,0 -25.63715,37.19411 -36.7289,59.37231 -5.23043,10.45835 -15.78753,27.78086 -23.54142,38.62769 -3.73511,5.225 -11.0132,15.8 -16.17353,23.5 -5.16033,7.7 -11.89955,17.375 -14.97603,21.5 -4.99482,6.69712 -11.64628,17.7712 -11.64628,19.38998 0,1.85542 4.36528,0.13477 7.2849,-2.87147 z"
       id="path417" />
  </g>
</svg>
