<?xml version="1.0" encoding="UTF-8" standalone="no"?>
<svg
   width="51"
   height="51"
   viewBox="0 0 51 51"
   fill="none"
   version="1.1"
   id="svg193"
   sodipodi:docname="preplypink.svg"
   inkscape:version="1.2 (dc2aeda, 2022-05-15)"
   xmlns:inkscape="http://www.inkscape.org/namespaces/inkscape"
   xmlns:sodipodi="http://sodipodi.sourceforge.net/DTD/sodipodi-0.dtd"
   xmlns="http://www.w3.org/2000/svg"
   xmlns:svg="http://www.w3.org/2000/svg">
  <sodipodi:namedview
     id="namedview195"
     pagecolor="#ffffff"
     bordercolor="#000000"
     borderopacity="0.25"
     inkscape:showpageshadow="2"
     inkscape:pageopacity="0.0"
     inkscape:pagecheckerboard="0"
     inkscape:deskcolor="#d1d1d1"
     showgrid="false"
     inkscape:zoom="4.627451"
     inkscape:cx="-0.43220339"
     inkscape:cy="25.5"
     inkscape:window-width="1309"
     inkscape:window-height="456"
     inkscape:window-x="0"
     inkscape:window-y="25"
     inkscape:window-maximized="0"
     inkscape:current-layer="svg193" />
  <circle
     cx="25.5"
     cy="25.5"
     r="25.5"
     fill="#ee83acff"
     id="circle182"
     style="stroke:none;stroke-opacity:1;fill:#ee83ac;fill-opacity:1" />
  <g
     clip-path="url(#clip0_273_108)"
     id="g186">
    <path
       d="M20.2907 41.8954C19.4229 41.7274 18.3814 41.1866 17.7353 40.5684C17.012 39.8763 16.5116 38.9634 16.2171 37.7986C16.0055 36.9613 15.9977 36.5196 16.0003 25.4532C16.0021 17.9854 16.043 13.8006 16.1175 13.4734C16.4791 11.886 17.7207 10.3424 19.2201 9.61607C20.6803 8.90879 22.2382 8.80735 23.6429 9.32807C24.3228 9.58009 37.2187 17.4891 38.1036 18.1967C39.3061 19.1583 40 20.7372 40 22.5116C40 23.6839 39.8187 24.4366 39.2949 25.4399C38.7077 26.5646 38.0511 27.1103 35.1011 28.926C33.609 29.8443 32.3006 30.671 32.1937 30.763C32.0549 30.8824 31.9992 31.0967 31.9992 31.5108C31.9992 33.8324 29.9822 36.2431 27.6256 36.7381L27.0274 36.8637L26.9016 37.4975C26.3022 40.5168 23.3423 42.4859 20.2907 41.8954ZM22.3871 38.4394C23.2504 38.0351 23.665 37.3709 23.665 36.3923C23.665 34.5012 21.4524 33.4904 20.0464 34.7392C19.5043 35.2208 19.2967 35.6784 19.2913 36.4041C19.2788 38.0622 20.9071 39.1327 22.3871 38.4394ZM27.3886 33.2715C27.9016 33.0357 28.5124 32.3805 28.6361 31.9333C28.6829 31.7644 28.7211 30.2856 28.7211 28.6471V25.6679L28.4264 25.162C28.0999 24.6017 27.6919 24.2564 27.121 24.0572C26.8711 23.97 25.7944 23.9254 23.9389 23.9254H21.1346L20.5402 24.2395C20.1078 24.4681 19.8546 24.7029 19.6108 25.1017L19.2757 25.6497L19.2394 28.4412C19.2155 30.2733 19.2417 31.2328 19.3155 31.2328C19.3773 31.2328 19.5622 31.1811 19.7264 31.118C20.8632 30.6807 22.5482 30.7901 23.8132 31.3832C24.6294 31.7659 25.716 32.666 25.9923 33.1882C26.1831 33.5488 26.716 33.5806 27.3886 33.2715ZM33.9206 25.7523C34.9024 25.1494 35.873 24.4827 36.0775 24.2708C36.9102 23.4078 36.9474 21.9562 36.1607 21.0263C35.8789 20.6933 34.0629 19.512 29.3924 16.6238C25.8817 14.4528 22.8334 12.6022 22.6184 12.5113C21.518 12.0461 20.1236 12.5968 19.5225 13.7341C19.2854 14.1826 19.2743 14.3371 19.2407 17.6484L19.2058 21.0958L19.9075 20.8608C20.5323 20.6516 20.938 20.6208 23.6095 20.5804C26.0405 20.5437 26.7679 20.5686 27.4432 20.7117C30.1052 21.276 31.9992 23.5085 31.9992 26.0818C31.9992 26.5034 32.0299 26.8484 32.0674 26.8484C32.1048 26.8484 32.9388 26.3551 33.9206 25.7523Z"
       fill="#000000"
       id="path184" />
  </g>
  <defs
     id="defs191">
    <clipPath
       id="clip0_273_108">
      <rect
         width="24"
         height="33"
         fill="white"
         transform="translate(16 9)"
         id="rect188" />
    </clipPath>
  </defs>
</svg>
