<?xml version="1.0" encoding="UTF-8" standalone="no"?>
<svg
   width="11"
   height="11"
   viewBox="0 0 11 11"
   fill="none"
   version="1.1"
   id="svg184"
   xmlns="http://www.w3.org/2000/svg"
   xmlns:svg="http://www.w3.org/2000/svg">
  <defs
     id="defs188" />
  <path
     d="M 8.07274,7.11142 C 8.61638,6.37127 8.9375,5.45751 8.9375,4.46875 8.9375,2.00073 6.93677,0 4.46875,0 2.00073,0 0,2.00073 0,4.46875 0,6.93677 2.00073,8.9375 4.46875,8.9375 c 0.98903,0 1.90301,-0.3213 2.64327,-0.86521 l -6e-4,4.5e-4 c 0.02028,0.02749 0.04286,0.05381 0.06775,0.0787 l 2.6472,2.64716 c 0.26853,0.2685 0.70383,0.2685 0.97223,0 0.2685,-0.2684 0.2685,-0.7037 0,-0.97223 L 8.15144,7.17917 C 8.12655,7.15428 8.10023,7.1317 8.07274,7.11142 Z M 8.25,4.46875 C 8.25,6.55708 6.55708,8.25 4.46875,8.25 2.38042,8.25 0.6875,6.55708 0.6875,4.46875 0.6875,2.38042 2.38042,0.6875 4.46875,0.6875 6.55708,0.6875 8.25,2.38042 8.25,4.46875 Z"
     fill="#ef8914"
     id="path182" />
  <path
     style="fill:#000000;fill-opacity:0;stroke-width:0.0932203;stroke-linecap:round;stroke-miterlimit:6"
     d="M 4.4283302,0.62514069 C 2.9931342,0.60707016 1.6252749,1.5012594 1.0125879,2.7907323 0.74521845,3.3019933 0.60133796,3.8728334 0.64726231,4.4514532 0.56495778,5.4595284 1.0387989,6.4360296 1.7145624,7.1579382 2.421586,7.8718638 3.425997,8.2975876 4.4293316,8.3204615 5.9134299,8.3416403 7.3619061,7.4365822 7.9631582,6.0739716 8.6244987,4.7034656 8.3405277,2.9646626 7.2946738,1.8634964 6.5693673,1.073948 5.5069225,0.58760348 4.4283302,0.62514069 Z"
     id="path2137" />
  <path
     style="fill:#000000;fill-opacity:0;stroke-width:0.0932203;stroke-linecap:round;stroke-miterlimit:6"
     d="M 4.4283302,0.62514069 C 2.9931342,0.60707016 1.6252749,1.5012594 1.0125879,2.7907323 0.74521845,3.3019933 0.60133796,3.8728334 0.64726231,4.4514532 0.56495778,5.4595284 1.0387989,6.4360296 1.7145624,7.1579382 2.421586,7.8718638 3.425997,8.2975876 4.4293316,8.3204615 5.9134299,8.3416403 7.3619061,7.4365822 7.9631582,6.0739716 8.6244987,4.7034656 8.3405277,2.9646626 7.2946738,1.8634964 6.5693673,1.073948 5.5069225,0.58760348 4.4283302,0.62514069 Z"
     id="path2139" />
  <path
     style="fill:#e0e0e0;fill-opacity:0;stroke-width:0.0932203;stroke-linecap:round;stroke-miterlimit:6"
     d="M 4.4283302,0.62514069 C 2.9931342,0.60707016 1.6252749,1.5012594 1.0125879,2.7907323 0.74521845,3.3019933 0.60133796,3.8728334 0.64726231,4.4514532 0.56495778,5.4595284 1.0387989,6.4360296 1.7145624,7.1579382 2.421586,7.8718638 3.425997,8.2975876 4.4293316,8.3204615 5.9134299,8.3416403 7.3619061,7.4365822 7.9631582,6.0739716 8.6244987,4.7034656 8.3405277,2.9646626 7.2946738,1.8634964 6.5693673,1.073948 5.5069225,0.58760348 4.4283302,0.62514069 Z"
     id="path2141" />
  <path
     style="fill:#e0e0e0;fill-opacity:0;stroke-width:0.0932203;stroke-linecap:round;stroke-miterlimit:6"
     d="M 4.4283302,0.62514069 C 2.9931342,0.60707016 1.6252749,1.5012594 1.0125879,2.7907323 0.74521845,3.3019933 0.60133796,3.8728334 0.64726231,4.4514532 0.56495778,5.4595284 1.0387989,6.4360296 1.7145624,7.1579382 2.421586,7.8718638 3.425997,8.2975876 4.4293316,8.3204615 5.9134299,8.3416403 7.3619061,7.4365822 7.9631582,6.0739716 8.6244987,4.7034656 8.3405277,2.9646626 7.2946738,1.8634964 6.5693673,1.073948 5.5069225,0.58760348 4.4283302,0.62514069 Z"
     id="path2940" />
  <path
     style="fill:#e0e0e0;fill-opacity:0;stroke-width:0.0932203;stroke-linecap:round;stroke-miterlimit:6"
     d="M 4.4283302,0.62514069 C 2.9931342,0.60707016 1.6252749,1.5012594 1.0125879,2.7907323 0.74521845,3.3019933 0.60133796,3.8728334 0.64726231,4.4514532 0.56495778,5.4595284 1.0387989,6.4360296 1.7145624,7.1579382 2.421586,7.8718638 3.425997,8.2975876 4.4293316,8.3204615 5.9134299,8.3416403 7.3619061,7.4365822 7.9631582,6.0739716 8.6244987,4.7034656 8.3405277,2.9646626 7.2946738,1.8634964 6.5693673,1.073948 5.5069225,0.58760348 4.4283302,0.62514069 Z"
     id="path2942" />
  <path
     style="fill:#e0e0e0;fill-opacity:0;stroke-width:0.0932203;stroke-linecap:round;stroke-miterlimit:6"
     d="M 4.4283302,0.62514069 C 2.9931342,0.60707016 1.6252749,1.5012594 1.0125879,2.7907323 0.74521845,3.3019933 0.60133796,3.8728334 0.64726231,4.4514532 0.56495778,5.4595284 1.0387989,6.4360296 1.7145624,7.1579382 2.421586,7.8718638 3.425997,8.2975876 4.4293316,8.3204615 5.9134299,8.3416403 7.3619061,7.4365822 7.9631582,6.0739716 8.6244987,4.7034656 8.3405277,2.9646626 7.2946738,1.8634964 6.5693673,1.073948 5.5069225,0.58760348 4.4283302,0.62514069 Z"
     id="path2944" />
  <path
     style="fill:#e0e0e0;fill-opacity:0;stroke-width:0.0932203;stroke-linecap:round;stroke-miterlimit:6"
     d="M 4.3776235,-0.06281449 C 2.4674029,-0.06472396 0.67990436,1.3030366 0.13340192,3.1247681 -0.46168923,4.9399592 0.26515638,7.0774079 1.8393684,8.1584301 2.7060939,8.7910369 3.7961652,9.0788463 4.8627514,8.9820164 5.6710733,8.9397876 6.4301246,8.6083996 7.1050468,8.1789922 8.0675864,9.1153532 8.9871916,10.102447 9.9886866,10.995266 10.303569,11.111402 10.699201,11.074002 10.892305,10.76531 11.17994,10.479304 11.09479,9.9941423 10.790981,9.7533686 9.9420629,8.8439767 9.0440317,7.9818116 8.1721647,7.0945777 9.214727,5.6602742 9.2781807,3.6149553 8.3425832,2.1121143 7.5262238,0.74856794 5.9687468,-0.11314187 4.3776235,-0.06281449 Z m 0.087212,0.83679821 C 5.9112802,0.74649482 7.2983462,1.6593726 7.8592758,2.988604 8.5449305,4.5068236 8.0392526,6.4349739 6.7001858,7.4238138 5.9236683,8.033575 4.8989763,8.2341432 3.9280903,8.1242798 2.1944251,7.9051999 0.73188742,6.2855641 0.7837245,4.5110815 0.73115285,3.0370186 1.6629122,1.6129845 3.0301311,1.0608362 3.4833279,0.87296406 3.9713013,0.77575855 4.4648355,0.77398372 Z"
     id="path2946" />
  <path
     style="fill:#e0e0e0;fill-opacity:0;stroke-width:0.0932203;stroke-linecap:round;stroke-miterlimit:6"
     d="M 4.3776235,-0.06281449 C 2.4674029,-0.06472396 0.67990436,1.3030366 0.13340192,3.1247681 -0.46168923,4.9399592 0.26515638,7.0774079 1.8393684,8.1584301 2.7060939,8.7910369 3.7961652,9.0788463 4.8627514,8.9820164 5.6710733,8.9397876 6.4301246,8.6083996 7.1050468,8.1789922 8.0675864,9.1153532 8.9871916,10.102447 9.9886866,10.995266 10.303569,11.111402 10.699201,11.074002 10.892305,10.76531 11.17994,10.479304 11.09479,9.9941423 10.790981,9.7533686 9.9420629,8.8439767 9.0440317,7.9818116 8.1721647,7.0945777 9.214727,5.6602742 9.2781807,3.6149553 8.3425832,2.1121143 7.5262238,0.74856794 5.9687468,-0.11314187 4.3776235,-0.06281449 Z m 0.087212,0.83679821 C 5.9112802,0.74649482 7.2983462,1.6593726 7.8592758,2.988604 8.5449305,4.5068236 8.0392526,6.4349739 6.7001858,7.4238138 5.9236683,8.033575 4.8989763,8.2341432 3.9280903,8.1242798 2.1944251,7.9051999 0.73188742,6.2855641 0.7837245,4.5110815 0.73115285,3.0370186 1.6629122,1.6129845 3.0301311,1.0608362 3.4833279,0.87296406 3.9713013,0.77575855 4.4648355,0.77398372 Z"
     id="path2950" />
  <path
     style="fill:#e0e0e0;fill-opacity:0;stroke-width:0.0932203;stroke-linecap:round;stroke-miterlimit:6"
     d="M 4.4283302,0.62514069 C 2.9931342,0.60707016 1.6252749,1.5012594 1.0125879,2.7907323 0.74521845,3.3019933 0.60133796,3.8728334 0.64726231,4.4514532 0.56495778,5.4595284 1.0387989,6.4360296 1.7145624,7.1579382 2.421586,7.8718638 3.425997,8.2975876 4.4293316,8.3204615 5.9134299,8.3416403 7.3619061,7.4365822 7.9631582,6.0739716 8.6244987,4.7034656 8.3405277,2.9646626 7.2946738,1.8634964 6.5693673,1.073948 5.5069225,0.58760348 4.4283302,0.62514069 Z"
     id="path2952" />
  <path
     style="fill:#e0e0e0;fill-opacity:0;stroke-width:0.0932203;stroke-linecap:round;stroke-miterlimit:6"
     d="M 4.4283302,0.62514069 C 2.9931342,0.60707016 1.6252749,1.5012594 1.0125879,2.7907323 0.74521845,3.3019933 0.60133796,3.8728334 0.64726231,4.4514532 0.56495778,5.4595284 1.0387989,6.4360296 1.7145624,7.1579382 2.421586,7.8718638 3.425997,8.2975876 4.4293316,8.3204615 5.9134299,8.3416403 7.3619061,7.4365822 7.9631582,6.0739716 8.6244987,4.7034656 8.3405277,2.9646626 7.2946738,1.8634964 6.5693673,1.073948 5.5069225,0.58760348 4.4283302,0.62514069 Z"
     id="path2954" />
  <path
     style="fill:#e0e0e0;fill-opacity:0;stroke-width:0.0932203;stroke-linecap:round;stroke-miterlimit:6"
     d="M 4.4283302,0.62514069 C 2.9931342,0.60707016 1.6252749,1.5012594 1.0125879,2.7907323 0.74521845,3.3019933 0.60133796,3.8728334 0.64726231,4.4514532 0.56495778,5.4595284 1.0387989,6.4360296 1.7145624,7.1579382 2.421586,7.8718638 3.425997,8.2975876 4.4293316,8.3204615 5.9134299,8.3416403 7.3619061,7.4365822 7.9631582,6.0739716 8.6244987,4.7034656 8.3405277,2.9646626 7.2946738,1.8634964 6.5693673,1.073948 5.5069225,0.58760348 4.4283302,0.62514069 Z"
     id="path2956" />
  <path
     style="fill:#e0e0e0;fill-opacity:0;stroke-width:0.0932203;stroke-linecap:round;stroke-miterlimit:6"
     d="M 4.4283302,0.62514069 C 2.9931342,0.60707016 1.6252749,1.5012594 1.0125879,2.7907323 0.74521845,3.3019933 0.60133796,3.8728334 0.64726231,4.4514532 0.56495778,5.4595284 1.0387989,6.4360296 1.7145624,7.1579382 2.421586,7.8718638 3.425997,8.2975876 4.4293316,8.3204615 5.9134299,8.3416403 7.3619061,7.4365822 7.9631582,6.0739716 8.6244987,4.7034656 8.3405277,2.9646626 7.2946738,1.8634964 6.5693673,1.073948 5.5069225,0.58760348 4.4283302,0.62514069 Z"
     id="path2958" />
  <path
     style="fill:#e0e0e0;fill-opacity:0;stroke-width:0.0932203;stroke-linecap:round;stroke-miterlimit:6"
     d="M 4.3776235,-0.06281449 C 2.4674029,-0.06472396 0.67990436,1.3030366 0.13340192,3.1247681 -0.46168923,4.9399592 0.26515638,7.0774079 1.8393684,8.1584301 2.7060939,8.7910369 3.7961652,9.0788463 4.8627514,8.9820164 5.6710733,8.9397876 6.4301246,8.6083996 7.1050468,8.1789922 8.0675864,9.1153532 8.9871916,10.102447 9.9886866,10.995266 10.303569,11.111402 10.699201,11.074002 10.892305,10.76531 11.17994,10.479304 11.09479,9.9941423 10.790981,9.7533686 9.9420629,8.8439767 9.0440317,7.9818116 8.1721647,7.0945777 9.214727,5.6602742 9.2781807,3.6149553 8.3425832,2.1121143 7.5262238,0.74856794 5.9687468,-0.11314187 4.3776235,-0.06281449 Z m 0.087212,0.83679821 C 5.9112802,0.74649482 7.2983462,1.6593726 7.8592758,2.988604 8.5449305,4.5068236 8.0392526,6.4349739 6.7001858,7.4238138 5.9236683,8.033575 4.8989763,8.2341432 3.9280903,8.1242798 2.1944251,7.9051999 0.73188742,6.2855641 0.7837245,4.5110815 0.73115285,3.0370186 1.6629122,1.6129845 3.0301311,1.0608362 3.4833279,0.87296406 3.9713013,0.77575855 4.4648355,0.77398372 Z"
     id="path2960" />
  <path
     style="fill:#e0e0e0;fill-opacity:1;stroke-width:0.0932203;stroke-linecap:round;stroke-miterlimit:6"
     d="M 4.4283302,0.62514069 C 2.9931342,0.60707016 1.6252749,1.5012594 1.0125879,2.7907323 0.74521845,3.3019933 0.60133796,3.8728334 0.64726231,4.4514532 0.56495778,5.4595284 1.0387989,6.4360296 1.7145624,7.1579382 2.421586,7.8718638 3.425997,8.2975876 4.4293316,8.3204615 5.9134299,8.3416403 7.3619061,7.4365822 7.9631582,6.0739716 8.6244987,4.7034656 8.3405277,2.9646626 7.2946738,1.8634964 6.5693673,1.073948 5.5069225,0.58760348 4.4283302,0.62514069 Z"
     id="path2962" />
</svg>
