<?xml version="1.0" encoding="UTF-8" standalone="no"?>
<!-- Created with Inkscape (http://www.inkscape.org/) -->

<svg
   version="1.1"
   id="svg182"
   width="249.18164"
   height="124.21909"
   viewBox="0 0 249.18164 124.21909"
   sodipodi:docname="eye.png"
   xml:space="preserve"
   xmlns:inkscape="http://www.inkscape.org/namespaces/inkscape"
   xmlns:sodipodi="http://sodipodi.sourceforge.net/DTD/sodipodi-0.dtd"
   xmlns="http://www.w3.org/2000/svg"
   xmlns:svg="http://www.w3.org/2000/svg"><defs
     id="defs186" /><sodipodi:namedview
     id="namedview184"
     pagecolor="#ffffff"
     bordercolor="#9DA083"
     borderopacity="0.25"
     inkscape:showpageshadow="2"
     inkscape:pageopacity="0.0"
     inkscape:pagecheckerboard="0"
     inkscape:deskcolor="#d1d1d1"
     showgrid="false" /><g
     inkscape:groupmode="layer"
     inkscape:label="Image"
     id="g188"
     transform="translate(-420.70856,-387.83603)"><g
       id="g4808"
       transform="translate(144.18107,-31.039497)"><path
         id="path417"
         style="fill:#9DA083;stroke-width:1.33333"
         d="m 396.09587,418.87576 c -24.09473,0.0346 -39.07161,3.9271 -61.50391,15.08008 -7.76879,3.86253 -17.6688,9.43481 -22,12.38281 -10.38953,7.07157 -32.84257,27.26715 -35.18945,31.65235 -1.80199,3.36703 -1.57099,3.75347 8.06445,13.52343 28.87729,29.28047 64.96394,47.33648 101.91797,50.9961 31.81202,3.15041 68.20227,-6.56668 98,-26.16797 11.7979,-7.76078 31.07377,-24.41746 36.49414,-31.53516 l 3.83008,-5.02734 -6.49609,-6.66992 c -18.50067,-18.99793 -39.40992,-33.62942 -62.03711,-43.41211 -17.89413,-7.73638 -27.53498,-9.77643 -50.14844,-10.61133 -3.86266,-0.14261 -7.48954,-0.21588 -10.93164,-0.21094 z m 4.28711,15.08594 c 16.04242,0.11853 31.98535,8.39704 40.5332,25.01953 5.21914,10.14933 5.99875,27.65264 1.73633,38.9668 -3.73422,9.91215 -12.41658,18.87911 -23.29688,24.05859 -13.79938,6.5691 -31.31873,5.84044 -43.71093,-1.81836 -6.63126,-4.09835 -15.37431,-14.03584 -18.70508,-21.25976 -4.43978,-9.62918 -4.12074,-27.60564 0.67187,-37.83008 8.50404,-18.14229 25.69407,-27.2629 42.77149,-27.13672 z m -1.38867,18.17969 c -6.75928,0.14681 -13.64587,2.62805 -19.41797,7.70703 -6.21006,5.46433 -9.82649,18.29642 -7.54492,26.76953 1.83741,6.82366 8.73851,15.76797 14.68554,19.03125 7.02366,3.85403 21.95804,2.75066 29.39649,-2.17188 10.06843,-6.66297 14.6514,-22.37314 9.86718,-33.82617 -4.80917,-11.5128 -15.72086,-17.75445 -26.98632,-17.50976 z m 1.92382,10.49218 c 0.38181,-0.20814 5.07758,1.11139 5.32422,1.4961 0.0847,0.13219 0.10752,0.44452 0.0508,0.69336 -0.0568,0.24882 -2.2215,7.90465 -4.81054,17.01172 -2.99323,10.52874 -4.81257,16.63936 -4.9961,16.7832 -0.35143,0.27542 -0.43392,0.2725 -1.55273,-0.0703 -0.48857,-0.14969 -1.54099,-0.47217 -2.33789,-0.7168 -0.88351,-0.27123 -1.49207,-0.56238 -1.56055,-0.74414 -0.062,-0.1645 2.05465,-7.91042 4.72461,-17.28711 3.64029,-12.78446 4.9186,-17.03541 5.1582,-17.16602 z m -13.66992,7.61914 c 0.19767,0 1.01997,0.72624 1.96875,1.73829 1.84983,1.97319 1.95714,2.12454 1.81641,2.57617 -0.0561,0.17984 -1.53921,1.61161 -3.29688,3.18164 -1.75767,1.57001 -3.19531,2.87606 -3.19531,2.90234 0,0.0263 1.25785,1.16939 2.79688,2.53906 3.18998,2.83896 3.77539,3.42748 3.77539,3.80079 0,0.44539 -3.41459,4.07226 -3.83399,4.07226 -0.2412,0 -2.17331,-1.71801 -5.50781,-4.89453 -2.82542,-2.69155 -5.20728,-5.04388 -5.29102,-5.22852 -0.0849,-0.18734 -0.0823,-0.45883 0.004,-0.61523 0.34074,-0.62019 10.4416,-10.07227 10.76367,-10.07227 z m 22.79688,0 c 0.38387,0 10.51178,9.49424 10.80273,10.12696 0.085,0.18492 0.0841,0.45452 -0.002,0.61133 -0.0848,0.15444 -2.46446,2.48534 -5.28711,5.17773 -3.36062,3.20552 -5.26057,4.89453 -5.50586,4.89453 -0.24748,0 -0.96164,-0.64505 -2.10547,-1.90234 -0.95215,-1.04661 -1.73242,-2.03013 -1.73242,-2.18555 0,-0.35141 0.30425,-0.65579 3.77539,-3.76758 1.53904,-1.3797 2.79883,-2.52784 2.79883,-2.55078 0,-0.023 -1.25979,-1.16912 -2.79883,-2.54883 -3.47114,-3.11178 -3.77539,-3.41615 -3.77539,-3.76758 0,-0.45411 3.40463,-4.08789 3.83008,-4.08789 z" /></g></g></svg>
