<?xml version="1.0" encoding="UTF-8" standalone="no"?>
<!-- Created with Inkscape (http://www.inkscape.org/) -->

<svg
   version="1.1"
   id="svg182"
   width="678.58148"
   height="204.58647"
   viewBox="0 0 678.58149 204.58647"
   sodipodi:docname="BERKANA_LOGO.svg"
   inkscape:version="1.2 (dc2aeda, 2022-05-15)"
   inkscape:export-filename="berkanalogosocial.png"
   inkscape:export-xdpi="96"
   inkscape:export-ydpi="96"
   xml:space="preserve"
   xmlns:inkscape="http://www.inkscape.org/namespaces/inkscape"
   xmlns:sodipodi="http://sodipodi.sourceforge.net/DTD/sodipodi-0.dtd"
   xmlns="http://www.w3.org/2000/svg"
   xmlns:svg="http://www.w3.org/2000/svg"><defs
     id="defs186" /><sodipodi:namedview
     id="namedview184"
     pagecolor="#ffffff"
     bordercolor="#000000"
     borderopacity="0.25"
     inkscape:showpageshadow="2"
     inkscape:pageopacity="0.0"
     inkscape:pagecheckerboard="0"
     inkscape:deskcolor="#d1d1d1"
     showgrid="false"
     inkscape:zoom="0.59151425"
     inkscape:cx="186.80869"
     inkscape:cy="102.27987"
     inkscape:window-width="1440"
     inkscape:window-height="783"
     inkscape:window-x="72"
     inkscape:window-y="32"
     inkscape:window-maximized="0"
     inkscape:current-layer="g188" /><g
     inkscape:groupmode="layer"
     inkscape:label="Image"
     id="g188"
     transform="translate(-24.492909,-11.401906)"><g
       id="g5077"><path
         style="fill:#eaedf0;fill-opacity:1;stroke-width:0.666667"
         d="m 45.333335,131.60498 c -1.65,-0.53488 -4.65,-1.28154 -6.666667,-1.65924 -6.183056,-1.15805 -6.141097,-1.13178 -5.594882,-3.50346 0.45803,-1.98878 0.81155,-34.086755 0.827232,-75.108948 0.0039,-10.083333 0.28083,-19.065253 0.615503,-19.959823 0.418219,-1.117892 0.329964,-2.160218 -0.282239,-3.333334 -0.5258,-1.007548 -0.892416,-3.895762 -0.89484,-7.04957 l -0.0041,-5.342729 6.681297,-1.854241 c 3.674712,-1.019833 7.027716,-1.640143 7.451118,-1.378466 0.423402,0.261677 4.991819,4.228567 10.152038,8.81531 5.160218,4.586743 11.983949,10.423152 15.163842,12.969796 3.53218,2.828775 5.9441,5.277627 6.199234,6.294148 0.229686,0.915138 0.213086,3.739495 -0.03687,6.276349 -0.51592,5.235805 -0.493607,5.201569 -11.004327,16.883252 l -6.393688,7.105988 4.393691,4.094673 c 2.41653,2.252073 7.16869,6.80014 10.560357,10.106826 l 6.166667,6.012154 v 5.766653 5.766652 l -4.762293,4.24651 c -2.619267,2.33558 -6.894267,6.36826 -9.500001,8.96149 -4.254284,4.23387 -19.253883,17.01813 -19.836876,16.90709 -0.128817,-0.0245 -1.584191,-0.48222 -3.234191,-1.01708 z m 18.249598,-31.0834 c 3.388616,-3.128309 3.847016,-3.833656 3.402289,-5.235169 -0.28268,-0.89086 -4.295,-5.369746 -8.916261,-9.95308 l -8.402293,-8.333333 -0.181146,13.282473 c -0.106737,7.826433 -0.462342,13.621289 -0.865706,14.107309 -0.469336,0.56552 -0.464783,0.96068 0.01448,1.25688 0.384472,0.23761 0.699039,2.27261 0.699039,4.5222 v 4.09018 l 5.166667,-5.06101 c 2.841667,-2.78355 6.928985,-6.68795 9.082931,-8.67645 z M 57.700068,55.999999 c 0.452131,0 1.028775,-0.82363 1.28143,-1.830289 0.252655,-1.006659 1.512313,-3.115263 2.799239,-4.685787 l 2.339867,-2.855498 -2.520315,-2.814213 C 60.214116,42.266395 58.461981,40.569394 57.706655,40.0431 56.951329,39.516805 54.683335,37.593888 52.666668,35.769951 L 49.000002,32.453702 48.43422,46.919377 c -0.31118,7.956121 -0.386815,15.178734 -0.168078,16.05025 0.375297,1.495303 0.629085,1.343613 4.504786,-2.692527 2.258896,-2.352406 4.477009,-4.277101 4.92914,-4.277101 z M 253.65796,128.77306 c -2.20063,-3.32536 -7.65795,-15.73155 -7.65795,-17.40888 0,-0.71386 -0.41183,-1.53784 -0.91518,-1.83106 -0.50334,-0.29322 -2.54728,-3.83312 -4.54208,-7.86646 -1.99481,-4.033329 -5.04311,-10.183329 -6.774,-13.666662 l -3.14707,-6.333333 0.35583,11.833333 c 0.1957,6.508332 0.55011,17.008332 0.78756,23.333332 l 0.43174,11.5 -3.43717,1.23557 c -2.82489,1.01548 -4.40441,1.14996 -8.86703,0.75492 l -5.42988,-0.48065 0.4481,-12.94008 c 0.33231,-9.5962 0.7308,-13.64659 1.54205,-15.67412 0.78716,-1.967299 0.90202,-3.041352 0.40958,-3.829872 -0.64676,-1.035634 -1.08729,-27.50082 -0.69465,-41.732433 0.091,-3.3 -0.0589,-13.528244 -0.33313,-22.729431 l -0.49866,-16.729432 6.2422,-2.522722 c 3.43321,-1.387497 6.54369,-2.409253 6.91219,-2.270568 0.3685,0.138685 6.23669,5.116898 13.04044,11.062695 8.19156,7.158605 12.44343,11.324958 12.58647,12.333333 0.1493,1.052485 0.66344,1.522793 1.66469,1.522793 0.79677,0 3.16065,1.475864 5.25309,3.279699 l 3.80442,3.2797 -0.43926,5.267134 -0.43926,5.267134 -7.83781,9.453166 c -4.3108,5.199239 -8.62705,10.525412 -9.59168,11.835939 l -1.75386,2.382767 1.93315,3.283899 c 1.06322,1.80614 1.93826,3.92216 1.94451,4.702267 0.006,0.7801 0.46942,1.798513 1.02926,2.26314 1.11975,0.929313 8.0081,12.38734 8.40761,13.985152 0.70766,2.83029 6.75996,13.29667 8.84591,15.29745 1.98427,1.90324 2.39329,2.76116 2.38385,5 l -0.0114,2.70255 -6.33577,3.5 c -3.48467,1.925 -6.62529,3.5 -6.97914,3.5 -0.35385,0 -1.40581,-1.15212 -2.33767,-2.56027 z M 238.97889,61.380437 c 9.74647,-12.209093 9.43008,-11.666963 7.89472,-13.527486 -0.68972,-0.83579 -4.61844,-4.802335 -8.73049,-8.814544 l -7.47645,-7.294924 v 6.084858 c 0,3.346672 -0.30369,6.883625 -0.67486,7.859895 -0.44398,1.16773 -0.45398,2.608154 -0.0292,4.210067 0.3551,1.339266 0.73378,6.691587 0.84153,11.894047 0.10774,5.202462 0.38305,9.252462 0.6118,9.000002 0.22875,-0.25246 3.63209,-4.487823 7.56297,-9.411915 z m 110.56253,68.786223 c -1.54056,-4.31278 -4.6547,-11.80825 -8.24014,-19.83333 -2.29346,-5.13333 -4.1236,-10.05964 -4.06696,-10.947346 0.0566,-0.887706 -0.41873,-2.387706 -1.05635,-3.333333 -0.63763,-0.945627 -2.89917,-5.16932 -5.02566,-9.385986 l -3.86635,-7.666667 0.35084,18 c 0.19296,9.900002 0.5482,21.525002 0.78943,25.833332 l 0.43859,7.83333 h -8.76574 -8.76574 v -8.9272 c 0,-7.37306 0.22334,-9.42604 1.2829,-11.79264 1.01503,-2.26713 1.11943,-3.09794 0.5,-3.97893 -0.58947,-0.83838 -0.63313,-5.62505 -0.17673,-19.374025 0.44073,-13.27662 0.39397,-19.73442 -0.17133,-23.6607 -0.42762,-2.970093 -0.94362,-12.870093 -1.14666,-22 -0.20305,-9.129908 -0.68136,-18.644422 -1.06292,-21.143366 -0.38156,-2.498943 -0.50404,-4.733235 -0.27218,-4.965092 0.23185,-0.231857 3.02909,-0.771286 6.21608,-1.198731 4.82386,-0.646984 6.27208,-0.614458 8.64524,0.194162 1.5679,0.534234 2.95634,1.168253 3.08543,1.408932 0.12909,0.240678 -0.15806,9.287596 -0.63811,20.104263 -0.48006,10.816666 -0.68762,21.466666 -0.46125,23.666666 0.39494,3.83825 0.44099,3.919125 1.13889,2 0.40002,-1.1 1.51166,-3.35 2.4703,-5 0.95866,-1.65 3.48405,-7.35 5.612,-12.666667 2.63318,-6.579003 4.57852,-10.420942 6.09034,-12.028108 1.71003,-1.817885 2.22134,-2.942171 2.22134,-4.884378 0,-1.417563 1.05121,-4.969918 2.39931,-8.107994 l 2.39932,-5.585057 4.43402,1.658686 c 4.55985,1.705759 10.76378,5.479867 10.76606,6.549452 10e-4,0.769032 -3.66498,7.333872 -9.45448,16.927611 -2.49932,4.141616 -4.54423,7.830252 -4.54423,8.196968 0,0.366717 -2.43147,5.228121 -5.40327,10.803122 -2.9718,5.575001 -5.41574,10.436364 -5.43098,10.803031 -0.0275,0.661393 5.9028,14.5282 11.68939,27.333333 1.65695,3.666666 4.24239,8.761902 5.74542,11.322752 1.50303,2.56085 2.73277,5.18585 2.73277,5.83333 0,0.64749 0.29702,1.17725 0.66003,1.17725 0.65347,0 4.41905,7.6963 5.04463,10.31046 0.2704,1.13 -0.63981,1.88438 -5.45716,4.52287 -6.2384,3.4168 -9.95217,4.11058 -10.70609,2 z m 59.73629,0.561 c -2.57798,-0.51978 -7.2777,-3.14686 -7.2777,-4.06813 0,-0.31078 1.02912,-5.31131 2.28694,-11.11229 1.25781,-5.80098 2.49033,-12.04724 2.73893,-13.88058 0.2486,-1.833329 0.86948,-3.997776 1.37973,-4.809876 0.51026,-0.8121 0.9312,-2.3121 0.93543,-3.333333 0.004,-1.021233 0.91743,-7.106786 2.02932,-13.523453 1.1119,-6.416666 2.29763,-13.466666 2.63497,-15.666666 1.41762,-9.24513 4.7124,-21.968401 6.06046,-23.403345 0.88402,-0.941007 1.1143,-1.612685 0.65103,-1.899002 -0.39425,-0.243655 -0.71681,-1.222737 -0.71681,-2.175737 0,-1.386847 2.2395,-14.306499 3.68482,-21.257656 0.26678,-1.28307 0.868,-1.43417 7.06527,-1.775658 8.36324,-0.46084 10.11276,0.121065 9.54019,3.173148 -0.21729,1.158238 0.071,3.73317 0.64068,5.722069 2.08147,7.26716 5.49951,25.055705 5.05687,26.31757 -0.2631,0.75005 -0.10714,1.578923 0.36967,1.964678 0.45363,0.366996 2.52597,9.517266 4.60519,20.333933 2.07924,10.816666 4.8206,23.877246 6.09192,29.023508 1.27132,5.14627 2.4324,11.24864 2.58017,13.56083 0.15011,2.34868 0.69388,4.69201 1.23215,5.30982 0.90998,1.04443 2.893,8.00165 2.37487,8.33195 -1.05037,0.66958 -12.00768,3.77389 -13.32074,3.77389 -3.51117,0 -3.82251,-0.82449 -5.24896,-13.90037 -0.73402,-6.72854 -1.1597,-12.51668 -0.94595,-12.86254 0.21376,-0.34586 0.0897,-0.99069 -0.27576,-1.43296 -0.36542,-0.44227 -0.87464,-1.92913 -1.13158,-3.304129 -0.33783,-1.807767 -0.80494,-2.5 -1.68699,-2.5 -0.67088,0 -1.40277,0.29606 -1.6264,0.657907 -0.22364,0.361846 -2.11634,1.130266 -4.20602,1.707586 -14.17034,3.914906 -12.92891,2.977256 -13.82343,10.440856 -0.2509,2.0935 -0.8291,4.31634 -1.28487,4.93965 -0.57815,0.79067 -0.6535,1.85698 -0.24926,3.52698 0.37399,1.54498 0.27398,4.16649 -0.28206,7.39369 l -0.86148,5 -3.31582,0.10466 c -1.82369,0.0575 -4.39085,-0.11208 -5.70478,-0.377 z m 25.89482,-46.721389 c 2.4387,-0.624866 2.79344,-0.935233 2.51481,-2.200213 -1.36695,-6.206066 -3.01943,-16.6671 -3.02335,-19.139393 -0.003,-1.65 -0.27848,-4.05 -0.61306,-5.333333 -0.33456,-1.283333 -0.99018,-5.033333 -1.45692,-8.333333 l -0.84863,-6 -1.18766,7.304701 c -0.65321,4.017585 -1.39117,7.767585 -1.63991,8.333333 -0.24874,0.565748 -0.5139,1.928632 -0.58922,3.028632 -0.25229,3.684115 -1.737,14.613313 -2.70433,19.90698 -0.52667,2.882173 -0.95758,5.3375 -0.95758,5.456286 0,0.11878 1.725,-0.34926 3.83333,-1.040106 2.10834,-0.69084 5.11097,-1.58344 6.67252,-1.983554 z M 612.74531,130.8445 c -2.59657,-0.31721 -7.41196,-3.27488 -7.41196,-4.55252 0,-0.47529 1.02463,-5.61043 2.27694,-11.41141 1.25232,-5.80098 2.4784,-12.10715 2.72462,-14.0137 0.24622,-1.906552 0.87159,-3.818286 1.38972,-4.248299 0.51813,-0.430007 0.9457,-1.8701 0.95016,-3.2002 0.005,-1.330106 0.93525,-7.818373 2.06842,-14.418373 1.13318,-6.6 2.29356,-13.5 2.57862,-15.333333 1.31666,-8.467908 4.25022,-20.160145 5.50376,-21.936282 1.05338,-1.492527 1.2027,-2.198693 0.6515,-3.081287 -0.53044,-0.849388 -0.3141,-3.195301 0.83797,-9.086366 0.85417,-4.36775 1.76245,-9.617493 2.01841,-11.666097 l 0.46537,-3.724735 6.76726,-0.332192 c 8.94971,-0.439324 9.55568,-0.178525 9.95893,4.286101 0.17589,1.947473 1.56509,9.090859 3.08711,15.874192 1.52202,6.783333 2.64084,13.233333 2.48628,14.333333 -0.15456,1.1 0.0906,2.45 0.54482,3 0.4542,0.55 2.53622,9.85 4.62672,20.666666 2.09048,10.816667 4.65991,23.116666 5.70983,27.333333 2.22075,8.918919 3.6628,17.246319 3.08635,17.822769 -0.2213,0.2213 0.0675,0.92154 0.64175,1.55609 1.244,1.37461 3.1246,8.07654 2.43889,8.69161 -0.9239,0.82872 -11.16832,3.92953 -12.98236,3.92953 -3.58903,0 -4.07719,-1.31277 -5.38866,-14.49134 -0.66457,-6.67814 -1.01828,-12.44955 -0.78602,-12.82537 0.23227,-0.37581 0.1046,-0.68329 -0.2837,-0.68329 -0.38831,0 -0.70769,-0.375 -0.70974,-0.83333 -0.002,-0.45834 -0.3212,-1.97666 -0.70924,-3.374062 l -0.70553,-2.540727 -2.3835,1.4063 c -1.31093,0.77346 -4.66677,1.966007 -7.45742,2.650099 -7.57641,1.85725 -9.37582,2.64481 -9.7294,4.25834 -0.17276,0.78836 -0.64727,3.38338 -1.05446,5.76671 -0.40718,2.38334 -1.0079,4.65669 -1.33491,5.0519 -0.34401,0.41575 -0.34907,1.57458 -0.012,2.74986 0.33143,1.15563 0.33243,3.4324 0.003,5.28144 -0.31913,1.78758 -0.75101,4.22514 -0.95973,5.4168 -0.36843,2.10345 -0.47103,2.16356 -3.51596,2.05998 -1.72505,-0.0587 -4.15108,-0.23064 -5.39117,-0.38214 z m 22.6354,-46.024702 5.71403,-1.8198 -1.4745,-8.333333 c -0.81098,-4.583333 -2.17521,-13.733333 -3.03162,-20.333333 l -1.55711,-12 -1.34908,8.118282 c -0.74199,4.465054 -1.57408,8.340054 -1.84908,8.61111 -0.275,0.271057 -0.50469,1.56783 -0.51042,2.881719 -0.0102,2.341728 -2.16051,18.283875 -3.04232,22.555555 -0.55443,2.68584 -0.35701,2.694733 7.1001,0.3198 z M 127.90984,130.15141 c -0.60808,-0.12255 -1.27534,-1.14557 -1.50891,-2.31344 -0.68054,-3.40271 0.34349,-23.93182 1.31305,-26.32341 0.51908,-1.28038 0.62005,-2.308122 0.24928,-2.537269 -1.10642,-0.683807 -1.00888,-68.751362 0.10022,-69.934856 0.3404,-0.363244 0.20264,-1.060066 -0.3295,-1.666666 -0.56562,-0.644764 -1.02444,-3.253237 -1.20272,-6.837699 l -0.28824,-5.795264 2.5729,-0.43469 c 1.4151,-0.239079 6.38542,-0.37133 11.04516,-0.293892 4.65974,0.07744 12.74726,-0.09018 17.97226,-0.372484 l 9.5,-0.513281 v 8.145253 8.145253 l -11.89797,-0.469647 -11.89797,-0.469648 -0.43536,2.176831 c -0.23946,1.197258 -0.43537,6.498967 -0.43537,11.781577 0,6.851066 -0.2752,10.263399 -0.9599,11.902106 -0.56898,1.361771 -0.70473,2.455061 -0.33333,2.684599 C 141.71805,57.237764 142,58.940825 142,60.809364 v 3.397343 l 8.92264,-0.427922 c 4.90745,-0.235356 9.38717,-0.606181 9.95493,-0.824054 0.70032,-0.268738 1.37812,0.272593 2.10761,1.683262 1.03779,2.006872 1.03373,5.358525 -0.015,12.362005 l -0.29949,2 -10.00202,-0.2147 -10.002,-0.214693 -0.13967,6.214693 c -0.16164,7.19288 -0.15324,7.7367 0.3159,20.423682 0.19407,5.24828 0.55835,9.74828 0.80951,10 0.60643,0.60778 7.4228,0.5443 17.8476,-0.1662 l 8.5,-0.57932 -0.006,3.93494 c -0.003,2.16421 -0.1926,5.48986 -0.42092,7.39032 -0.35202,2.93027 -0.68042,3.5569 -2.16087,4.12328 -1.56977,0.60056 -36.65554,0.8132 -39.50258,0.23941 z m 382.42351,0.1876 c -0.36667,-0.12231 -1.52367,-0.41237 -2.57111,-0.64458 -1.81164,-0.40162 -1.88512,-0.5588 -1.50768,-3.22498 0.21822,-1.54153 0.56346,-10.15279 0.76718,-19.13612 0.20372,-8.983332 0.67271,-17.473079 1.0422,-18.866112 0.36948,-1.393027 0.44844,-3.193027 0.17545,-4 -0.27299,-0.806967 -0.53221,-12.11722 -0.57607,-25.133886 -0.0439,-13.016666 -0.32751,-28.166666 -0.63036,-33.666666 l -0.55063,-10 6.85431,-1.848978 c 3.76987,-1.016938 6.91037,-1.766938 6.97888,-1.666666 0.0685,0.100271 2.93711,4.082311 6.37464,8.848978 3.43754,4.766666 7.44325,10.466666 8.90158,12.666666 1.45834,2.2 3.01674,4.3 3.46312,4.666666 0.44639,0.366667 1.73596,2.166667 2.86572,4 l 2.05411,3.333334 0.0127,-6.4566 c 0.007,-3.551131 0.32382,-7.274982 0.70411,-8.275227 0.47747,-1.255857 0.47747,-2.03259 0,-2.510066 -0.38797,-0.387969 -0.69144,-3.7052 -0.69144,-7.558107 V 14 l 5.83333,0.0073 c 3.20834,0.0041 6.95129,0.192144 8.31768,0.41802 l 2.48434,0.410682 -0.31532,4.748647 c -0.17342,2.611753 -0.64168,13.898644 -1.04059,25.081977 -0.3989,11.183333 -1.00433,21.622143 -1.34539,23.197352 -0.45224,2.0887 -0.35907,3.803214 0.34419,6.333334 0.67935,2.444086 1.09493,9.182566 1.4063,22.802646 0.24309,10.633332 0.66402,21.242602 0.93539,23.576162 0.37092,3.1897 0.23242,4.96856 -0.55802,7.16666 l -1.0514,2.92384 h -7.5078 -7.50781 l 0.0256,-31.432402 0.0256,-31.432413 -1.66636,-2.400923 c -0.91655,-1.320508 -2.95191,-4.108994 -4.52308,-6.196636 -1.57116,-2.087642 -5.55666,-7.470027 -8.85666,-11.960854 l -6,-8.165142 -0.16348,3.627521 c -0.0899,1.995137 -0.50973,4.742793 -0.93291,6.105903 -0.59795,1.92604 -0.58425,2.701497 0.0615,3.479515 0.6284,0.757188 0.82172,6.40749 0.79334,23.188283 -0.0206,12.202933 0.11185,29.612148 0.29442,38.687148 l 0.33193,16.5 -6.19238,-0.0526 c -3.40583,-0.029 -6.49239,-0.15274 -6.85906,-0.27505 z"
         id="path1335" /><path
         style="fill:#eaedf0;fill-opacity:1;stroke-width:0.666667"
         d="m 680.68646,48.626801 c -1.56857,-1.74167 -5.20678,-5.6719 -8.08491,-8.73385 -6.70254,-7.13062 -6.74186,-7.74149 -0.86379,-13.41703 2.40305,-2.32024 5.96883,-5.98629 7.92396,-8.14678 4.54241,-5.01952 7.26406,-5.7368 9.47866,-2.49805 0.79115,1.15702 4.33681,5.22049 7.87924,9.02993 5.3824,5.78809 6.36516,7.17324 5.98053,8.42935 -0.25315,0.8267 -2.30778,3.45309 -4.56585,5.83643 -2.25807,2.38333 -5.7166,6.20833 -7.68562,8.5 -4.58173,5.33248 -6.03064,5.47648 -10.06222,1 z m 8.70155,-5.66667 c 5.4299,-5.56283 8.80079,-9.70909 8.53298,-10.49573 -0.12049,-0.3539 -2.89179,-3.66005 -6.15845,-7.34699 l -5.93938,-6.70353 -1.86567,1.78742 -1.86567,1.78743 2.48064,1.22732 c 3.07276,1.52028 6.79613,4.85695 6.79613,6.09029 0,0.50675 -0.7384,1.61506 -1.64089,2.46291 -1.80799,1.69852 -1.57024,2.84653 1.2242,5.91128 1.39618,1.53123 1.39795,1.56742 0.1226,2.5 -1.73387,1.26785 -2.86979,1.19259 -3.3264,-0.2204 -0.20735,-0.64167 -1.11945,-2.06667 -2.02689,-3.16667 l -1.64988,-2 0.40591,3.16667 0.40592,3.16667 h -2.07127 -2.07127 l -0.18601,-8.7548 -0.18602,-8.75479 -4.16667,4.22041 c -2.29166,2.32122 -4.16666,4.4389 -4.16666,4.70595 0,0.40956 12.72398,14.51001 13.14282,14.56461 0.0786,0.0102 1.97303,-1.85638 4.20993,-4.14805 z m -3.37699,-12.80413 c 0.92681,-1.11674 0.39153,-2.36254 -1.01511,-2.36254 -0.58025,0 -0.96065,0.65997 -0.96065,1.66667 0,1.87261 0.77316,2.14492 1.97576,0.69587 z"
         id="path4270" /><path
         style="fill:#eaedf0;fill-opacity:1;stroke-width:0.516411"
         d="m 263.32373,215.7143 c -0.17321,-0.15074 -1.52251,-0.42437 -2.99845,-0.60806 l -2.68353,-0.33399 v -20.66321 -20.6632 l 3.04459,-0.90554 3.04458,-0.90554 1.27396,1.34099 c 0.70067,0.73753 1.93058,2.31653 2.73312,3.50886 0.80254,1.19235 2.1598,2.88 3.01613,3.75036 0.85633,0.87035 1.55698,1.76536 1.55698,1.98891 0,0.22355 1.49461,2.1029 3.32136,4.17632 3.07842,3.49411 3.32136,3.95313 3.32136,6.27536 0,2.29247 -0.32794,2.93853 -3.85699,7.59848 -2.12134,2.80114 -4.39023,6.01946 -5.04196,7.15183 -1.68929,2.93508 -5.68666,8.56251 -6.08227,8.56251 -0.18367,0 -0.47567,-0.12333 -0.64888,-0.27408 z m 4.92495,-15.86465 c 1.10843,-1.85475 2.55937,-4.13104 3.22431,-5.05841 l 1.20899,-1.68614 -1.15417,-1.75861 c -0.63479,-0.96724 -2.04132,-2.91834 -3.1256,-4.33578 -1.08429,-1.41745 -2.45435,-3.29763 -3.04458,-4.17819 l -1.07315,-1.60102 -0.3994,4.49154 c -0.21966,2.47035 -0.38533,4.70833 -0.36815,4.97329 0.0172,0.26497 0.15321,3.82265 0.30226,7.90597 l 0.27102,7.42419 1.07157,-1.40228 c 0.58936,-0.77126 1.97847,-2.91981 3.0869,-4.77456 z m 158.09463,14.80628 c -1.29176,-0.72446 -2.35044,-1.64976 -2.35263,-2.05622 -0.005,-0.88035 5.36489,-7.2099 6.11647,-7.2099 0.28725,0 0.52227,-0.22012 0.52227,-0.48917 0,-0.26904 0.89227,-1.65868 1.9828,-3.0881 1.93592,-2.53747 1.9606,-2.62847 1.04346,-3.84662 -0.51664,-0.68622 -1.16254,-1.24766 -1.43531,-1.24766 -0.27279,0 -2.48606,-1.65469 -4.91839,-3.67708 -4.06208,-3.37747 -4.42242,-3.83149 -4.42242,-5.5723 0,-1.92593 0.76785,-3.0922 4.83074,-7.3374 0.9966,-1.0413 1.81199,-2.14585 1.81199,-2.45453 0,-0.30869 0.52471,-0.97423 1.16603,-1.47899 0.64131,-0.50474 1.64278,-1.73068 2.22549,-2.7243 0.62585,-1.06718 1.46335,-1.80657 2.04628,-1.80657 0.91579,0 5.63342,2.68529 5.63342,3.20656 0,0.12797 -1.68144,2.08042 -3.73654,4.33877 -2.05509,2.25836 -4.40786,4.91879 -5.22837,5.91208 l -1.49185,1.80598 1.17087,1.40117 c 0.64397,0.77065 3.09254,2.86177 5.44125,4.64693 3.85923,2.93325 4.30682,3.4572 4.6488,5.44182 0.44116,2.56024 -0.4876,4.21653 -5.24881,9.36029 -1.58507,1.71244 -3.27872,3.88033 -3.76365,4.81754 -1.0746,2.07681 -2.2756,3.39273 -3.0871,3.38252 -0.33338,-0.004 -1.66305,-0.60037 -2.9548,-1.32482 z m -128.51164,0.4969 -1.88067,-0.1996 0.39767,-5.14303 c 0.21871,-2.82866 0.38393,-12.20127 0.36716,-20.82802 l -0.0305,-15.685 2.76881,-0.86648 2.76879,-0.8665 4.28033,3.26624 c 2.35417,1.79643 5.02763,3.88316 5.941,4.6372 0.91338,0.75403 2.46,1.96303 3.43694,2.68668 1.66273,1.23162 1.74757,1.44431 1.3273,3.32767 -0.32481,1.45561 -1.49196,3.10024 -4.2209,5.94765 l -3.77196,3.9357 0.71366,1.7604 c 0.3925,0.96822 1.03461,2.08559 1.42689,2.48304 0.39228,0.39744 1.88991,2.67372 3.32807,5.0584 1.43816,2.38467 3.07937,4.78333 3.64717,5.33034 1.76981,1.70503 1.31258,2.81446 -1.75965,4.26968 -3.35601,1.58964 -3.66553,1.44264 -5.77358,-2.74203 -1.6541,-3.28349 -6.9196,-12.49357 -7.36359,-12.87991 -0.15226,-0.13247 -0.11369,3.36786 0.0857,7.77851 l 0.36254,8.0194 -1.75268,0.53173 c -0.96398,0.29244 -1.90234,0.49703 -2.08525,0.45463 -0.18291,-0.0424 -1.17887,-0.16692 -2.21324,-0.2767 z m 10.83248,-27.732 1.47735,-1.83026 -3.27712,-2.88686 -3.2771,-2.88685 -0.30695,2.54921 c -0.1688,1.40207 -0.19712,4.38294 -0.0629,6.62416 l 0.24403,4.07495 1.86267,-1.90706 c 1.02446,-1.04887 2.52747,-2.73066 3.34002,-3.73729 z m 30.29522,26.50906 c -1.62057,-1.29251 -1.98042,-1.92216 -1.99605,-3.49272 -0.0105,-1.05378 -0.011,-4.73422 -8.3e-4,-8.17875 0.01,-3.44454 -0.0634,-11.03215 -0.16261,-16.86137 -0.0992,-5.82921 -0.0474,-11.09601 0.11511,-11.70401 0.27404,-1.02502 0.54241,-1.09511 3.68908,-0.96351 l 3.3934,0.14194 -0.11497,1.44526 c -0.35055,4.40615 -0.3734,34.42153 -0.0265,34.7236 0.22668,0.19735 2.1899,-0.26402 4.36271,-1.02526 l 3.95059,-1.38407 -0.211,-16.87977 -0.21101,-16.87976 3.41024,-0.14231 c 3.40727,-0.14219 3.41059,-0.141 3.78533,1.34383 0.20628,0.81737 0.0688,4.24163 -0.30545,7.60948 -0.37429,3.36784 -0.62217,6.34013 -0.55085,6.6051 0.0713,0.26496 0.32852,5.79308 0.57155,12.28471 0.24303,6.49162 0.61551,12.36703 0.82771,13.05646 0.3676,1.19427 0.26214,1.26826 -2.23132,1.5657 -3.99293,0.4763 -4.676,0.3989 -4.68535,-0.53088 -0.0199,-1.98387 -0.79777,-2.10683 -3.90348,-0.61706 -4.20726,2.01815 -7.07256,1.98373 -9.70605,-0.11661 z m 41.0759,0.76854 c -0.17978,-0.49295 -0.20112,-5.44472 -0.0474,-11.00393 0.35955,-13.00484 0.34591,-19.85705 -0.0519,-26.06625 l -0.32017,-4.99767 h 1.35773 c 0.74676,0 2.07391,-0.12075 2.94923,-0.26834 1.53222,-0.25835 1.68847,-0.10139 4.19613,4.21535 3.94346,6.78832 3.74371,6.6688 5.68491,3.4015 4.92793,-8.29442 5.16796,-8.48514 8.94898,-7.11025 1.5297,0.55623 1.89388,0.91236 1.60114,1.5657 -0.51638,1.1525 -0.35309,31.15776 0.19731,36.25456 0.24321,2.25219 0.41867,4.12124 0.38991,4.15344 -0.0287,0.0322 -1.36219,0.16315 -2.96318,0.29099 -4.64901,0.37124 -4.8355,0.0947 -4.66964,-6.92565 0.37773,-15.98886 0.34311,-23.52161 -0.10748,-23.39085 -0.27045,0.0785 -0.9255,1.10819 -1.45566,2.28824 -0.74754,1.66395 -1.34465,2.24059 -2.66013,2.56892 -2.42362,0.60493 -3.11557,0.21275 -4.72089,-2.67566 l -1.42559,-2.56499 -0.11989,5.54016 c -0.0659,3.0471 -0.0418,9.93014 0.0537,15.29567 l 0.17358,9.7555 -2.14975,0.006 c -1.18238,0.003 -2.68623,0.13183 -3.34191,0.28492 -0.85346,0.19927 -1.28501,0.0237 -1.51902,-0.61795 z"
         id="path5012" /><path
         style="fill:#eaedf0;fill-opacity:1;stroke-width:2.09531"
         d="m 29.251331,197.0712 c -10.636756,-1.29744 -1.916987,-7.7144 11.173838,-8.22293 5.405301,-0.20998 15.322028,-0.0344 22.037191,0.3901 15.266413,0.96515 99.44177,1.0016 133.02324,0.0576 18.63788,-0.52393 27.58495,-0.50184 34.57405,0.0853 11.60788,0.97524 12.72324,6.69546 1.52638,7.82893 -12.15317,1.23029 -192.122417,1.10661 -202.334699,-0.13905 z"
         id="path5026" /><path
         style="fill:#eaedf0;fill-opacity:1;stroke-width:2.09531"
         d="m 457.47835,191.49579 c -10.63676,1.29744 -1.91699,7.7144 11.17384,8.22293 5.4053,0.20998 15.32203,0.0344 22.03719,-0.3901 15.26641,-0.96515 99.44177,-1.0016 133.02324,-0.0576 18.63788,0.52393 27.58495,0.50184 34.57405,-0.0853 11.60788,-0.97524 12.72324,-6.69546 1.52638,-7.82893 -12.15317,-1.23029 -192.12242,-1.10661 -202.3347,0.13905 z"
         id="path5026-2" /></g></g></svg>
