<?xml version="1.0" encoding="UTF-8" standalone="no"?>
<!-- Created with Inkscape (http://www.inkscape.org/) -->

<svg
   width="109.268mm"
   height="110.232mm"
   viewBox="0 0 109.268 110.232"
   version="1.1"
   id="svg5"
   xml:space="preserve"
   sodipodi:docname="logoicon.svg"
   inkscape:version="1.4.4 (dcaf3e7d, 2026-05-05)"
   xmlns:inkscape="http://www.inkscape.org/namespaces/inkscape"
   xmlns:sodipodi="http://sodipodi.sourceforge.net/DTD/sodipodi-0.dtd"
   xmlns="http://www.w3.org/2000/svg"
   xmlns:svg="http://www.w3.org/2000/svg"><sodipodi:namedview
     id="namedview186"
     pagecolor="#ffffff"
     bordercolor="#000000"
     borderopacity="0.25"
     inkscape:showpageshadow="2"
     inkscape:pageopacity="0.0"
     inkscape:pagecheckerboard="0"
     inkscape:deskcolor="#d1d1d1"
     inkscape:document-units="mm"
     showgrid="false"
     inkscape:zoom="1.0873645"
     inkscape:cx="74.951868"
     inkscape:cy="222.55647"
     inkscape:window-width="1440"
     inkscape:window-height="775"
     inkscape:window-x="0"
     inkscape:window-y="25"
     inkscape:window-maximized="0"
     inkscape:current-layer="layer1" /><defs
     id="defs2" /><g
     id="layer1"
     transform="translate(-74.657892,-105.64064)"><path
       style="fill:#eaedf0;fill-opacity:1;stroke-width:0.289261"
       d="m 125.18378,208.52532 c -3.01288,-0.35456 -3.5291,-0.56738 -3.85476,-1.5891 -0.31622,-0.99216 -2.65181,-3.79429 -6.6336,-7.95873 -3.74466,-3.91642 -4.38856,-4.80212 -5.5713,-7.66372 -0.46838,-1.13326 -1.02399,-2.19535 -1.23465,-2.36019 -0.21067,-0.16483 -0.99507,-0.36326 -1.74313,-0.44094 -0.74805,-0.0777 -1.69797,-0.37923 -2.11089,-0.67011 -0.80273,-0.56547 -5.354277,-5.31941 -13.562119,-14.16523 -2.795547,-3.0128 -6.126333,-6.5818 -7.401759,-7.93109 -2.383614,-2.52162 -3.908959,-5.00856 -3.908959,-6.37318 0,-0.50023 0.326274,-1.01466 0.920905,-1.45199 0.506516,-0.3725 1.371907,-1.09685 1.92311,-1.60968 1.560207,-1.45157 15.103678,-15.96116 15.103678,-16.18108 0,-0.10771 0.900189,-0.69524 2.000411,-1.30563 1.578783,-0.87588 2.286003,-1.50827 3.355513,-3.00033 1.72675,-2.40904 19.95048,-22.0688 20.83327,-22.47494 0.40296,-0.18537 2.84063,-0.40727 6.22506,-0.56663 4.96577,-0.23381 5.65825,-0.2213 6.45246,0.11656 0.49953,0.21255 1.71853,1.43209 2.77985,2.78108 2.57154,3.26855 5.26095,6.28764 11.51345,12.9249 5.32906,5.65694 7.40721,8.11155 8.18127,9.66332 0.72747,1.45834 2.43076,2.9798 3.52513,3.14879 1.46827,0.22672 2.1995,0.73076 3.51521,2.42305 1.69353,2.17827 5.56295,5.89934 10.17364,9.78355 2.20231,1.85531 4.00421,3.53638 4.00421,3.73572 0,0.8533 -0.77478,4.38036 -1.12661,5.12873 -0.64609,1.37432 -2.93239,3.73829 -12.20178,12.61631 -11.04515,10.5788 -12.62789,12.23102 -21.35685,22.29458 -9.47463,10.92322 -9.71448,11.17025 -11.00942,11.33843 -1.7114,0.22227 -5.97201,0.11933 -8.79134,-0.21252 z m 6.28158,-9.4984 c 0.40618,-0.28846 1.00743,-0.86989 1.33609,-1.29207 0.70206,-0.90173 10.93439,-11.8051 12.51428,-13.33495 0.5958,-0.57692 2.33706,-1.83566 3.8695,-2.7972 2.49447,-1.56517 2.93648,-1.98014 4.22078,-3.9627 0.78898,-1.21794 3.89315,-5.51863 6.89815,-9.55709 l 5.46363,-7.34265 -0.59921,-1.51143 c -0.83012,-2.09393 -2.139,-3.86065 -3.68156,-4.96946 -1.63287,-1.17368 -7.53349,-7.01953 -12.04582,-11.934 -6.576,-7.16201 -9.25638,-10.48465 -9.25641,-11.47435 0,-0.45164 -0.35543,-0.83102 -1.17783,-1.25714 -0.64783,-0.33566 -2.6913,-2.06643 -4.54108,-3.84615 -4.71362,-4.53508 -5.75156,-5.18958 -6.33319,-3.99342 -0.80187,1.64911 -18.62664,17.60246 -22.07264,19.75522 -2.1873,1.36643 -2.46585,1.64565 -2.83797,2.84488 -0.47631,1.535 -2.5946,4.28262 -6.915272,8.96974 -4.455729,4.83364 -4.546985,5.33012 -1.591611,8.65952 0.872378,0.9828 2.766782,3.20298 4.209821,4.93373 3.238772,3.8846 8.253462,9.27848 14.613512,15.71856 7.72626,7.82348 9.85461,10.09094 12.26751,13.06929 2.42358,2.99159 3.38523,3.84615 4.32807,3.84615 0.32601,0 0.92508,-0.23602 1.33125,-0.52448 z"
       id="path3113"
       sodipodi:nodetypes="csssscsccsccscccccccsscssssssccscsssscscccscssssscssss"
       inkscape:export-filename="logoicon.svg"
       inkscape:export-xdpi="96"
       inkscape:export-ydpi="96" /><path
       d="m 124.23084,184.44509 -2.29545,-0.62026 0.14024,-1.6317 c 0.29227,-3.40079 0.54188,-26.59401 0.35247,-32.75054 -0.1085,-3.52563 -0.23519,-8.10173 -0.2816,-10.16911 l -0.0845,-3.75885 2.06927,-0.84487 c 1.13809,-0.46467 2.35232,-0.8434 2.69828,-0.84163 0.68332,0.004 1.34878,0.5333 6.6358,5.28285 1.73785,1.56119 4.28201,3.76399 5.65366,4.8951 l 2.49393,2.05656 -0.10307,1.74826 c -0.0615,1.04267 -0.27284,2.07752 -0.52367,2.5641 -0.23131,0.44872 -2.1828,2.5537 -4.33665,4.67774 l -3.91609,3.86189 4.88515,4.27637 c 3.05891,2.67773 4.93855,4.48917 5.02801,4.84559 0.25028,0.99718 -0.11035,3.5428 -0.61823,4.36467 -0.62557,1.01217 -2.84045,3.0715 -6.238,5.79989 -1.50556,1.20904 -3.73389,3.13565 -4.95183,4.28138 -3.19686,3.0073 -2.97991,2.94286 -6.6078,1.96256 z m 5.3962,-7.24258 c 2.35839,-1.83062 7.27219,-6.55301 7.27219,-6.98892 0,-0.54514 -8.58402,-8.64979 -9.1614,-8.64979 -0.0864,0 -0.15343,2.38636 -0.14898,5.30301 0.004,2.91667 0.007,5.51282 0.007,5.76923 -0.008,1.67605 0.28155,5.71058 0.4089,5.70886 0.0848,-0.001 0.81528,-0.51523 1.62328,-1.14239 z m 2.90157,-24.90778 c 0.60896,-0.43889 1.10721,-0.86869 1.10721,-0.95513 0,-0.0864 0.50992,-0.77564 1.13313,-1.53154 l 1.13315,-1.37438 -1.42451,-1.32521 c -0.78349,-0.72888 -2.6308,-2.40495 -4.10516,-3.72462 l -2.68065,-2.39942 -0.14322,2.77221 c -0.20333,3.93561 -0.23261,9.79596 -0.0574,11.47286 l 0.1491,1.4264 1.89053,-1.78159 c 1.0398,-0.97989 2.38879,-2.14069 2.99776,-2.57958 z"
       style="fill:#eaedf0;fill-opacity:1;stroke-width:0.2331"
       id="path1" /></g></svg>
