<?xml version="1.0" encoding="UTF-8" standalone="no"?>
<!-- Created with Inkscape (http://www.inkscape.org/) -->

<svg
   version="1.1"
   id="svg182"
   width="459.44531"
   height="459.44534"
   viewBox="0 0 459.44531 459.44535"
   sodipodi:docname="Screenshot 2026-04-01 at 17.26.32.png"
   xml:space="preserve"
   inkscape:version="0.0"
   xmlns:inkscape="http://www.inkscape.org/namespaces/inkscape"
   xmlns:sodipodi="http://sodipodi.sourceforge.net/DTD/sodipodi-0.dtd"
   xmlns="http://www.w3.org/2000/svg"
   xmlns:svg="http://www.w3.org/2000/svg"><defs
     id="defs186"><clipPath
       clipPathUnits="userSpaceOnUse"
       id="clipPath1971"><path
         d="m 221.371,293.656 h 162.93 v 252.879 h -162.93 z"
         id="path1969" /></clipPath><clipPath
       clipPathUnits="userSpaceOnUse"
       id="clipPath1981"><path
         d="M 0,0 H 596 V 842 H 0 Z"
         id="path1979" /></clipPath></defs><sodipodi:namedview
     id="namedview184"
     pagecolor="#ffffff"
     bordercolor="#000000"
     borderopacity="0.25"
     inkscape:showpageshadow="2"
     inkscape:pageopacity="0.0"
     inkscape:pagecheckerboard="0"
     inkscape:deskcolor="#d1d1d1"
     showgrid="false"
     inkscape:zoom="0.59845081"
     inkscape:cx="304.95405"
     inkscape:cy="454.50686"
     inkscape:window-width="1440"
     inkscape:window-height="900"
     inkscape:window-x="0"
     inkscape:window-y="0"
     inkscape:window-maximized="0"
     inkscape:current-layer="g188" /><g
     inkscape:groupmode="layer"
     inkscape:label="Image"
     id="g188"
     transform="translate(-34.277328,-41.610672)"><circle
       style="fill:none;fill-opacity:1;stroke:#eaedf0;stroke-width:20;stroke-linecap:round;stroke-miterlimit:6;stroke-dasharray:none;stroke-opacity:1;paint-order:fill markers stroke"
       id="path6182"
       cx="264"
       cy="271.33334"
       r="219.72267" /></g><g
     id="g1965"
     transform="matrix(1.3333333,0,0,1.3333333,-159.60916,-321.86842)"><g
       id="g1967"
       clip-path="url(#clipPath1971)"
       style="fill:#eaedf0;fill-opacity:1;stroke:none;stroke-opacity:1"
       transform="matrix(0.83776896,0,0,0.83776896,46.053483,61.038625)"><g
         id="g1973"
         style="fill:#eaedf0;fill-opacity:1;stroke:none;stroke-opacity:1"><g
           id="g1975"
           style="fill:#eaedf0;fill-opacity:1;stroke:none;stroke-opacity:1"><g
             id="g1977"
             clip-path="url(#clipPath1981)"
             style="fill:#eaedf0;fill-opacity:1;stroke:none;stroke-opacity:1"><g
               id="g1983"
               style="fill:#eaedf0;fill-opacity:1;stroke:none;stroke-opacity:1"><path
                 d="m 272.625,526.035 c -18.504,-2.441 -19.703,-2.976 -19.141,-8.551 1.286,-12.738 2.36,-58.519 2.344,-99.984 -0.016,-45.832 -0.832,-72.676 -2.699,-88.699 -0.297,-2.539 -0.149,-5.207 0.332,-5.934 0.898,-1.363 10.859,-4 25.684,-6.805 l 8.57,-1.617 9.887,6.875 c 11.777,8.188 48.164,35.563 53.984,40.614 l 4.102,3.558 -0.063,7.785 c -0.055,6.789 -0.387,8.133 -2.566,10.477 -2.426,2.605 -22.004,18.883 -36.086,30 -3.813,3.008 -6.711,5.82 -6.442,6.254 0.266,0.43 4.074,3.262 8.461,6.289 9.828,6.785 31.625,23.445 37.274,28.492 4.054,3.621 4.195,3.965 4.765,11.676 l 0.59,7.941 -3.586,3.383 c -6.012,5.668 -35.265,27.828 -51.762,39.207 -17.461,12.047 -15.277,11.461 -33.648,9.039 z m 24.684,-30.926 c 14.043,-9.207 32.632,-23.754 33.609,-26.293 1.031,-2.691 -0.719,-4.961 -9.309,-12.046 -14.367,-11.864 -36.285,-26.45 -39.734,-26.45 -0.461,0 -0.527,12.575 -0.148,27.942 0.761,30.914 1.585,44.867 2.648,44.867 0.387,0 6.207,-3.609 12.934,-8.02 z m -8.59,-88.742 c 13.176,-7.933 37.742,-28.738 37.742,-31.961 0,-2.84 -21.754,-20.773 -37.035,-30.535 l -5.762,-3.68 -0.621,7.379 c -1.242,14.731 -2.023,62.239 -1.027,62.239 0.543,0 3.558,-1.547 6.703,-3.442 z M 596.621,524.98 c -0.949,-0.949 -2.629,-3.832 -3.734,-6.406 -2.981,-6.957 -15.907,-29.66 -30.399,-53.39 -7.058,-11.559 -15.062,-24.672 -17.785,-29.133 -2.719,-4.461 -4.949,-8.696 -4.949,-9.414 0,-0.719 3.797,-4.684 8.434,-8.809 20.281,-18.047 37.714,-36.246 37.714,-39.371 0,-2.25 -5.09,-7.48 -15.281,-15.707 -12.191,-9.844 -28.898,-21.902 -29.504,-21.297 -0.25,0.25 -0.933,18.383 -1.523,40.301 -1,37.176 -0.219,91.187 1.89,130.746 l 0.582,10.91 -5.121,1.098 c -5.898,1.265 -22.113,0.41 -24.336,-1.281 -1.297,-0.985 -1.297,-5.637 0.004,-36.508 2.157,-51.344 1.395,-132.035 -1.453,-153.762 -0.609,-4.641 -0.633,-8.32 -0.062,-9.383 1.371,-2.566 30.855,-9.672 33.734,-8.133 8.227,4.403 53.93,38.555 65.906,49.25 3.883,3.469 4.039,3.86 4.621,11.672 l 0.598,8.086 -45.133,44.508 2.153,4.016 c 10.175,18.941 45.136,73.605 49.73,77.746 5.172,4.672 1.348,8.781 -12.629,13.562 -8.426,2.883 -11.133,3.024 -13.453,0.699 z m 124.191,-13.906 c -9.214,-18.988 -27.48,-51.886 -38.855,-69.988 l -8.379,-13.328 -0.328,18.457 c -0.305,17.293 1.402,68.273 2.441,72.808 0.723,3.153 -0.921,4.75 -5.832,5.665 -5.136,0.96 -23.093,-0.278 -24.5,-1.688 -0.57,-0.566 -0.578,-8.027 -0.023,-18.867 1.918,-37.309 2.125,-45.438 2.098,-83.469 -0.028,-37.703 -1.317,-83.582 -2.664,-94.668 -0.629,-5.176 -0.551,-5.402 2.218,-6.457 1.582,-0.598 7.985,-1.363 14.231,-1.699 9.726,-0.52 11.551,-0.367 12.738,1.062 1.152,1.387 1.188,6.106 0.199,28.086 -1.386,30.797 -1.886,63.852 -0.968,63.848 1.957,-0.004 38.8,-63.793 51.191,-88.625 1.387,-2.777 3.211,-5.465 4.059,-5.973 1.042,-0.629 5.402,0.45 13.585,3.364 10.989,3.906 12.051,4.507 12.051,6.824 0,1.398 -1.566,4.465 -3.48,6.816 -8.457,10.391 -51.895,80.004 -51.895,83.172 0,2.922 35.84,64.578 49.887,85.82 4.711,7.125 8.562,13.418 8.562,13.985 0,1.703 -4.285,3.984 -13.75,7.328 -14.761,5.211 -13.734,5.777 -22.589,-12.473 z m 55.836,13.25 c -6.836,-1.562 -9.824,-2.707 -10.039,-3.84 -0.171,-0.89 4.266,-19.347 9.856,-41.019 17.234,-66.805 32.875,-133.102 35.515,-150.52 0.801,-5.281 1.75,-9.894 2.11,-10.257 0.871,-0.872 26.781,-0.848 27.656,0.023 0.375,0.375 1.754,6.141 3.066,12.816 6.184,31.489 24.27,105.18 36.583,149.039 11.714,41.735 11.148,39.356 9.71,40.805 -0.722,0.727 -6.714,2.313 -13.312,3.524 -10.883,1.992 -12.152,2.046 -13.602,0.593 -0.945,-0.941 -2.429,-6.41 -3.609,-13.265 -2.07,-12.02 -8.746,-43.965 -9.309,-44.524 -0.171,-0.176 -3.539,0.371 -7.48,1.211 -3.941,0.836 -13.629,2.649 -21.523,4.024 -19.497,3.394 -18.645,3.117 -19.458,6.339 -0.39,1.559 -2.468,12.461 -4.613,24.235 -2.418,13.277 -4.429,21.738 -5.297,22.285 -2.062,1.309 -5.437,1.004 -16.254,-1.469 z m 55.247,-76.117 c 6.984,-1.344 12.906,-2.648 13.156,-2.898 0.25,-0.25 -3.008,-16.071 -7.239,-35.153 -4.234,-19.086 -8.015,-36.894 -8.406,-39.582 -0.695,-4.801 -2.515,-7.785 -2.531,-4.148 -0.004,1.019 -1.637,9.008 -3.625,17.75 -5.387,23.648 -13.52,60.531 -14.207,64.441 l -0.605,3.426 5.378,-0.695 c 2.957,-0.387 11.094,-1.801 18.079,-3.141 z m 221.128,76.344 c -5.058,-1.078 -9.789,-2.547 -10.507,-3.266 -1.055,-1.055 -0.93,-2.664 0.668,-8.449 14.894,-53.984 45.191,-181.918 45.191,-190.824 0,-1.305 0.895,-2.848 1.984,-3.43 2.895,-1.551 23.895,-1.371 25.911,0.219 1.039,0.82 2.988,7.742 5.41,19.226 7.992,37.868 24.843,105.528 38.89,156.157 3.719,13.41 6.766,25.07 6.766,25.918 0,2.031 -2.59,2.906 -14.984,5.066 -7.379,1.285 -10.907,1.504 -12.247,0.754 -1.437,-0.805 -2.437,-4.141 -4.261,-14.231 -1.313,-7.25 -3.551,-18.714 -4.977,-25.484 -1.426,-6.769 -2.84,-13.574 -3.14,-15.125 -0.368,-1.898 -1.188,-2.82 -2.5,-2.82 -2.227,0 -46.192,7.937 -46.563,8.41 -0.234,0.297 -4.367,22.402 -7.328,39.172 -0.785,4.461 -1.945,8.726 -2.574,9.488 -1.473,1.773 -4.418,1.625 -15.739,-0.781 z m 45.504,-74.774 c 18.293,-2.984 21.637,-3.945 21.637,-6.218 0,-1.043 -1.363,-8.024 -3.027,-15.516 -7.711,-34.695 -11.235,-51.129 -12.489,-58.227 l -1.351,-7.691 -0.918,4.617 c -0.508,2.535 -4.52,20.766 -8.918,40.504 -8.805,39.516 -9.773,44.609 -8.508,44.609 0.473,0 6.582,-0.933 13.574,-2.078 z m -710.218,74.356 c -1.211,-0.883 -1.231,-4.891 -0.121,-26.66 1.617,-31.676 1.519,-118.219 -0.168,-152.121 -0.934,-18.711 -0.95,-25.274 -0.075,-26.149 1.758,-1.758 90.918,-1.851 92.375,-0.094 0.621,0.746 0.938,5.653 0.766,11.891 l -0.293,10.617 -5.641,-0.055 c -3.101,-0.031 -13.254,-0.527 -22.558,-1.109 -9.309,-0.578 -21.141,-0.855 -26.301,-0.613 l -9.375,0.433 -0.629,20.157 c -0.344,11.086 -0.879,26.039 -1.187,33.234 l -0.559,13.078 2.871,1.137 c 1.992,0.789 10.356,0.933 27.242,0.473 l 24.367,-0.661 1.11,2.852 c 1.558,4.008 0.637,18.449 -1.301,20.383 -1.309,1.308 -3.414,1.375 -14.672,0.461 -14.711,-1.196 -32.59,-1.383 -36.336,-0.379 l -2.465,0.66 0.594,34.797 c 0.328,19.14 0.899,35.101 1.274,35.473 1.25,1.246 45.886,0.57 56.07,-0.852 12.336,-1.719 13.16,-1.274 13.074,7.039 -0.07,6.57 -1.328,15.191 -2.367,16.23 -1.168,1.168 -94.09,0.954 -95.695,-0.222 z m 530.179,0.863 c -2.914,-0.242 -5.82,-1.062 -6.453,-1.824 -0.847,-1.024 -0.867,-6.098 -0.074,-19.18 3.113,-51.43 3.109,-128.027 -0.012,-167.39 -0.922,-11.61 -0.879,-14.477 0.227,-15.508 1.367,-1.274 17.828,-4.602 22.765,-4.602 2.27,0 4.024,2.043 12.086,14.102 15.153,22.648 44.875,63.23 45.707,62.402 0.235,-0.238 -0.113,-16.637 -0.777,-36.441 -1,-29.688 -0.973,-36.293 0.145,-37.641 1.136,-1.371 3.273,-1.562 13.339,-1.203 15.653,0.559 15.735,0.621 14.836,12.094 -3.617,46.222 -3.613,121.707 0.012,181.679 0.645,10.696 0.609,10.946 -1.727,12.2 -2.695,1.441 -20.371,1.937 -24.82,0.691 l -2.855,-0.797 0.699,-36.629 c 0.387,-20.148 0.355,-40.715 -0.063,-45.699 l -0.765,-9.07 -7.207,-10.778 C 975.203,408.918 956.762,384.23 946.969,372.43 l -6.77,-8.16 -0.637,11.234 c -1.652,29.047 -0.687,109.355 1.676,139.617 0.512,6.586 0.364,7.492 -1.418,8.441 -2.367,1.27 -13.89,2.043 -21.328,1.434 z"
                 style="fill:#eaedf0;fill-opacity:1;fill-rule:nonzero;stroke:none;stroke-opacity:1"
                 id="path1985" /></g></g></g></g></g></g></svg>
