<?xml version="1.0" encoding="UTF-8" standalone="no"?>
<!-- Created with Inkscape (http://www.inkscape.org/) -->

<svg
   width="65.267982mm"
   height="96.231972mm"
   viewBox="0 0 65.267982 96.231972"
   version="1.1"
   id="svg5"
   xml:space="preserve"
   sodipodi:docname="logoicon.svg"
   inkscape:version="1.2 (dc2aeda, 2022-05-15)"
   xmlns:inkscape="http://www.inkscape.org/namespaces/inkscape"
   xmlns:sodipodi="http://sodipodi.sourceforge.net/DTD/sodipodi-0.dtd"
   xmlns="http://www.w3.org/2000/svg"
   xmlns:svg="http://www.w3.org/2000/svg"><sodipodi:namedview
     id="namedview186"
     pagecolor="#ffffff"
     bordercolor="#000000"
     borderopacity="0.25"
     inkscape:showpageshadow="2"
     inkscape:pageopacity="0.0"
     inkscape:pagecheckerboard="0"
     inkscape:deskcolor="#d1d1d1"
     inkscape:document-units="mm"
     showgrid="false"
     inkscape:zoom="0.64886613"
     inkscape:cx="-82.451523"
     inkscape:cy="181.85569"
     inkscape:window-width="1309"
     inkscape:window-height="456"
     inkscape:window-x="0"
     inkscape:window-y="25"
     inkscape:window-maximized="0"
     inkscape:current-layer="layer1" /><defs
     id="defs2" /><g
     id="layer1"
     transform="translate(-74.657892,-105.64064)"><path
       style="fill:#eaedf0;fill-opacity:1;stroke-width:0.2331"
       d="m 104.54341,201.54206 c -1.95652,-0.35456 -2.29175,-0.56738 -2.50323,-1.5891 -0.20535,-0.99216 -1.72205,-3.79429 -4.307768,-7.95873 -2.43173,-3.91642 -2.84987,-4.80212 -3.61793,-7.66372 -0.30416,-1.13326 -0.66496,-2.19535 -0.80176,-2.36019 -0.13681,-0.16483 -0.64619,-0.36326 -1.13197,-0.44094 -0.48577,-0.0777 -1.10263,-0.37923 -1.37078,-0.67011 -0.52128,-0.56547 -3.47699,-5.31941 -8.80705,-14.16523 -1.81539,-3.0128 -3.978357,-6.5818 -4.806601,-7.93109 -1.547886,-2.52162 -2.538425,-5.00856 -2.538425,-6.37318 0,-0.50023 0.211878,-1.01466 0.598024,-1.45199 0.328924,-0.3725 0.890897,-1.09685 1.248841,-1.60968 1.013177,-1.45157 9.808121,-15.96116 9.808121,-16.18108 0,-0.10771 0.58457,-0.69524 1.29904,-1.30563 1.02524,-0.87588 1.4845,-1.50827 2.17902,-3.00033 1.12133,-2.40904 12.955568,-22.0688 13.528838,-22.47494 0.26168,-0.18537 1.84467,-0.40727 4.04248,-0.56663 3.2247,-0.23381 3.67438,-0.2213 4.19013,0.11656 0.32439,0.21255 1.11599,1.43209 1.8052,2.78108 1.66992,3.26855 3.41638,6.28764 7.47668,12.9249 3.46061,5.65694 4.81013,8.11155 5.3128,9.66332 0.4724,1.45834 1.5785,2.9798 2.28917,3.14879 0.95347,0.22672 1.42832,0.73076 2.28273,2.42305 1.09975,2.17827 3.61251,5.89934 6.60662,9.78355 1.43015,1.85531 2.60028,3.53638 2.60028,3.73572 0,0.8533 -0.50313,4.38036 -0.7316,5.12873 -0.41957,1.37432 -1.90426,3.73829 -7.92368,12.61631 -7.17257,10.5788 -8.20037,12.23102 -13.86884,22.29458 -6.15269,10.92322 -6.30845,11.17025 -7.14937,11.33843 -1.11135,0.22227 -3.87814,0.11933 -5.70897,-0.21252 z m 4.07917,-9.4984 c 0.26377,-0.28846 0.65421,-0.86989 0.86764,-1.29207 0.45591,-0.90173 7.10064,-11.8051 8.1266,-13.33495 0.3869,-0.57692 1.51766,-1.83566 2.5128,-2.7972 1.61988,-1.56517 1.90691,-1.98014 2.74092,-3.9627 0.51235,-1.21794 2.52815,-5.51863 4.47956,-9.55709 l 3.54801,-7.34265 -0.38912,-1.51143 c -0.53907,-2.09393 -1.38903,-3.86065 -2.39076,-4.96946 -1.06036,-1.17368 -4.89214,-7.01953 -7.82239,-11.934 -4.27036,-7.16201 -6.01096,-10.48465 -6.01098,-11.47435 0,-0.45164 -0.23082,-0.83102 -0.76487,-1.25714 -0.42069,-0.33566 -1.74769,-2.06643 -2.94892,-3.84615 -3.06095,-4.53508 -3.73498,-5.18958 -4.11268,-3.99342 -0.52072,1.64911 -12.095888,17.60246 -14.333668,19.75522 -1.4204,1.36643 -1.60129,1.64565 -1.84294,2.84488 -0.30931,1.535 -1.6849,4.28262 -4.49068,8.96974 -2.89349,4.83364 -2.95275,5.33012 -1.03357,8.65952 0.56651,0.9828 1.79671,3.20298 2.7338,4.93373 2.10321,3.8846 5.35968,9.27848 9.48981,15.71856 5.017328,7.82348 6.399448,10.09094 7.966348,13.06929 1.57385,2.99159 2.19833,3.84615 2.81059,3.84615 0.21172,0 0.60074,-0.23602 0.8645,-0.52448 z m -6.77299,-13.65711 -2.295448,-0.62026 0.14024,-1.6317 c 0.29227,-3.40079 0.541878,-26.59401 0.352468,-32.75054 -0.108498,-3.52563 -0.235188,-8.10173 -0.281598,-10.16911 l -0.0845,-3.75885 2.069268,-0.84487 c 1.13809,-0.46467 2.35232,-0.8434 2.69828,-0.84163 0.68332,0.004 1.34878,0.5333 6.6358,5.28285 1.73785,1.56119 4.28201,3.76399 5.65366,4.8951 l 2.49393,2.05656 -0.10307,1.74826 c -0.0615,1.04267 -0.27284,2.07752 -0.52367,2.5641 -0.23131,0.44872 -2.1828,2.5537 -4.33665,4.67774 l -3.91609,3.86189 4.88515,4.27637 c 3.05891,2.67773 4.93855,4.48917 5.02801,4.84559 0.25028,0.99718 -0.11035,3.5428 -0.61823,4.36467 -0.62557,1.01217 -2.84045,3.0715 -6.238,5.79989 -1.50556,1.20904 -3.73389,3.13565 -4.95183,4.28138 -3.19686,3.0073 -2.97991,2.94286 -6.6078,1.96256 z m 5.3962,-7.24258 c 2.35839,-1.83062 7.27219,-6.55301 7.27219,-6.98892 0,-0.54514 -8.58402,-8.64979 -9.1614,-8.64979 -0.0864,0 -0.15343,2.38636 -0.14898,5.30301 0.004,2.91667 0.007,5.51282 0.007,5.76923 -0.008,1.67605 0.28155,5.71058 0.4089,5.70886 0.0848,-0.001 0.81528,-0.51523 1.62328,-1.14239 z m 2.90157,-24.90778 c 0.60896,-0.43889 1.10721,-0.86869 1.10721,-0.95513 0,-0.0864 0.50992,-0.77564 1.13313,-1.53154 l 1.13315,-1.37438 -1.42451,-1.32521 c -0.78349,-0.72888 -2.6308,-2.40495 -4.10516,-3.72462 l -2.68065,-2.39942 -0.14322,2.77221 c -0.20333,3.93561 -0.23261,9.79596 -0.0574,11.47286 l 0.1491,1.4264 1.89053,-1.78159 c 1.0398,-0.97989 2.38879,-2.14069 2.99776,-2.57958 z"
       id="path3113" /></g></svg>
