<?xml version="1.0" encoding="UTF-8" standalone="no"?>
<svg
   width="32"
   height="25"
   viewBox="0 0 32 25"
   fill="none"
   version="1.1"
   id="svg1"
   sodipodi:docname="dark email icon.svg"
   inkscape:version="1.3.2 (091e20e, 2023-11-25)"
   xmlns:inkscape="http://www.inkscape.org/namespaces/inkscape"
   xmlns:sodipodi="http://sodipodi.sourceforge.net/DTD/sodipodi-0.dtd"
   xmlns="http://www.w3.org/2000/svg"
   xmlns:svg="http://www.w3.org/2000/svg">
  <sodipodi:namedview
     id="namedview1"
     pagecolor="#ffffff"
     bordercolor="#000000"
     borderopacity="0.25"
     inkscape:showpageshadow="2"
     inkscape:pageopacity="0.0"
     inkscape:pagecheckerboard="0"
     inkscape:deskcolor="#d1d1d1"
     inkscape:zoom="9.44"
     inkscape:cx="15.995763"
     inkscape:cy="12.447034"
     inkscape:window-width="1792"
     inkscape:window-height="1120"
     inkscape:window-x="0"
     inkscape:window-y="0"
     inkscape:window-maximized="0"
     inkscape:current-layer="svg1" />
  <defs
     id="defs1" />
  <path
     d="M 1,20.75 V 8.00815 l 13.6361,6.96015 c 0.8567,0.4372 1.8711,0.4372 2.7278,0 L 31,8.00815 V 20.75 c 0,0.9711 -0.0021,1.5988 -0.0643,2.0613 -0.0583,0.4337 -0.1525,0.5697 -0.2286,0.6458 -0.0761,0.0761 -0.2121,0.1703 -0.6458,0.2286 C 29.5988,23.7479 28.9711,23.75 28,23.75 H 4 C 3.02892,23.75 2.40121,23.7479 1.9387,23.6857 1.50496,23.6274 1.36902,23.5332 1.29289,23.4571 1.21677,23.381 1.12262,23.245 1.06431,22.8113 1.00212,22.3488 1,21.7211 1,20.75 Z M 31,5.76269 16.4546,13.1869 c -0.2855,0.1457 -0.6237,0.1457 -0.9092,0 L 1,5.76269 V 4.25 C 1,3.27892 1.00212,2.65121 1.06431,2.1887 1.12262,1.75496 1.21677,1.61902 1.29289,1.54289 1.36902,1.46677 1.50496,1.37262 1.9387,1.31431 2.40121,1.25212 3.02892,1.25 4,1.25 h 24 c 0.9711,0 1.5988,0.00212 2.0613,0.06431 0.4337,0.05831 0.5697,0.15246 0.6458,0.22858 0.0761,0.07613 0.1703,0.21207 0.2286,0.64581 C 30.9979,2.65121 31,3.27892 31,4.25 Z"
     stroke="#eab402"
     stroke-width="2"
     id="path1"
     style="stroke:#9da083;stroke-opacity:1"
     inkscape:export-filename="dark email icon.svg"
     inkscape:export-xdpi="96"
     inkscape:export-ydpi="96" />
</svg>
