<?xml version="1.0" encoding="UTF-8" standalone="no"?>
<svg
   width="46"
   height="46"
   viewBox="0 0 46 46"
   fill="none"
   version="1.1"
   id="svg1"
   xmlns="http://www.w3.org/2000/svg"
   xmlns:svg="http://www.w3.org/2000/svg">
  <defs
     id="defs1" />
  <path
     d="m 44,25 c 1.1046,0 2,-0.8954 2,-2 0,-1.1046 -0.8954,-2 -2,-2 z M 25,2 C 25,0.895431 24.1046,0 23,0 21.8954,0 21,0.895431 21,2 Z M 2,21 c -1.104569,0 -2,0.8954 -2,2 0,1.1046 0.895431,2 2,2 z m 19,23 c 0,1.1046 0.8954,2 2,2 1.1046,0 2,-0.8954 2,-2 z m 15.6569,-4.5147 c 0.781,0.781 2.0473,0.781 2.8284,0 0.781,-0.7811 0.781,-2.0474 0,-2.8284 z M 39.4853,9.41422 c 0.781,-0.78105 0.781,-2.04738 0,-2.82843 -0.7811,-0.78104 -2.0474,-0.78104 -2.8284,0 z M 6.58576,36.6569 c -0.78105,0.781 -0.78105,2.0473 0,2.8284 0.78105,0.781 2.04738,0.781 2.82843,0 z M 9.41419,6.58579 c -0.78105,-0.78104 -2.04738,-0.78104 -2.82843,0 -0.78105,0.78105 -0.78105,2.04738 0,2.82843 z M 33,23 c 0,5.5228 -4.4772,10 -10,10 v 4 c 7.732,0 14,-6.268 14,-14 z M 23,33 C 17.4772,33 13,28.5228 13,23 H 9 c 0,7.732 6.268,14 14,14 z M 13,23 C 13,17.4772 17.4772,13 23,13 V 9 C 15.268,9 9,15.268 9,23 Z M 23,13 c 5.5228,0 10,4.4772 10,10 h 4 C 37,15.268 30.732,9 23,9 Z M 34,25 H 44 V 21 H 34 Z M 25,12 V 2 H 21 V 12 Z M 12,21 H 2 v 4 h 10 z m 9,13 v 10 h 4 V 34 Z m 8.5858,-1.5858 7.0711,7.0711 2.8284,-2.8284 -7.0711,-7.0711 z M 32.4142,16.4853 39.4853,9.41422 36.6569,6.58579 29.5858,13.6569 Z M 13.6568,29.5858 6.58576,36.6569 9.41419,39.4853 16.4853,32.4142 Z M 16.4853,13.6569 9.41419,6.58579 6.58576,9.41422 13.6568,16.4853 Z"
     fill="#2a4b57"
     id="path1" />
</svg>
