<svg width="45" height="45" viewBox="0 0 45 45" fill="none" xmlns="http://www.w3.org/2000/svg">
<circle cx="22.5" cy="22.5" r="22.5" fill="#9DA083"/>
<path d="M7.5 30.9184V18.688L20.8861 25.4487C21.9003 25.9609 23.0997 25.9609 24.1139 25.4487L37.5 18.688V30.9184C37.5 31.9233 37.4967 32.5245 37.4381 32.9557C37.4113 33.1535 37.3795 33.2538 37.3601 33.3004C37.3513 33.3215 37.3457 33.3301 37.3448 33.3314L37.3447 33.3316C37.3441 33.3325 37.3436 33.3333 37.3409 33.336C37.338 33.3389 37.3367 33.3398 37.3347 33.3411C37.3322 33.3427 37.322 33.3491 37.2988 33.3585C37.2479 33.3792 37.1428 33.4114 36.9403 33.4384C36.5006 33.4969 35.8892 33.5 34.875 33.5H10.125C9.11076 33.5 8.49941 33.4969 8.05968 33.4384C7.85717 33.4114 7.75208 33.3792 7.7012 33.3585C7.67801 33.3491 7.66779 33.3427 7.66532 33.3411C7.6633 33.3398 7.66201 33.3389 7.65913 33.336C7.65831 33.3352 7.65769 33.3345 7.6572 33.334C7.65598 33.3327 7.65562 33.3321 7.65519 33.3314C7.65432 33.3301 7.64867 33.3215 7.6399 33.3004C7.62053 33.2538 7.58873 33.1535 7.56185 32.9557C7.50325 32.5245 7.5 31.9233 7.5 30.9184ZM37.5 15.3271L22.7614 22.7708C22.5977 22.8535 22.4023 22.8535 22.2386 22.7708L7.5 15.3271V14.0816C7.5 13.0767 7.50325 12.4755 7.56185 12.0443C7.58873 11.8465 7.62053 11.7462 7.6399 11.6996C7.64867 11.6785 7.65432 11.6699 7.65519 11.6686L7.65529 11.6684C7.65585 11.6675 7.65642 11.6667 7.65913 11.664C7.66201 11.6611 7.6633 11.6602 7.66532 11.6589C7.66779 11.6573 7.678 11.6509 7.7012 11.6415C7.75208 11.6208 7.85717 11.5886 8.05968 11.5616C8.49941 11.5031 9.11076 11.5 10.125 11.5H34.875C35.8892 11.5 36.5006 11.5031 36.9403 11.5616C37.1428 11.5886 37.2479 11.6208 37.2988 11.6415C37.322 11.6509 37.3322 11.6573 37.3347 11.6589C37.3367 11.6602 37.338 11.6611 37.3409 11.664C37.3437 11.6668 37.3442 11.6676 37.3448 11.6686C37.3457 11.6699 37.3513 11.6785 37.3601 11.6996C37.3795 11.7462 37.4113 11.8465 37.4381 12.0443C37.4967 12.4755 37.5 13.0767 37.5 14.0816V15.3271Z" stroke="#2A4B57" stroke-width="3"/>
</svg>
