<?xml version="1.0" encoding="UTF-8" standalone="no"?>
<svg
   width="32"
   height="32"
   viewBox="0 0 32 32"
   fill="none"
   version="1.1"
   id="svg145"
   sodipodi:docname="Social Icons.svg"
   xmlns:inkscape="http://www.inkscape.org/namespaces/inkscape"
   xmlns:sodipodi="http://sodipodi.sourceforge.net/DTD/sodipodi-0.dtd"
   xmlns="http://www.w3.org/2000/svg"
   xmlns:svg="http://www.w3.org/2000/svg">
  <sodipodi:namedview
     id="namedview147"
     pagecolor="#ffffff"
     bordercolor="#000000"
     borderopacity="0.25"
     inkscape:showpageshadow="2"
     inkscape:pageopacity="0.0"
     inkscape:pagecheckerboard="0"
     inkscape:deskcolor="#d1d1d1"
     showgrid="false" />
  <g
     clip-path="url(#clip0_257_265)"
     id="g138">
    <path
       d="m 16,2.88125 c 4.275,0 4.7813,0.01875 6.4625,0.09375 1.5625,0.06875 2.4063,0.33125 2.9688,0.55 0.7437,0.2875 1.2812,0.6375 1.8375,1.19375 0.5625,0.5625 0.9062,1.09375 1.1937,1.8375 0.2188,0.5625 0.4813,1.4125 0.55,2.96875 0.075,1.6875 0.0938,2.1938 0.0938,6.4625 0,4.275 -0.0188,4.7813 -0.0938,6.4625 -0.0687,1.5625 -0.3312,2.4063 -0.55,2.9688 C 28.175,26.1625 27.825,26.7 27.2688,27.2563 26.7063,27.8188 26.175,28.1625 25.4313,28.45 24.8688,28.6688 24.0188,28.9313 22.4625,29 20.775,29.075 20.2688,29.0938 16,29.0938 11.725,29.0938 11.2188,29.075 9.5375,29 7.975,28.9313 7.13125,28.6688 6.56875,28.45 5.825,28.1625 5.2875,27.8125 4.73125,27.2563 4.16875,26.6938 3.825,26.1625 3.5375,25.4188 3.31875,24.8563 3.05625,24.0063 2.9875,22.45 2.9125,20.7625 2.89375,20.2563 2.89375,15.9875 2.89375,11.7125 2.9125,11.2062 2.9875,9.525 3.05625,7.9625 3.31875,7.11875 3.5375,6.55625 3.825,5.8125 4.175,5.275 4.73125,4.71875 5.29375,4.15625 5.825,3.8125 6.56875,3.525 7.13125,3.30625 7.98125,3.04375 9.5375,2.975 11.2188,2.9 11.725,2.88125 16,2.88125 Z M 16,0 C 11.6563,0 11.1125,0.01875 9.40625,0.09375 7.70625,0.16875 6.5375,0.44375 5.525,0.8375 4.46875,1.25 3.575,1.79375 2.6875,2.6875 1.79375,3.575 1.25,4.46875 0.8375,5.51875 0.44375,6.5375 0.16875,7.7 0.09375,9.4 0.01875,11.1125 0,11.6563 0,16 c 0,4.3438 0.01875,4.8875 0.09375,6.5938 0.075,1.7 0.35,2.8687 0.74375,3.8812 0.4125,1.0563 0.95625,1.95 1.85,2.8375 C 3.575,30.2 4.46875,30.75 5.51875,31.1563 6.5375,31.55 7.7,31.825 9.4,31.9 c 1.7063,0.075 2.25,0.0937 6.5938,0.0937 4.3437,0 4.8875,-0.0187 6.5937,-0.0937 1.7,-0.075 2.8688,-0.35 3.8813,-0.7437 1.05,-0.4063 1.9437,-0.9563 2.8312,-1.8438 0.8875,-0.8875 1.4375,-1.7812 1.8438,-2.8312 0.3937,-1.0188 0.6687,-2.1813 0.7437,-3.8813 0.075,-1.7062 0.0938,-2.25 0.0938,-6.5937 0,-4.3438 -0.0188,-4.8875 -0.0938,-6.5938 -0.075,-1.7 -0.35,-2.86875 -0.7437,-3.88125 C 30.75,4.46875 30.2063,3.575 29.3125,2.6875 28.425,1.8 27.5313,1.25 26.4813,0.84375 25.4625,0.45 24.3,0.175 22.6,0.1 20.8875,0.01875 20.3438,0 16,0 Z"
       fill="#9da083"
       id="path132" />
    <path
       d="m 16,7.78125 c -4.5375,0 -8.21875,3.68125 -8.21875,8.21875 0,4.5375 3.68125,8.2188 8.21875,8.2188 4.5375,0 8.2188,-3.6813 8.2188,-8.2188 0,-4.5375 -3.6813,-8.21875 -8.2188,-8.21875 z m 0,13.54995 c -2.9437,0 -5.3313,-2.3874 -5.3313,-5.3312 0,-2.9437 2.3876,-5.3313 5.3313,-5.3313 2.9438,0 5.3312,2.3876 5.3312,5.3313 0,2.9438 -2.3874,5.3312 -5.3312,5.3312 z"
       fill="#9da083"
       id="path134" />
    <path
       d="m 26.4625,7.45627 c 0,1.06251 -0.8625,1.91876 -1.9187,1.91876 -1.0625,0 -1.9188,-0.8625 -1.9188,-1.91876 0,-1.0625 0.8625,-1.91875 1.9188,-1.91875 1.0562,0 1.9187,0.8625 1.9187,1.91875 z"
       fill="#9da083"
       id="path136" />
  </g>
  <defs
     id="defs143">
    <clipPath
       id="clip0_257_265">
      <rect
         width="32"
         height="32"
         fill="#ffffff"
         id="rect140"
         x="0"
         y="0" />
    </clipPath>
  </defs>
</svg>
