<svg width="45" height="45" viewBox="0 0 45 45" fill="none" xmlns="http://www.w3.org/2000/svg">
<circle cx="22.5" cy="22.5" r="22.5" fill="#9DA083"/>
<g clip-path="url(#clip0_260_110)">
<path d="M22.5 9.79121C26.6414 9.79121 27.1318 9.80937 28.7605 9.88203C30.2742 9.94863 31.0916 10.2029 31.6365 10.4148C32.357 10.6934 32.8777 11.0324 33.4166 11.5713C33.9615 12.1162 34.2945 12.6309 34.573 13.3514C34.785 13.8963 35.0393 14.7197 35.1059 16.2273C35.1785 17.8621 35.1967 18.3525 35.1967 22.4879C35.1967 26.6293 35.1785 27.1197 35.1059 28.7484C35.0393 30.2621 34.785 31.0795 34.573 31.6244C34.2945 32.3449 33.9555 32.8656 33.4166 33.4045C32.8717 33.9494 32.357 34.2824 31.6365 34.5609C31.0916 34.7729 30.2682 35.0271 28.7605 35.0937C27.1258 35.1664 26.6354 35.1846 22.5 35.1846C18.3586 35.1846 17.8682 35.1664 16.2395 35.0937C14.7258 35.0271 13.9084 34.7729 13.3635 34.5609C12.643 34.2824 12.1223 33.9434 11.5834 33.4045C11.0385 32.8596 10.7055 32.3449 10.427 31.6244C10.215 31.0795 9.96074 30.2561 9.89414 28.7484C9.82148 27.1137 9.80332 26.6232 9.80332 22.4879C9.80332 18.3465 9.82148 17.8561 9.89414 16.2273C9.96074 14.7137 10.215 13.8963 10.427 13.3514C10.7055 12.6309 11.0445 12.1102 11.5834 11.5713C12.1283 11.0264 12.643 10.6934 13.3635 10.4148C13.9084 10.2029 14.7318 9.94863 16.2395 9.88203C17.8682 9.80937 18.3586 9.79121 22.5 9.79121ZM22.5 7C18.292 7 17.7652 7.01816 16.1123 7.09082C14.4654 7.16348 13.3332 7.42988 12.3523 7.81133C11.3291 8.21094 10.4633 8.7377 9.60352 9.60352C8.7377 10.4633 8.21094 11.3291 7.81133 12.3463C7.42988 13.3332 7.16348 14.4594 7.09082 16.1062C7.01816 17.7652 7 18.292 7 22.5C7 26.708 7.01816 27.2348 7.09082 28.8877C7.16348 30.5346 7.42988 31.6668 7.81133 32.6477C8.21094 33.6709 8.7377 34.5367 9.60352 35.3965C10.4633 36.2562 11.3291 36.7891 12.3463 37.1826C13.3332 37.5641 14.4594 37.8305 16.1062 37.9031C17.7592 37.9758 18.2859 37.9939 22.4939 37.9939C26.702 37.9939 27.2287 37.9758 28.8816 37.9031C30.5285 37.8305 31.6607 37.5641 32.6416 37.1826C33.6588 36.7891 34.5246 36.2562 35.3844 35.3965C36.2441 34.5367 36.777 33.6709 37.1705 32.6537C37.552 31.6668 37.8184 30.5406 37.891 28.8938C37.9637 27.2408 37.9818 26.7141 37.9818 22.5061C37.9818 18.298 37.9637 17.7713 37.891 16.1184C37.8184 14.4715 37.552 13.3393 37.1705 12.3584C36.7891 11.3291 36.2623 10.4633 35.3965 9.60352C34.5367 8.74375 33.6709 8.21094 32.6537 7.81738C31.6668 7.43594 30.5406 7.16953 28.8938 7.09688C27.2348 7.01816 26.708 7 22.5 7Z" fill="#2A4B57"/>
<path d="M22.5 14.5381C18.1043 14.5381 14.5381 18.1043 14.5381 22.5C14.5381 26.8957 18.1043 30.4619 22.5 30.4619C26.8957 30.4619 30.4619 26.8957 30.4619 22.5C30.4619 18.1043 26.8957 14.5381 22.5 14.5381ZM22.5 27.6646C19.6482 27.6646 17.3354 25.3518 17.3354 22.5C17.3354 19.6482 19.6482 17.3354 22.5 17.3354C25.3518 17.3354 27.6646 19.6482 27.6646 22.5C27.6646 25.3518 25.3518 27.6646 22.5 27.6646Z" fill="#2A4B57"/>
<path d="M32.6355 14.2233C32.6355 15.2526 31.8 16.0821 30.7768 16.0821C29.7475 16.0821 28.918 15.2465 28.918 14.2233C28.918 13.194 29.7535 12.3645 30.7768 12.3645C31.8 12.3645 32.6355 13.2 32.6355 14.2233Z" fill="#2A4B57"/>
</g>
<defs>
<clipPath id="clip0_260_110">
<rect width="31" height="31" fill="white" transform="translate(7 7)"/>
</clipPath>
</defs>
</svg>
