<svg width="45" height="45" viewBox="0 0 45 45" fill="none" xmlns="http://www.w3.org/2000/svg">
<circle cx="22.5" cy="22.5" r="22.5" fill="#9DA083"/>
<path d="M35.7116 7H9.2884C8.68148 7 8.09942 7.2411 7.67026 7.67026C7.2411 8.09942 7 8.68148 7 9.2884V35.7116C7 36.3185 7.2411 36.9006 7.67026 37.3297C8.09942 37.7589 8.68148 38 9.2884 38H35.7116C36.3185 38 36.9006 37.7589 37.3297 37.3297C37.7589 36.9006 38 36.3185 38 35.7116V9.2884C38 8.68148 37.7589 8.09942 37.3297 7.67026C36.9006 7.2411 36.3185 7 35.7116 7ZM16.2397 33.4081H11.579V18.6035H16.2397V33.4081ZM13.9061 16.5519C13.3774 16.5489 12.8615 16.3894 12.4234 16.0934C11.9853 15.7975 11.6446 15.3784 11.4445 14.8891C11.2443 14.3998 11.1936 13.8621 11.2987 13.344C11.4038 12.8258 11.6601 12.3504 12.0351 11.9778C12.4102 11.6052 12.8872 11.352 13.406 11.2502C13.9248 11.1484 14.4621 11.2026 14.9501 11.4059C15.4382 11.6092 15.8551 11.9525 16.1482 12.3925C16.4413 12.8325 16.5975 13.3494 16.5971 13.8781C16.6021 14.2321 16.5357 14.5834 16.4021 14.9112C16.2684 15.239 16.0701 15.5365 15.8189 15.786C15.5678 16.0355 15.2691 16.2319 14.9404 16.3635C14.6118 16.4951 14.26 16.5591 13.9061 16.5519ZM33.4189 33.421H28.7603V25.3331C28.7603 22.9478 27.7463 22.2115 26.4374 22.2115C25.0553 22.2115 23.6991 23.2535 23.6991 25.3933V33.421H19.0383V18.6142H23.5204V20.6658H23.5807C24.0306 19.7552 25.6065 18.1988 28.0111 18.1988C30.6117 18.1988 33.421 19.7423 33.421 24.2631L33.4189 33.421Z" fill="#2A4B57"/>
</svg>
