<?xml version="1.0" encoding="UTF-8" standalone="no"?>
<svg
   width="31"
   height="31"
   viewBox="0 0 31 31"
   fill="none"
   version="1.1"
   id="svg1"
   sodipodi:docname="linkedin light.svg"
   inkscape:version="1.3.2 (091e20e, 2023-11-25)"
   xmlns:inkscape="http://www.inkscape.org/namespaces/inkscape"
   xmlns:sodipodi="http://sodipodi.sourceforge.net/DTD/sodipodi-0.dtd"
   xmlns="http://www.w3.org/2000/svg"
   xmlns:svg="http://www.w3.org/2000/svg">
  <sodipodi:namedview
     id="namedview1"
     pagecolor="#ffffff"
     bordercolor="#000000"
     borderopacity="0.25"
     inkscape:showpageshadow="2"
     inkscape:pageopacity="0.0"
     inkscape:pagecheckerboard="0"
     inkscape:deskcolor="#d1d1d1"
     inkscape:zoom="7.6129032"
     inkscape:cx="15.5"
     inkscape:cy="15.434322"
     inkscape:window-width="1792"
     inkscape:window-height="1120"
     inkscape:window-x="0"
     inkscape:window-y="0"
     inkscape:window-maximized="0"
     inkscape:current-layer="g1" />
  <g
     clip-path="url(#clip0_25_172)"
     id="g1">
    <path
       d="M 28.7116,0 H 2.2884 C 1.68148,0 1.09942,0.241099 0.670258,0.670258 0.241099,1.09942 0,1.68148 0,2.2884 v 26.4232 c 0,0.6069 0.241099,1.189 0.670258,1.6181 C 1.09942,30.7589 1.68148,31 2.2884,31 h 26.4232 c 0.6069,0 1.189,-0.2411 1.6181,-0.6703 C 30.7589,29.9006 31,29.3185 31,28.7116 V 2.2884 C 31,1.68148 30.7589,1.09942 30.3297,0.670258 29.9006,0.241099 29.3185,0 28.7116,0 Z M 9.23972,26.4081 H 4.57896 V 11.6035 H 9.23972 Z M 6.90611,9.55188 C 6.37743,9.5489 5.86147,9.38938 5.42337,9.09345 4.98526,8.79751 4.64463,8.37844 4.44447,7.8891 4.24431,7.39976 4.19359,6.8621 4.29871,6.34396 4.40383,5.82583 4.66008,5.35044 5.03512,4.9778 5.41016,4.60516 5.88718,4.35197 6.40598,4.25018 6.92478,4.14839 7.4621,4.20256 7.95015,4.40586 8.43819,4.60915 8.85507,4.95247 9.14818,5.39247 9.4413,5.83247 9.5975,6.34943 9.59708,6.87813 9.60207,7.23209 9.53574,7.58343 9.40206,7.91121 9.26837,8.23899 9.07006,8.5365 8.81895,8.786 8.56783,9.03551 8.26905,9.23191 7.94042,9.36349 7.61179,9.49507 7.26003,9.55913 6.90611,9.55188 Z M 26.4189,26.421 h -4.6586 v -8.0879 c 0,-2.3853 -1.014,-3.1216 -2.3229,-3.1216 -1.3821,0 -2.7383,1.042 -2.7383,3.1818 V 26.421 H 12.0383 V 11.6142 h 4.4821 v 2.0516 h 0.0603 c 0.4499,-0.9106 2.0258,-2.467 4.4304,-2.467 2.6006,0 5.4099,1.5435 5.4099,6.0643 z"
       fill="#eab402"
       id="path1"
       style="fill:#9da083;fill-opacity:1"
       inkscape:export-filename="linkedin light.svg"
       inkscape:export-xdpi="96"
       inkscape:export-ydpi="96" />
  </g>
  <defs
     id="defs1">
    <clipPath
       id="clip0_25_172">
      <rect
         width="31"
         height="31"
         fill="#ffffff"
         id="rect1"
         x="0"
         y="0" />
    </clipPath>
  </defs>
</svg>
