<?xml version="1.0" encoding="UTF-8" standalone="no"?>
<svg
   width="254"
   height="193"
   viewBox="0 0 254 193"
   fill="none"
   version="1.1"
   id="svg29"
   xmlns="http://www.w3.org/2000/svg"
   xmlns:svg="http://www.w3.org/2000/svg">
  <defs
     id="defs29" />
  <path
     d="M 87.6788,22.2776 C 86.6824,22.605 85.9555,21.4023 86.7143,20.6783 90.742,16.8357 97.9287,10.2163 102.14,7.73682 c 4.793,-2.82192 22.628,-10.10813 29.99,-13.07656 0.93,-0.37512 1.658,0.62453 0.97,1.35442 -6.091,6.46065 -18.24,15.41682 -23.679,18.19232 -4.469,2.2811 -15.7307,6.0957 -21.7422,8.0706 z"
     fill="#9da083"
     fill-opacity="0.3"
     id="path1" />
  <path
     d="m 49.7836,12.2036 c -0.9449,0.2992 -1.6715,-0.7914 -1.0258,-1.5433 3.7649,-4.3845 11.6064,-13.21116 16.2135,-16.22904 5.0533,-3.3102 24.5895,-11.49366 31.765,-14.45716 0.8767,-0.3621 1.6475,0.5474 1.0901,1.3148 C 92.1171,-10.8515 79.1882,0.245895 73.392,3.44632 68.5472,6.12144 55.763,10.31 49.7836,12.2036 Z"
     fill="#9da083"
     fill-opacity="0.3"
     id="path2" />
  <path
     d="M 9.95915,0.274575 C 9.00351,0.579485 8.27194,-0.532639 8.94092,-1.28009 12.8482,-5.64569 20.8376,-14.2767 25.5126,-17.2703 c 5.153,-3.2997 24.973,-11.5532 32.3171,-14.5698 0.8875,-0.3645 1.6522,0.5645 1.0695,1.3266 -5.9265,7.7515 -19.1083,18.712 -25.0021,21.91189 -4.9203,2.67133 -17.8228,6.92506 -23.93795,8.876185 z"
     fill="#9da083"
     fill-opacity="0.3"
     id="path3" />
  <path
     d="m 185.15,27.9392 c 0.503,0.2261 1.095,9e-4 1.321,-0.503 0.226,-0.5038 0.001,-1.0956 -0.503,-1.3217 z M 3.5985,2.23157 c 11.1214,3.21083 29.2132,8.42653 45.7948,13.02683 16.5411,4.5891 31.684,8.596 36.839,9.356 L 86.524,22.6358 C 81.5254,21.8989 66.5388,17.9396 49.928,13.3312 33.3577,8.73402 15.2752,3.52103 4.15327,0.310046 Z M 86.2323,24.6144 c 2.6649,0.3929 8.2202,0.2103 15.1007,-0.2171 6.928,-0.4303 15.34,-1.1202 23.798,-1.7823 8.465,-0.6626 16.978,-1.2977 24.137,-1.6213 7.202,-0.3257 12.906,-0.328 15.826,0.2305 l 0.376,-1.9644 c -3.193,-0.6106 -9.14,-0.5875 -16.292,-0.2641 -7.196,0.3254 -15.74,0.9629 -24.204,1.6254 -8.471,0.6632 -16.858,1.351 -23.765,1.7801 -6.9553,0.432 -12.273,0.5902 -14.685,0.2346 z m 78.8617,-3.3902 c 6.117,1.1697 8.804,1.8185 11.105,2.6727 2.352,0.8733 4.251,1.9335 8.951,4.0423 l 0.818,-1.8247 c -4.523,-2.0296 -6.649,-3.1927 -9.073,-4.0926 -2.475,-0.9191 -5.314,-1.5935 -11.425,-2.7621 z"
     fill="#9da083"
     fill-opacity="0.3"
     id="path4" />
  <path
     d="m 86.6922,27.1228 c -0.6343,-0.8125 0.2219,-1.8911 1.1596,-1.463 5.4102,2.4702 15.6132,7.3369 19.9012,10.7706 4.794,3.8392 19.287,19.7398 24.812,25.8563 0.661,0.7313 -0.001,1.7648 -0.922,1.4156 C 122.59,60.2721 108.278,51.2288 103.306,46.6885 99.1745,42.915 90.7831,32.3634 86.6922,27.1228 Z"
     fill="#9da083"
     fill-opacity="0.3"
     id="path5" />
  <path
     d="m 47.3543,17.2379 c -0.4778,-0.9033 0.5286,-1.8217 1.3793,-1.2554 5.0248,3.3448 14.7629,10.0616 18.5433,14.3001 4.1973,4.7061 16.0762,23.4075 20.4863,30.4207 0.5201,0.827 -0.2945,1.7377 -1.1443,1.2558 C 77.9823,57.0605 64.9054,45.4386 60.6626,39.9848 57.1246,35.4369 50.4882,23.1622 47.3543,17.2379 Z"
     fill="#9da083"
     fill-opacity="0.3"
     id="path6" />
  <path
     d="M 4.06525,5.7614 C 3.59457,4.86672 4.58211,3.95506 5.43427,4.49894 10.6791,7.84639 21.311,14.8751 25.3595,19.3319 c 4.4565,4.9059 17.0297,24.6346 21.5254,31.7602 0.5158,0.8175 -0.2838,1.7339 -1.137,1.2795 C 36.5641,47.4804 22.5358,35.3677 18.0465,29.6706 14.2817,24.8928 7.25151,11.8179 4.06525,5.7614 Z"
     fill="#9da083"
     fill-opacity="0.3"
     id="path7" />
  <path
     d="m 147.805,23.1159 c -0.747,-0.676 -0.138,-1.8631 0.845,-1.6456 4.673,1.0332 12.86,3.0111 16.503,4.9143 4.108,2.1457 16.726,11.7713 22.031,15.865 0.763,0.5886 0.335,1.6983 -0.616,1.5459 -7.606,-1.2186 -19.574,-5.7417 -23.921,-8.4211 -3.554,-2.1902 -10.916,-8.7062 -14.842,-12.2585 z"
     fill="#9da083"
     fill-opacity="0.3"
     id="path8" />
  <path
     d="m 187.123,28.9061 c -0.716,-0.7483 0.03,-1.8775 0.994,-1.4977 1.907,0.7515 4.071,1.6854 5.213,2.4535 1.52,1.0221 5.643,4.7566 8.318,7.2212 0.728,0.6712 0.188,1.6428 -0.734,1.2792 -3.248,-1.2819 -7.222,-3.4345 -8.824,-4.6672 -1.171,-0.9007 -3.265,-3.0123 -4.967,-4.789 z"
     fill="#9da083"
     fill-opacity="0.3"
     id="path9" />
  <path
     d="m 149.722,18.4226 c -1.041,0.152 -1.541,-1.1612 -0.661,-1.7368 3.933,-2.5707 10.258,-6.5298 13.861,-7.86578 4.198,-1.55704 19.034,-4.78186 25.81,-6.21878 0.985,-0.20873 1.51,0.88961 0.691,1.47318 -6.038,4.29811 -16.782,9.55658 -21.496,10.99228 -3.803,1.1585 -12.864,2.5763 -18.205,3.3559 z"
     fill="#9da083"
     fill-opacity="0.3"
     id="path10" />
  <path
     d="m 112.045,25.7 c -0.763,-0.6877 -0.121,-1.8955 0.875,-1.6423 5.342,1.3585 15.085,4.0205 19.425,6.3795 4.88,2.6521 20.171,14.4228 26.25,19.1486 0.775,0.6028 0.307,1.7256 -0.658,1.5427 C 149.189,49.47 135.039,43.7318 129.885,40.4743 125.629,37.7846 116.624,29.8262 112.045,25.7 Z"
     fill="#9da083"
     fill-opacity="0.3"
     id="path11" />
  <path
     d="m 184.753,30.1859 c -0.535,-0.9637 0.606,-1.8791 1.423,-1.1399 2.183,1.9747 4.712,4.3762 5.984,5.9926 1.7,2.1587 6.268,9.4643 9.041,13.9568 0.556,0.9001 -0.323,1.6911 -1.11,0.9841 -3.679,-3.3067 -8.193,-8.2455 -9.937,-10.691 -1.308,-1.8336 -3.617,-5.8828 -5.401,-9.1026 z"
     fill="#9da083"
     fill-opacity="0.3"
     id="path12" />
  <path
     d="m 112.045,21.1199 c -0.986,0.1334 -1.509,-1.0708 -0.734,-1.6945 3.811,-3.0673 10.892,-8.5468 14.841,-10.22734 4.41,-1.87634 20.481,-5.5198 27.057,-6.97175 0.929,-0.20518 1.51,0.81975 0.809,1.46387 -5.862,5.38986 -17.4,12.12522 -22.395,13.82422 -4.103,1.3955 -14.277,2.8882 -19.578,3.6055 z"
     fill="#9da083"
     fill-opacity="0.3"
     id="path13" />
  <path
     d="m 89.7735,93.0869 c -0.5127,-0.9376 0.5725,-1.8505 1.4043,-1.1796 2.5399,2.0481 5.7734,4.788 7.2797,6.6079 1.8905,2.2838 6.9835,10.3478 9.8125,14.8888 0.541,0.868 -0.308,1.691 -1.112,1.059 -4.136,-3.244 -9.4302,-8.597 -11.3679,-11.221 -1.4923,-2.021 -4.1456,-6.7333 -6.0166,-10.1551 z"
     fill="#9da083"
     fill-opacity="0.3"
     id="path14" />
  <path
     d="m 109.923,87.7749 c -1.021,-0.0363 -1.313,-1.3641 -0.395,-1.8148 4.587,-2.254 12.794,-6.0982 17.156,-7.0032 4.928,-1.0224 22.252,-1.7768 29.435,-2.0526 0.976,-0.0375 1.344,1.1116 0.494,1.5925 -7.149,4.0422 -20.267,8.3708 -25.75,9.1292 -4.497,0.6221 -15.233,0.3514 -20.94,0.1489 z"
     fill="#9da083"
     fill-opacity="0.3"
     id="path15" />
  <path
     d="m 84.3722,93.8956 c 0.3887,-0.9954 1.7855,-0.7509 1.8064,0.3176 0.0636,3.2621 0.0432,7.5008 -0.3827,9.8238 -0.5346,2.917 -3.4384,12.001 -5.0982,17.087 -0.3174,0.972 -1.4927,0.851 -1.5264,-0.171 -0.1728,-5.254 0.5247,-12.75 1.2894,-15.921 0.589,-2.442 2.493,-7.5036 3.9115,-11.1364 z"
     fill="#9da083"
     fill-opacity="0.3"
     id="path16" />
  <path
     d="m 92.3154,124.739 c 0.3838,-0.99 1.7612,-0.758 1.7874,0.303 0.0614,2.489 0.0509,5.446 -0.2488,7.135 -0.3941,2.221 -2.5043,8.902 -3.8465,13.047 -0.3129,0.966 -1.4519,0.854 -1.4804,-0.161 -0.1167,-4.165 0.3708,-9.721 0.9432,-12.135 0.4265,-1.799 1.7512,-5.37 2.8451,-8.189 z"
     fill="#9da083"
     fill-opacity="0.3"
     id="path17" />
  <path
     d="m 89.0738,122.44 c 0.8682,-0.471 1.7508,0.454 1.2271,1.292 -0.9576,1.532 -2.1353,3.275 -2.9985,4.092 -1.1123,1.051 -4.9365,3.58 -7.4915,5.231 -0.7941,0.513 -1.6036,-0.196 -1.1023,-0.998 1.6104,-2.575 4.1154,-5.552 5.4423,-6.628 0.9621,-0.779 3.117,-2.009 4.9229,-2.989 z"
     fill="#9da083"
     fill-opacity="0.3"
     id="path18" />
  <path
     d="M 80.4083,67.8953 C 79.36,67.8621 79.0882,66.4834 80.0489,66.0626 85.148,63.8293 94.1652,60.067 98.9705,59.1774 104.44,58.165 123.692,57.4183 131.625,57.1467 c 1.002,-0.0343 1.344,1.154 0.448,1.6046 -7.933,3.9878 -22.413,8.2486 -28.473,8.9965 -4.9805,0.6148 -16.8673,0.3477 -23.1917,0.1475 z"
     fill="#9da083"
     fill-opacity="0.3"
     id="path19" />
  <path
     d="M 7.17248,11.208 C 6.22553,10.9951 6.12983,9.72266 7.03331,9.36806 12.5068,7.21982 24.4036,2.77395 30.1582,2.34276 36.4036,1.8748 58.2578,4.58798 65.9261,5.58031 66.8486,5.69969 67.077,6.84703 66.2457,7.26454 57.1742,11.8209 39.686,15.6174 32.8362,15.5736 27.0784,15.5369 13.2886,12.5831 7.17248,11.208 Z"
     fill="#9da083"
     fill-opacity="0.3"
     id="path20" />
  <path
     d="m 40.1484,39.5241 c -1.0179,-0.0378 -1.3013,-1.364 -0.3907,-1.8203 5.0892,-2.5501 14.8543,-7.2344 19.966,-8.3103 5.7012,-1.1999 26.0273,-2.0793 33.8676,-2.3809 0.9731,-0.0375 1.3497,1.1142 0.5108,1.6087 -8.0086,4.7211 -23.3072,9.8635 -29.637,10.7517 -5.2531,0.7372 -18.0078,0.3854 -24.3167,0.1511 z"
     fill="#9da083"
     fill-opacity="0.3"
     id="path21" />
  <path
     d="m 1.09883,7.58682 c 0,0 17.55517,18.26988 36.26067,31.91208 10.1577,7.4081 27.2276,19.8468 42.1531,30.4494 M 182.543,112.53 C 171.853,106.151 116.27,93.602 107.241,88.7225 103.115,86.4928 92.0729,78.8707 79.5126,69.9483 m 0,0 c 0,0 10.1385,25.4377 12.0371,37.4737 1.8986,12.037 0.7362,14.978 0.7362,14.978"
     stroke="#9da083"
     stroke-opacity="0.3"
     stroke-width="2"
     stroke-linecap="round"
     id="path22" />
  <path
     d="m 106.469,91.9245 c -0.314,-0.9719 0.84,-1.6927 1.579,-0.9876 4.112,3.9241 11.753,11.4731 14.488,15.8921 3.056,4.937 10.795,23.666 13.762,30.942 0.368,0.904 -0.59,1.65 -1.339,1.025 -7.112,-5.933 -17.079,-18.519 -20.059,-24.149 -2.472,-4.67 -6.488,-16.71 -8.431,-22.7225 z"
     fill="#9da083"
     fill-opacity="0.3"
     id="path23" />
  <path
     d="m 37.0523,43.7477 c -0.1399,-1.0118 1.1188,-1.5324 1.7249,-0.7102 3.6016,4.8856 10.5328,14.6189 12.656,19.9406 2.3553,5.9037 7.1634,27.7269 8.9171,35.862 0.2058,0.9546 -0.8708,1.5339 -1.5053,0.7912 C 52.3489,92.0312 43.9551,76.5106 41.8152,69.8835 40.0297,64.3538 37.9748,50.4207 37.0523,43.7477 Z"
     fill="#9da083"
     fill-opacity="0.3"
     id="path24" />
  <path
     d="m 2.8241,14.0251 c -0.08303,-1.0055 1.17992,-1.4563 1.75372,-0.6264 3.58498,5.185 10.84958,16.0575 12.88828,21.8637 2.2401,6.3793 6.1948,29.9566 7.5634,38.3487 0.1553,0.9522 -0.9385,1.4805 -1.5493,0.7337 C 16.7746,66.146 8.37118,49.1772 6.4196,42.0452 4.78002,36.0533 3.39349,20.9203 2.8241,14.0251 Z"
     fill="#9da083"
     fill-opacity="0.3"
     id="path25" />
  <path
     d="m 167.082,110.246 c -0.482,-0.897 0.51,-1.801 1.353,-1.228 2.606,1.768 6.16,4.315 7.705,6.04 1.857,2.073 6.733,9.649 9.322,13.734 0.521,0.823 -0.255,1.674 -1.075,1.146 -4.211,-2.712 -9.677,-7.613 -11.575,-10.044 -1.476,-1.891 -4.03,-6.486 -5.73,-9.648 z"
     fill="#9da083"
     fill-opacity="0.3"
     id="path26" />
  <path
     d="m 168.011,105.034 c -0.947,-0.207 -1.045,-1.468 -0.139,-1.814 3.149,-1.201 8.098,-2.95 10.677,-3.145 2.953,-0.2235 12.603,0.918 17.349,1.518 0.923,0.116 1.133,1.222 0.28,1.591 -4.934,2.133 -12.945,3.824 -16.237,3.805 -2.607,-0.015 -8.372,-1.18 -11.93,-1.955 z"
     fill="#9da083"
     fill-opacity="0.3"
     id="path27" />
  <path
     d="m 133.088,100.247 c -0.5,-0.9279 0.567,-1.8481 1.409,-1.2131 3.773,2.8481 9.669,7.4811 12.167,10.4321 2.914,3.442 11.073,16.379 14.767,22.302 0.534,0.855 -0.322,1.724 -1.15,1.149 -6.122,-4.253 -14.768,-12.625 -17.746,-16.594 -2.402,-3.203 -6.866,-11.287 -9.447,-16.076 z"
     fill="#9da083"
     fill-opacity="0.3"
     id="path28" />
  <path
     d="m 132.486,95.2485 c -0.995,-0.2118 -1.05,-1.5584 -0.075,-1.8479 4.416,-1.3113 11.917,-3.3761 15.777,-3.5079 4.399,-0.1503 19.258,1.7828 25.751,2.6645 0.964,0.1308 1.131,1.3095 0.215,1.6343 -6.928,2.4552 -18.828,4.2461 -23.677,4.0798 -3.94,-0.1351 -12.959,-1.951 -17.991,-3.0228 z"
     fill="#9da083"
     fill-opacity="0.3"
     id="path29" />
</svg>
