<?xml version="1.0" encoding="UTF-8" standalone="no"?>
<svg
   width="32.000099"
   height="24.500097"
   viewBox="0 0 32.000099 24.500097"
   fill="none"
   version="1.1"
   id="svg1"
   xmlns="http://www.w3.org/2000/svg"
   xmlns:svg="http://www.w3.org/2000/svg">
  <defs
     id="defs1" />
  <path
     d="M 1.000048,20.500048 V 7.758198 l 13.6361,6.96015 c 0.8567,0.4372 1.8711,0.4372 2.7278,0 l 13.6361,-6.96015 v 12.74185 c 0,0.9711 -0.0021,1.5988 -0.0643,2.0613 -0.0583,0.4337 -0.1525,0.5697 -0.2286,0.6458 -0.0761,0.0761 -0.2121,0.1703 -0.6458,0.2286 -0.4625,0.0622 -1.0902,0.0643 -2.0613,0.0643 h -24 c -0.97108,0 -1.59879,-0.0021 -2.0613,-0.0643 -0.43374,-0.0583 -0.56968,-0.1525 -0.64581,-0.2286 -0.07612,-0.0761 -0.17027,-0.2121 -0.22858,-0.6458 -0.06219,-0.4625 -0.06431,-1.0902 -0.06431,-2.0613 z m 30,-14.98731 -14.5454,7.42421 c -0.2855,0.1457 -0.6237,0.1457 -0.9092,0 l -14.5454,-7.42421 v -1.51269 c 0,-0.97108 0.00212,-1.59879 0.06431,-2.0613 0.05831,-0.43374 0.15246,-0.56968 0.22858,-0.64581 0.07613,-0.07612 0.21207,-0.17027 0.64581,-0.22858 0.46251,-0.06219 1.09022,-0.06431 2.0613,-0.06431 h 24 c 0.9711,0 1.5988,0.00212 2.0613,0.06431 0.4337,0.05831 0.5697,0.15246 0.6458,0.22858 0.0761,0.07613 0.1703,0.21207 0.2286,0.64581 0.0622,0.46251 0.0643,1.09022 0.0643,2.0613 z"
     stroke="#eab402"
     stroke-width="2"
     id="path1"
     style="stroke:#9da083;stroke-opacity:1" />
</svg>
