<?xml version="1.0" encoding="UTF-8" standalone="no"?>
<!-- Uploaded to: SVG Repo, www.svgrepo.com, Generator: SVG Repo Mixer Tools -->

<svg
   width="800"
   height="800"
   viewBox="0 0 48 48"
   id="b"
   version="1.1"
   sodipodi:docname="polarsteps-svgrepo-com.svg"
   inkscape:version="1.2 (dc2aeda, 2022-05-15)"
   inkscape:export-filename="../Code/spoyl.github.io/images/polarstep_dark.svg"
   inkscape:export-xdpi="96"
   inkscape:export-ydpi="96"
   xmlns:inkscape="http://www.inkscape.org/namespaces/inkscape"
   xmlns:sodipodi="http://sodipodi.sourceforge.net/DTD/sodipodi-0.dtd"
   xmlns="http://www.w3.org/2000/svg"
   xmlns:svg="http://www.w3.org/2000/svg">
  <sodipodi:namedview
     id="namedview13"
     pagecolor="#ffffff"
     bordercolor="#000000"
     borderopacity="0.25"
     inkscape:showpageshadow="2"
     inkscape:pageopacity="0.0"
     inkscape:pagecheckerboard="0"
     inkscape:deskcolor="#d1d1d1"
     showgrid="false"
     inkscape:zoom="0.67231148"
     inkscape:cx="146.50947"
     inkscape:cy="410.524"
     inkscape:window-width="1440"
     inkscape:window-height="900"
     inkscape:window-x="0"
     inkscape:window-y="0"
     inkscape:window-maximized="0"
     inkscape:current-layer="b" />
  <defs
     id="defs4">
    <style
       id="style2">.c{fill:none;stroke:#000000;stroke-linecap:round;stroke-linejoin:round;}</style>
  </defs>
  <circle
     class="c"
     cx="24"
     cy="24"
     r="21.5"
     id="circle6" />
  <path
     class="c"
     d="m 22.8,21.2 c 1,-0.4 2.1,-0.3 3,0.3 0.2,0.1 0.4,0.2 0.6,0.1 l 2.4,-1 c 0.5,-0.2 0.7,-0.9 0.3,-1.3 L 18.8,8.9 c -0.7,-0.7 -2,-0.2 -2,0.8 L 17,24.2 c 0,0.6 0.6,1 1.1,0.7 l 2.4,-1 c 0.2,-0.1 0.3,-0.3 0.4,-0.5 0.2,-0.9 0.9,-1.8 1.9,-2.2 z"
     id="path8" />
  <path
     class="c"
     d="m 25.2,26.8 c 1,-0.4 1.7,-1.3 1.8,-2.4 0,-0.2 0.2,-0.4 0.4,-0.5 l 2.4,-1 c 0.5,-0.2 1.1,0.2 1.1,0.7 l 0.2,14.5 c 0,1 -1.2,1.6 -2,0.8 L 19,28.8 c -0.4,-0.4 -0.3,-1.1 0.3,-1.3 l 2.4,-1 c 0.2,-0.1 0.4,0 0.6,0.1 0.8,0.5 1.9,0.7 2.9,0.2 z"
     id="path10" />
  <path
     style="fill:#ffff00;stroke-width:0.0804108"
     d="M 22.529605,45.904869 C 11.947972,45.189974 3.3857124,36.978799 2.1643764,26.374691 2.0397564,25.292692 2.0391824,22.720115 2.1633179,21.630463 3.3315554,11.375755 11.375755,3.3315554 21.630463,2.1633179 c 1.08997,-0.1241717 3.662542,-0.1235502 4.744228,0.00115 8.978265,1.0350105 16.39769,7.3535251 18.784352,15.9970881 1.813296,6.567055 0.479468,13.538324 -3.647346,19.062904 -0.92058,1.232383 -3.071256,3.384212 -4.287241,4.289539 -3.565753,2.654779 -7.48667,4.099444 -11.935309,4.397573 -1.32842,0.08902 -1.34319,0.08899 -2.759542,-0.0067 z m 4.488371,-1.076513 c 6.133961,-0.950066 11.275175,-4.24937 14.649425,-9.401066 1.664114,-2.540714 2.74667,-5.492471 3.216823,-8.771162 0.161425,-1.125723 0.137,-4.444596 -0.04113,-5.58854 C 43.942393,15.283248 41.098511,10.50055 36.546637,7.1150196 33.651569,4.9617651 30.392936,3.6412851 26.696333,3.1234286 25.553653,2.9633505 22.231038,2.9821816 21.087791,3.1552151 16.435224,3.8593948 12.446584,5.836555 9.2035716,9.0461976 5.9370416,12.279115 3.9195117,16.261335 3.1742279,20.946973 c -0.2031555,1.277248 -0.2446354,3.950522 -0.082972,5.347307 0.736659,6.364779 4.0938421,11.830378 9.4125991,15.324007 2.920747,1.918494 5.996689,2.972927 9.810098,3.362901 0.736138,0.07528 3.893566,-0.0273 4.704023,-0.152832 z"
     id="path257" />
  <path
     style="fill:#ffff00;stroke-width:0.0804108"
     d="m 17.418497,25.408619 c -0.127401,-0.03904 -0.320809,-0.15426 -0.429796,-0.256047 -0.457565,-0.42734 -0.431716,-0.04457 -0.547826,-8.112189 -0.07164,-4.978113 -0.08085,-7.5573638 -0.02765,-7.7500244 0.246797,-0.8938272 1.352818,-1.4056008 2.20184,-1.0188264 0.225277,0.1026252 1.897353,1.7342928 5.580928,5.4460548 2.892608,2.914742 5.3259,5.408084 5.407316,5.540762 0.262978,0.428556 0.141221,1.170654 -0.250188,1.524875 -0.166019,0.150245 -2.936276,1.329703 -3.123145,1.329703 -0.06708,0 -0.446513,-0.1495 -0.843181,-0.332223 -0.647782,-0.298398 -0.783619,-0.332024 -1.334152,-0.330266 -0.845346,0.0027 -1.42337,0.229984 -1.966256,0.773153 -0.228645,0.228764 -0.479041,0.568835 -0.556437,0.755715 -0.07739,0.186879 -0.202106,0.488102 -0.277136,0.669384 -0.187671,0.453437 -0.432626,0.610065 -1.914053,1.223882 -1.434534,0.594385 -1.589086,0.637529 -1.920264,0.536047 z m 1.649987,-1.396362 c 0.927412,-0.385161 1.258685,-0.560484 1.329439,-0.703593 0.05183,-0.104833 0.203934,-0.426833 0.338011,-0.715556 0.795083,-1.712148 2.882441,-2.529756 4.60889,-1.80528 0.278959,0.11706 0.598128,0.250682 0.709265,0.296938 0.171771,0.07149 0.382759,0.0094 1.407186,-0.414159 1.163212,-0.480933 1.406146,-0.631604 1.406146,-0.872103 0,-0.13676 -10.306686,-10.5461206 -10.595479,-10.7010304 -0.283649,-0.152151 -0.795417,0.0016 -0.920723,0.276618 -0.120232,0.2638818 0.06917,14.8990414 0.194774,15.0503884 0.046,0.05542 0.129453,0.100766 0.185458,0.100766 0.05601,0 0.657671,-0.230845 1.337033,-0.512989 z"
     id="path259" />
  <path
     style="fill:#ffff00;stroke-width:0.0804108"
     d="m 29.349884,39.600589 c -0.312648,-0.138738 -10.70721,-10.465461 -10.90083,-10.829688 -0.254965,-0.479627 -0.09036,-1.190107 0.34572,-1.492239 0.207003,-0.14342 2.574553,-1.149717 2.975222,-1.264581 0.121051,-0.0347 0.396729,0.04846 0.844312,0.254711 0.605298,0.278924 0.725535,0.306174 1.348064,0.305512 0.581531,-6.18e-4 0.750979,-0.03372 1.135911,-0.221923 0.828866,-0.405247 1.259121,-1.014122 1.476229,-2.08909 0.09134,-0.452267 0.422537,-0.680956 1.85065,-1.277868 0.834537,-0.348814 1.480399,-0.571638 1.658166,-0.572073 0.39559,-9.66e-4 0.901412,0.299727 1.099951,0.653881 0.157819,0.281516 0.16687,0.493976 0.250711,5.884804 0.04784,3.076008 0.08639,6.495471 0.08566,7.598805 -0.0013,1.928736 -0.0083,2.018332 -0.181606,2.324362 -0.391428,0.691082 -1.310111,1.026267 -1.988159,0.725387 z m 1.11782,-1.065349 0.193096,-0.216635 -0.05204,-2.815839 c -0.02862,-1.548712 -0.07513,-4.86028 -0.103347,-7.359041 -0.02822,-2.498761 -0.08392,-4.606525 -0.123786,-4.68392 -0.03986,-0.07739 -0.154176,-0.140719 -0.254034,-0.140719 -0.177385,0 -2.418181,0.910547 -2.596625,1.055137 -0.04955,0.04015 -0.109997,0.221454 -0.134335,0.402903 -0.121935,0.909094 -0.940699,1.920454 -1.935096,2.390284 -1.048739,0.495505 -1.952901,0.493973 -3.045786,-0.0052 l -0.541486,-0.247304 -1.227549,0.507888 c -0.675151,0.279339 -1.272779,0.542153 -1.328061,0.584032 -0.05528,0.04188 -0.100514,0.152461 -0.100514,0.245737 0,0.199107 10.015577,10.26556 10.410918,10.463802 0.309677,0.155286 0.593376,0.094 0.838643,-0.181162 z"
     id="path261" />
  <path
     style="fill:#ffff00;stroke-width:0.0804108"
     d="M 23.689258,1.991891 C 17.823551,2.0567981 12.047861,4.6202181 8.0459154,8.9065686 4.6374272,12.4328 2.5353176,17.16571 2.0637289,22.036151 2.0046199,24.23143 1.9320738,26.460976 2.4834638,28.6075 c 1.0261542,4.838565 3.7722154,9.256476 7.5900232,12.389311 5.008068,4.184219 11.957418,5.943049 18.342723,4.543725 4.348346,-0.892833 8.437844,-3.096529 11.453712,-6.371361 3.439289,-3.494423 5.566876,-8.222323 6.029544,-13.092196 0.15421,-2.246063 0.147594,-4.526674 -0.399607,-6.724398 C 44.772604,15.89914 43.137321,12.648869 40.902475,9.9269454 38.910161,7.62819 36.526709,5.6490025 33.784778,4.308178 30.668902,2.7431867 27.176314,1.9378348 23.689258,1.991891 Z m 0.776622,1.1007777 c 4.497033,-0.019589 8.959525,1.6370159 12.48658,4.4227423 2.898038,2.247807 5.179278,5.27939 6.513419,8.705551 1.151704,2.819108 1.60635,5.898394 1.426661,8.930765 -0.102838,3.371305 -1.171442,6.680281 -2.873425,9.577033 -2.357217,3.926217 -5.999822,7.091182 -10.281838,8.750988 -2.554173,1.041835 -5.302879,1.499066 -8.054615,1.429596 -2.883059,0.04994 -5.758546,-0.670446 -8.395284,-1.824184 C 11.353076,41.285811 8.0184132,38.220491 5.8333838,34.494281 4.394353,31.970299 3.4782187,29.130408 3.1621235,26.264272 3.1323401,24.418274 3.0376039,22.545968 3.2748663,20.716625 3.985662,16.536295 5.8756825,12.584906 8.8298928,9.530235 11.874705,6.3187296 15.961865,4.1257484 20.317145,3.3627178 21.674716,3.0852445 23.078947,3.1164608 24.46588,3.0926687 Z"
     id="path263" />
  <path
     style="fill:#ffff00;stroke-width:0.0804108"
     d="m 17.980417,8.0099682 c -1.012655,0.00827 -1.922066,0.9606942 -1.751279,1.9911038 0.02529,4.695169 0.06008,9.392788 0.230517,14.084876 -0.01344,0.583638 0.23546,1.197847 0.821723,1.408466 0.612862,0.302851 1.230984,-0.217281 1.812738,-0.371585 0.699441,-0.340333 1.530067,-0.535383 2.08388,-1.106903 0.427198,-0.762163 0.754792,-1.657506 1.564709,-2.108109 0.673449,-0.36615 1.492433,-0.355086 2.206739,-0.160821 0.570899,0.189195 1.177564,0.699444 1.786624,0.332793 0.935568,-0.402615 1.961322,-0.681744 2.779507,-1.30416 0.569576,-0.557713 0.407096,-1.547916 -0.19268,-2.023932 C 25.881356,15.206792 22.397746,11.700222 18.840748,8.2711458 18.604846,8.0768874 18.280634,8.0052618 17.980417,8.0099682 Z m 0.03738,1.1849574 c 0.838379,0.5402154 1.475037,1.3633074 2.21268,2.0339104 2.820884,2.856315 5.709525,5.65081 8.428224,8.604952 -0.102159,0.278622 -0.526228,0.329649 -0.758541,0.483905 -0.708292,0.259221 -1.490115,0.876832 -2.251376,0.43881 -1.498063,-0.706491 -3.430489,-0.335537 -4.486177,0.963636 -0.472403,0.457671 -0.603084,1.147398 -1.045495,1.61638 -0.719558,0.439418 -1.530358,0.744489 -2.337249,0.982361 C 17.543617,24.308 17.734203,23.846018 17.651664,23.696601 17.505341,18.942595 17.470988,14.187875 17.480363,9.4325454 17.626531,9.2946786 17.813015,9.194601 18.017795,9.1949256 Z"
     id="path265" />
  <path
     style="fill:#ffff00;stroke-width:0.0804108"
     d="M 23.601152,1.8642077 C 16.222815,1.8990212 9.1046076,6.0691932 5.2227461,12.304037 c -1.6810695,2.667531 -2.7662554,5.706642 -3.2050986,8.82543 -0.1272095,1.895299 -0.1151128,3.803279 -0.014606,5.699576 0.5144552,3.696494 1.9408731,7.280836 4.1848885,10.271221 3.0412248,4.096192 7.472658,7.184628 12.452066,8.382482 6.774081,1.812566 14.316565,-0.06395 19.637512,-4.573988 2.153565,-1.936304 4.08088,-4.165441 5.381073,-6.7702 1.710063,-3.31806 2.631142,-7.06919 2.432422,-10.810206 C 46.110782,21.472579 45.813767,19.630461 45.27181,17.85807 44.386069,14.895434 42.918564,12.08368 40.899649,9.735813 39.281753,7.9137534 37.476931,6.230946 35.354927,5.0098029 31.832731,2.906878 27.713137,1.7380297 23.601152,1.8642077 Z m 0.609362,1.4010612 c 6.958584,-0.139628 13.790347,3.8041255 17.426337,9.6836721 1.699142,2.719873 2.787936,5.851845 3.033922,9.051399 0.184968,2.729469 0.0514,5.49466 -0.784871,8.123601 -1.891034,6.354527 -7.050519,11.594048 -13.36064,13.622747 -2.347929,0.790077 -4.803754,1.064113 -7.280457,0.988681 -4.24557,-0.03113 -8.416667,-1.614783 -11.8155,-4.148097 C 9.804492,39.30743 8.3112168,37.817123 7.1006316,36.147451 4.7857747,32.871749 3.3366577,28.945546 3.2997865,24.904735 3.1421435,21.942239 3.5475677,18.952094 4.7133922,16.212353 6.1747482,12.415551 8.9253486,9.178578 12.21867,6.8449542 15.322336,4.751453 18.940165,3.4040644 22.690878,3.2991922 c 0.508177,-0.022876 1.011194,-0.032503 1.519636,-0.033923 z"
     id="path267" />
  <path
     style="fill:#9da083;fill-opacity:1;stroke-width:0.0804108"
     d="m 29.421971,22.44682 c -0.928386,0.366929 -1.937265,0.662965 -2.719513,1.301332 -0.46311,0.617088 -0.41528,1.51613 -1.043924,2.039164 -0.46539,0.5135 -1.16356,0.653549 -1.818189,0.588805 -0.769759,0.127341 -1.41204,-0.538051 -2.170148,-0.47557 -1.056622,0.375091 -2.108767,0.810766 -3.073979,1.382058 -0.548259,0.484372 -0.554174,1.429938 0.05088,1.877086 3.304248,3.457572 6.724201,6.804115 10.14962,10.141149 0.374637,0.475026 0.997036,0.653539 1.568818,0.466146 0.731528,-0.169296 1.344138,-0.852673 1.24982,-1.632399 0.02551,-4.626255 -0.0288,-9.254004 -0.125955,-13.879317 -0.02093,-0.645756 -0.05464,-1.489064 -0.762017,-1.76982 -0.386391,-0.315416 -0.83466,-0.276387 -1.257788,-0.05476 z m 0.774738,1.079261 c 0.111669,0.310311 0.02436,0.767716 0.07054,1.121486 0.08796,4.431594 0.157029,8.874337 0.220796,13.301702 0.06903,0.363142 -0.243856,0.76552 -0.623025,0.665901 -1.036101,-0.714712 -1.875399,-1.711277 -2.806197,-2.568632 -2.499565,-2.50185 -5.049162,-4.984708 -7.436994,-7.577001 -0.09194,-0.119473 -0.334599,-0.320413 -0.07262,-0.389104 0.750307,-0.372395 1.538973,-0.661074 2.307094,-0.993983 1.017998,0.477249 2.219019,0.848002 3.306718,0.359485 1.251075,-0.461186 2.211295,-1.59386 2.456464,-2.901842 0.626661,-0.448452 1.419862,-0.63389 2.129848,-0.925938 0.145266,-0.0431 0.293929,-0.09457 0.447375,-0.09207 z"
     id="path269" />
  <path
     style="fill:#9da083;fill-opacity:1;stroke-width:0.0892446"
     d="m 17.95781,7.848099 c -1.001647,0.078622 -1.954036,0.9343782 -1.857049,1.9919622 -0.0077,4.5759488 0.05191,9.1540118 0.19412,13.7278888 0.03002,0.739033 0.04481,1.738541 0.882565,2.032803 0.737956,0.34642 1.474491,-0.247298 2.170129,-0.438932 0.781296,-0.333422 1.704331,-0.593719 2.107484,-1.422178 0.520227,-0.784041 1.045249,-1.942791 2.145714,-1.895868 0.743317,-0.05571 1.483689,0.03183 2.14535,0.369352 0.761302,0.338006 1.506604,-0.261081 2.215081,-0.475512 0.790719,-0.370389 1.8876,-0.669321 2.043723,-1.679425 0.113022,-0.996977 -0.89004,-1.600423 -1.440113,-2.280941 C 25.375469,14.562831 22.236575,11.291689 18.907601,8.2205898 18.654388,7.9809048 18.305956,7.8455592 17.95781,7.848099 Z m -0.112078,1.534236 c 0.829695,0.2972388 1.3557,1.10483 2.012584,1.655342 2.898468,2.893292 5.815216,5.803682 8.571413,8.817447 -0.752538,0.389706 -1.549114,0.891951 -2.419359,0.885995 -1.238729,-0.604546 -2.782799,-0.69085 -3.975208,0.07861 -0.875501,0.49552 -1.400831,1.375765 -1.887379,2.218211 -0.593978,0.622812 -1.491095,0.786067 -2.268933,1.096904 -0.224057,-2.703864 -0.137039,-5.458793 -0.200831,-8.185089 0.0072,-2.163165 -0.09752,-4.388871 0.02443,-6.5118178 0.03578,-0.04064 0.08937,-0.061725 0.143279,-0.055603 z"
     id="path1744" />
  <path
     style="fill:#9da083;fill-opacity:1;stroke-width:0.0892446"
     d="M 23.884542,1.7006975 C 16.146759,1.698422 8.6033334,6.1059006 4.7688206,12.821206 c -1.5022571,2.628321 -2.6020035,5.545573 -2.8930709,8.572618 -0.074081,2.048827 -0.157613,4.116836 0.091112,6.156708 0.7788808,4.6598 3.0883637,9.030311 6.4827438,12.31418 4.5760985,4.579585 11.2266725,7.044517 17.6828165,6.339754 4.467508,-0.487219 8.816012,-2.296627 12.23964,-5.218593 2.893166,-2.538666 5.2681,-5.72327 6.548361,-9.375646 1.487592,-3.917129 1.681495,-8.259743 0.869946,-12.348787 C 44.812876,15.034927 42.661532,11.067773 39.498266,8.079066 35.421346,3.9755063 29.656378,1.6724529 23.884542,1.7006975 Z m 0.67491,1.7271918 c 6.825472,0.00893 13.471651,3.9138055 17.021965,9.7187447 2.067063,3.316354 3.125035,7.261632 2.974173,11.15014 0.02616,3.379386 -0.819749,6.778457 -2.488997,9.723388 -2.696529,4.805314 -7.326663,8.514997 -12.673603,9.885775 -2.494366,0.727809 -5.121147,0.708222 -7.684128,0.601196 C 15.511865,43.885052 9.6593292,40.162172 6.427077,34.815065 4.9144883,32.328271 3.8463586,29.520589 3.5640219,26.612769 3.5032225,24.600631 3.4176035,22.557613 3.6358357,20.556529 4.3249714,16.594402 6.143688,12.738291 9.0164796,9.8461974 12.258946,6.3385896 16.792249,4.0144837 21.563317,3.5389219 22.560408,3.4585289 23.55532,3.4264903 24.559452,3.4278893 Z"
     id="path1746" />
  <path
     style="fill:#9da083;fill-opacity:1;stroke-width:0.0892446"
     d="M 24.13711,1.5922795 C 21.918303,1.5696688 19.695791,1.8407654 17.58166,2.530391 11.97041,4.2399764 7.0438332,8.1836268 4.3010697,13.388373 c -1.581394,2.935179 -2.6290756,6.211499 -2.6342434,9.568601 -0.083244,2.774236 0.084939,5.611248 1.1122315,8.220795 1.4189499,4.122763 4.0637292,7.791372 7.4991422,10.471341 4.970664,3.948409 11.692956,5.728353 17.933747,4.367941 3.80128,-0.805063 7.47851,-2.47922 10.392297,-5.07522 1.901355,-1.757643 3.666711,-3.698054 4.912312,-5.984715 1.763397,-3.156204 2.880785,-6.743584 2.828247,-10.381612 0.05013,-2.207182 -0.08065,-4.438393 -0.738198,-6.559372 C 44.467132,14.00343 42.200117,10.317812 39.095822,7.5254598 35.447737,4.0409789 30.517003,1.9786854 25.50227,1.6149392 25.047524,1.594587 24.592264,1.589974 24.13711,1.5922795 Z M 24.08133,3.631478 c 1.813406,-0.025793 3.629997,0.085331 5.376671,0.6388906 5.630084,1.5291467 10.537262,5.5592802 13.016235,10.8380114 1.513706,3.027637 2.027543,6.476705 1.892752,9.827746 -0.05342,5.946045 -3.147777,11.669395 -7.847402,15.262526 -3.358643,2.604152 -7.548427,4.199113 -11.809988,4.162973 -2.106179,0.104938 -4.229979,-0.01645 -6.264239,-0.650387 C 15.194153,42.804328 12.198043,41.079626 9.7852518,38.725064 7.0401786,36.180348 5.1762086,32.766025 4.1820443,29.184677 3.5456661,26.61013 3.5833474,23.924825 3.7348411,21.313363 3.9700402,18.685506 4.9222166,16.157926 6.1743828,13.861319 7.518897,11.560228 9.3287754,9.5297232 11.393651,7.851483 14.416814,5.5238436 18.1189,3.9373625 21.914891,3.6832467 c 0.7232,-0.037861 1.441263,-0.050184 2.166442,-0.051769 z"
     id="path1864" />
  <path
     style="fill:#9da083;fill-opacity:1;stroke-width:0.0892446"
     d="M 23.610882,1.4664311 C 19.805572,1.4214211 16.057641,2.6293772 12.770635,4.4952397 8.5584228,6.8986896 5.1748171,10.699489 3.2915194,15.170071 2.107759,17.766628 1.4655992,20.611058 1.5359476,23.469869 c -0.051112,2.63459 0.1289101,5.322973 1.1207382,7.793884 1.6517398,4.64073 4.7956292,8.733667 8.8935892,11.474723 3.395811,2.274258 7.413891,3.696776 11.509952,3.847089 2.470495,0.09229 4.952035,-0.212433 7.306906,-0.974556 3.473228,-1.095701 6.790324,-2.883654 9.317607,-5.543158 3.484661,-3.287473 5.798939,-7.766514 6.593161,-12.479669 0.205959,-2.338957 0.313552,-4.712065 0.01638,-7.047514 C 45.529769,15.477215 42.882061,10.753343 39.082358,7.3382448 35.581097,4.0182839 30.903034,2.0633063 26.137813,1.5195559 c -0.84108,-0.052305 -1.684481,-0.05855 -2.526931,-0.053125 z m 0.444654,2.3512051 c 1.757962,-0.020244 3.535307,0.018156 5.226577,0.5676346 5.660736,1.4865382 10.567956,5.515199 13.060394,10.8118942 1.520226,3.003018 1.963962,6.403659 1.830311,9.737853 -0.02243,2.773419 -0.629908,5.531924 -1.904981,7.993938 -2.911495,5.999564 -8.982553,10.483547 -15.654719,11.162981 -2.628594,0.142441 -5.330402,0.318032 -7.884006,-0.464 C 15.054067,42.613069 11.637233,40.599869 9.066567,37.769306 6.6790584,35.294369 5.0915612,32.101247 4.2818114,28.779386 3.6268289,25.949167 3.722011,22.987241 4.058485,20.126428 c 0.8937686,-5.28006 4.2295466,-9.952527 8.572379,-12.9851368 3.140611,-2.0566225 6.84985,-3.4273696 10.627209,-3.3169123 0.265803,-0.00454 0.531632,-0.0052 0.797463,-0.00674 z"
     id="path1866" />
  <path
     style="fill:#9da083;fill-opacity:1;stroke-width:0.0892446"
     d="m 30.112647,22.113948 c -1.139033,0.287641 -2.269718,0.727487 -3.262997,1.362022 -0.794549,0.576927 -0.640919,1.787808 -1.47654,2.345802 -0.681468,0.53972 -1.673737,0.464433 -2.462586,0.24211 -0.541841,-0.2495 -1.163026,-0.416546 -1.725418,-0.118771 -0.989429,0.396598 -2.075491,0.727024 -2.865612,1.471032 -0.482362,0.601519 -0.228654,1.51049 0.340505,1.965805 3.409727,3.527619 6.908424,6.971282 10.464336,10.35131 0.851957,0.61947 2.231804,0.01825 2.54817,-0.941947 0.157129,-2.806216 0.0268,-5.623844 0.04209,-8.434267 -0.06395,-2.357757 0.07337,-4.732119 -0.200186,-7.078213 -0.07224,-0.681314 -0.799668,-1.059078 -1.401764,-1.164883 z m -0.08018,1.617554 c 0.167696,4.726027 0.259142,9.476816 0.261805,14.196649 0.06974,0.299629 -0.104836,0.692982 -0.44378,0.451103 -1.079656,-0.714291 -1.898594,-1.759686 -2.856772,-2.622181 -2.45603,-2.470831 -4.997001,-4.862897 -7.301397,-7.479513 0.08957,-0.212904 0.558683,-0.311435 0.799596,-0.456615 0.502922,-0.145873 1.004308,-0.595626 1.510938,-0.512429 1.122145,0.514706 2.489679,0.760191 3.606437,0.09054 1.077523,-0.524971 1.793999,-1.564281 2.154414,-2.679597 0.592503,-0.55865 1.507631,-0.756459 2.268759,-0.987962 z"
     id="path1868" />
  <path
     style="fill:#9da083;fill-opacity:1;stroke-width:0.0892446"
     d="m 29.271797,22.206679 c -0.966634,0.373284 -2.019265,0.720648 -2.776335,1.453532 -0.57747,0.751379 -0.669278,2.052218 -1.741659,2.311289 -0.88787,0.216661 -1.767355,-0.08201 -2.621727,-0.284118 -1.07185,-0.04607 -2.048346,0.551504 -2.985852,0.995981 -0.659287,0.338672 -1.398818,0.948652 -1.179175,1.78663 0.210993,0.910299 1.113627,1.414313 1.666533,2.107526 3.063249,3.085452 6.099936,6.206068 9.333472,9.114457 0.916154,0.963473 2.773941,0.136136 2.827814,-1.142252 0.214748,-3.097171 0.04871,-6.207368 0.04032,-9.309239 -0.06584,-2.014527 -0.0098,-4.042678 -0.204518,-6.047936 -0.136601,-0.734019 -0.909263,-1.104297 -1.558812,-1.247329 -0.266687,0.08715 -0.533375,0.174306 -0.800063,0.261459 z m 0.628721,1.798308 c 0.15964,4.717149 0.222051,9.443983 0.177966,14.165797 -0.02744,0.234043 -0.405198,-0.122653 -0.523265,-0.183718 -3.030957,-2.86569 -5.988783,-5.812478 -8.861353,-8.833193 -0.255035,-0.281029 -0.510158,-0.562528 -0.748277,-0.858185 0.597537,-0.310774 1.20809,-0.677106 1.861233,-0.825685 0.807343,0.213791 1.609187,0.517098 2.463283,0.433323 1.245397,-0.02859 2.368955,-0.8791 3.023501,-1.899928 0.387423,-0.605588 0.57087,-1.459476 1.371783,-1.65625 0.403752,-0.152873 0.810167,-0.305258 1.230248,-0.407177 z"
     id="path1870" />
  <path
     style="fill:#9da083;fill-opacity:1;stroke-width:0.0892446"
     d="m 17.937417,7.7311404 c -1.14832,0.053134 -2.139123,1.1508396 -1.99109,2.3118116 -0.0057,4.597199 0.07148,9.19607 0.227468,13.790518 0.0401,0.767929 0.23854,1.784704 1.13804,1.949083 0.930617,0.174405 1.781286,-0.429621 2.628978,-0.72294 0.665066,-0.273587 1.340576,-0.623712 1.665738,-1.30479 0.52795,-0.76091 1.050221,-1.855808 2.151794,-1.771604 0.900779,-0.06258 1.728202,0.361976 2.603599,0.452322 1.086932,-0.285933 2.159873,-0.726654 3.115186,-1.321409 0.763478,-0.513944 0.893797,-1.718567 0.169076,-2.32349 C 26.374016,15.268832 22.959976,11.878016 19.475001,8.5671624 19.034693,8.1654288 18.59377,7.6663668 17.937417,7.7311404 Z m -0.114693,1.837527 c 0.914534,0.3528336 1.488063,1.2421146 2.217749,1.8554306 2.746525,2.751341 5.510914,5.499468 8.103918,8.399826 -0.619764,0.371862 -1.327369,0.70206 -2.038482,0.763906 -1.138145,-0.501719 -2.455478,-0.590453 -3.627837,-0.153489 -1.214782,0.435058 -1.819541,1.649288 -2.576757,2.57972 -0.500466,0.50973 -1.280231,0.707294 -1.901322,0.890875 -0.172948,-4.772421 -0.134384,-9.558127 -0.201672,-14.3362686 z"
     id="path1872" />
  <path
     style="fill:#9da083;fill-opacity:1;stroke-width:0.0892446"
     d="m 17.903776,7.6011084 c -0.919274,0.055498 -1.78104,0.7623918 -2.037564,1.6247004 0.05172,4.9058952 -0.0741,9.8186882 0.198479,14.7192342 -0.01741,0.86594 0.432002,1.95715 1.420752,2.007283 1.16416,-0.04888 2.223271,-0.652742 3.257593,-1.135425 1.115493,-0.586455 1.338847,-2.126393 2.51819,-2.618066 1.056313,-0.175464 2.095783,0.228908 3.118672,0.396021 1.214497,-0.403848 2.524172,-0.794503 3.479484,-1.683441 0.602364,-0.679642 0.504013,-1.812874 -0.245456,-2.350216 C 26.194064,14.925241 22.701877,11.346869 18.993521,8.003565 18.704381,7.7157174 18.311546,7.5720774 17.903776,7.6011084 Z m 0.126197,2.2488882 c 1.337201,1.0561004 2.481401,2.3443644 3.711809,3.5233114 2.070792,2.112338 4.219742,4.202267 6.149517,6.420112 -0.717783,0.371049 -1.557263,0.829199 -2.367758,0.449133 -1.559243,-0.516321 -3.512954,-0.186997 -4.552513,1.167375 -0.656473,0.729913 -1.108311,1.740386 -2.122866,2.040942 -0.239278,0.04961 -0.778638,0.476599 -0.703596,-0.02714 -0.12963,-4.526536 -0.155071,-9.068505 -0.172811,-13.6017996 z"
     id="path1874" />
  <path
     style="fill:#9da083;fill-opacity:1;stroke-width:0.0892446"
     d="m 30.083712,21.82983 c -1.034621,0.232622 -2.036777,0.667921 -2.965979,1.180222 -1.004633,0.520174 -1.179282,1.735998 -1.887554,2.515052 -0.621782,0.560664 -1.567611,0.2876 -2.309895,0.194176 -0.799501,-0.291614 -1.658237,-0.16572 -2.416785,0.183458 -0.982507,0.46803 -2.277936,0.831172 -2.675895,1.966948 -0.235137,0.986622 0.726119,1.674565 1.279307,2.341509 3.123768,3.174606 6.24654,6.356935 9.533204,9.364142 0.445568,0.480697 1.09065,0.821608 1.75421,0.614949 0.963888,-0.193515 1.655952,-1.134914 1.573291,-2.113718 0.09795,-4.739866 0.03175,-9.484656 -0.149501,-14.221847 0.05985,-0.683715 -0.227025,-1.383252 -0.848932,-1.715673 -0.268146,-0.156839 -0.570233,-0.299709 -0.885471,-0.309218 z m -0.35506,2.416744 c 0.170487,4.549736 0.24215,9.110242 0.15426,13.664495 -0.132009,0.166103 -0.559828,-0.435323 -0.787728,-0.578305 -3.060758,-2.894095 -6.049971,-5.864804 -8.891449,-8.974152 0.63544,-0.33979 1.337006,-0.883491 2.091663,-0.597303 1.361287,0.427679 3.014557,0.444099 4.114131,-0.597212 0.742187,-0.57394 1.158617,-1.421057 1.646663,-2.193633 0.404918,-0.502564 1.08099,-0.633221 1.665662,-0.818712 l 0.0064,0.08902 z"
     id="path1876" />
  <path
     style="fill:#9da083;fill-opacity:1;stroke-width:0.0892446"
     d="m 24.292242,1.2806215 c -2.325539,-0.0045 -4.670856,0.2115911 -6.880007,0.9795962 -4.959198,1.6055702 -9.4680466,4.7903475 -12.3103168,9.1991403 -1.9798331,3.031546 -3.4013663,6.511096 -3.7000198,10.140637 -0.052945,3.200368 -0.1937526,6.522471 1.0147559,9.554821 1.7398755,4.973793 5.2232519,9.295253 9.6557357,12.128867 4.526215,2.823643 10.070775,4.169248 15.362054,3.210706 5.132081,-0.877397 9.987623,-3.455028 13.44033,-7.375436 3.424258,-3.792875 5.63236,-8.763853 5.750453,-13.905017 C 46.846614,21.5189 46.249714,17.741345 44.586093,14.412788 42.608023,10.288976 39.366664,6.7893816 35.468528,4.4118432 32.487937,2.6910277 29.122517,1.5966511 25.691391,1.3017125 25.225324,1.2808206 24.758707,1.2776934 24.292242,1.2806215 Z m -0.791173,2.7256131 c 2.198844,-0.00197 4.377971,0.036669 6.481479,0.7653697 6.451947,2.0094517 11.846063,7.4006757 13.453086,14.0317727 0.613679,2.436594 0.56732,4.956247 0.480781,7.447986 -0.638816,8.718493 -7.991549,16.329856 -16.62124,17.552273 -2.030866,0.173323 -4.118218,0.258132 -6.170933,0.107372 -3.26692,-0.465916 -6.409921,-1.779773 -9.064228,-3.713575 C 9.2752164,38.115797 6.9723906,35.36114 5.6193689,32.146387 4.4091615,29.438417 3.8973845,26.45012 4.0366202,23.499199 4.0813976,21.146416 4.3318046,18.715218 5.2987468,16.513666 7.7321868,10.53896 13.129794,5.7662124 19.466773,4.4107973 20.784014,4.1146834 22.15154,3.9917846 23.501069,4.0062346 Z"
     id="path1878" />
  <path
     style="fill:#9da083;fill-opacity:1;stroke-width:0.0892446"
     d="m 17.917023,7.440573 c -1.156412,0.067441 -2.329398,1.061334 -2.211064,2.2922904 -0.01943,4.6631266 0.01843,9.3284926 0.147986,13.9899226 0.0182,0.930309 0.339985,2.110226 1.374397,2.351728 1.22255,0.182831 2.342903,-0.545697 3.417606,-1.018989 1.196421,-0.506755 1.483509,-2.034088 2.605865,-2.615103 1.064238,-0.22942 2.132817,0.230727 3.177587,0.337281 1.306379,-0.509707 2.881568,-0.835584 3.747739,-2.040942 0.470603,-0.716856 0.252728,-1.700795 -0.391488,-2.23965 C 26.48189,14.933615 23.033128,11.50151 19.469549,8.1981546 19.044393,7.7932044 18.550044,7.3661118 17.917023,7.440573 Z m 0.263201,2.780519 c 2.999624,2.692547 5.75916,5.646132 8.54085,8.55365 0.290396,0.31513 0.584196,0.627885 0.854558,0.960634 -0.645272,0.377658 -1.422171,0.581846 -2.14413,0.290916 -1.169492,-0.303034 -2.51656,-0.256548 -3.570994,0.378766 -1.092052,0.666902 -1.604852,1.952347 -2.659726,2.646827 -0.286735,0.144752 -0.551466,0.277565 -0.84817,0.385563 -0.10334,-4.356274 -0.156276,-8.722451 -0.196965,-13.083012 0.0319,0.02717 -0.0287,-0.206274 0.02458,-0.133344 z"
     id="path1880" />
  <path
     style="fill:#9da083;fill-opacity:1;stroke-width:0.0892446"
     d="m 30.068722,21.649075 c -1.257191,0.302224 -2.515533,0.799749 -3.54816,1.591932 -0.712488,0.666496 -0.878529,1.797475 -1.725101,2.326279 -0.854538,0.177515 -1.739413,-0.02976 -2.57815,-0.203066 -1.296167,0.0073 -2.498557,0.651704 -3.592782,1.286548 -0.726841,0.413967 -1.282856,1.332843 -0.850436,2.148488 0.618025,1.14994 1.699059,1.961629 2.556704,2.924533 2.815062,2.809951 5.607654,5.650525 8.575134,8.300559 1.199358,0.99342 3.252934,-0.10725 3.196312,-1.63398 0.221651,-4.658151 0.06924,-9.326477 -0.07834,-13.985002 0.0086,-0.808504 -0.04654,-1.747069 -0.765026,-2.268584 -0.337143,-0.258425 -0.758571,-0.479252 -1.190157,-0.487707 z m -0.545402,2.769016 c 0.167542,4.377932 0.226791,8.773839 0.132124,13.15134 -3.141945,-2.904955 -6.176366,-5.962543 -9.079915,-9.083576 -0.100345,-0.231133 0.500982,-0.330359 0.713954,-0.476725 0.983162,-0.274888 1.972759,0.309771 2.973476,0.196965 1.646723,-0.02543 2.902437,-1.317639 3.662504,-2.662341 0.242715,-0.512244 0.672738,-0.858216 1.217104,-0.99457 0.124028,-0.04435 0.259979,-0.101604 0.380753,-0.131093 z"
     id="path1882" />
  <path
     style="fill:#9da083;fill-opacity:1;stroke-width:0.0892446"
     d="M 23.586131,1.1042245 C 17.551166,1.1427073 11.680811,3.904459 7.4820582,8.1815454 4.8320875,10.950415 2.9389009,14.416807 1.8532147,18.081567 c -0.5731749,1.838235 -0.6921656,3.768149 -0.6510296,5.681831 -0.035902,2.610219 0.122057,5.280849 1.1363397,7.720559 2.3712008,6.364146 7.50448,11.699271 13.9089092,14.046974 2.815048,1.044953 5.83455,1.630054 8.843928,1.396153 3.593334,-0.155064 7.101919,-1.330114 10.223687,-3.083902 2.164812,-1.193266 4.059349,-2.813161 5.704338,-4.649707 3.214631,-3.53118 5.330433,-8.105138 5.728727,-12.880646 C 47.162119,21.782951 46.436735,17.046032 44.08148,13.100269 42.820017,10.792696 41.149829,8.7287478 39.186385,6.9815442 35.65093,3.738224 31.035796,1.6793102 26.264297,1.1987333 25.373805,1.1245025 24.479589,1.0961308 23.586131,1.1042245 Z m 0.02981,3.0939204 c 2.378203,0.00587 4.806452,0.1369429 7.046294,1.0245669 5.102002,1.8233762 9.463846,5.7197292 11.595317,10.7389542 1.06108,2.401342 1.543957,5.086275 1.484313,7.716672 0.05027,2.304522 -0.109989,4.642006 -0.903791,6.828858 -0.979893,2.88522 -2.646867,5.542451 -4.868034,7.626379 -2.934538,3.03407 -6.98812,5.053937 -11.172503,5.50482 -1.958093,0.122634 -3.951521,0.156315 -5.919605,0.04367 C 16.451591,42.947966 12.293276,40.754963 9.26505,37.415429 6.1879722,34.081459 4.3499363,29.626255 4.2434927,25.094999 4.1049122,21.611715 4.5460892,18.005734 6.253545,14.904617 9.3502578,8.989599 15.490089,4.5977871 22.202495,4.2471247 c 0.476583,-0.030595 0.933705,-0.044827 1.413442,-0.04898 z"
     id="path1884" />
</svg>
