<?xml version="1.0" encoding="UTF-8" standalone="no"?>
<svg
   width="51"
   height="51"
   viewBox="0 0 51 51"
   fill="none"
   version="1.1"
   id="svg46"
   sodipodi:docname="Polarsteps Icon.svg"
   inkscape:version="1.2 (dc2aeda, 2022-05-15)"
   inkscape:export-filename="Polarsteps Icon.svg"
   inkscape:export-xdpi="96"
   inkscape:export-ydpi="96"
   xmlns:inkscape="http://www.inkscape.org/namespaces/inkscape"
   xmlns:sodipodi="http://sodipodi.sourceforge.net/DTD/sodipodi-0.dtd"
   xmlns="http://www.w3.org/2000/svg"
   xmlns:svg="http://www.w3.org/2000/svg">
  <sodipodi:namedview
     id="namedview48"
     pagecolor="#ffffff"
     bordercolor="#000000"
     borderopacity="0.25"
     inkscape:showpageshadow="2"
     inkscape:pageopacity="0.0"
     inkscape:pagecheckerboard="0"
     inkscape:deskcolor="#d1d1d1"
     showgrid="false"
     inkscape:zoom="9.5008155"
     inkscape:cx="22.471755"
     inkscape:cy="31.470983"
     inkscape:window-width="1440"
     inkscape:window-height="900"
     inkscape:window-x="0"
     inkscape:window-y="0"
     inkscape:window-maximized="0"
     inkscape:current-layer="svg46" />
  <circle
     cx="25.5"
     cy="25.5"
     r="25.5"
     fill="#9DA083"
     id="circle9" />
  <defs
     id="defs44">
    <clipPath
       id="clip0_260_137">
      <rect
         width="35.7"
         height="35.7"
         fill="white"
         transform="translate(8.16 8.16)"
         id="rect41" />
    </clipPath>
  </defs>
  <path
     style="fill:#2a4b57;fill-opacity:1;stroke-width:0.105254"
     d="m 25.546327,10.890307 c -5.032141,-0.131233 -9.789846,2.890606 -12.458635,7.04997 -1.488893,2.212951 -2.212465,4.870715 -2.191012,7.528343 -0.114384,2.6326 0.326429,5.330527 1.659397,7.635035 2.057959,4.13295 6.224816,7.036778 10.712691,7.92099 1.897516,0.125712 3.816541,0.09969 5.709213,-0.08429 6.051648,-1.155587 11.248467,-6.347835 12.05098,-12.510439 0.189746,-2.814421 0.209784,-5.758512 -0.972125,-8.383958 -1.945979,-4.584934 -6.287832,-8.119263 -11.196854,-9.007025 -1.099177,-0.125649 -2.208238,-0.149524 -3.313655,-0.14863 z"
     id="path1026"
     inkscape:label="path1026" />
  <path
     style="fill:#9da083;fill-opacity:1;stroke-width:0.105254"
     d="m 21.652747,15.530534 c -0.632729,0.399961 -0.307977,1.304129 -0.411645,1.928491 0.0077,2.702375 0.02843,5.408876 0.181401,8.106626 0.274863,0.741098 1.10934,0.269528 1.473969,-0.125195 0.921911,-0.745679 1.588562,-2.154231 2.969318,-2.007846 0.956538,-0.07735 2.017253,0.276984 2.912784,-0.156031 0.552935,-0.563715 -0.259621,-1.168766 -0.598633,-1.58724 -1.972851,-2.07067 -3.965417,-4.128608 -6.046973,-6.089527 -0.129267,-0.08766 -0.332073,-0.09228 -0.480221,-0.06928 z"
     id="path401" />
  <path
     style="fill:#9da083;fill-opacity:1;stroke-width:0.105254"
     d="m 29.906767,25.921706 c -1.331795,0.329749 -1.630073,1.990111 -2.843301,2.528771 -1.229127,0.576948 -2.767697,-0.430915 -3.901108,0.487623 -0.472045,0.621631 0.515244,1.110482 0.816258,1.586212 1.909794,1.983111 3.862931,3.948225 5.869071,5.82001 0.647743,0.362238 0.885905,-0.54322 0.760517,-1.027222 -0.02109,-2.970723 0.168722,-5.957788 -0.114317,-8.918462 -0.04682,-0.28068 -0.294718,-0.5039 -0.58712,-0.476932 z"
     id="path403" />
  <g
     clip-path="url(#clip0_260_137)"
     id="g39">
    <path
       d="M30.0426 24.8548C29.3521 25.1277 28.6018 25.3479 28.02 25.8227C27.6755 26.2816 27.7111 26.9503 27.2435 27.3393C26.8974 27.7212 26.3781 27.8254 25.8913 27.7772C25.3188 27.872 24.8411 27.3771 24.2772 27.4235C23.4914 27.7025 22.7088 28.0265 21.9909 28.4514C21.5832 28.8117 21.5788 29.515 22.0288 29.8475C24.4863 32.4191 27.0299 34.9081 29.5776 37.39C29.8562 37.7433 30.3191 37.8761 30.7444 37.7367C31.2885 37.6108 31.7441 37.1025 31.6739 36.5226C31.6929 33.0818 31.6525 29.6399 31.5803 26.1999C31.5647 25.7196 31.5396 25.0924 31.0135 24.8836C30.7261 24.649 30.3927 24.678 30.078 24.8428L30.0426 24.8548ZM30.6188 25.6575C30.7019 25.8883 30.6369 26.2285 30.6713 26.4916C30.7367 29.7876 30.7881 33.0919 30.8355 36.3848C30.8868 36.6549 30.6541 36.9541 30.3721 36.88C29.6015 36.3485 28.9773 35.6073 28.285 34.9696C26.426 33.1089 24.5297 31.2622 22.7537 29.3342C22.6854 29.2454 22.5049 29.0959 22.6997 29.0448C23.2578 28.7679 23.8443 28.5532 24.4156 28.3056C25.1728 28.6605 26.066 28.9363 26.875 28.5729C27.8055 28.2299 28.5197 27.3875 28.702 26.4147C29.1681 26.0811 29.758 25.9432 30.2861 25.726C30.3941 25.6939 30.5047 25.6557 30.6188 25.6575Z"
       fill="#2A4B57"
       id="path11" />
    <path
       d="M21.5161 13.997C20.7712 14.0555 20.0628 14.692 20.135 15.4785C20.1292 18.8819 20.1736 22.2868 20.2793 25.6887C20.3017 26.2383 20.3127 26.9817 20.9357 27.2006C21.4846 27.4582 22.0324 27.0166 22.5498 26.8741C23.1309 26.6261 23.8174 26.4325 24.1172 25.8164C24.5041 25.2332 24.8946 24.3714 25.7131 24.4063C26.2659 24.3649 26.8166 24.43 27.3087 24.681C27.8749 24.9324 28.4292 24.4868 28.9562 24.3274C29.5443 24.0519 30.3601 23.8295 30.4762 23.0783C30.5602 22.3368 29.8142 21.888 29.4051 21.3818C27.033 18.9911 24.6985 16.5582 22.2225 14.2741C22.0342 14.0958 21.7751 13.9951 21.5161 13.997ZM21.4328 15.1381C22.0499 15.3592 22.4411 15.9598 22.9296 16.3693C25.0854 18.5212 27.2547 20.6858 29.3046 22.9273C28.7449 23.2171 28.1525 23.5906 27.5052 23.5862C26.5839 23.1366 25.4355 23.0724 24.5487 23.6447C23.8975 24.0132 23.5068 24.6679 23.1449 25.2945C22.7032 25.7577 22.0359 25.8791 21.4574 26.1103C21.2908 24.0993 21.3555 22.0503 21.308 20.0226C21.3134 18.4138 21.2355 16.7584 21.3262 15.1795C21.3528 15.1492 21.3927 15.1336 21.4328 15.1381Z"
       fill="#2A4B57"
       id="path13" />
    <path
       d="M25.9241 9.4249C20.1692 9.4232 14.5587 12.7013 11.7068 17.6958C10.5895 19.6506 9.77158 21.8203 9.55509 24.0717C9.5 25.5955 9.43787 27.1336 9.62286 28.6507C10.2022 32.1164 11.9198 35.367 14.4444 37.8094C17.8479 41.2154 22.7942 43.0487 27.596 42.5246C30.9187 42.1622 34.1529 40.8165 36.6992 38.6432C38.851 36.7551 40.6174 34.3866 41.5696 31.6701C42.676 28.7567 42.8202 25.5269 42.2166 22.4857C41.4896 19.3422 39.8895 16.3917 37.5368 14.1688C34.5046 11.1168 30.2169 9.40389 25.9241 9.4249ZM26.4261 10.7095C31.5025 10.7161 36.4456 13.6204 39.0862 17.9378C40.6236 20.4043 41.4104 23.3386 41.2982 26.2307C41.3177 28.7441 40.6885 31.2722 39.447 33.4625C37.4415 37.0364 33.9978 39.7955 30.021 40.815C28.1659 41.3563 26.2122 41.3418 24.306 41.2622C19.697 40.7995 15.3441 38.0306 12.9401 34.0537C11.8152 32.2042 11.0207 30.1159 10.8107 27.9532C10.7655 26.4567 10.7018 24.9372 10.8642 23.4489C11.3767 20.5021 12.7294 17.6341 14.866 15.4831C17.2776 12.8743 20.6492 11.1458 24.1977 10.7921C24.9393 10.7323 25.6793 10.7085 26.4261 10.7095Z"
       fill="#2A4B57"
       id="path15" />
    <path
       d="M26.112 9.34427C24.4617 9.32745 22.8087 9.52908 21.2364 10.042C17.063 11.3135 13.3988 14.2466 11.3589 18.1176C10.1828 20.3006 9.40354 22.7374 9.39969 25.2343C9.33778 27.2976 9.46287 29.4076 10.2269 31.3485C11.2823 34.4148 13.2493 37.1433 15.8044 39.1365C19.5013 42.0732 24.501 43.397 29.1426 42.3852C31.9698 41.7864 34.7048 40.5413 36.8719 38.6105C38.286 37.3032 39.599 35.8601 40.5254 34.1594C41.837 31.8119 42.668 29.1438 42.6289 26.438C42.6662 24.7964 42.569 23.137 42.0799 21.5595C41.2324 18.5751 39.5463 15.8339 37.2375 13.7571C34.5242 11.1655 30.857 9.63165 27.1273 9.36112C26.7891 9.34598 26.4505 9.34255 26.112 9.34427ZM26.0705 10.8609C27.4192 10.8417 28.7703 10.9244 30.0694 11.3361C34.2568 12.4734 37.9065 15.4708 39.7502 19.3969C40.876 21.6487 41.2582 24.2139 41.1579 26.7063C41.1182 31.1286 38.8168 35.3854 35.3214 38.0578C32.8234 39.9946 29.7073 41.1808 26.5378 41.154C24.9713 41.232 23.3917 41.1417 21.8787 40.6702C19.4606 39.9957 17.2323 38.713 15.4378 36.9618C13.3961 35.0691 12.0098 32.5297 11.2704 29.8661C10.7971 27.9513 10.8251 25.9541 10.9378 24.0118C11.1127 22.0574 11.8209 20.1775 12.7522 18.4694C13.7522 16.7579 15.0983 15.2477 16.634 13.9995C18.8825 12.2684 21.6359 11.0884 24.4592 10.8994C24.9971 10.8713 25.5311 10.8621 26.0705 10.8609Z"
       fill="#2A4B57"
       id="path17" />
    <path
       d="M25.7206 9.25066C22.8904 9.21718 20.1029 10.1156 17.6582 11.5033C14.5253 13.2909 12.0088 16.1177 10.6081 19.4427C9.72764 21.3739 9.25003 23.4895 9.30236 25.6157C9.26434 27.5752 9.39823 29.5747 10.1359 31.4124C11.3644 34.864 13.7027 37.9081 16.7505 39.9467C19.2761 41.6382 22.2646 42.6962 25.311 42.808C27.1485 42.8767 28.9941 42.65 30.7455 42.0832C33.3288 41.2683 35.7959 39.9385 37.6755 37.9605C40.2672 35.5154 41.9885 32.1841 42.5792 28.6787C42.7324 26.9391 42.8124 25.1741 42.5914 23.4371C42.0228 19.6712 40.0535 16.1578 37.2275 13.6178C34.6234 11.1486 31.1441 9.69459 27.6 9.29017C26.9744 9.25127 26.3472 9.24663 25.7206 9.25066ZM26.0513 10.9994C27.3588 10.9843 28.6807 11.0129 29.9386 11.4215C34.1487 12.5272 37.7985 15.5235 39.6522 19.4629C40.7829 21.6964 41.1129 24.2256 41.0135 26.7054C40.9968 28.7682 40.545 30.8198 39.5967 32.6509C37.4313 37.1131 32.9159 40.4481 27.9535 40.9534C25.9985 41.0593 23.989 41.1899 22.0898 40.6083C19.3565 39.8535 16.8152 38.3562 14.9033 36.2509C13.1275 34.4102 11.9468 32.0353 11.3446 29.5647C10.8574 27.4597 10.9282 25.2568 11.1785 23.129C11.8432 19.202 14.3242 15.7268 17.5542 13.4713C19.89 11.9417 22.6488 10.9222 25.4582 11.0044C25.6559 11.001 25.8536 11.0005 26.0513 10.9994Z"
       fill="#2A4B57"
       id="path19" />
    <path
       d="M30.5563 24.6073C29.7091 24.8212 28.8682 25.1483 28.1294 25.6203C27.5385 26.0493 27.6528 26.9499 27.0313 27.3649C26.5244 27.7664 25.7864 27.7104 25.1997 27.545C24.7967 27.3595 24.3347 27.2352 23.9164 27.4567C23.1805 27.7516 22.3728 27.9974 21.7851 28.5508C21.4264 28.9981 21.6151 29.6742 22.0384 30.0128C24.5744 32.6365 27.1765 35.1977 29.8212 37.7116C30.4549 38.1723 31.4811 37.7252 31.7164 37.011C31.8333 34.9239 31.7364 32.8283 31.7477 30.7381C31.7002 28.9845 31.8023 27.2185 31.5989 25.4736C31.5451 24.9669 31.0041 24.6859 30.5563 24.6073ZM30.4967 25.8103C30.6214 29.3253 30.6894 32.8587 30.6914 36.3691C30.7432 36.5919 30.6134 36.8845 30.3613 36.7046C29.5583 36.1733 28.9492 35.3958 28.2366 34.7543C26.4099 32.9166 24.5201 31.1375 22.8062 29.1914C22.8728 29.0331 23.2217 28.9598 23.4009 28.8518C23.7749 28.7433 24.1478 28.4088 24.5246 28.4707C25.3592 28.8535 26.3763 29.0361 27.2069 28.5381C28.0083 28.1476 28.5412 27.3746 28.8093 26.5451C29.2499 26.1296 29.9306 25.9825 30.4967 25.8103Z"
       fill="#2A4B57"
       id="path21" />
    <path
       d="M29.9309 24.6762C29.212 24.9539 28.4291 25.2122 27.866 25.7573C27.4365 26.3161 27.3682 27.2836 26.5706 27.4763C25.9103 27.6374 25.2562 27.4153 24.6207 27.265C23.8235 27.2307 23.0973 27.6752 22.4 28.0058C21.9097 28.2576 21.3596 28.7113 21.523 29.3346C21.6799 30.0116 22.3513 30.3865 22.7625 30.902C25.0408 33.1968 27.2993 35.5178 29.7042 37.6809C30.3856 38.3975 31.7674 37.7822 31.8074 36.8314C31.9672 34.5278 31.8437 32.2146 31.8374 29.9076C31.7885 28.4093 31.8301 26.9009 31.6853 25.4095C31.5837 24.8635 31.009 24.5881 30.5259 24.4818C30.3276 24.5466 30.1292 24.6114 29.9309 24.6762ZM30.3985 26.0137C30.5172 29.5221 30.5637 33.0377 30.5309 36.5495C30.5105 36.7236 30.2295 36.4583 30.1417 36.4129C27.8874 34.2815 25.6875 32.0899 23.5511 29.8432C23.3614 29.6342 23.1716 29.4248 22.9945 29.2049C23.4389 28.9738 23.893 28.7013 24.3788 28.5908C24.9793 28.7498 25.5757 28.9754 26.2109 28.9131C27.1372 28.8918 27.9728 28.2593 28.4596 27.5C28.7478 27.0496 28.8842 26.4145 29.4799 26.2682C29.7802 26.1545 30.0824 26.0412 30.3949 25.9654L30.3985 26.0137Z"
       fill="#2A4B57"
       id="path23" />
    <path
       d="M21.501 13.91C20.6469 13.9496 19.91 14.766 20.0201 15.6295C20.0159 19.0486 20.0733 22.469 20.1893 25.8861C20.2191 26.4573 20.3667 27.2135 21.0357 27.3358C21.7278 27.4655 22.3605 27.0162 22.991 26.7981C23.4856 26.5946 23.988 26.3342 24.2299 25.8277C24.6226 25.2617 25.011 24.4474 25.8303 24.51C26.5002 24.4635 27.1156 24.7792 27.7667 24.8464C28.5751 24.6338 29.3731 24.306 30.0836 23.8636C30.6515 23.4814 30.7484 22.5855 30.2094 22.1355C27.7757 19.5162 25.2365 16.9943 22.6445 14.5318C22.3171 14.233 21.9891 13.8619 21.501 13.91ZM21.4157 15.2767C22.0959 15.5391 22.5224 16.2005 23.0651 16.6567C25.1078 18.703 27.1639 20.7469 29.0924 22.904C28.6315 23.1806 28.1052 23.4262 27.5763 23.4722C26.7298 23.099 25.75 23.0331 24.8781 23.358C23.9746 23.6816 23.5248 24.5847 22.9616 25.2767C22.5894 25.6558 22.0094 25.8028 21.5475 25.9393C21.4189 22.3898 21.4476 18.8304 21.3975 15.2767H21.4157Z"
       fill="#2A4B57"
       id="path25" />
    <path
       d="M21.4759 13.8133C20.7922 13.8546 20.1513 14.3804 19.9605 15.0217C19.999 18.6705 19.9054 22.3243 20.1081 25.9691C20.0952 26.6132 20.4294 27.4248 21.1648 27.462C22.0307 27.4257 22.8184 26.9766 23.5876 26.6176C24.4173 26.1814 24.5834 25.0361 25.4606 24.6704C26.2462 24.5399 27.0193 24.8406 27.7801 24.9649C28.6833 24.6646 29.6574 24.374 30.3679 23.7129C30.8159 23.2074 30.7428 22.3645 30.1854 21.9649C27.6418 19.2607 25.0445 16.5992 22.2864 14.1127C22.0714 13.8986 21.7792 13.7917 21.4759 13.8133ZM21.5698 15.4859C22.5643 16.2714 23.4153 17.2296 24.3305 18.1064C25.8706 19.6775 27.4689 21.2318 28.9042 22.8814C28.3703 23.1573 27.746 23.4981 27.1431 23.2154C25.9835 22.8314 24.5304 23.0763 23.7572 24.0836C23.269 24.6265 22.9329 25.378 22.1783 25.6016C22.0004 25.6385 21.5992 25.9561 21.655 25.5814C21.5586 22.2148 21.5397 18.8367 21.5265 15.4651L21.5698 15.4859Z"
       fill="#2A4B57"
       id="path27" />
    <path
       d="M30.5348 24.3959C29.7653 24.569 29.0199 24.8927 28.3288 25.2737C27.5816 25.6606 27.4517 26.5649 26.9249 27.1443C26.4625 27.5613 25.759 27.3582 25.207 27.2887C24.6123 27.0718 23.9736 27.1655 23.4095 27.4252C22.6787 27.7733 21.7153 28.0434 21.4193 28.8881C21.2444 29.6219 21.9593 30.1335 22.3708 30.6296C24.6941 32.9907 27.0166 35.3576 29.4611 37.5942C29.7925 37.9517 30.2723 38.2052 30.7658 38.0515C31.4827 37.9076 31.9974 37.2074 31.9359 36.4795C32.0088 32.9542 31.9595 29.4252 31.8247 25.902C31.8692 25.3934 31.6559 24.8732 31.1933 24.6259C30.9939 24.5093 30.7692 24.403 30.5348 24.3959ZM30.2707 26.1934C30.3975 29.5773 30.4508 32.9691 30.3854 36.3564C30.2872 36.4799 29.969 36.0326 29.7995 35.9262C27.5231 33.7738 25.2999 31.5643 23.1865 29.2517C23.6591 28.999 24.1809 28.5946 24.7422 28.8075C25.7547 29.1256 26.9843 29.1378 27.8021 28.3633C28.3541 27.9364 28.6638 27.3064 29.0268 26.7318C29.328 26.358 29.8308 26.2608 30.2656 26.1229L30.2704 26.1891L30.2707 26.1934Z"
       fill="#2A4B57"
       id="path29" />
    <path
       d="M26.2274 9.11247C24.4977 9.10912 22.7534 9.26984 21.1104 9.84104C17.422 11.0352 14.0685 13.4039 11.9546 16.6829C10.4821 18.9376 9.4248 21.5255 9.20267 24.225C9.1633 26.6053 9.05857 29.0761 9.9574 31.3314C11.2514 35.0307 13.8422 38.2447 17.1389 40.3522C20.5052 42.4523 24.629 43.4531 28.5644 42.7402C32.3814 42.0876 35.9927 40.1705 38.5606 37.2547C41.1074 34.4338 42.7497 30.7366 42.8375 26.9129C43.0022 24.1647 42.5582 21.3551 41.3209 18.8795C39.8497 15.8124 37.439 13.2096 34.5397 11.4413C32.3229 10.1615 29.8199 9.34751 27.268 9.12815C26.9213 9.11262 26.5743 9.11029 26.2274 9.11247ZM25.6389 11.1396C27.2743 11.1382 28.8951 11.1669 30.4595 11.7089C35.2582 13.2034 39.27 17.2131 40.4653 22.145C40.9217 23.9572 40.8872 25.8312 40.8228 27.6845C40.3477 34.1688 34.8791 39.8298 28.4608 40.739C26.9503 40.8679 25.3979 40.9309 23.8712 40.8188C21.4414 40.4723 19.1038 39.4951 17.1296 38.0568C15.0585 36.5086 13.3457 34.4598 12.3394 32.0689C11.4393 30.0548 11.0587 27.8323 11.1622 25.6375C11.1956 23.8877 11.3818 22.0794 12.101 20.442C13.9108 15.9984 17.9253 12.4486 22.6384 11.4405C23.6181 11.2203 24.6352 11.1289 25.6389 11.1396Z"
       fill="#2A4B57"
       id="path31" />
    <path
       d="M21.4858 13.6939C20.6257 13.7441 19.7533 14.4833 19.8413 15.3988C19.8269 18.867 19.855 22.3369 19.9514 25.8038C19.9649 26.4957 20.2042 27.3733 20.9736 27.5529C21.8829 27.6889 22.7161 27.1471 23.5154 26.795C24.4053 26.4181 24.6188 25.2822 25.4535 24.8501C26.2451 24.6794 27.0398 25.0217 27.8169 25.1009C28.7885 24.7218 29.96 24.4795 30.6043 23.583C30.9543 23.0498 30.7922 22.318 30.3131 21.9172C27.8559 19.2669 25.2909 16.7142 22.6405 14.2574C22.3243 13.9562 21.9566 13.6385 21.4858 13.6939ZM21.6816 15.7619C23.9125 17.7645 25.9649 19.9612 28.0338 22.1237C28.2498 22.3581 28.4683 22.5907 28.6694 22.8382C28.1895 23.1191 27.6116 23.2709 27.0747 23.0546C26.2049 22.8292 25.203 22.8637 24.4188 23.3363C23.6066 23.8323 23.2252 24.7883 22.4406 25.3048C22.2273 25.4125 22.0304 25.5113 21.8098 25.5916C21.7329 22.3516 21.6935 19.1043 21.6633 15.8611C21.687 15.8813 21.6419 15.7077 21.6816 15.7619Z"
       fill="#2A4B57"
       id="path33"
       style="fill:#9da083;fill-opacity:1" />
    <path
       d="M30.5236 24.2615C29.5886 24.4863 28.6527 24.8563 27.8847 25.4455C27.3548 25.9412 27.2313 26.7824 26.6016 27.1757C25.9661 27.3077 25.3079 27.1535 24.6841 27.0246C23.7201 27.0301 22.8258 27.5093 22.012 27.9815C21.4714 28.2894 21.0579 28.9728 21.3795 29.5795C21.8391 30.4347 22.6432 31.0384 23.281 31.7546C25.3747 33.8445 27.4517 35.9572 29.6588 37.9281C30.5508 38.667 32.0782 37.8483 32.0361 36.7128C32.2009 33.2483 32.0876 29.7763 31.9778 26.3115C31.9842 25.7102 31.9432 25.0121 31.4088 24.6242C31.158 24.432 30.8446 24.2678 30.5236 24.2615ZM30.118 26.321C30.2426 29.577 30.2867 32.8465 30.2162 36.1023C27.8794 33.9417 25.6226 31.6676 23.4631 29.3464C23.3884 29.1745 23.8357 29.1007 23.9941 28.9918C24.7253 28.7873 25.4613 29.2222 26.2056 29.1383C27.4303 29.1194 28.3643 28.1583 28.9296 27.1582C29.1101 26.7772 29.4299 26.5199 29.8348 26.4185C29.927 26.3855 30.0282 26.3429 30.118 26.321Z"
       fill="#2A4B57"
       id="path35"
       style="fill:#9da083;fill-opacity:1" />
    <path
       d="M25.7022 8.98127C21.2137 9.00989 16.8476 11.0639 13.7248 14.245C11.7539 16.3044 10.3458 18.8825 9.53835 21.6082C9.11205 22.9754 9.02355 24.4107 9.05414 25.834C9.02744 27.7754 9.14492 29.7617 9.8993 31.5762C11.6629 36.3095 15.4808 40.2775 20.244 42.0236C22.3377 42.8008 24.5835 43.236 26.8217 43.062C29.4943 42.9467 32.1038 42.0727 34.4256 40.7684C36.0357 39.8809 37.4447 38.6761 38.6682 37.3101C41.0591 34.6838 42.6327 31.282 42.9289 27.7302C43.2368 24.3611 42.6973 20.838 40.9456 17.9033C40.0074 16.1871 38.7652 14.652 37.3049 13.3525C34.6754 10.9403 31.2429 9.40899 27.6941 9.05156C27.0318 8.99635 26.3667 8.97525 25.7022 8.98127ZM25.7244 11.2824C27.4932 11.2867 29.2992 11.3842 30.9651 12.0444C34.7597 13.4005 38.0038 16.2984 39.5891 20.0315C40.3783 21.8175 40.7374 23.8144 40.693 25.7708C40.7304 27.4848 40.6112 29.2233 40.0208 30.8497C39.292 32.9956 38.0522 34.9719 36.4002 36.5218C34.2177 38.7784 31.2028 40.2807 28.0907 40.6161C26.6344 40.7073 25.1517 40.7323 23.688 40.6485C20.3959 40.1026 17.3031 38.4715 15.0509 35.9877C12.7623 33.5081 11.3953 30.1945 11.3161 26.8244C11.213 24.2337 11.5412 21.5518 12.8111 19.2453C15.1143 14.846 19.6808 11.5796 24.6731 11.3188C25.0276 11.296 25.3676 11.2855 25.7244 11.2824Z"
       fill="#2A4B57"
       id="path37" />
  </g>
</svg>
