<svg width="45" height="45" viewBox="0 0 45 45" fill="none" xmlns="http://www.w3.org/2000/svg">
<circle cx="22.5" cy="22.5" r="22.5" fill="#9DA083"/>
<g clip-path="url(#clip0_260_137)">
<path d="M26.4535 21.3675C25.7766 21.635 25.0409 21.8509 24.4705 22.3164C24.1329 22.7663 24.1677 23.4219 23.7094 23.8032C23.37 24.1777 22.8609 24.2798 22.3836 24.2326C21.8223 24.3254 21.354 23.8403 20.8012 23.8858C20.0307 24.1593 19.2635 24.477 18.5597 24.8936C18.16 25.2468 18.1557 25.9362 18.5968 26.2623C21.0062 28.7834 23.4999 31.2236 25.9976 33.6569C26.2708 34.0032 26.7246 34.1334 27.1415 33.9968C27.6749 33.8733 28.1216 33.375 28.0529 32.8065C28.0715 29.4332 28.0319 26.0588 27.961 22.6861C27.9458 22.2153 27.9212 21.6004 27.4054 21.3956C27.1236 21.1657 26.7968 21.1941 26.4883 21.3557L26.4535 21.3675ZM27.0184 22.1544C27.0999 22.3807 27.0362 22.7142 27.0699 22.9722C27.134 26.2036 27.1844 29.4431 27.2309 32.6713C27.2812 32.9361 27.0531 33.2295 26.7766 33.1569C26.0211 32.6357 25.4091 31.9091 24.7304 31.2839C22.9078 29.4597 21.0487 27.6492 19.3076 25.759C19.2405 25.6719 19.0636 25.5254 19.2546 25.4753C19.8017 25.2038 20.3768 24.9933 20.9369 24.7505C21.6792 25.0985 22.5549 25.3689 23.348 25.0127C24.2603 24.6764 24.9604 23.8505 25.1392 22.8967C25.5962 22.5697 26.1745 22.4345 26.6922 22.2216C26.7981 22.1901 26.9065 22.1526 27.0184 22.1544Z" fill="#2A4B57"/>
<path d="M18.0942 10.7226C17.3639 10.7799 16.6694 11.4039 16.7401 12.175C16.7345 15.5117 16.778 18.8498 16.8817 22.185C16.9036 22.7238 16.9144 23.4527 17.5252 23.6672C18.0633 23.9198 18.6004 23.4869 19.1076 23.3472C19.6773 23.104 20.3504 22.9142 20.6443 22.3102C21.0237 21.7385 21.4065 20.8935 22.2089 20.9278C22.7509 20.8871 23.2908 20.951 23.7732 21.1971C24.3283 21.4435 24.8718 21.0067 25.3884 20.8503C25.9649 20.5803 26.7648 20.3623 26.8786 19.6258C26.961 18.8988 26.2296 18.4588 25.8285 17.9626C23.503 15.6187 21.2142 13.2335 18.7868 10.9942C18.6022 10.8194 18.3481 10.7207 18.0942 10.7226ZM18.0125 11.8413C18.6175 12.058 19.0011 12.6469 19.48 13.0483C21.5935 15.158 23.7203 17.2802 25.73 19.4777C25.1813 19.7619 24.6005 20.1281 23.9659 20.1237C23.0627 19.6829 21.9368 19.62 21.0673 20.1811C20.4289 20.5424 20.0459 21.1842 19.6911 21.7985C19.258 22.2526 18.6038 22.3717 18.0367 22.5983C17.8733 20.6268 17.9367 18.618 17.8902 16.63C17.8955 15.0527 17.8191 13.4298 17.908 11.8818C17.9341 11.8522 17.9732 11.8368 18.0125 11.8413Z" fill="#2A4B57"/>
<path d="M22.4158 6.24009C16.7737 6.23843 11.2733 9.45222 8.47728 14.3488C7.38188 16.2653 6.57998 18.3924 6.36774 20.5997C6.31373 22.0936 6.25282 23.6015 6.43418 25.0889C7.00211 28.4867 8.68611 31.6735 11.1612 34.068C14.4979 37.4073 19.3473 39.2046 24.0549 38.6908C27.3125 38.3355 30.4832 37.0161 32.9796 34.8855C35.0892 33.0344 36.821 30.7123 37.7545 28.0491C38.8392 25.1929 38.9806 22.0264 38.3888 19.0448C37.6761 15.963 36.1074 13.0703 33.8008 10.891C30.8281 7.89881 26.6244 6.2195 22.4158 6.24009ZM22.9079 7.4995C27.8848 7.50602 32.731 10.3533 35.3198 14.5861C36.827 17.0043 37.5985 19.881 37.4885 22.7164C37.5075 25.1805 36.8907 27.659 35.6736 29.8064C33.7073 33.3102 30.3312 36.0152 26.4324 37.0147C24.6136 37.5454 22.6982 37.5312 20.8294 37.4531C16.3107 36.9995 12.0433 34.2849 9.68642 30.386C8.58349 28.5727 7.80465 26.5254 7.59878 24.4051C7.55444 22.938 7.49201 21.4483 7.65114 19.9891C8.15364 17.1001 9.47978 14.2883 11.5745 12.1795C13.9388 9.62189 17.2444 7.92723 20.7233 7.58047C21.4503 7.52185 22.1758 7.49848 22.9079 7.4995Z" fill="#2A4B57"/>
<path d="M22.6 6.16103C20.9821 6.14455 19.3615 6.34222 17.82 6.84507C13.7284 8.09165 10.1361 10.9672 8.13621 14.7624C6.98311 16.9026 6.21917 19.2916 6.2154 21.7395C6.1547 23.7623 6.27734 25.831 7.02641 27.7338C8.06106 30.74 9.98954 33.415 12.4945 35.3691C16.119 38.2482 21.0206 39.5461 25.5712 38.5541C28.343 37.9671 31.0243 36.7463 33.1489 34.8534C34.5353 33.5718 35.8226 32.1569 36.7308 30.4896C38.0166 28.1882 38.8314 25.5724 38.7931 22.9196C38.8296 21.3102 38.7343 19.6833 38.2548 18.1368C37.424 15.2108 35.7709 12.5234 33.5074 10.4873C30.8473 7.94654 27.252 6.44279 23.5954 6.17756C23.2638 6.16272 22.9319 6.15935 22.6 6.16103ZM22.5593 7.64795C23.8816 7.62914 25.2062 7.71017 26.4798 8.11381C30.5851 9.22881 34.1632 12.1674 35.9708 16.0165C37.0745 18.2242 37.4492 20.7391 37.3509 23.1826C37.312 27.5182 35.0557 31.6915 31.6289 34.3115C29.1799 36.2104 26.1248 37.3734 23.0174 37.347C21.4817 37.4235 19.9331 37.335 18.4497 36.8728C16.0791 36.2115 13.8944 34.9539 12.1351 33.237C10.1335 31.3815 8.77433 28.8919 8.04942 26.2805C7.58539 24.4032 7.61287 22.4452 7.72333 20.541C7.89483 18.6248 8.58913 16.7818 9.50216 15.1072C10.4825 13.4293 11.8022 11.9488 13.3079 10.725C15.5123 9.0278 18.2117 7.87099 20.9796 7.6857C21.5069 7.65809 22.0305 7.64911 22.5593 7.64795Z" fill="#2A4B57"/>
<path d="M22.2163 6.06927C19.4416 6.03645 16.7087 6.91725 14.3119 8.27778C11.2405 10.0303 8.7733 12.8017 7.40006 16.0615C6.53691 17.9548 6.06867 20.0289 6.11996 22.1134C6.08269 24.0345 6.21396 25.9948 6.93717 27.7965C8.14156 31.1804 10.434 34.1648 13.4221 36.1635C15.8982 37.8218 18.828 38.859 21.8147 38.9686C23.6161 39.0359 25.4256 38.8137 27.1427 38.258C29.6753 37.4591 32.094 36.1554 33.9368 34.2161C36.4777 31.819 38.1652 28.5531 38.7443 25.1164C38.8945 23.4109 38.9729 21.6805 38.7562 19.9776C38.1988 16.2855 36.2682 12.841 33.4975 10.3508C30.9445 7.93 27.5335 6.50449 24.0588 6.10801C23.4455 6.06987 22.8306 6.06532 22.2163 6.06927ZM22.5405 7.78369C23.8223 7.76893 25.1183 7.79693 26.3515 8.19759C30.4792 9.28153 34.0573 12.2191 35.8747 16.0813C36.9832 18.271 37.3068 20.7506 37.2093 23.1818C37.193 25.2041 36.75 27.2155 35.8203 29.0107C33.6973 33.3854 29.2705 36.6549 24.4054 37.1504C22.4887 37.2542 20.5186 37.3823 18.6566 36.812C15.9769 36.072 13.4855 34.6041 11.611 32.5401C9.87015 30.7355 8.7126 28.4072 8.12215 25.985C7.64456 23.9213 7.71397 21.7615 7.95931 19.6755C8.61102 15.8255 11.0434 12.4185 14.21 10.2072C16.5 8.70757 19.2047 7.70807 21.959 7.78861C22.1528 7.7853 22.3467 7.78481 22.5405 7.78369Z" fill="#2A4B57"/>
<path d="M26.9571 21.1248C26.1266 21.3345 25.3021 21.6552 24.5779 22.1179C23.9985 22.5386 24.1105 23.4215 23.5012 23.8284C23.0043 24.2219 22.2808 24.167 21.7056 24.0049C21.3105 23.823 20.8575 23.7012 20.4475 23.9183C19.726 24.2075 18.9341 24.4484 18.358 24.9909C18.0062 25.4295 18.1912 26.0923 18.6062 26.4243C21.0925 28.9966 23.6436 31.5076 26.2365 33.9722C26.8577 34.4239 27.8638 33.9855 28.0945 33.2853C28.2091 31.2391 28.1141 29.1846 28.1252 27.1353C28.0786 25.4161 28.1787 23.6848 27.9793 21.9741C27.9266 21.4774 27.3962 21.2019 26.9571 21.1248ZM26.8987 22.3042C27.0209 25.7503 27.0876 29.2144 27.0896 32.6559C27.1404 32.8744 27.0131 33.1612 26.766 32.9849C25.9787 32.464 25.3816 31.7018 24.6829 31.0729C22.8921 29.2712 21.0393 27.527 19.359 25.6191C19.4243 25.4638 19.7664 25.392 19.942 25.2861C20.3087 25.1797 20.6743 24.8518 21.0437 24.9125C21.862 25.2878 22.8591 25.4668 23.6734 24.9785C24.4591 24.5957 24.9816 23.8379 25.2444 23.0246C25.6764 22.6173 26.3437 22.473 26.8987 22.3042Z" fill="#2A4B57"/>
<path d="M26.344 21.1924C25.6392 21.4646 24.8716 21.7178 24.3196 22.2522C23.8985 22.8001 23.8316 23.7486 23.0496 23.9376C22.4022 24.0955 21.7609 23.8778 21.138 23.7304C20.3564 23.6968 19.6444 24.1325 18.9608 24.4566C18.4801 24.7036 17.9408 25.1483 18.101 25.7594C18.2548 26.4231 18.913 26.7906 19.3161 27.2961C21.5498 29.5459 23.764 31.8214 26.1218 33.9421C26.7898 34.6446 28.1445 34.0413 28.1838 33.1092C28.3403 30.8508 28.2193 28.583 28.2132 26.3212C28.1651 24.8523 28.206 23.3734 28.064 21.9112C27.9644 21.376 27.401 21.106 26.9274 21.0017C26.7329 21.0653 26.5385 21.1288 26.344 21.1924ZM26.8025 22.5036C26.9189 25.9432 26.9644 29.3899 26.9322 32.8329C26.9122 33.0035 26.6368 32.7434 26.5507 32.6989C24.3406 30.6093 22.1839 28.4606 20.0893 26.258C19.9033 26.0531 19.7173 25.8479 19.5437 25.6323C19.9794 25.4057 20.4246 25.1386 20.9008 25.0302C21.4895 25.1861 22.0742 25.4073 22.6969 25.3462C23.6051 25.3253 24.4243 24.7052 24.9016 23.9608C25.1841 23.5192 25.3178 22.8966 25.9018 22.7531C26.1962 22.6417 26.4926 22.5305 26.7989 22.4562L26.8025 22.5036Z" fill="#2A4B57"/>
<path d="M18.0794 10.6373C17.242 10.676 16.5196 11.4764 16.6275 12.323C16.6234 15.6751 16.6796 19.0285 16.7934 22.3786C16.8226 22.9385 16.9673 23.6799 17.6232 23.7998C18.3018 23.9269 18.9221 23.4865 19.5402 23.2726C20.0251 23.0731 20.5177 22.8178 20.7548 22.3212C21.1397 21.7664 21.5206 20.968 22.3238 21.0294C22.9806 20.9838 23.5839 21.2934 24.2222 21.3592C25.0148 21.1508 25.7971 20.8294 26.4937 20.3957C27.0504 20.021 27.1455 19.1426 26.617 18.7015C24.231 16.1335 21.7416 13.6611 19.2005 11.2469C18.8795 10.954 18.5579 10.5901 18.0794 10.6373ZM17.9957 11.9772C18.6626 12.2344 19.0808 12.8829 19.6128 13.3301C21.6155 15.3363 23.6312 17.3401 25.5219 19.4549C25.07 19.7261 24.5541 19.9669 24.0355 20.012C23.2056 19.6461 22.2451 19.5814 21.3902 19.9C20.5045 20.2173 20.0635 21.1026 19.5114 21.7811C19.1464 22.1528 18.5779 22.2968 18.125 22.4307C17.9989 18.9508 18.027 15.4612 17.9779 11.9772H17.9957Z" fill="#2A4B57"/>
<path d="M18.0548 10.5425C17.3845 10.5829 16.7562 11.0984 16.5691 11.7272C16.6068 15.3044 16.5151 18.8866 16.7138 22.4599C16.7012 23.0913 17.0288 23.887 17.7498 23.9236C18.5987 23.8879 19.3709 23.4476 20.1251 23.0957C20.9385 22.668 21.1014 21.5452 21.9613 21.1867C22.7315 21.0587 23.4895 21.3536 24.2354 21.4754C25.1209 21.1809 26.0759 20.8961 26.7725 20.2479C27.2117 19.7523 27.14 18.926 26.5935 18.5342C24.0998 15.883 21.5535 13.2738 18.8495 10.8359C18.6386 10.626 18.3522 10.5213 18.0548 10.5425ZM18.1469 12.1823C19.1219 12.9524 19.9562 13.8917 20.8534 14.7514C22.3633 16.2916 23.9303 17.8155 25.3374 19.4327C24.814 19.7033 24.2019 20.0373 23.6109 19.7602C22.474 19.3837 21.0494 19.6238 20.2914 20.6114C19.8127 21.1436 19.4832 21.8804 18.7435 22.0996C18.569 22.1358 18.1757 22.4471 18.2304 22.0798C18.1359 18.7792 18.1173 15.4674 18.1044 12.1618L18.1469 12.1823Z" fill="#2A4B57"/>
<path d="M26.936 20.9176C26.1816 21.0872 25.4509 21.4046 24.7733 21.7782C24.0408 22.1575 23.9134 23.044 23.397 23.6121C22.9436 24.0209 22.2539 23.8218 21.7127 23.7536C21.1297 23.541 20.5036 23.6328 19.9505 23.8874C19.234 24.2287 18.2895 24.4935 17.9993 25.3216C17.8278 26.0411 18.5287 26.5427 18.9321 27.029C21.2099 29.3438 23.4869 31.6643 25.8834 33.857C26.2083 34.2075 26.6787 34.4561 27.1625 34.3054C27.8654 34.1643 28.37 33.4779 28.3097 32.7642C28.3811 29.308 28.3329 25.8483 28.2007 22.3941C28.2443 21.8955 28.0352 21.3854 27.5817 21.1431C27.3862 21.0287 27.1659 20.9245 26.936 20.9176ZM26.6771 22.6798C26.8014 25.9973 26.8537 29.3227 26.7896 32.6435C26.6934 32.7646 26.3814 32.3261 26.2152 32.2218C23.9834 30.1115 21.8038 27.9454 19.7319 25.6782C20.1952 25.4304 20.7068 25.0339 21.2571 25.2426C22.2497 25.5545 23.4552 25.5664 24.2569 24.8072C24.7981 24.3887 25.1018 23.771 25.4576 23.2076C25.7529 22.8412 26.2459 22.7459 26.6722 22.6107L26.6768 22.6756L26.6771 22.6798Z" fill="#2A4B57"/>
<path d="M22.7131 5.93379C21.0174 5.93051 19.3073 6.08807 17.6964 6.64808C14.0803 7.81881 10.7926 10.141 8.72015 13.3558C7.27652 15.5663 6.23999 18.1035 6.02222 20.75C5.98361 23.0836 5.88094 25.506 6.76215 27.7171C8.0308 31.3438 10.5708 34.4948 13.8028 36.561C17.1032 38.6199 21.1461 39.6011 25.0043 38.9022C28.7464 38.2624 32.2869 36.3829 34.8045 33.5242C37.3014 30.7586 38.9115 27.1339 38.9976 23.3852C39.159 20.6909 38.7238 17.9364 37.5107 15.5093C36.0684 12.5024 33.7049 9.95059 30.8625 8.21697C28.6891 6.96221 26.2352 6.16423 23.7333 5.94917C23.3935 5.93393 23.0532 5.93165 22.7131 5.93379ZM22.1362 7.92121C23.7395 7.91978 25.3285 7.94795 26.8623 8.4793C31.5668 9.94452 35.5 13.8756 36.6718 18.7108C37.1193 20.4875 37.0855 22.3247 37.0224 24.1416C36.5566 30.4989 31.1952 36.0488 24.9027 36.9401C23.4219 37.0665 21.8999 37.1284 20.4031 37.0184C18.021 36.6787 15.7292 35.7207 13.7938 34.3106C11.7632 32.7928 10.084 30.7842 9.09746 28.4401C8.21502 26.4655 7.84184 24.2865 7.94337 22.1348C7.97602 20.4193 8.15861 18.6465 8.86367 17.0412C10.6381 12.6847 14.5738 9.20453 19.1945 8.21621C20.155 8.00029 21.1522 7.91068 22.1362 7.92121Z" fill="#2A4B57"/>
<path d="M18.0645 10.4254C17.2213 10.4746 16.366 11.1993 16.4523 12.0969C16.4381 15.4971 16.4657 18.8989 16.5602 22.2979C16.5734 22.9762 16.8081 23.8366 17.5623 24.0127C18.4538 24.146 19.2707 23.6148 20.0543 23.2697C20.9267 22.9001 21.1361 21.7865 21.9544 21.3628C22.7304 21.1955 23.5096 21.531 24.2714 21.6087C25.224 21.2371 26.3726 20.9995 27.0042 20.1206C27.3473 19.5978 27.1884 18.8804 26.7187 18.4875C24.3097 15.8891 21.795 13.3865 19.1965 10.9778C18.8865 10.6825 18.5261 10.3711 18.0645 10.4254ZM18.2564 12.4529C20.4436 14.4162 22.4558 16.5698 24.4841 18.6899C24.6959 18.9197 24.9101 19.1477 25.1072 19.3904C24.6367 19.6658 24.0702 19.8146 23.5438 19.6025C22.691 19.3815 21.7088 19.4154 20.9399 19.8787C20.1437 20.365 19.7697 21.3023 19.0006 21.8087C18.7915 21.9142 18.5985 22.0111 18.3821 22.0898C18.3068 18.9134 18.2682 15.7297 18.2385 12.5501C18.2617 12.5699 18.2176 12.3997 18.2564 12.4529Z" fill="#2A4B57"/>
<path d="M26.9251 20.7858C26.0084 21.0062 25.0909 21.3689 24.3379 21.9466C23.8184 22.4326 23.6973 23.2572 23.08 23.6428C22.4569 23.7722 21.8117 23.6211 21.2001 23.4947C20.255 23.5001 19.3783 23.9699 18.5804 24.4329C18.0504 24.7347 17.645 25.4047 17.9603 25.9995C18.4109 26.838 19.1992 27.4298 19.8245 28.1319C21.8772 30.1809 23.9135 32.2521 26.0772 34.1844C26.9518 34.9088 28.4492 34.1062 28.4079 32.993C28.5695 29.5964 28.4584 26.1924 28.3508 22.7956C28.357 22.206 28.3168 21.5217 27.7929 21.1414C27.5471 20.953 27.2398 20.7919 26.9251 20.7858ZM26.5274 22.8049C26.6496 25.9971 26.6928 29.2024 26.6238 32.3944C24.3328 30.2762 22.1202 28.0467 20.003 25.7709C19.9298 25.6024 20.3683 25.53 20.5236 25.4233C21.2405 25.2229 21.9621 25.6492 22.6917 25.5669C23.8925 25.5484 24.8081 24.6062 25.3623 23.6257C25.5393 23.2521 25.8529 22.9999 26.2498 22.9004C26.3402 22.8681 26.4394 22.8264 26.5274 22.8049Z" fill="#2A4B57"/>
<path d="M22.1982 5.80516C17.7977 5.83323 13.5173 7.847 10.4557 10.9657C8.52341 12.9847 7.14296 15.5123 6.35132 18.1845C5.93338 19.5249 5.84661 20.9321 5.87661 22.3275C5.85043 24.2308 5.96561 26.1781 6.70519 27.9571C8.43419 32.5976 12.1772 36.4878 16.8471 38.1996C18.8997 38.9616 21.1015 39.3882 23.2958 39.2177C25.9159 39.1046 28.4743 38.2478 30.7506 36.969C32.3291 36.0989 33.7105 34.9177 34.91 33.5786C37.254 31.0038 38.7968 27.6686 39.0872 24.1864C39.3891 20.8834 38.8601 17.4294 37.1428 14.5523C36.2229 12.8697 35.0051 11.3647 33.5734 10.0907C30.9955 7.72579 27.6303 6.2245 24.1511 5.87408C23.5017 5.81995 22.8497 5.79926 22.1982 5.80516ZM22.22 8.06115C23.9541 8.06543 25.7247 8.161 27.3579 8.80823C31.0781 10.1378 34.2586 12.9789 35.8128 16.6387C36.5865 18.3897 36.9386 20.3475 36.8951 22.2655C36.9318 23.9458 36.8149 25.6503 36.2361 27.2448C35.5216 29.3486 34.3061 31.2862 32.6865 32.8057C30.5467 35.0181 27.591 36.4909 24.5399 36.8197C23.1121 36.9091 21.6586 36.9336 20.2235 36.8515C16.996 36.3162 13.9639 34.7172 11.7558 32.2821C9.51208 29.8511 8.17184 26.6025 8.09423 23.2984C7.99318 20.7585 8.31487 18.1292 9.55989 15.868C11.8179 11.5549 16.2949 8.35255 21.1893 8.09686C21.5368 8.07455 21.8702 8.06418 22.22 8.06115Z" fill="#2A4B57"/>
</g>
<defs>
<clipPath id="clip0_260_137">
<rect width="35" height="35" fill="white" transform="translate(5 5)"/>
</clipPath>
</defs>
</svg>
