<?xml version="1.0" encoding="UTF-8" standalone="no"?>
<svg
   width="51"
   height="51"
   viewBox="0 0 51 51"
   fill="none"
   version="1.1"
   id="svg24"
   sodipodi:docname="Insta Icon.svg"
   inkscape:version="1.2 (dc2aeda, 2022-05-15)"
   inkscape:export-filename="Insta Icon.svg"
   inkscape:export-xdpi="96"
   inkscape:export-ydpi="96"
   xmlns:inkscape="http://www.inkscape.org/namespaces/inkscape"
   xmlns:sodipodi="http://sodipodi.sourceforge.net/DTD/sodipodi-0.dtd"
   xmlns="http://www.w3.org/2000/svg"
   xmlns:svg="http://www.w3.org/2000/svg">
  <sodipodi:namedview
     id="namedview26"
     pagecolor="#ffffff"
     bordercolor="#000000"
     borderopacity="0.25"
     inkscape:showpageshadow="2"
     inkscape:pageopacity="0.0"
     inkscape:pagecheckerboard="0"
     inkscape:deskcolor="#d1d1d1"
     showgrid="false"
     inkscape:zoom="10.718504"
     inkscape:cx="27.942332"
     inkscape:cy="20.945087"
     inkscape:window-width="1440"
     inkscape:window-height="783"
     inkscape:window-x="0"
     inkscape:window-y="25"
     inkscape:window-maximized="0"
     inkscape:current-layer="g17" />
  <circle
     cx="25.5"
     cy="25.5"
     r="25.5"
     fill="#9DA083"
     id="circle9" />
  <g
     clip-path="url(#clip0_260_110)"
     id="g17">
    <path
       d="M25.5 12.7912C29.6414 12.7912 30.1318 12.8094 31.7605 12.882C33.2742 12.9486 34.0916 13.2029 34.6365 13.4148C35.357 13.6934 35.8777 14.0324 36.4166 14.5713C36.9615 15.1162 37.2945 15.6309 37.573 16.3514C37.785 16.8963 38.0393 17.7197 38.1059 19.2273C38.1785 20.8621 38.1967 21.3525 38.1967 25.4879C38.1967 29.6293 38.1785 30.1197 38.1059 31.7484C38.0393 33.2621 37.785 34.0795 37.573 34.6244C37.2945 35.3449 36.9555 35.8656 36.4166 36.4045C35.8717 36.9494 35.357 37.2824 34.6365 37.5609C34.0916 37.7729 33.2682 38.0271 31.7605 38.0937C30.1258 38.1664 29.6354 38.1846 25.5 38.1846C21.3586 38.1846 20.8682 38.1664 19.2395 38.0937C17.7258 38.0271 16.9084 37.7729 16.3635 37.5609C15.643 37.2824 15.1223 36.9434 14.5834 36.4045C14.0385 35.8596 13.7055 35.3449 13.427 34.6244C13.215 34.0795 12.9607 33.2561 12.8941 31.7484C12.8215 30.1137 12.8033 29.6232 12.8033 25.4879C12.8033 21.3465 12.8215 20.8561 12.8941 19.2273C12.9607 17.7137 13.215 16.8963 13.427 16.3514C13.7055 15.6309 14.0445 15.1102 14.5834 14.5713C15.1283 14.0264 15.643 13.6934 16.3635 13.4148C16.9084 13.2029 17.7318 12.9486 19.2395 12.882C20.8682 12.8094 21.3586 12.7912 25.5 12.7912ZM25.5 10C21.292 10 20.7652 10.0182 19.1123 10.0908C17.4654 10.1635 16.3332 10.4299 15.3523 10.8113C14.3291 11.2109 13.4633 11.7377 12.6035 12.6035C11.7377 13.4633 11.2109 14.3291 10.8113 15.3463C10.4299 16.3332 10.1635 17.4594 10.0908 19.1062C10.0182 20.7652 10 21.292 10 25.5C10 29.708 10.0182 30.2348 10.0908 31.8877C10.1635 33.5346 10.4299 34.6668 10.8113 35.6477C11.2109 36.6709 11.7377 37.5367 12.6035 38.3965C13.4633 39.2562 14.3291 39.7891 15.3463 40.1826C16.3332 40.5641 17.4594 40.8305 19.1062 40.9031C20.7592 40.9758 21.2859 40.9939 25.4939 40.9939C29.702 40.9939 30.2287 40.9758 31.8816 40.9031C33.5285 40.8305 34.6607 40.5641 35.6416 40.1826C36.6588 39.7891 37.5246 39.2562 38.3844 38.3965C39.2441 37.5367 39.777 36.6709 40.1705 35.6537C40.552 34.6668 40.8184 33.5406 40.891 31.8938C40.9637 30.2408 40.9818 29.7141 40.9818 25.5061C40.9818 21.298 40.9637 20.7713 40.891 19.1184C40.8184 17.4715 40.552 16.3393 40.1705 15.3584C39.7891 14.3291 39.2623 13.4633 38.3965 12.6035C37.5367 11.7437 36.6709 11.2109 35.6537 10.8174C34.6668 10.4359 33.5406 10.1695 31.8938 10.0969C30.2348 10.0182 29.708 10 25.5 10Z"
       fill="#2A4B57"
       id="path11" />
    <path
       d="M25.5 17.5381C21.1043 17.5381 17.5381 21.1043 17.5381 25.5C17.5381 29.8957 21.1043 33.4619 25.5 33.4619C29.8957 33.4619 33.4619 29.8957 33.4619 25.5C33.4619 21.1043 29.8957 17.5381 25.5 17.5381ZM25.5 30.6646C22.6482 30.6646 20.3354 28.3518 20.3354 25.5C20.3354 22.6482 22.6482 20.3354 25.5 20.3354C28.3518 20.3354 30.6646 22.6482 30.6646 25.5C30.6646 28.3518 28.3518 30.6646 25.5 30.6646Z"
       fill="#2A4B57"
       id="path13"
       style="fill:#9da083;fill-opacity:1" />
    <path
       style="fill:#2a4b57;fill-opacity:1"
       d="m 23.385924,12.422479 c -1.952091,0.06127 -3.93033,-0.120519 -5.864202,0.202629 -2.037288,0.335743 -3.872451,1.762647 -4.550032,3.735326 -0.678532,1.896384 -0.522203,3.957457 -0.615657,5.937418 -0.0064,3.4722 -0.05297,6.951848 0.176689,10.417914 0.136077,2.131379 1.374663,4.203407 3.349385,5.10398 2.103661,0.978893 4.495446,0.701261 6.74557,0.804624 3.464932,-0.01942 6.944163,0.130216 10.397311,-0.216738 2.177639,-0.192317 4.214696,-1.634069 4.973335,-3.70822 0.802181,-1.990948 0.467898,-4.188452 0.574423,-6.277974 -0.02352,-3.462862 0.161115,-6.937678 -0.135818,-10.392224 -0.208323,-2.169484 -1.575138,-4.267396 -3.670618,-5.02325 -1.902554,-0.780783 -4.011,-0.493497 -6.013645,-0.580711 -1.788907,-0.0048 -3.577829,-0.0035 -5.366741,-0.0028 z m 1.889256,5.631143 c 1.290431,-0.02892 2.602419,0.155453 3.728678,0.82431 2.750906,1.386405 4.318147,4.504264 3.946061,7.498221 -0.333709,3.442579 -3.410295,6.504858 -6.935473,6.566295 -3.161612,0.357577 -6.328434,-1.697726 -7.468953,-4.633811 -1.282413,-3.072849 -0.220475,-6.924114 2.505506,-8.855869 1.2137,-0.876151 2.709457,-1.465672 4.224181,-1.399146 z"
       id="path1291" />
    <path
       d="m 36.575034,17.226534 c 0,1.547716 -1.25634,2.795 -2.794925,2.795 -1.547756,0 -2.795075,-1.256457 -2.795075,-2.795 0,-1.547716 1.25634,-2.795 2.795075,-2.795 1.538585,0 2.794925,1.256307 2.794925,2.795 z"
       fill="#2A4B57"
       id="path15"
       style="fill:#9da083;fill-opacity:1;stroke-width:1.50368" />
  </g>
  <defs
     id="defs22">
    <clipPath
       id="clip0_260_110">
      <rect
         width="31"
         height="31"
         fill="white"
         transform="translate(10 10)"
         id="rect19" />
    </clipPath>
  </defs>
</svg>
