<?xml version="1.0" encoding="UTF-8" standalone="no"?>
<!-- Created with Inkscape (http://www.inkscape.org/) -->

<svg
   width="47.022663mm"
   height="30.590734mm"
   viewBox="0 0 47.022663 30.590734"
   version="1.1"
   id="svg1"
   xml:space="preserve"
   xmlns="http://www.w3.org/2000/svg"
   xmlns:svg="http://www.w3.org/2000/svg"><defs
     id="defs1" /><g
     id="layer1"
     transform="translate(-81.76391,-26.760205)"><path
       style="fill:#2a4b57;fill-opacity:1"
       d="m 82.498365,56.478034 c -0.74417,-0.79213 -0.81422,-1.15731 -0.67857,-3.53785 0.25211,-4.42436 3.29542,-10.60113 7.48482,-15.19135 2.17928,-2.38777 4.996659,-4.606 5.372609,-4.23005 0.0871,0.0871 -1.03851,1.69094 -2.50139,3.56405 -5.767229,7.38453 -8.668089,12.59021 -8.745989,15.69497 -0.0446,1.77702 -9.2e-4,1.86738 0.95564,1.97737 1.81458,0.20864 4.66176,-1.47627 8.225929,-4.86795 3.07416,-2.92537 9.451246,-10.15238 9.456646,-10.717 10e-4,-0.12634 -0.69177,0.014 -1.53994,0.31192 -0.848176,0.2979 -2.521856,0.62255 -3.719286,0.72145 -1.97322,0.16298 -2.25595,0.0951 -3.01853,-0.72474 -0.75868,-0.81564 -0.80305,-1.04697 -0.4513,-2.35326 0.66647,-2.47508 5.85235,-6.83133 9.207996,-7.73491 1.69166,-0.45552 3.69562,0.10128 4.27748,1.18849 0.21689,0.40527 0.33286,1.38165 0.2577,2.16973 -0.11048,1.15846 -0.0302,1.39917 0.41929,1.25684 1.05483,-0.334 12.17443,-5.0148 14.88244,-6.26476 2.38724,-1.1019 2.76451,-1.18559 3.1246,-0.69314 0.85747,1.17267 0.083,2.38081 -3.79851,5.92526 -5.94048,5.42466 -8.19653,7.9422 -9.96718,11.12243 -1.87211,3.36247 -2.60679,5.55959 -2.28618,6.83701 0.29006,1.15571 1.99642,1.87067 3.78285,1.58501 1.56462,-0.25019 7.35825,-2.69114 10.10209,-4.25618 2.35914,-1.3456 2.67726,-1.32996 2.67726,0.13166 0,0.96365 -0.38187,1.56881 -1.99571,3.1626 -1.09765,1.08401 -1.99572,2.09678 -1.99572,2.25059 0,0.15382 0.5715,0.51846 1.27,0.81031 0.6985,0.29185 1.27,0.64344 1.27,0.7813 0,0.49901 -1.29129,1.21498 -2.21162,1.22626 -1.27344,0.0156 -2.14266,-1.04317 -2.14266,-2.60993 v -1.29433 l -2.81215,1.22776 c -4.17311,1.82194 -7.38779,1.58642 -8.95868,-0.65634 -0.82012,-1.17088 -0.72478,-4.55058 0.19794,-7.01676 1.68723,-4.50954 3.96963,-7.88891 7.87559,-11.66076 l 2.7018,-2.60904 -6.12439,2.55193 c -3.36842,1.40356 -6.41971,2.64 -6.78065,2.74764 -0.36094,0.10763 -1.46942,1.40075 -2.46328,2.87359 -4.366876,6.47143 -12.248305,14.60452 -15.764635,16.26801 -2.52744,1.19567 -4.48268,1.20693 -5.58631,0.0322 z m 18.746025,-20.03952 c 2.79544,-0.92924 3.14149,-1.14894 3.77954,-2.39961 0.38629,-0.7572 0.60489,-1.53441 0.48578,-1.72714 -0.39288,-0.6357 -2.70889,-0.3651 -4.45706,0.52077 -1.900176,0.96289 -5.099086,3.48062 -5.631816,4.43257 -0.30333,0.542 -0.16843,0.58726 1.20236,0.4034 0.84921,-0.1139 2.92875,-0.6674 4.621196,-1.22999 z m 26.83064,7.98093 c -0.13305,-0.13305 -0.2419,-0.71815 -0.2419,-1.30024 0,-1.45793 0.87082,-1.09893 0.9457,0.38987 0.0557,1.10663 -0.18991,1.42426 -0.7038,0.91037 z"
       id="path1" /></g></svg>
