<?xml version="1.0" encoding="UTF-8" standalone="no"?>
<svg
   width="254"
   height="193"
   viewBox="0 0 254 193"
   fill="none"
   version="1.1"
   id="svg29"
   sodipodi:docname="Olive Branch.svg"
   inkscape:export-filename="Olive Branch.svg"
   inkscape:export-xdpi="96"
   inkscape:export-ydpi="96"
   inkscape:version="1.3.2 (091e20e, 2023-11-25)"
   xmlns:inkscape="http://www.inkscape.org/namespaces/inkscape"
   xmlns:sodipodi="http://sodipodi.sourceforge.net/DTD/sodipodi-0.dtd"
   xmlns="http://www.w3.org/2000/svg"
   xmlns:svg="http://www.w3.org/2000/svg">
  <sodipodi:namedview
     id="namedview1"
     pagecolor="#ffffff"
     bordercolor="#000000"
     borderopacity="0.25"
     inkscape:showpageshadow="2"
     inkscape:pageopacity="0.0"
     inkscape:pagecheckerboard="0"
     inkscape:deskcolor="#d1d1d1"
     inkscape:zoom="1.1705985"
     inkscape:cx="105.07446"
     inkscape:cy="79.873672"
     inkscape:window-width="1792"
     inkscape:window-height="1120"
     inkscape:window-x="0"
     inkscape:window-y="0"
     inkscape:window-maximized="0"
     inkscape:current-layer="svg29" />
  <defs
     id="defs29" />
  <path
     d="m 111.59819,60.719474 c -0.9964,0.3274 -1.7233,-0.8753 -0.9645,-1.5993 4.0277,-3.8426 11.2144,-10.462 15.4257,-12.94148 4.793,-2.82192 22.628,-10.10813 29.99,-13.07656 0.93,-0.37512 1.658,0.62453 0.97,1.35442 -6.091,6.46065 -18.24,15.41682 -23.679,18.19232 -4.469,2.2811 -15.7307,6.0957 -21.7422,8.0706 z"
     fill="#9da083"
     fill-opacity="0.3"
     id="path1" />
  <path
     d="m 73.702989,50.645474 c -0.9449,0.2992 -1.6715,-0.7914 -1.0258,-1.5433 3.7649,-4.3845 11.6064,-13.21116 16.2135,-16.22904 5.0533,-3.3102 24.589501,-11.49366 31.765001,-14.45716 0.8767,-0.3621 1.6475,0.5474 1.0901,1.3148 -5.7093,7.8596 -18.6382,18.956995 -24.434401,22.15742 -4.8448,2.67512 -17.629,6.86368 -23.6084,8.75728 z"
     fill="#9da083"
     fill-opacity="0.3"
     id="path2" />
  <path
     d="m 33.878539,38.716449 c -0.95564,0.30491 -1.68721,-0.807214 -1.01823,-1.554665 3.90728,-4.3656 11.89668,-12.99661 16.57168,-15.99021 5.153,-3.2997 24.973,-11.5531996 32.3171,-14.5697996 0.8875,-0.3645 1.6522,0.5645 1.0695,1.3266 -5.9265,7.7514996 -19.1083,18.7119996 -25.0021,21.9118896 -4.9203,2.67133 -17.8228,6.92506 -23.93795,8.876185 z"
     fill="#9da083"
     fill-opacity="0.3"
     id="path3" />
  <path
     d="m 209.06939,66.381074 c 0.503,0.2261 1.095,9e-4 1.321,-0.503 0.226,-0.5038 0.001,-1.0956 -0.503,-1.3217 z M 27.517889,40.673444 c 11.1214,3.21083 29.2132,8.42653 45.7948,13.02683 16.5411,4.5891 31.684001,8.596 36.839001,9.356 l 0.2917,-1.9786 c -4.9986,-0.7369 -19.985201,-4.6962 -36.596001,-9.3046 -16.5703,-4.59718 -34.6528,-9.81017 -45.77473,-13.021154 z m 82.633801,22.38283 c 2.6649,0.3929 8.2202,0.2103 15.1007,-0.2171 6.928,-0.4303 15.34,-1.1202 23.798,-1.7823 8.465,-0.6626 16.978,-1.2977 24.137,-1.6213 7.202,-0.3257 12.906,-0.328 15.826,0.2305 l 0.376,-1.9644 c -3.193,-0.6106 -9.14,-0.5875 -16.292,-0.2641 -7.196,0.3254 -15.74,0.9629 -24.204,1.6254 -8.471,0.6632 -16.858,1.351 -23.765,1.7801 -6.9553,0.432 -12.273,0.5902 -14.685,0.2346 z m 78.8617,-3.3902 c 6.117,1.1697 8.804,1.8185 11.105,2.6727 2.352,0.8733 4.251,1.9335 8.951,4.0423 l 0.818,-1.8247 c -4.523,-2.0296 -6.649,-3.1927 -9.073,-4.0926 -2.475,-0.9191 -5.314,-1.5935 -11.425,-2.7621 z"
     fill="#9da083"
     fill-opacity="0.3"
     id="path4" />
  <path
     d="m 110.61159,65.564674 c -0.6343,-0.8125 0.2219,-1.8911 1.1596,-1.463 5.4102,2.4702 15.6132,7.3369 19.9012,10.7706 4.794,3.8392 19.287,19.7398 24.812,25.856296 0.661,0.7313 -10e-4,1.7648 -0.922,1.4156 -9.053,-3.430196 -23.365,-12.473496 -28.337,-17.013796 -4.1315,-3.7735 -12.5229,-14.3251 -16.6138,-19.5657 z"
     fill="#9da083"
     fill-opacity="0.3"
     id="path5" />
  <path
     d="m 71.273689,55.679774 c -0.4778,-0.9033 0.5286,-1.8217 1.3793,-1.2554 5.0248,3.3448 14.7629,10.0616 18.5433,14.3001 4.1973,4.7061 16.076201,23.4075 20.486301,30.4207 0.5201,0.827 -0.2945,1.737696 -1.1443,1.255796 -8.6366,-4.898596 -21.713501,-16.520496 -25.956301,-21.974296 -3.538,-4.5479 -10.1744,-16.8226 -13.3083,-22.7469 z"
     fill="#9da083"
     fill-opacity="0.3"
     id="path6" />
  <path
     d="m 27.984639,44.203274 c -0.47068,-0.89468 0.51686,-1.80634 1.36902,-1.26246 5.24483,3.34745 15.87673,10.37616 19.92523,14.83296 4.4565,4.9059 17.0297,24.6346 21.5254,31.7602 0.5158,0.8175 -0.2838,1.7339 -1.137,1.2795 -9.1838,-4.8912 -23.2121,-17.0039 -27.7014,-22.701 -3.7648,-4.7778 -10.79499,-17.8527 -13.98125,-23.9092 z"
     fill="#9da083"
     fill-opacity="0.3"
     id="path7" />
  <path
     d="m 171.72439,61.557774 c -0.747,-0.676 -0.138,-1.8631 0.845,-1.6456 4.673,1.0332 12.86,3.0111 16.503,4.9143 4.108,2.1457 16.726,11.7713 22.031,15.865 0.763,0.5886 0.335,1.6983 -0.616,1.5459 -7.606,-1.2186 -19.574,-5.7417 -23.921,-8.4211 -3.554,-2.1902 -10.916,-8.7062 -14.842,-12.2585 z"
     fill="#9da083"
     fill-opacity="0.3"
     id="path8" />
  <path
     d="m 211.04239,67.347974 c -0.716,-0.7483 0.03,-1.8775 0.994,-1.4977 1.907,0.7515 4.071,1.6854 5.213,2.4535 1.52,1.0221 5.643,4.7566 8.318,7.2212 0.728,0.6712 0.188,1.6428 -0.734,1.2792 -3.248,-1.2819 -7.222,-3.4345 -8.824,-4.6672 -1.171,-0.9007 -3.265,-3.0123 -4.967,-4.789 z"
     fill="#9da083"
     fill-opacity="0.3"
     id="path9" />
  <path
     d="m 173.64139,56.864474 c -1.041,0.152 -1.541,-1.1612 -0.661,-1.7368 3.933,-2.5707 10.258,-6.5298 13.861,-7.86578 4.198,-1.55704 19.034,-4.78186 25.81,-6.21878 0.985,-0.20873 1.51,0.88961 0.691,1.47318 -6.038,4.29811 -16.782,9.55658 -21.496,10.99228 -3.803,1.1585 -12.864,2.5763 -18.205,3.3559 z"
     fill="#9da083"
     fill-opacity="0.3"
     id="path10" />
  <path
     d="m 135.96439,64.141874 c -0.763,-0.6877 -0.121,-1.8955 0.875,-1.6423 5.342,1.3585 15.085,4.0205 19.425,6.3795 4.88,2.6521 20.171,14.4228 26.25,19.1486 0.775,0.6028 0.307,1.7256 -0.658,1.5427 -8.748,-1.6585 -22.898,-7.3967 -28.052,-10.6542 -4.256,-2.6897 -13.261,-10.6481 -17.84,-14.7743 z"
     fill="#9da083"
     fill-opacity="0.3"
     id="path11" />
  <path
     d="m 208.67239,68.627774 c -0.535,-0.9637 0.606,-1.8791 1.423,-1.1399 2.183,1.9747 4.712,4.3762 5.984,5.9926 1.7,2.1587 6.268,9.4643 9.041,13.9568 0.556,0.9001 -0.323,1.6911 -1.11,0.9841 -3.679,-3.3067 -8.193,-8.2455 -9.937,-10.691 -1.308,-1.8336 -3.617,-5.8828 -5.401,-9.1026 z"
     fill="#9da083"
     fill-opacity="0.3"
     id="path12" />
  <path
     d="m 135.96439,59.561774 c -0.986,0.1334 -1.509,-1.0708 -0.734,-1.6945 3.811,-3.0673 10.892,-8.5468 14.841,-10.22734 4.41,-1.87634 20.481,-5.5198 27.057,-6.97175 0.929,-0.20518 1.51,0.81975 0.809,1.46387 -5.862,5.38986 -17.4,12.12522 -22.395,13.82422 -4.103,1.3955 -14.277,2.8882 -19.578,3.6055 z"
     fill="#9da083"
     fill-opacity="0.3"
     id="path13" />
  <path
     d="m 113.69289,131.52877 c -0.5127,-0.9376 0.5725,-1.8505 1.4043,-1.1796 2.5399,2.0481 5.7734,4.788 7.2797,6.6079 1.8905,2.2838 6.9835,10.3478 9.8125,14.8888 0.541,0.868 -0.308,1.691 -1.112,1.059 -4.136,-3.244 -9.4302,-8.597 -11.3679,-11.221 -1.4923,-2.021 -4.1456,-6.7333 -6.0166,-10.1551 z"
     fill="#9da083"
     fill-opacity="0.3"
     id="path14" />
  <path
     d="m 133.84239,126.21677 c -1.021,-0.0363 -1.313,-1.3641 -0.395,-1.8148 4.587,-2.254 12.794,-6.0982 17.156,-7.0032 4.928,-1.0224 22.252,-1.7768 29.435,-2.0526 0.976,-0.0375 1.344,1.1116 0.494,1.5925 -7.149,4.0422 -20.267,8.3708 -25.75,9.1292 -4.497,0.6221 -15.233,0.3514 -20.94,0.1489 z"
     fill="#9da083"
     fill-opacity="0.3"
     id="path15" />
  <path
     d="m 108.29159,132.33747 c 0.3887,-0.9954 1.7855,-0.7509 1.8064,0.3176 0.0636,3.2621 0.0432,7.5008 -0.3827,9.8238 -0.5346,2.917 -3.4384,12.001 -5.0982,17.087 -0.3174,0.972 -1.4927,0.851 -1.5264,-0.171 -0.1728,-5.254 0.5247,-12.75 1.2894,-15.921 0.589,-2.442 2.493,-7.5036 3.9115,-11.1364 z"
     fill="#9da083"
     fill-opacity="0.3"
     id="path16" />
  <path
     d="m 116.23479,163.18087 c 0.3838,-0.99 1.7612,-0.758 1.7874,0.303 0.0614,2.489 0.0509,5.446 -0.2488,7.135 -0.3941,2.221 -2.5043,8.902 -3.8465,13.047 -0.3129,0.966 -1.4519,0.854 -1.4804,-0.161 -0.1167,-4.165 0.3708,-9.721 0.9432,-12.135 0.4265,-1.799 1.7512,-5.37 2.8451,-8.189 z"
     fill="#9da083"
     fill-opacity="0.3"
     id="path17" />
  <path
     d="m 112.99319,160.88187 c 0.8682,-0.471 1.7508,0.454 1.2271,1.292 -0.9576,1.532 -2.1353,3.275 -2.9985,4.092 -1.1123,1.051 -4.9365,3.58 -7.4915,5.231 -0.7941,0.513 -1.6036,-0.196 -1.1023,-0.998 1.6104,-2.575 4.1154,-5.552 5.4423,-6.628 0.9621,-0.779 3.117,-2.009 4.9229,-2.989 z"
     fill="#9da083"
     fill-opacity="0.3"
     id="path18" />
  <path
     d="m 104.32769,106.33717 c -1.0483,-0.0332 -1.3201,-1.4119 -0.3594,-1.8327 5.0991,-2.2333 14.1163,-5.995596 18.9216,-6.885196 5.4695,-1.0124 24.7215,-1.7591 32.6545,-2.0307 1.002,-0.0343 1.344,1.154 0.448,1.6046 -7.933,3.987796 -22.413,8.248596 -28.473,8.996496 -4.9805,0.6148 -16.8673,0.3477 -23.1917,0.1475 z"
     fill="#9da083"
     fill-opacity="0.3"
     id="path19" />
  <path
     d="m 31.091869,49.649874 c -0.94695,-0.2129 -1.04265,-1.48534 -0.13917,-1.83994 5.47349,-2.14824 17.37029,-6.59411 23.12489,-7.0253 6.2454,-0.46796 28.0996,2.24522 35.7679,3.23755 0.9225,0.11938 1.1509,1.26672 0.3196,1.68423 -9.0715,4.55636 -26.5597,8.35286 -33.4095,8.30906 -5.7578,-0.0367 -19.5476,-2.9905 -25.66372,-4.3656 z"
     fill="#9da083"
     fill-opacity="0.3"
     id="path20" />
  <path
     d="m 64.067789,77.965974 c -1.0179,-0.0378 -1.3013,-1.364 -0.3907,-1.8203 5.0892,-2.5501 14.8543,-7.2344 19.966,-8.3103 5.7012,-1.1999 26.027301,-2.0793 33.867601,-2.3809 0.9731,-0.0375 1.3497,1.1142 0.5108,1.6087 -8.0086,4.7211 -23.307201,9.8635 -29.637001,10.7517 -5.2531,0.7372 -18.0078,0.3854 -24.3167,0.1511 z"
     fill="#9da083"
     fill-opacity="0.3"
     id="path21" />
  <path
     d="m 25.018219,46.028694 c 0,0 17.55517,18.26988 36.26067,31.91208 10.1577,7.4081 27.2276,19.8468 42.153101,30.449396 m 103.0304,42.5817 c -10.69,-6.379 -66.273,-18.928 -75.302,-23.8075 -4.126,-2.2297 -15.1681,-9.8518 -27.7284,-18.7742 m 0,0 c 0,0 10.1385,25.4377 12.0371,37.4737 1.8986,12.037 0.7362,14.978 0.7362,14.978"
     stroke="#9da083"
     stroke-opacity="0.3"
     stroke-width="2"
     stroke-linecap="round"
     id="path22" />
  <path
     d="m 130.38839,130.36637 c -0.314,-0.9719 0.84,-1.6927 1.579,-0.9876 4.112,3.9241 11.753,11.4731 14.488,15.8921 3.056,4.937 10.795,23.666 13.762,30.942 0.368,0.904 -0.59,1.65 -1.339,1.025 -7.112,-5.933 -17.079,-18.519 -20.059,-24.149 -2.472,-4.67 -6.488,-16.71 -8.431,-22.7225 z"
     fill="#9da083"
     fill-opacity="0.3"
     id="path23" />
  <path
     d="m 60.971689,82.189574 c -0.1399,-1.0118 1.1188,-1.5324 1.7249,-0.7102 3.6016,4.8856 10.5328,14.6189 12.656,19.940596 2.3553,5.9037 7.1634,27.7269 8.9171,35.862 0.2058,0.9546 -0.8708,1.5339 -1.5053,0.7912 -6.4961,-7.6001 -14.8899,-23.1207 -17.0298,-29.7478 -1.7855,-5.5297 -3.8404,-19.462796 -4.7629,-26.135796 z"
     fill="#9da083"
     fill-opacity="0.3"
     id="path24" />
  <path
     d="m 26.743489,52.466974 c -0.08303,-1.0055 1.17992,-1.4563 1.75372,-0.6264 3.58498,5.185 10.84958,16.0575 12.88828,21.8637 2.2401,6.3793 6.1948,29.956596 7.5634,38.348696 0.1553,0.9522 -0.9385,1.4805 -1.5493,0.7337 -6.7056,-8.1988 -15.10902,-25.167596 -17.0606,-32.299596 -1.63958,-5.9919 -3.02611,-21.1249 -3.5955,-28.0201 z"
     fill="#9da083"
     fill-opacity="0.3"
     id="path25" />
  <path
     d="m 191.00139,148.68787 c -0.482,-0.897 0.51,-1.801 1.353,-1.228 2.606,1.768 6.16,4.315 7.705,6.04 1.857,2.073 6.733,9.649 9.322,13.734 0.521,0.823 -0.255,1.674 -1.075,1.146 -4.211,-2.712 -9.677,-7.613 -11.575,-10.044 -1.476,-1.891 -4.03,-6.486 -5.73,-9.648 z"
     fill="#9da083"
     fill-opacity="0.3"
     id="path26" />
  <path
     d="m 191.93039,143.47587 c -0.947,-0.207 -1.045,-1.468 -0.139,-1.814 3.149,-1.201 8.098,-2.95 10.677,-3.145 2.953,-0.2235 12.603,0.918 17.349,1.518 0.923,0.116 1.133,1.222 0.28,1.591 -4.934,2.133 -12.945,3.824 -16.237,3.805 -2.607,-0.015 -8.372,-1.18 -11.93,-1.955 z"
     fill="#9da083"
     fill-opacity="0.3"
     id="path27" />
  <path
     d="m 157.00739,138.68887 c -0.5,-0.9279 0.567,-1.8481 1.409,-1.2131 3.773,2.8481 9.669,7.4811 12.167,10.4321 2.914,3.442 11.073,16.379 14.767,22.302 0.534,0.855 -0.322,1.724 -1.15,1.149 -6.122,-4.253 -14.768,-12.625 -17.746,-16.594 -2.402,-3.203 -6.866,-11.287 -9.447,-16.076 z"
     fill="#9da083"
     fill-opacity="0.3"
     id="path28" />
  <path
     d="m 156.40539,133.69037 c -0.995,-0.2118 -1.05,-1.5584 -0.075,-1.8479 4.416,-1.3113 11.917,-3.3761 15.777,-3.5079 4.399,-0.1503 19.258,1.7828 25.751,2.6645 0.964,0.1308 1.131,1.3095 0.215,1.6343 -6.928,2.4552 -18.828,4.2461 -23.677,4.0798 -3.94,-0.1351 -12.959,-1.951 -17.991,-3.0228 z"
     fill="#9da083"
     fill-opacity="0.3"
     id="path29" />
</svg>
