<?xml version="1.0" encoding="UTF-8" standalone="no"?>
<!-- Created with Inkscape (http://www.inkscape.org/) -->

<svg
   version="1.1"
   id="svg182"
   width="274.30667"
   height="274.26273"
   viewBox="0 0 274.30667 274.26273"
   sodipodi:docname="pencil.png"
   xmlns:inkscape="http://www.inkscape.org/namespaces/inkscape"
   xmlns:sodipodi="http://sodipodi.sourceforge.net/DTD/sodipodi-0.dtd"
   xmlns="http://www.w3.org/2000/svg"
   xmlns:svg="http://www.w3.org/2000/svg">
  <defs
     id="defs186" />
  <sodipodi:namedview
     id="namedview184"
     pagecolor="#ffffff"
     bordercolor="#000000"
     borderopacity="0.25"
     inkscape:showpageshadow="2"
     inkscape:pageopacity="0.0"
     inkscape:pagecheckerboard="0"
     inkscape:deskcolor="#d1d1d1"
     showgrid="false" />
  <g
     inkscape:groupmode="layer"
     inkscape:label="Image"
     id="g188"
     transform="translate(-36.247448,-28.756357)">
    <path
       style="fill:#9da083;fill-opacity:1"
       d="m 38.659951,302.41788 c -0.723043,-0.28926 -1.723057,-1.60019 -2.222252,-2.91317 -0.715914,-1.883 0.469028,-6.23572 5.609855,-20.60702 3.584615,-10.02088 6.738078,-18.44038 7.007696,-18.71 0.269618,-0.26962 7.216393,6.22475 15.437284,14.43193 10.15574,10.13882 14.53579,15.15231 13.66407,15.64015 -2.68456,1.50236 -35.252646,12.8304 -36.682029,12.75898 -0.825,-0.0412 -2.091581,-0.31161 -2.814624,-0.60087 z m 86.047729,-41.57327 c -1.2468,-3.9836 -2.5968,-7.7332 -3,-8.33244 -0.40321,-0.59924 -6.13311,-2.12965 -12.73311,-3.4009 -17.427756,-3.35684 -15.767976,-1.94399 -18.401726,-15.66407 -1.25064,-6.51503 -2.50145,-12.83128 -2.77959,-14.03612 -0.40068,-1.73572 -2.26251,-2.76232 -8.96577,-4.94369 l -8.46009,-2.75306 68.301536,-68.307 c 37.56584,-37.56885 68.64162,-68.193642 69.05727,-68.055092 0.41566,0.13856 13.38104,12.82318 28.81197,28.188052 l 28.05623,27.93614 -68.30718,68.31263 c -37.56895,37.57195 -68.53341,68.30945 -68.80991,68.30555 -0.27651,-0.004 -1.52284,-3.2664 -2.76963,-7.25 z m 134.00415,-181.005542 -28.24957,-28.26263 9.75615,-9.63572 c 5.36589,-5.29966 11.33116,-10.43439 13.25616,-11.41053 4.6823,-2.37431 14.35387,-2.36315 19,0.0219 5.94929,3.05407 32.89551,30.33475 35.6076,36.04958 5.17616,10.90702 2.5343,18.73488 -10.88422,32.25 -5.05113,5.087502 -9.42073,9.250002 -9.71021,9.250002 -0.28948,0 -13.23864,-12.718182 -28.77591,-28.262632 z"
       id="path2808" />
  </g>
</svg>
