<?xml version="1.0" encoding="UTF-8" standalone="no"?>
<svg
   width="51"
   height="51"
   viewBox="0 0 51 51"
   fill="none"
   version="1.1"
   id="svg46"
   sodipodi:docname="Polarsteps Icon.svg"
   inkscape:version="1.2 (dc2aeda, 2022-05-15)"
   inkscape:export-filename="Polarsteps Icon.svg"
   inkscape:export-xdpi="96"
   inkscape:export-ydpi="96"
   xmlns:inkscape="http://www.inkscape.org/namespaces/inkscape"
   xmlns:sodipodi="http://sodipodi.sourceforge.net/DTD/sodipodi-0.dtd"
   xmlns="http://www.w3.org/2000/svg"
   xmlns:svg="http://www.w3.org/2000/svg">
  <sodipodi:namedview
     id="namedview48"
     pagecolor="#ffffff"
     bordercolor="#000000"
     borderopacity="0.25"
     inkscape:showpageshadow="2"
     inkscape:pageopacity="0.0"
     inkscape:pagecheckerboard="0"
     inkscape:deskcolor="#d1d1d1"
     showgrid="false"
     inkscape:zoom="9.5008155"
     inkscape:cx="22.998026"
     inkscape:cy="31.734118"
     inkscape:window-width="1440"
     inkscape:window-height="783"
     inkscape:window-x="0"
     inkscape:window-y="25"
     inkscape:window-maximized="0"
     inkscape:current-layer="svg46" />
  <circle
     cx="25.5"
     cy="25.5"
     r="25.5"
     fill="#9DA083"
     id="circle9" />
  <defs
     id="defs44">
    <clipPath
       id="clip0_260_137">
      <rect
         width="35.7"
         height="35.7"
         fill="white"
         transform="translate(8.16 8.16)"
         id="rect41" />
    </clipPath>
  </defs>
  <path
     style="fill:#2a4b57;fill-opacity:1;stroke-width:0.121375"
     d="M 25.157509,8.3649817 C 19.319857,8.2145497 13.800571,11.678489 10.70458,16.446375 c -1.7272249,2.53671 -2.5666214,5.58331 -2.5417344,8.629753 -0.1326938,3.017754 0.3786816,6.110393 1.9250224,8.752054 2.387383,4.737608 7.221242,8.066271 12.427506,9.079845 2.201257,0.144104 4.427467,0.114275 6.623105,-0.09662 7.020354,-1.324651 13.049045,-7.276534 13.980019,-14.340738 0.220119,-3.226176 0.243365,-6.600992 -1.127736,-9.610546 -2.257479,-5.25572 -7.294346,-9.3071273 -12.989171,-10.3247703 -1.275125,-0.144032 -2.561717,-0.1714 -3.844082,-0.170375 z"
     id="path1026"
     inkscape:label="path1026" />
  <path
     style="fill:#9da083;fill-opacity:1;stroke-width:0.157834"
     d="m 19.347658,11.536333 c -0.972439,0.585191 -0.473328,1.908099 -0.632655,2.821615 0.01187,3.953899 0.04369,7.913834 0.278795,11.860966 0.422435,1.084316 1.70494,0.394353 2.265337,-0.183174 1.416882,-1.091018 2.441454,-3.1519 4.563535,-2.937721 1.470097,-0.113175 3.100305,0.405262 4.476645,-0.228292 0.849802,-0.824782 -0.39901,-1.710045 -0.920037,-2.322323 -3.032067,-3.029637 -6.094434,-6.040648 -9.29357,-8.909708 -0.198671,-0.128257 -0.510362,-0.135016 -0.73805,-0.10136 z"
     id="path401" />
  <path
     style="fill:#9da083;fill-opacity:1;stroke-width:0.157834"
     d="m 31.29645,24.740039 c -2.046829,0.482462 -2.505252,2.91177 -4.369858,3.699895 -1.889041,0.844144 -4.253663,-0.63048 -5.995598,0.713451 -0.725484,0.909521 0.791877,1.624769 1.254504,2.320818 2.935157,2.90153 5.936926,5.776727 9.020153,8.515373 0.995513,0.529998 1.361546,-0.794796 1.168835,-1.502949 -0.03242,-4.346523 0.259308,-8.716958 -0.175694,-13.048779 -0.07194,-0.41067 -0.452951,-0.737267 -0.902342,-0.697809 z"
     id="path403" />
</svg>
